M48
;Layer_Color=9474304
;FILE_FORMAT=2:5
INCH,LZ
;TYPE=PLATED
T1F00S00C0.02000
T2F00S00C0.03150
T3F00S00C0.04000
T4F00S00C0.04200
T5F00S00C0.07874
%
T01
X0393602Y0173622
Y0233071
X03875Y0254232
X0379035Y0272244
X0374311
X0369587
X0364862
Y0276968
X0369587
X0374311
X0379035
Y0281693
X0374311
X0369587
X0364862
Y0286417
X0369587
X0374311
X0379035
X0395669Y0282382
X0396998Y0299459
X0357185Y030374
X0346654Y0299114
X0343602Y0266142
X0336614Y026811
X0327362Y0267028
X0357382Y0255118
X0307972Y0233071
Y0173622
X0222244
Y0233071
X0216535Y0254823
X0270571Y0262894
X0271654Y0273031
X0271358Y0282776
X017185Y0294094
X0164567Y0268012
X0152067Y0268307
X0152165Y0287697
X012313Y0309055
X0136614Y0233071
X010748Y0209154
X0136614Y0173622
T02
X0209646Y0259842
Y0279528
X0284744Y028248
Y0302165
X0302756Y029311
Y0273425
T03
X0185433Y0270374
X0195433
X0114862Y0304468
Y0314469
X0270079Y03125
X0280079
T04
X0156693Y0148502
X0166535
X0242323
X0252165
X0328051
X0337894
X0413681
X0423524
X0423681Y016923
X0413681
X0403681
X0375728Y018423
Y019423
Y020423
Y021423
X0403681Y023923
X0413681
X0423681
X0412992Y0270197
Y0280197
Y0290197
Y0300197
X0338051Y023923
X0328051
X0318051
Y016923
X0328051
X0338051
X0290098Y018423
Y019423
Y020423
Y021423
X0252323Y023923
X0242323
X0232323
X020437Y021423
Y020423
Y019423
Y018423
X0232323Y016923
X0242323
X0252323
X0166693
X0156693
Y023923
X0166693
X0182272Y0289256
X0192272
X0202272
X0212272
X0212283Y0304035
X0202284
X0192283
X0182283
X0172283
X0162284
X0222284
X0232283
X0242284
X0252284
X0248838Y0289173
X0258839
X0238839
X0228838
X0152284Y0304035
X0142283
X0132283
X0146693Y023923
X011874Y021423
Y020423
Y019423
Y018423
X0146693Y016923
X0142283Y0314035
X0132283
X0152284
X0162284
X0172283
X0182283
X0192283
X0202284
X0212283
X0222284
X0232283
X0242284
X0252284
T05
X0136614Y0128423
X0176772
X0222244
X0262402
X0307972
X034813
X0393602
X043376
M30
