%FSLAX25Y25*%
%MOIN*%
G70*
G01*
G75*
G04 Layer_Physical_Order=1*
G04 Layer_Color=255*
%ADD10R,0.04331X0.05512*%
%ADD11R,0.05512X0.04331*%
%ADD12R,0.07900X0.05900*%
%ADD13R,0.07900X0.15000*%
%ADD14R,0.04000X0.05000*%
%ADD15R,0.13780X0.04724*%
%ADD16R,0.05000X0.03600*%
%ADD17R,0.03600X0.03600*%
%ADD18R,0.05000X0.04000*%
%ADD19R,0.02362X0.06102*%
%ADD20O,0.01378X0.08268*%
%ADD21R,0.17716X0.17716*%
%ADD22O,0.00984X0.02953*%
%ADD23O,0.02953X0.00984*%
%ADD24C,0.01000*%
%ADD25C,0.02500*%
%ADD26R,0.06200X0.06200*%
%ADD27C,0.06200*%
%ADD28C,0.05315*%
%ADD29R,0.05315X0.05315*%
%ADD30R,0.06200X0.06200*%
%ADD31C,0.12992*%
%ADD32C,0.06500*%
%ADD33C,0.03000*%
G36*
X443209Y142421D02*
X100707Y142323D01*
X100000Y143030D01*
Y319882D01*
X443209D01*
X443209Y142421D01*
D02*
G37*
%LPC*%
G36*
X136614Y175967D02*
X135717Y175789D01*
X134956Y175280D01*
X134448Y174519D01*
X134269Y173622D01*
X134448Y172725D01*
X134956Y171964D01*
X135289Y171741D01*
Y170743D01*
X135390Y170236D01*
X135677Y169806D01*
X135862Y169683D01*
X137252Y168293D01*
X137682Y168005D01*
X138189Y167904D01*
X143021D01*
X143286Y167263D01*
X143912Y166448D01*
X144726Y165823D01*
X145675Y165430D01*
X146693Y165296D01*
X147711Y165430D01*
X148660Y165823D01*
X149475Y166448D01*
X150100Y167263D01*
X150493Y168212D01*
X150627Y169230D01*
X150493Y170248D01*
X150100Y171197D01*
X149475Y172011D01*
X148660Y172637D01*
X147711Y173030D01*
X146693Y173164D01*
X145675Y173030D01*
X144726Y172637D01*
X143912Y172011D01*
X143286Y171197D01*
X143021Y170555D01*
X138738D01*
X138402Y170891D01*
X138272Y171964D01*
X138781Y172725D01*
X138959Y173622D01*
X138781Y174519D01*
X138272Y175280D01*
X137512Y175789D01*
X136614Y175967D01*
D02*
G37*
G36*
X413681Y173164D02*
X412663Y173030D01*
X411714Y172637D01*
X410900Y172011D01*
X410275Y171197D01*
X409882Y170248D01*
X409748Y169230D01*
X409882Y168212D01*
X410275Y167263D01*
X410900Y166448D01*
X411591Y165918D01*
Y152402D01*
X409781D01*
Y144602D01*
X417581D01*
Y152402D01*
X415771D01*
Y165918D01*
X416463Y166448D01*
X417088Y167263D01*
X417481Y168212D01*
X417615Y169230D01*
X417481Y170248D01*
X417088Y171197D01*
X416463Y172011D01*
X415648Y172637D01*
X414699Y173030D01*
X413681Y173164D01*
D02*
G37*
G36*
X307972Y175967D02*
X307075Y175789D01*
X306314Y175280D01*
X305806Y174519D01*
X305627Y173622D01*
X305806Y172725D01*
X306314Y171964D01*
X306647Y171741D01*
Y170743D01*
X306748Y170236D01*
X307035Y169806D01*
X307220Y169683D01*
X308610Y168293D01*
X309040Y168005D01*
X309547Y167904D01*
X314379D01*
X314645Y167263D01*
X315270Y166448D01*
X316084Y165823D01*
X317033Y165430D01*
X318051Y165296D01*
X319069Y165430D01*
X320018Y165823D01*
X320833Y166448D01*
X321458Y167263D01*
X321851Y168212D01*
X321985Y169230D01*
X321851Y170248D01*
X321458Y171197D01*
X320833Y172011D01*
X320018Y172637D01*
X319069Y173030D01*
X318051Y173164D01*
X317033Y173030D01*
X316084Y172637D01*
X315270Y172011D01*
X314645Y171197D01*
X314379Y170555D01*
X310096D01*
X309760Y170891D01*
X309631Y171964D01*
X310139Y172725D01*
X310317Y173622D01*
X310139Y174519D01*
X309631Y175280D01*
X308870Y175789D01*
X307972Y175967D01*
D02*
G37*
G36*
X222244D02*
X221347Y175789D01*
X220586Y175280D01*
X220078Y174519D01*
X219899Y173622D01*
X220078Y172725D01*
X220586Y171964D01*
X220919Y171741D01*
Y170743D01*
X221020Y170236D01*
X221307Y169806D01*
X221491Y169683D01*
X222882Y168293D01*
X223096Y168150D01*
X223312Y168005D01*
X223312Y168005D01*
X223312Y168005D01*
X223592Y167950D01*
X223819Y167904D01*
X228651D01*
X228916Y167263D01*
X229541Y166448D01*
X230356Y165823D01*
X231305Y165430D01*
X232323Y165296D01*
X233341Y165430D01*
X234290Y165823D01*
X235104Y166448D01*
X235730Y167263D01*
X236123Y168212D01*
X236257Y169230D01*
X236123Y170248D01*
X235730Y171197D01*
X235104Y172011D01*
X234290Y172637D01*
X233341Y173030D01*
X232323Y173164D01*
X231305Y173030D01*
X230356Y172637D01*
X229541Y172011D01*
X228916Y171197D01*
X228651Y170555D01*
X224368D01*
X224032Y170891D01*
X223902Y171964D01*
X224411Y172725D01*
X224589Y173622D01*
X224411Y174519D01*
X223902Y175280D01*
X223142Y175789D01*
X222244Y175967D01*
D02*
G37*
G36*
X328051Y173164D02*
X327033Y173030D01*
X326084Y172637D01*
X325270Y172011D01*
X324645Y171197D01*
X324252Y170248D01*
X324117Y169230D01*
X324252Y168212D01*
X324645Y167263D01*
X325270Y166448D01*
X325961Y165918D01*
Y152402D01*
X324151D01*
Y144602D01*
X331951D01*
Y152402D01*
X330141D01*
Y165918D01*
X330833Y166448D01*
X331458Y167263D01*
X331851Y168212D01*
X331985Y169230D01*
X331851Y170248D01*
X331458Y171197D01*
X330833Y172011D01*
X330018Y172637D01*
X329069Y173030D01*
X328051Y173164D01*
D02*
G37*
G36*
X227969Y273220D02*
X224713D01*
Y270555D01*
X227969D01*
Y273220D01*
D02*
G37*
G36*
X232738Y293073D02*
X224939D01*
Y287148D01*
X223275Y285485D01*
X222988Y285055D01*
X222887Y284547D01*
Y282591D01*
X220657D01*
Y276886D01*
X220457D01*
Y274220D01*
X227969D01*
Y276886D01*
X227769D01*
Y278301D01*
X229077D01*
X230416Y276961D01*
Y272574D01*
X239916D01*
Y280074D01*
X231052D01*
X230563Y280563D01*
X230133Y280851D01*
X229626Y280951D01*
X227769D01*
Y282591D01*
X225538D01*
Y283998D01*
X226813Y285273D01*
X232738D01*
Y293073D01*
D02*
G37*
G36*
X242323Y173164D02*
X241305Y173030D01*
X240356Y172637D01*
X239542Y172011D01*
X238916Y171197D01*
X238523Y170248D01*
X238389Y169230D01*
X238523Y168212D01*
X238916Y167263D01*
X239542Y166448D01*
X240233Y165918D01*
Y152402D01*
X238423D01*
Y144602D01*
X246223D01*
Y152402D01*
X244413D01*
Y165918D01*
X245105Y166448D01*
X245730Y167263D01*
X246123Y168212D01*
X246257Y169230D01*
X246123Y170248D01*
X245730Y171197D01*
X245105Y172011D01*
X244290Y172637D01*
X243341Y173030D01*
X242323Y173164D01*
D02*
G37*
G36*
X223713Y273220D02*
X220457D01*
Y270555D01*
X223713D01*
Y273220D01*
D02*
G37*
G36*
X289681Y271941D02*
X287016D01*
Y268685D01*
X289681D01*
Y271941D01*
D02*
G37*
G36*
X234666Y266724D02*
X230216D01*
Y263274D01*
X234666D01*
Y266724D01*
D02*
G37*
G36*
X240116D02*
X235666D01*
Y263274D01*
X240116D01*
Y266724D01*
D02*
G37*
G36*
X186874Y262358D02*
X184374D01*
Y259358D01*
X186874D01*
Y262358D01*
D02*
G37*
G36*
X190374D02*
X187874D01*
Y259358D01*
X190374D01*
Y262358D01*
D02*
G37*
G36*
X393602Y175967D02*
X392705Y175789D01*
X391944Y175280D01*
X391436Y174519D01*
X391257Y173622D01*
X391436Y172725D01*
X391944Y171964D01*
X392277Y171741D01*
Y170743D01*
X392378Y170236D01*
X392665Y169806D01*
X392850Y169683D01*
X394240Y168293D01*
X394670Y168005D01*
X395177Y167904D01*
X400009D01*
X400275Y167263D01*
X400900Y166448D01*
X401714Y165823D01*
X402663Y165430D01*
X403681Y165296D01*
X404699Y165430D01*
X405648Y165823D01*
X406463Y166448D01*
X407088Y167263D01*
X407481Y168212D01*
X407615Y169230D01*
X407481Y170248D01*
X407088Y171197D01*
X406463Y172011D01*
X405648Y172637D01*
X404699Y173030D01*
X403681Y173164D01*
X402663Y173030D01*
X401714Y172637D01*
X400900Y172011D01*
X400275Y171197D01*
X400009Y170555D01*
X395726D01*
X395390Y170891D01*
X395261Y171964D01*
X395769Y172725D01*
X395948Y173622D01*
X395769Y174519D01*
X395261Y175280D01*
X394500Y175789D01*
X393602Y175967D01*
D02*
G37*
G36*
X234666Y271174D02*
X230216D01*
Y267724D01*
X234666D01*
Y271174D01*
D02*
G37*
G36*
X240116D02*
X235666D01*
Y267724D01*
X240116D01*
Y271174D01*
D02*
G37*
G36*
X223614Y269209D02*
X220358D01*
Y266543D01*
X223614D01*
Y269209D01*
D02*
G37*
G36*
X227870D02*
X224614D01*
Y266543D01*
X227870D01*
Y269209D01*
D02*
G37*
G36*
X151665Y287197D02*
X149716D01*
X149810Y286721D01*
X150363Y285894D01*
X151190Y285342D01*
X151665Y285247D01*
Y287197D01*
D02*
G37*
G36*
X154615D02*
X152665D01*
Y285247D01*
X153141Y285342D01*
X153968Y285894D01*
X154520Y286721D01*
X154615Y287197D01*
D02*
G37*
G36*
X211772Y288756D02*
X208202D01*
X208277Y288186D01*
X208690Y287188D01*
X209347Y286332D01*
X210204Y285675D01*
X211201Y285262D01*
X211772Y285187D01*
Y288756D01*
D02*
G37*
G36*
X216341D02*
X212772D01*
Y285187D01*
X213342Y285262D01*
X214339Y285675D01*
X215196Y286332D01*
X215853Y287188D01*
X216266Y288186D01*
X216341Y288756D01*
D02*
G37*
G36*
X171850Y296440D02*
X170953Y296261D01*
X170192Y295753D01*
X169684Y294992D01*
X169505Y294094D01*
X169684Y293197D01*
X170192Y292436D01*
X170953Y291928D01*
X171850Y291749D01*
X172243Y291828D01*
X175752Y288319D01*
X176182Y288031D01*
X176689Y287930D01*
X178372D01*
Y285356D01*
X186172D01*
Y293156D01*
X178372D01*
Y290581D01*
X177238D01*
X174117Y293702D01*
X174196Y294094D01*
X174017Y294992D01*
X173509Y295753D01*
X172748Y296261D01*
X171850Y296440D01*
D02*
G37*
G36*
X338051Y173164D02*
X337033Y173030D01*
X336084Y172637D01*
X335270Y172011D01*
X334645Y171197D01*
X334252Y170248D01*
X334118Y169230D01*
X334252Y168212D01*
X334645Y167263D01*
X335270Y166448D01*
X335961Y165918D01*
Y151922D01*
X335927Y151908D01*
X335112Y151283D01*
X334487Y150468D01*
X334094Y149520D01*
X333960Y148502D01*
X334094Y147484D01*
X334487Y146535D01*
X335112Y145720D01*
X335927Y145095D01*
X336876Y144702D01*
X337894Y144568D01*
X338912Y144702D01*
X339860Y145095D01*
X340675Y145720D01*
X341300Y146535D01*
X341693Y147484D01*
X341827Y148502D01*
X341693Y149520D01*
X341300Y150468D01*
X340675Y151283D01*
X340141Y151693D01*
Y165918D01*
X340833Y166448D01*
X341458Y167263D01*
X341851Y168212D01*
X341985Y169230D01*
X341851Y170248D01*
X341458Y171197D01*
X340833Y172011D01*
X340018Y172637D01*
X339069Y173030D01*
X338051Y173164D01*
D02*
G37*
G36*
X252323D02*
X251305Y173030D01*
X250356Y172637D01*
X249541Y172011D01*
X248916Y171197D01*
X248523Y170248D01*
X248389Y169230D01*
X248523Y168212D01*
X248916Y167263D01*
X249541Y166448D01*
X250233Y165918D01*
Y151922D01*
X250199Y151908D01*
X249384Y151283D01*
X248759Y150468D01*
X248366Y149520D01*
X248232Y148502D01*
X248366Y147484D01*
X248759Y146535D01*
X249384Y145720D01*
X250199Y145095D01*
X251147Y144702D01*
X252165Y144568D01*
X253184Y144702D01*
X254132Y145095D01*
X254947Y145720D01*
X255572Y146535D01*
X255965Y147484D01*
X256099Y148502D01*
X255965Y149520D01*
X255572Y150468D01*
X254947Y151283D01*
X254413Y151693D01*
Y165918D01*
X255104Y166448D01*
X255730Y167263D01*
X256123Y168212D01*
X256257Y169230D01*
X256123Y170248D01*
X255730Y171197D01*
X255104Y172011D01*
X254290Y172637D01*
X253341Y173030D01*
X252323Y173164D01*
D02*
G37*
G36*
X412492Y289697D02*
X408923D01*
X408998Y289127D01*
X409411Y288129D01*
X410068Y287273D01*
X410924Y286616D01*
X411922Y286202D01*
X412492Y286127D01*
Y289697D01*
D02*
G37*
G36*
X417062D02*
X413492D01*
Y286127D01*
X414062Y286202D01*
X415060Y286616D01*
X415916Y287273D01*
X416573Y288129D01*
X416987Y289127D01*
X417062Y289697D01*
D02*
G37*
G36*
X248838Y293107D02*
X247820Y292973D01*
X246872Y292580D01*
X246057Y291955D01*
X245432Y291140D01*
X245039Y290191D01*
X244905Y289173D01*
X245039Y288155D01*
X245432Y287206D01*
X246057Y286392D01*
X246872Y285767D01*
X247515Y285500D01*
X247614Y285005D01*
X247901Y284575D01*
X250229Y282247D01*
X249815Y281247D01*
X244348D01*
X240880Y284715D01*
X240854Y285087D01*
X241053Y285956D01*
X241620Y286392D01*
X242245Y287206D01*
X242638Y288155D01*
X242772Y289173D01*
X242638Y290191D01*
X242245Y291140D01*
X241620Y291955D01*
X240805Y292580D01*
X239857Y292973D01*
X238839Y293107D01*
X237820Y292973D01*
X236872Y292580D01*
X236057Y291955D01*
X235432Y291140D01*
X235039Y290191D01*
X234905Y289173D01*
X235039Y288155D01*
X235432Y287206D01*
X236057Y286392D01*
X236872Y285767D01*
X237513Y285501D01*
Y284882D01*
X237614Y284375D01*
X237901Y283945D01*
X242862Y278984D01*
X243292Y278697D01*
X243799Y278596D01*
X265317D01*
X266588Y277325D01*
Y274508D01*
X266689Y274001D01*
X266976Y273571D01*
X268453Y272094D01*
X268882Y271807D01*
X269390Y271706D01*
X269773D01*
X269995Y271373D01*
X270756Y270865D01*
X271654Y270686D01*
X272551Y270865D01*
X273312Y271373D01*
X273820Y272134D01*
X273999Y273031D01*
X273820Y273929D01*
X273312Y274690D01*
X272551Y275198D01*
X271654Y275377D01*
X270756Y275198D01*
X270122Y274774D01*
X269493Y275092D01*
X269239Y275295D01*
Y277874D01*
X269138Y278381D01*
X268851Y278811D01*
X267212Y280450D01*
X267626Y281450D01*
X269478D01*
X269700Y281117D01*
X270461Y280609D01*
X271358Y280431D01*
X272256Y280609D01*
X273017Y281117D01*
X273525Y281878D01*
X273703Y282776D01*
X273525Y283673D01*
X273017Y284434D01*
X272256Y284942D01*
X271358Y285121D01*
X270461Y284942D01*
X269700Y284434D01*
X269478Y284101D01*
X260054D01*
X259340Y284790D01*
X259333Y285103D01*
X259909Y285179D01*
X260244Y285317D01*
X260906Y285592D01*
X261763Y286249D01*
X262420Y287105D01*
X262833Y288103D01*
X262908Y288673D01*
X254769D01*
X254844Y288103D01*
X255257Y287105D01*
X255914Y286249D01*
X256771Y285592D01*
X257433Y285317D01*
X257768Y285179D01*
X258344Y285103D01*
X258337Y284790D01*
X257623Y284101D01*
X252124D01*
X251286Y284939D01*
X251409Y286230D01*
X251620Y286392D01*
X252245Y287206D01*
X252638Y288155D01*
X252772Y289173D01*
X252638Y290191D01*
X252245Y291140D01*
X251620Y291955D01*
X250805Y292580D01*
X249857Y292973D01*
X248838Y293107D01*
D02*
G37*
G36*
X423681Y173164D02*
X422663Y173030D01*
X421714Y172637D01*
X420900Y172011D01*
X420275Y171197D01*
X419882Y170248D01*
X419747Y169230D01*
X419882Y168212D01*
X420275Y167263D01*
X420900Y166448D01*
X421591Y165918D01*
Y151922D01*
X421557Y151908D01*
X420742Y151283D01*
X420117Y150468D01*
X419724Y149520D01*
X419590Y148502D01*
X419724Y147484D01*
X420117Y146535D01*
X420742Y145720D01*
X421557Y145095D01*
X422506Y144702D01*
X423524Y144568D01*
X424542Y144702D01*
X425490Y145095D01*
X426305Y145720D01*
X426930Y146535D01*
X427323Y147484D01*
X427457Y148502D01*
X427323Y149520D01*
X426930Y150468D01*
X426305Y151283D01*
X425771Y151693D01*
Y165918D01*
X426463Y166448D01*
X427088Y167263D01*
X427481Y168212D01*
X427615Y169230D01*
X427481Y170248D01*
X427088Y171197D01*
X426463Y172011D01*
X425648Y172637D01*
X424699Y173030D01*
X423681Y173164D01*
D02*
G37*
G36*
X209146Y279028D02*
X205988D01*
Y275870D01*
X209146D01*
Y279028D01*
D02*
G37*
G36*
X289681Y276197D02*
X287016D01*
Y272941D01*
X289681D01*
Y276197D01*
D02*
G37*
G36*
X156693Y173164D02*
X155675Y173030D01*
X154726Y172637D01*
X153911Y172011D01*
X153286Y171197D01*
X152893Y170248D01*
X152759Y169230D01*
X152893Y168212D01*
X153286Y167263D01*
X153911Y166448D01*
X154603Y165918D01*
Y152402D01*
X152793D01*
Y144602D01*
X160593D01*
Y152402D01*
X158783D01*
Y165918D01*
X159475Y166448D01*
X160100Y167263D01*
X160493Y168212D01*
X160627Y169230D01*
X160493Y170248D01*
X160100Y171197D01*
X159475Y172011D01*
X158660Y172637D01*
X157711Y173030D01*
X156693Y173164D01*
D02*
G37*
G36*
X213303Y279028D02*
X210146D01*
Y275870D01*
X213303D01*
Y279028D01*
D02*
G37*
G36*
X209146Y283185D02*
X205988D01*
Y280028D01*
X209146D01*
Y283185D01*
D02*
G37*
G36*
X213303D02*
X210146D01*
Y280028D01*
X213303D01*
Y283185D01*
D02*
G37*
G36*
X398917Y316385D02*
X384842D01*
X384335Y316284D01*
X383905Y315996D01*
X379870Y311961D01*
X379583Y311531D01*
X379482Y311024D01*
Y300339D01*
X379166Y299902D01*
X378334Y299347D01*
X377854Y299341D01*
X377374Y299347D01*
X377374D01*
D01*
X377374D01*
X376870Y299447D01*
X376366Y299347D01*
Y299347D01*
X376366Y299347D01*
D01*
X375886Y299342D01*
X375406Y299347D01*
X375406D01*
D01*
X375406D01*
X374902Y299447D01*
X374397Y299347D01*
Y299347D01*
X374397Y299347D01*
D01*
X373917Y299341D01*
X373437Y299347D01*
Y299347D01*
X373437D01*
X373437Y299347D01*
X372933Y299447D01*
X372429Y299347D01*
Y299347D01*
X372429Y299347D01*
D01*
X371949Y299342D01*
X371469Y299347D01*
X371469D01*
D01*
X371469D01*
X370965Y299447D01*
X370461Y299347D01*
Y299347D01*
X370461Y299347D01*
D01*
X369980Y299341D01*
X369500Y299347D01*
X369500D01*
D01*
X369500D01*
X368996Y299447D01*
X368492Y299347D01*
Y299347D01*
X368492Y299347D01*
D01*
X368012Y299342D01*
X367532Y299347D01*
X367532D01*
D01*
X367532D01*
X367028Y299447D01*
X366524Y299347D01*
Y299347D01*
X366524Y299347D01*
D01*
X366043Y299341D01*
X365563Y299347D01*
X365563D01*
D01*
X365563D01*
X365059Y299447D01*
X364555Y299347D01*
Y299347D01*
X364555Y299347D01*
D01*
X364075Y299342D01*
X363595Y299347D01*
X363595D01*
D01*
X363595D01*
X363091Y299447D01*
X362586Y299347D01*
Y299347D01*
X362586Y299347D01*
D01*
X362106Y299341D01*
X361626Y299347D01*
X361626D01*
D01*
X361626D01*
X361122Y299447D01*
X360618Y299347D01*
Y299347D01*
X360618Y299347D01*
D01*
X360138Y299342D01*
X359658Y299347D01*
X358826Y299902D01*
X358511Y300339D01*
Y301860D01*
X358843Y302082D01*
X359352Y302843D01*
X359530Y303740D01*
X359352Y304638D01*
X358843Y305398D01*
X358083Y305907D01*
X357185Y306085D01*
X356288Y305907D01*
X355527Y305398D01*
X355018Y304638D01*
X354840Y303740D01*
X355018Y302843D01*
X355527Y302082D01*
X355860Y301860D01*
Y297146D01*
Y296488D01*
X355118Y295616D01*
X354634D01*
Y294094D01*
X353634D01*
Y295616D01*
X353150D01*
X352567Y295500D01*
X352074Y295170D01*
X351744Y294677D01*
X351628Y294094D01*
X350737Y293451D01*
X346117D01*
X345609Y293350D01*
X345180Y293063D01*
X341764Y289647D01*
X340764Y290061D01*
Y292020D01*
X337598D01*
Y292520D01*
X337098D01*
Y296276D01*
X334433D01*
Y296076D01*
X333018D01*
Y298762D01*
X337795Y303539D01*
X345233D01*
Y309863D01*
X329854D01*
Y303539D01*
X332739D01*
X333122Y302615D01*
X330755Y300248D01*
X330468Y299818D01*
X330367Y299311D01*
Y296076D01*
X328727D01*
Y288964D01*
X330367D01*
Y288189D01*
X330468Y287682D01*
X330633Y287435D01*
X330315Y286435D01*
X323412D01*
X323078Y286770D01*
Y288964D01*
X324717D01*
Y296076D01*
X323078D01*
Y299705D01*
X322977Y300212D01*
X322689Y300642D01*
X320716Y302615D01*
X321099Y303539D01*
X323583D01*
Y309863D01*
X308204D01*
Y303539D01*
X316044D01*
X320427Y299156D01*
Y296076D01*
X319012D01*
Y296276D01*
X316346D01*
Y292520D01*
Y288764D01*
X319012D01*
Y288964D01*
X320427D01*
Y286220D01*
X320527Y285713D01*
X320815Y285283D01*
X320876Y285222D01*
X320494Y284298D01*
X316240D01*
X315733Y284197D01*
X315303Y283910D01*
X311956Y280563D01*
X311669Y280133D01*
X311568Y279626D01*
Y273963D01*
X306172D01*
X306124Y274328D01*
X305776Y275169D01*
X305222Y275891D01*
X304500Y276445D01*
X303659Y276794D01*
X302756Y276912D01*
X301853Y276794D01*
X301012Y276445D01*
X300290Y275891D01*
X299736Y275169D01*
X299387Y274328D01*
X299269Y273425D01*
X299387Y272522D01*
X299561Y272104D01*
X298964Y271508D01*
X298677Y271078D01*
X298576Y270571D01*
Y268758D01*
X294038Y264219D01*
X290465D01*
Y265859D01*
X283354D01*
Y259928D01*
Y258314D01*
X281607D01*
Y259928D01*
Y265859D01*
X280368D01*
X279954Y266859D01*
X281547Y268452D01*
X281835Y268882D01*
X281835Y268885D01*
X283350D01*
Y268685D01*
X286016D01*
Y272441D01*
Y276197D01*
X283350D01*
Y275997D01*
X281936D01*
Y277797D01*
X283423Y279285D01*
X283841Y279112D01*
X284744Y278993D01*
X285647Y279112D01*
X286488Y279460D01*
X287210Y280014D01*
X287764Y280737D01*
X288113Y281578D01*
X288231Y282480D01*
X288113Y283383D01*
X287764Y284224D01*
X287210Y284946D01*
X286488Y285500D01*
X285647Y285849D01*
X284744Y285967D01*
X283841Y285849D01*
X283000Y285500D01*
X282278Y284946D01*
X281724Y284224D01*
X281376Y283383D01*
X281257Y282480D01*
X281376Y281578D01*
X281549Y281159D01*
X279673Y279283D01*
X279386Y278854D01*
X279285Y278346D01*
Y275997D01*
X277645D01*
Y268885D01*
X277645Y268885D01*
X277645D01*
X277336Y267990D01*
X277114Y267768D01*
X276827Y267338D01*
X276726Y266831D01*
Y265859D01*
X274495D01*
Y264219D01*
X272451D01*
X272229Y264552D01*
X271468Y265060D01*
X270571Y265239D01*
X269673Y265060D01*
X268913Y264552D01*
X268404Y263791D01*
X268226Y262894D01*
X268404Y261996D01*
X268913Y261235D01*
X269673Y260727D01*
X270571Y260549D01*
X271468Y260727D01*
X272229Y261235D01*
X272451Y261568D01*
X274495D01*
Y259928D01*
Y258314D01*
X265463D01*
X264716Y258924D01*
X264716Y259314D01*
Y275524D01*
X255216D01*
Y259314D01*
X255216Y258924D01*
X254469Y258314D01*
X254469Y258314D01*
X247399D01*
X246652Y259062D01*
X246221Y259349D01*
X245714Y259450D01*
X239916D01*
Y261874D01*
X230416D01*
Y261632D01*
X229416Y261250D01*
X229247Y261362D01*
X228740Y261463D01*
X227670D01*
Y262878D01*
X227870D01*
Y265543D01*
X220358D01*
Y262878D01*
X220558D01*
Y260720D01*
X216928Y257090D01*
X216535Y257168D01*
X215638Y256989D01*
X214877Y256481D01*
X214369Y255720D01*
X214190Y254823D01*
X214369Y253925D01*
X214877Y253165D01*
X215638Y252656D01*
X216535Y252478D01*
X217433Y252656D01*
X218194Y253165D01*
X218702Y253925D01*
X218881Y254823D01*
X218802Y255215D01*
X220760Y257172D01*
X227670D01*
Y257919D01*
X228670Y258333D01*
X229816Y257187D01*
X230246Y256900D01*
X230416Y256866D01*
Y254374D01*
X239916D01*
Y256799D01*
X245165D01*
X245913Y256051D01*
X246343Y255764D01*
X246850Y255663D01*
X274495D01*
Y254602D01*
X271190D01*
X270683Y254501D01*
X270252Y254214D01*
X264319Y248280D01*
X264031Y247850D01*
X263931Y247343D01*
Y246911D01*
X262930Y246497D01*
X260852Y248575D01*
X260422Y248862D01*
X259915Y248963D01*
X233731D01*
X233224Y248862D01*
X232794Y248575D01*
X232323Y248104D01*
X232246Y248181D01*
X232053Y248310D01*
X231816Y248469D01*
X231816Y248469D01*
X231816Y248469D01*
X231571Y248517D01*
X231309Y248569D01*
X223438D01*
Y250013D01*
X216326D01*
Y244082D01*
Y238176D01*
X218556D01*
Y235433D01*
X218657Y234926D01*
X218945Y234496D01*
X219977Y233463D01*
X219899Y233071D01*
X220078Y232173D01*
X220586Y231413D01*
X221347Y230904D01*
X222244Y230726D01*
X223142Y230904D01*
X223902Y231413D01*
X223952Y231487D01*
X225030Y231560D01*
X228045Y228545D01*
Y227330D01*
X226770D01*
Y222130D01*
X231970D01*
Y223405D01*
X234321D01*
X236933Y220793D01*
X237363Y220505D01*
X237870Y220405D01*
X239023D01*
Y218930D01*
X240998D01*
Y217779D01*
X238886Y215667D01*
X238598Y215237D01*
X238497Y214730D01*
Y211711D01*
X237842D01*
Y204009D01*
X241804D01*
Y211711D01*
X241148D01*
Y214181D01*
X242780Y215813D01*
X243598Y215237D01*
X243497Y214730D01*
Y211711D01*
X242842D01*
Y204009D01*
X246804D01*
Y211711D01*
X246148D01*
Y214181D01*
X247372Y215405D01*
X249317D01*
X249699Y214481D01*
X248886Y213667D01*
X248598Y213237D01*
X248498Y212730D01*
Y211711D01*
X247842D01*
Y204009D01*
X249921D01*
X250303Y203085D01*
X249331Y202113D01*
X236069D01*
X230696Y207486D01*
Y214630D01*
X231970D01*
Y219830D01*
X226770D01*
Y214630D01*
X228045D01*
Y207486D01*
X226215Y205656D01*
X208001D01*
X207777Y206197D01*
X207152Y207012D01*
X206337Y207637D01*
X205388Y208030D01*
X204370Y208164D01*
X203352Y208030D01*
X202403Y207637D01*
X201589Y207012D01*
X200964Y206197D01*
X200571Y205248D01*
X200437Y204230D01*
X200571Y203212D01*
X200964Y202263D01*
X201589Y201448D01*
X202403Y200823D01*
X203352Y200430D01*
X204370Y200296D01*
X205388Y200430D01*
X206337Y200823D01*
X207152Y201448D01*
X207777Y202263D01*
X208084Y203005D01*
X218319D01*
X218733Y202005D01*
X218425Y201697D01*
X218425Y201697D01*
X218425Y201697D01*
X218264Y201457D01*
X218138Y201267D01*
X218138Y201267D01*
X218138Y201267D01*
X218085Y201003D01*
X218037Y200760D01*
X218037Y200760D01*
X218037Y200760D01*
Y199363D01*
X216562D01*
Y197555D01*
X214370D01*
X213863Y197455D01*
X213433Y197167D01*
X211821Y195555D01*
X208043D01*
X207777Y196197D01*
X207152Y197011D01*
X206337Y197637D01*
X205388Y198030D01*
X204370Y198164D01*
X203352Y198030D01*
X202403Y197637D01*
X201589Y197011D01*
X200964Y196197D01*
X200698Y195555D01*
X199151D01*
X198644Y195455D01*
X198214Y195167D01*
X198060Y195013D01*
X197060Y195427D01*
Y195682D01*
X189948D01*
Y189976D01*
X189748D01*
Y187311D01*
X197260D01*
Y189976D01*
X197060D01*
Y191391D01*
X197638D01*
X198145Y191492D01*
X198575Y191779D01*
X199700Y192904D01*
X200698D01*
X200964Y192263D01*
X201589Y191448D01*
X202403Y190823D01*
X203352Y190430D01*
X204370Y190296D01*
X205388Y190430D01*
X206337Y190823D01*
X207152Y191448D01*
X207777Y192263D01*
X208043Y192904D01*
X212370D01*
X212877Y193005D01*
X213307Y193293D01*
X214919Y194904D01*
X216562D01*
Y192763D01*
X218045D01*
Y189324D01*
X216562D01*
Y182724D01*
X222162D01*
Y189324D01*
X220696D01*
Y192763D01*
X222162D01*
Y199363D01*
X222162D01*
X221778Y200363D01*
X221845Y200446D01*
X229096D01*
X229152Y200363D01*
X228617Y199363D01*
X224562D01*
Y192763D01*
X230162D01*
Y194738D01*
X231636D01*
X234304Y192069D01*
Y182370D01*
X233590Y181971D01*
X233331Y181929D01*
X230162Y185098D01*
Y189324D01*
X224562D01*
Y182724D01*
X228788D01*
X233740Y177771D01*
X233740Y177771D01*
X234026Y177580D01*
X234170Y177484D01*
X234677Y177383D01*
X234677D01*
X234677D01*
X248984D01*
X249491Y177484D01*
X249921Y177771D01*
X250760Y178610D01*
X251048Y179040D01*
X251149Y179547D01*
Y181953D01*
X251243Y182084D01*
X252149Y182656D01*
X252642Y182549D01*
X252643D01*
X252721Y182549D01*
X254323D01*
Y186600D01*
Y190651D01*
X252721D01*
X252643Y190651D01*
X252642D01*
X251800Y190468D01*
X251535Y191451D01*
X252321Y192237D01*
X263622D01*
X264129Y192338D01*
X264560Y192625D01*
X269047Y197114D01*
X269335Y197544D01*
X269436Y198051D01*
Y246695D01*
X272892Y250151D01*
X301112D01*
X302054Y250012D01*
X302054Y249151D01*
Y244082D01*
Y238176D01*
X304285D01*
Y235433D01*
X304386Y234926D01*
X304673Y234496D01*
X305705Y233463D01*
X305627Y233071D01*
X305806Y232173D01*
X306314Y231413D01*
X307075Y230904D01*
X307972Y230726D01*
X308870Y230904D01*
X309631Y231413D01*
X309680Y231487D01*
X310758Y231560D01*
X313773Y228545D01*
Y227330D01*
X312498D01*
Y222130D01*
X317698D01*
Y223405D01*
X320049D01*
X322661Y220793D01*
X323091Y220505D01*
X323598Y220405D01*
X324751D01*
Y218930D01*
X326726D01*
Y217779D01*
X324614Y215667D01*
X324327Y215237D01*
X324226Y214730D01*
Y211711D01*
X323570D01*
Y204009D01*
X327532D01*
Y211711D01*
X326877D01*
Y214181D01*
X328509Y215813D01*
X329327Y215237D01*
X329226Y214730D01*
Y211711D01*
X328570D01*
Y204009D01*
X332532D01*
Y211711D01*
X331877D01*
Y214181D01*
X333100Y215405D01*
X335045D01*
X335427Y214481D01*
X334614Y213667D01*
X334327Y213237D01*
X334226Y212730D01*
Y211711D01*
X333570D01*
Y204009D01*
X335649D01*
X336031Y203085D01*
X335060Y202113D01*
X321797D01*
X316424Y207486D01*
Y214630D01*
X317698D01*
Y219830D01*
X312498D01*
Y214630D01*
X313773D01*
Y207486D01*
X311943Y205656D01*
X293729D01*
X293505Y206197D01*
X292880Y207012D01*
X292065Y207637D01*
X291116Y208030D01*
X290098Y208164D01*
X289080Y208030D01*
X288132Y207637D01*
X287317Y207012D01*
X286692Y206197D01*
X286299Y205248D01*
X286165Y204230D01*
X286299Y203212D01*
X286692Y202263D01*
X287317Y201448D01*
X288132Y200823D01*
X289080Y200430D01*
X290098Y200296D01*
X291116Y200430D01*
X292065Y200823D01*
X292880Y201448D01*
X293505Y202263D01*
X293812Y203005D01*
X303850D01*
X304265Y202005D01*
X304153Y201894D01*
X303866Y201464D01*
X303765Y200957D01*
Y199560D01*
X302291D01*
Y197555D01*
X300098D01*
X299591Y197455D01*
X299161Y197167D01*
X297549Y195555D01*
X293771D01*
X293505Y196197D01*
X292880Y197011D01*
X292065Y197637D01*
X291116Y198030D01*
X290098Y198164D01*
X289080Y198030D01*
X288132Y197637D01*
X287317Y197011D01*
X286692Y196197D01*
X286426Y195555D01*
X284880D01*
X284372Y195455D01*
X283942Y195167D01*
X283788Y195013D01*
X282788Y195427D01*
Y195682D01*
X275676D01*
Y189976D01*
X275476D01*
Y187311D01*
X282988D01*
Y189976D01*
X282788D01*
Y191391D01*
X283366D01*
X283873Y191492D01*
X284303Y191779D01*
X285429Y192904D01*
X286426D01*
X286692Y192263D01*
X287317Y191448D01*
X288132Y190823D01*
X289080Y190430D01*
X290098Y190296D01*
X291116Y190430D01*
X292065Y190823D01*
X292880Y191448D01*
X293505Y192263D01*
X293771Y192904D01*
X298098D01*
X298606Y193005D01*
X299036Y193293D01*
X300647Y194904D01*
X302291D01*
Y192960D01*
X303773D01*
Y189521D01*
X302291D01*
Y182921D01*
X307891D01*
Y189521D01*
X306424D01*
Y192960D01*
X307891D01*
Y199560D01*
X307891D01*
X307506Y200560D01*
X307573Y200643D01*
X314825D01*
X314880Y200560D01*
X314346Y199560D01*
X310291D01*
Y192960D01*
X315891D01*
Y194934D01*
X317364D01*
X320033Y192266D01*
Y182567D01*
X319317Y182168D01*
X319059Y182126D01*
X315891Y185295D01*
Y189521D01*
X310291D01*
Y182921D01*
X314516D01*
X319468Y177968D01*
X319898Y177681D01*
X320406Y177580D01*
X334713D01*
X335220Y177681D01*
X335650Y177968D01*
X336489Y178807D01*
X336776Y179237D01*
X336877Y179744D01*
Y181953D01*
X336972Y182084D01*
X337877Y182656D01*
X338370Y182549D01*
X338371D01*
X338450Y182549D01*
X340051D01*
Y186600D01*
Y190651D01*
X338450D01*
X338371Y190651D01*
X338370D01*
X337453Y190451D01*
X337370Y190451D01*
X337334D01*
X337066Y191451D01*
X338049Y192434D01*
X349351D01*
X349858Y192535D01*
X350288Y192822D01*
X354776Y197310D01*
X355063Y197740D01*
X355164Y198248D01*
Y242955D01*
X357242Y245033D01*
X369291D01*
X369799Y245134D01*
X370229Y245421D01*
X377807Y253000D01*
X378095Y253430D01*
X378196Y253937D01*
Y258322D01*
X378511Y258760D01*
X379343Y259314D01*
X379823Y259320D01*
X380303Y259314D01*
X380303D01*
D01*
X380303D01*
X380807Y259214D01*
X381311Y259314D01*
Y259314D01*
X381311Y259314D01*
D01*
X381791Y259320D01*
X382272Y259314D01*
X383103Y258760D01*
X383419Y258322D01*
Y257185D01*
X383520Y256678D01*
X383807Y256248D01*
X385266Y254789D01*
X385155Y254232D01*
X385333Y253335D01*
X385842Y252574D01*
X386603Y252066D01*
X387500Y251887D01*
X388397Y252066D01*
X389158Y252574D01*
X389667Y253335D01*
X389845Y254232D01*
X389667Y255130D01*
X389158Y255890D01*
X388397Y256399D01*
X387500Y256577D01*
X387272Y256532D01*
X386070Y257734D01*
Y258322D01*
X386713Y259214D01*
X387217Y259314D01*
X387644Y259600D01*
X387930Y260027D01*
X388030Y260531D01*
Y262403D01*
X388137Y262606D01*
X388673Y263143D01*
X388877Y263249D01*
X390748D01*
X391252Y263350D01*
X391329Y263401D01*
X391680Y263635D01*
X391680Y263635D01*
X391965Y264063D01*
X391974Y264106D01*
X391979Y264132D01*
X392003Y264254D01*
X392066Y264567D01*
X391966Y265070D01*
X391965Y265126D01*
X391960Y265551D01*
X391965Y265977D01*
X391966Y266032D01*
X392066Y266535D01*
X392001Y266862D01*
X391979Y266970D01*
X392141Y267903D01*
X392154Y267922D01*
X392170Y268004D01*
X389764D01*
Y269004D01*
X392170D01*
X392154Y269086D01*
X392141Y269105D01*
X391979Y270037D01*
X392003Y270160D01*
X392066Y270472D01*
X392003Y270788D01*
X392010Y271024D01*
X392160Y271184D01*
X393467Y271194D01*
X394442Y270219D01*
Y258563D01*
X394543Y258056D01*
X394830Y257626D01*
X401720Y250736D01*
X402150Y250449D01*
X402658Y250348D01*
X431735D01*
X432494Y249589D01*
X431856Y248812D01*
X431781Y248862D01*
X431273Y248963D01*
X405089D01*
X404582Y248862D01*
X404152Y248575D01*
X403681Y248105D01*
X403604Y248181D01*
X403174Y248469D01*
X402667Y248569D01*
X394796D01*
Y250013D01*
X387684D01*
Y244082D01*
Y238176D01*
X389915D01*
Y235433D01*
X390016Y234926D01*
X390303Y234496D01*
X391335Y233463D01*
X391257Y233071D01*
X391436Y232173D01*
X391944Y231413D01*
X392705Y230904D01*
X393602Y230726D01*
X394500Y230904D01*
X395261Y231413D01*
X395310Y231487D01*
X396388Y231560D01*
X399403Y228545D01*
Y227330D01*
X398128D01*
Y222130D01*
X403328D01*
Y223405D01*
X405679D01*
X408291Y220793D01*
X408721Y220505D01*
X409228Y220405D01*
X410381D01*
Y218930D01*
X412356D01*
Y217779D01*
X410244Y215667D01*
X409957Y215237D01*
X409856Y214730D01*
Y211711D01*
X409200D01*
Y204009D01*
X413162D01*
Y211711D01*
X412507D01*
Y214181D01*
X414139Y215813D01*
X414957Y215237D01*
X414856Y214730D01*
Y211711D01*
X414200D01*
Y204009D01*
X418162D01*
Y211711D01*
X417507D01*
Y214181D01*
X418730Y215405D01*
X420675D01*
X421057Y214481D01*
X420244Y213667D01*
X419957Y213237D01*
X419856Y212730D01*
Y211711D01*
X419200D01*
Y204009D01*
X421279D01*
X421661Y203085D01*
X420690Y202113D01*
X407427D01*
X402054Y207486D01*
Y214630D01*
X403328D01*
Y219830D01*
X398128D01*
Y214630D01*
X399403D01*
Y207486D01*
X397573Y205656D01*
X379359D01*
X379135Y206197D01*
X378510Y207012D01*
X377695Y207637D01*
X376747Y208030D01*
X375728Y208164D01*
X374710Y208030D01*
X373762Y207637D01*
X372947Y207012D01*
X372322Y206197D01*
X371929Y205248D01*
X371795Y204230D01*
X371929Y203212D01*
X372322Y202263D01*
X372947Y201448D01*
X373762Y200823D01*
X374710Y200430D01*
X375728Y200296D01*
X376747Y200430D01*
X377695Y200823D01*
X378510Y201448D01*
X379135Y202263D01*
X379443Y203005D01*
X389677D01*
X390091Y202005D01*
X389783Y201697D01*
X389496Y201267D01*
X389395Y200760D01*
Y199363D01*
X387921D01*
Y197555D01*
X385728D01*
X385221Y197455D01*
X384791Y197167D01*
X383179Y195555D01*
X379401D01*
X379135Y196197D01*
X378510Y197011D01*
X377695Y197637D01*
X376747Y198030D01*
X375728Y198164D01*
X374710Y198030D01*
X373762Y197637D01*
X372947Y197011D01*
X372322Y196197D01*
X372056Y195555D01*
X370510D01*
X370283Y195510D01*
X370002Y195455D01*
X370002Y195455D01*
X370002Y195455D01*
X369786Y195310D01*
X369572Y195167D01*
X369418Y195013D01*
X368418Y195427D01*
Y195682D01*
X361306D01*
Y189976D01*
X361106D01*
Y187311D01*
X368618D01*
Y189976D01*
X368418D01*
Y191391D01*
X368996D01*
X369223Y191436D01*
X369503Y191492D01*
X369503Y191492D01*
X369503Y191492D01*
X369719Y191636D01*
X369933Y191779D01*
X371059Y192904D01*
X372056D01*
X372322Y192263D01*
X372947Y191448D01*
X373762Y190823D01*
X374710Y190430D01*
X375728Y190296D01*
X376747Y190430D01*
X377695Y190823D01*
X378510Y191448D01*
X379135Y192263D01*
X379401Y192904D01*
X383728D01*
X384236Y193005D01*
X384666Y193293D01*
X386277Y194904D01*
X387921D01*
Y192763D01*
X389403D01*
Y189324D01*
X387920D01*
Y182724D01*
X393520D01*
Y189324D01*
X392054D01*
Y192763D01*
X393521D01*
Y199363D01*
X393521D01*
X393136Y200363D01*
X393203Y200446D01*
X400455D01*
X400510Y200363D01*
X399976Y199363D01*
X395921D01*
Y192763D01*
X401521D01*
Y194738D01*
X402994D01*
X405663Y192069D01*
Y182370D01*
X404947Y181971D01*
X404690Y181929D01*
X401520Y185099D01*
Y189324D01*
X395920D01*
Y182724D01*
X400146D01*
X405098Y177771D01*
X405098Y177771D01*
X405385Y177580D01*
X405528Y177484D01*
X406036Y177383D01*
X406036D01*
X406036D01*
X420343D01*
X420343Y177383D01*
X420343Y177383D01*
X420587Y177432D01*
X420850Y177484D01*
X420850Y177484D01*
X420850Y177484D01*
X421032Y177606D01*
X421280Y177771D01*
X421280Y177771D01*
X421280Y177771D01*
X422119Y178610D01*
X422244Y178798D01*
X422406Y179040D01*
X422406Y179040D01*
X422406Y179040D01*
X422453Y179279D01*
X422507Y179547D01*
Y181953D01*
X422602Y182084D01*
X423507Y182656D01*
X424000Y182549D01*
X424001D01*
X424080Y182549D01*
X425681D01*
Y186600D01*
Y190651D01*
X424080D01*
X424001Y190651D01*
X424000D01*
X423158Y190468D01*
X422893Y191451D01*
X423679Y192237D01*
X434981D01*
X435488Y192338D01*
X435918Y192625D01*
X440406Y197114D01*
X440693Y197544D01*
X440794Y198051D01*
Y249803D01*
X440693Y250310D01*
X440406Y250740D01*
X435583Y255563D01*
X435153Y255851D01*
X434646Y255951D01*
X405372D01*
X399455Y261868D01*
Y272835D01*
X399355Y273342D01*
X399067Y273772D01*
X395524Y277315D01*
X395094Y277602D01*
X394587Y277703D01*
X392957D01*
X392520Y278019D01*
X391965Y278851D01*
X391960Y279331D01*
X391965Y279811D01*
X392520Y280642D01*
X392918Y280930D01*
X393935Y280837D01*
X394011Y280724D01*
X394772Y280215D01*
X395669Y280037D01*
X396567Y280215D01*
X397327Y280724D01*
X397836Y281485D01*
X398014Y282382D01*
X397836Y283279D01*
X397327Y284040D01*
X396567Y284548D01*
X395669Y284727D01*
X394772Y284548D01*
X394011Y284040D01*
X393889Y283858D01*
X392803Y283720D01*
X392520Y283924D01*
X391965Y284756D01*
X391960Y285236D01*
X391965Y285716D01*
Y285716D01*
D01*
Y285716D01*
X392066Y286220D01*
X391965Y286725D01*
X391965D01*
X391965Y286725D01*
D01*
X391960Y287205D01*
X391965Y287685D01*
Y287685D01*
D01*
Y287685D01*
X392066Y288189D01*
X391965Y288693D01*
X391965D01*
X391965Y288693D01*
D01*
X391960Y289173D01*
X391965Y289598D01*
X391966Y289654D01*
X392066Y290157D01*
X392001Y290484D01*
X391979Y290593D01*
X392141Y291525D01*
X392154Y291544D01*
X392269Y292126D01*
X393161Y292769D01*
X397876D01*
X400052Y290593D01*
Y276279D01*
X400153Y275772D01*
X400441Y275342D01*
X406523Y269260D01*
X406953Y268972D01*
X407461Y268871D01*
X409320D01*
X409586Y268230D01*
X410211Y267415D01*
X411025Y266790D01*
X411974Y266397D01*
X412992Y266263D01*
X414010Y266397D01*
X414959Y266790D01*
X415774Y267415D01*
X416399Y268230D01*
X416792Y269179D01*
X416926Y270197D01*
X416792Y271215D01*
X416399Y272164D01*
X415774Y272978D01*
X414959Y273604D01*
X414010Y273996D01*
X412992Y274131D01*
X411974Y273996D01*
X411025Y273604D01*
X410211Y272978D01*
X409586Y272164D01*
X409320Y271522D01*
X408010D01*
X402703Y276829D01*
Y291142D01*
X402602Y291649D01*
X402315Y292079D01*
X399362Y295032D01*
X398933Y295319D01*
X398425Y295420D01*
X389764D01*
X389723Y295412D01*
X388780D01*
X388038Y296264D01*
Y297146D01*
X388038Y297146D01*
Y301095D01*
X388766Y301781D01*
X392075Y298472D01*
X392505Y298185D01*
X393012Y298084D01*
X395150D01*
X395340Y297800D01*
X396101Y297292D01*
X396998Y297114D01*
X397895Y297292D01*
X398656Y297800D01*
X399165Y298561D01*
X399343Y299459D01*
X399165Y300356D01*
X398656Y301117D01*
X397895Y301625D01*
X396998Y301804D01*
X396101Y301625D01*
X395340Y301117D01*
X395085Y300735D01*
X393561D01*
X392063Y302232D01*
X392478Y303232D01*
X394382D01*
Y306988D01*
Y310744D01*
X391717D01*
Y310544D01*
X386011D01*
Y303432D01*
X386011Y303432D01*
X385733Y302547D01*
X385488Y302180D01*
X385387Y301673D01*
Y300339D01*
X384744Y299447D01*
X384240Y299347D01*
X383988Y299179D01*
X383851Y299206D01*
X383358Y299535D01*
X382776Y299651D01*
X382133Y300543D01*
Y310475D01*
X385392Y313734D01*
X398368D01*
X403990Y308112D01*
Y281693D01*
X404090Y281186D01*
X404378Y280756D01*
X405874Y279260D01*
X406304Y278972D01*
X406811Y278871D01*
X409320D01*
X409586Y278230D01*
X410211Y277415D01*
X411025Y276790D01*
X411974Y276397D01*
X412992Y276263D01*
X414010Y276397D01*
X414959Y276790D01*
X415774Y277415D01*
X416399Y278230D01*
X416792Y279179D01*
X416926Y280197D01*
X416792Y281215D01*
X416399Y282164D01*
X415774Y282978D01*
X414959Y283604D01*
X414010Y283997D01*
X412992Y284131D01*
X411974Y283997D01*
X411025Y283604D01*
X410211Y282978D01*
X409586Y282164D01*
X409320Y281522D01*
X407360D01*
X406640Y282242D01*
Y308661D01*
X406539Y309169D01*
X406252Y309599D01*
X399855Y315996D01*
X399425Y316284D01*
X398917Y316385D01*
D02*
G37*
G36*
X163599Y282693D02*
X160933D01*
Y279437D01*
X163599D01*
Y282693D01*
D02*
G37*
G36*
X278732Y186311D02*
X275476D01*
Y183646D01*
X278732D01*
Y186311D01*
D02*
G37*
G36*
X282988D02*
X279732D01*
Y183646D01*
X282988D01*
Y186311D01*
D02*
G37*
G36*
X193004D02*
X189748D01*
Y183646D01*
X193004D01*
Y186311D01*
D02*
G37*
G36*
X197260D02*
X194004D01*
Y183646D01*
X197260D01*
Y186311D01*
D02*
G37*
G36*
X364362D02*
X361106D01*
Y183646D01*
X364362D01*
Y186311D01*
D02*
G37*
G36*
X122840Y188330D02*
X119240D01*
Y184730D01*
X122840D01*
Y188330D01*
D02*
G37*
G36*
X203870D02*
X200270D01*
Y184730D01*
X203870D01*
Y188330D01*
D02*
G37*
G36*
X368618Y186311D02*
X365362D01*
Y183646D01*
X368618D01*
Y186311D01*
D02*
G37*
G36*
X118240Y188330D02*
X114640D01*
Y184730D01*
X118240D01*
Y188330D01*
D02*
G37*
G36*
X111630Y186311D02*
X108374D01*
Y183646D01*
X111630D01*
Y186311D01*
D02*
G37*
G36*
X375228Y183730D02*
X371628D01*
Y180130D01*
X375228D01*
Y183730D01*
D02*
G37*
G36*
X379828D02*
X376228D01*
Y180130D01*
X379828D01*
Y183730D01*
D02*
G37*
G36*
X289598D02*
X285998D01*
Y180130D01*
X289598D01*
Y183730D01*
D02*
G37*
G36*
X294198D02*
X290598D01*
Y180130D01*
X294198D01*
Y183730D01*
D02*
G37*
G36*
X171374Y186100D02*
X169693D01*
Y182549D01*
X171374D01*
Y186100D01*
D02*
G37*
G36*
X428362D02*
X426681D01*
Y182549D01*
X428362D01*
Y186100D01*
D02*
G37*
G36*
X107374Y186311D02*
X104118D01*
Y183646D01*
X107374D01*
Y186311D01*
D02*
G37*
G36*
X257004Y186100D02*
X255323D01*
Y182549D01*
X257004D01*
Y186100D01*
D02*
G37*
G36*
X342732D02*
X341051D01*
Y182549D01*
X342732D01*
Y186100D01*
D02*
G37*
G36*
X208470Y188330D02*
X204870D01*
Y184730D01*
X208470D01*
Y188330D01*
D02*
G37*
G36*
X186874Y258358D02*
X184374D01*
Y255358D01*
X186874D01*
Y258358D01*
D02*
G37*
G36*
X190374D02*
X187874D01*
Y255358D01*
X190374D01*
Y258358D01*
D02*
G37*
G36*
X310398Y223630D02*
X303798D01*
Y222356D01*
X303018D01*
X302511Y222255D01*
X302081Y221967D01*
X295669Y215556D01*
X293771D01*
X293505Y216197D01*
X292880Y217011D01*
X292065Y217637D01*
X291116Y218030D01*
X290098Y218164D01*
X289080Y218030D01*
X288132Y217637D01*
X287317Y217011D01*
X286692Y216197D01*
X286299Y215248D01*
X286165Y214230D01*
X286299Y213212D01*
X286692Y212263D01*
X287317Y211449D01*
X288132Y210823D01*
X289080Y210430D01*
X290098Y210296D01*
X291116Y210430D01*
X292065Y210823D01*
X292880Y211449D01*
X293505Y212263D01*
X293771Y212905D01*
X296218D01*
X296725Y213005D01*
X297155Y213293D01*
X302798Y218936D01*
X303798Y218521D01*
Y218430D01*
X310398D01*
Y223630D01*
D02*
G37*
G36*
X396028D02*
X389428D01*
Y222356D01*
X388648D01*
X388141Y222255D01*
X387711Y221967D01*
X381299Y215556D01*
X379401D01*
X379135Y216197D01*
X378510Y217011D01*
X377695Y217637D01*
X376747Y218030D01*
X375728Y218164D01*
X374710Y218030D01*
X373762Y217637D01*
X372947Y217011D01*
X372322Y216197D01*
X371929Y215248D01*
X371795Y214230D01*
X371929Y213212D01*
X372322Y212263D01*
X372947Y211449D01*
X373762Y210823D01*
X374710Y210430D01*
X375728Y210296D01*
X376747Y210430D01*
X377695Y210823D01*
X378510Y211449D01*
X379135Y212263D01*
X379401Y212905D01*
X381848D01*
X382355Y213005D01*
X382785Y213293D01*
X388428Y218936D01*
X389428Y218521D01*
Y218430D01*
X396028D01*
Y223630D01*
D02*
G37*
G36*
X195433Y274459D02*
X194376Y274320D01*
X193391Y273912D01*
X192544Y273263D01*
X191895Y272416D01*
X191487Y271431D01*
X191348Y270374D01*
X191487Y269317D01*
X191895Y268332D01*
X192544Y267485D01*
X193391Y266836D01*
X194049Y266564D01*
Y262158D01*
X192574D01*
Y255558D01*
X198174D01*
Y262158D01*
X196700D01*
Y266515D01*
X197476Y266836D01*
X198321Y267485D01*
X198971Y268332D01*
X199379Y269317D01*
X199518Y270374D01*
X199379Y271431D01*
X198971Y272416D01*
X198321Y273263D01*
X197476Y273912D01*
X196490Y274320D01*
X195433Y274459D01*
D02*
G37*
G36*
X122840Y183730D02*
X119240D01*
Y180130D01*
X122840D01*
Y183730D01*
D02*
G37*
G36*
X118240D02*
X114640D01*
Y180130D01*
X118240D01*
Y183730D01*
D02*
G37*
G36*
X208470D02*
X204870D01*
Y180130D01*
X208470D01*
Y183730D01*
D02*
G37*
G36*
X203870D02*
X200270D01*
Y180130D01*
X203870D01*
Y183730D01*
D02*
G37*
G36*
X224670Y223630D02*
X218070D01*
Y222356D01*
X217290D01*
X216783Y222255D01*
X216353Y221967D01*
X209941Y215556D01*
X208043D01*
X207777Y216197D01*
X207152Y217011D01*
X206337Y217637D01*
X205388Y218030D01*
X204370Y218164D01*
X203352Y218030D01*
X202403Y217637D01*
X201589Y217011D01*
X200964Y216197D01*
X200571Y215248D01*
X200437Y214230D01*
X200571Y213212D01*
X200964Y212263D01*
X201589Y211449D01*
X202403Y210823D01*
X203352Y210430D01*
X204370Y210296D01*
X205388Y210430D01*
X206337Y210823D01*
X207152Y211449D01*
X207777Y212263D01*
X208043Y212905D01*
X210490D01*
X210997Y213005D01*
X211427Y213293D01*
X217070Y218936D01*
X218070Y218522D01*
Y218430D01*
X224670D01*
Y223630D01*
D02*
G37*
G36*
X375228Y188330D02*
X371628D01*
Y184730D01*
X375228D01*
Y188330D01*
D02*
G37*
G36*
X379828D02*
X376228D01*
Y184730D01*
X379828D01*
Y188330D01*
D02*
G37*
G36*
X289598D02*
X285998D01*
Y184730D01*
X289598D01*
Y188330D01*
D02*
G37*
G36*
X294198D02*
X290598D01*
Y184730D01*
X294198D01*
Y188330D01*
D02*
G37*
G36*
X169693Y190651D02*
Y187100D01*
X171374D01*
Y190651D01*
X169693D01*
D02*
G37*
G36*
X426681D02*
Y187100D01*
X428362D01*
Y190651D01*
X426681D01*
D02*
G37*
G36*
X139040Y223630D02*
X132440D01*
Y222356D01*
X131660D01*
X131153Y222255D01*
X130723Y221967D01*
X124311Y215556D01*
X122413D01*
X122147Y216197D01*
X121522Y217011D01*
X120707Y217637D01*
X119758Y218030D01*
X118740Y218164D01*
X117722Y218030D01*
X116773Y217637D01*
X115959Y217011D01*
X115334Y216197D01*
X114941Y215248D01*
X114806Y214230D01*
X114941Y213212D01*
X115334Y212263D01*
X115959Y211449D01*
X116773Y210823D01*
X117722Y210430D01*
X118740Y210296D01*
X119758Y210430D01*
X120707Y210823D01*
X121522Y211449D01*
X122147Y212263D01*
X122413Y212905D01*
X124860D01*
X125367Y213005D01*
X125797Y213293D01*
X131440Y218936D01*
X132440Y218521D01*
Y218430D01*
X139040D01*
Y223630D01*
D02*
G37*
G36*
X255323Y190651D02*
Y187100D01*
X257004D01*
Y190651D01*
X255323D01*
D02*
G37*
G36*
X341051D02*
Y187100D01*
X342732D01*
Y190651D01*
X341051D01*
D02*
G37*
G36*
X166693Y173164D02*
X165675Y173030D01*
X164726Y172637D01*
X163911Y172011D01*
X163286Y171197D01*
X162893Y170248D01*
X162759Y169230D01*
X162893Y168212D01*
X163286Y167263D01*
X163911Y166448D01*
X164603Y165918D01*
Y151922D01*
X164569Y151908D01*
X163754Y151283D01*
X163129Y150468D01*
X162736Y149520D01*
X162602Y148502D01*
X162736Y147484D01*
X163129Y146535D01*
X163754Y145720D01*
X164569Y145095D01*
X165517Y144702D01*
X166535Y144568D01*
X167553Y144702D01*
X168502Y145095D01*
X169317Y145720D01*
X169942Y146535D01*
X170335Y147484D01*
X170469Y148502D01*
X170335Y149520D01*
X169942Y150468D01*
X169317Y151283D01*
X168783Y151693D01*
Y165918D01*
X169474Y166448D01*
X170100Y167263D01*
X170493Y168212D01*
X170627Y169230D01*
X170493Y170248D01*
X170100Y171197D01*
X169474Y172011D01*
X168660Y172637D01*
X167711Y173030D01*
X166693Y173164D01*
D02*
G37*
G36*
X398047Y310744D02*
X395382D01*
Y307488D01*
X398047D01*
Y310744D01*
D02*
G37*
G36*
X270079Y316585D02*
X269022Y316446D01*
X268036Y316038D01*
X267190Y315388D01*
X266541Y314543D01*
X266133Y313557D01*
X265994Y312500D01*
X266133Y311443D01*
X266541Y310458D01*
X267190Y309612D01*
X268036Y308962D01*
X269022Y308554D01*
X270079Y308415D01*
X271136Y308554D01*
X272121Y308962D01*
X272967Y309612D01*
X273616Y310458D01*
X274025Y311443D01*
X274164Y312500D01*
X274025Y313557D01*
X273616Y314543D01*
X272967Y315388D01*
X272121Y316038D01*
X271136Y316446D01*
X270079Y316585D01*
D02*
G37*
G36*
X252783Y308105D02*
Y304535D01*
X256353D01*
X256278Y305106D01*
X255865Y306103D01*
X255208Y306960D01*
X254351Y307617D01*
X253354Y308030D01*
X252783Y308105D01*
D02*
G37*
G36*
X172784D02*
Y304535D01*
X176353D01*
X176278Y305106D01*
X175865Y306103D01*
X175208Y306960D01*
X174351Y307617D01*
X173354Y308030D01*
X172784Y308105D01*
D02*
G37*
G36*
X251783D02*
X251213Y308030D01*
X250216Y307617D01*
X249359Y306960D01*
X248702Y306103D01*
X248289Y305106D01*
X248214Y304535D01*
X251783D01*
Y308105D01*
D02*
G37*
G36*
X151784Y313535D02*
X148214D01*
X148289Y312965D01*
X148702Y311968D01*
X149359Y311111D01*
X150216Y310454D01*
X151213Y310041D01*
X151784Y309966D01*
Y313535D01*
D02*
G37*
G36*
X156353D02*
X152784D01*
Y309966D01*
X153354Y310041D01*
X154351Y310454D01*
X155208Y311111D01*
X155865Y311968D01*
X156278Y312965D01*
X156353Y313535D01*
D02*
G37*
G36*
X280079Y316585D02*
X279022Y316446D01*
X278036Y316038D01*
X277190Y315388D01*
X276541Y314543D01*
X276133Y313557D01*
X275994Y312500D01*
X276133Y311443D01*
X276541Y310458D01*
X277190Y309612D01*
X278036Y308962D01*
X279022Y308554D01*
X280079Y308415D01*
X281136Y308554D01*
X282121Y308962D01*
X282967Y309612D01*
X283616Y310458D01*
X283873Y311076D01*
X289692D01*
Y309102D01*
X295292D01*
Y315702D01*
X289692D01*
Y313727D01*
X283954D01*
X283616Y314543D01*
X282967Y315388D01*
X282121Y316038D01*
X281136Y316446D01*
X280079Y316585D01*
D02*
G37*
G36*
X299992Y311901D02*
X297492D01*
Y308902D01*
X299992D01*
Y311901D01*
D02*
G37*
G36*
X303492D02*
X300992D01*
Y308902D01*
X303492D01*
Y311901D01*
D02*
G37*
G36*
X232283Y307969D02*
X231265Y307835D01*
X230317Y307442D01*
X229502Y306817D01*
X228877Y306002D01*
X228484Y305053D01*
X228350Y304035D01*
X228484Y303017D01*
X228877Y302069D01*
X229502Y301254D01*
X230317Y300629D01*
X231265Y300236D01*
X232283Y300102D01*
X233302Y300236D01*
X234250Y300629D01*
X235065Y301254D01*
X235690Y302069D01*
X236083Y303017D01*
X236217Y304035D01*
X236083Y305053D01*
X235690Y306002D01*
X235065Y306817D01*
X234250Y307442D01*
X233302Y307835D01*
X232283Y307969D01*
D02*
G37*
G36*
X242284D02*
X241265Y307835D01*
X240317Y307442D01*
X239502Y306817D01*
X238877Y306002D01*
X238484Y305053D01*
X238350Y304035D01*
X238484Y303017D01*
X238877Y302069D01*
X239502Y301254D01*
X240317Y300629D01*
X241265Y300236D01*
X242284Y300102D01*
X243302Y300236D01*
X244250Y300629D01*
X245065Y301254D01*
X245690Y302069D01*
X246083Y303017D01*
X246217Y304035D01*
X246083Y305053D01*
X245690Y306002D01*
X245065Y306817D01*
X244250Y307442D01*
X243302Y307835D01*
X242284Y307969D01*
D02*
G37*
G36*
X222284D02*
X221265Y307835D01*
X220317Y307442D01*
X219502Y306817D01*
X218877Y306002D01*
X218484Y305053D01*
X218350Y304035D01*
X218484Y303017D01*
X218877Y302069D01*
X219502Y301254D01*
X220317Y300629D01*
X221265Y300236D01*
X222284Y300102D01*
X223302Y300236D01*
X224250Y300629D01*
X225065Y301254D01*
X225690Y302069D01*
X226083Y303017D01*
X226217Y304035D01*
X226083Y305053D01*
X225690Y306002D01*
X225065Y306817D01*
X224250Y307442D01*
X223302Y307835D01*
X222284Y307969D01*
D02*
G37*
G36*
X202284D02*
X201265Y307835D01*
X200317Y307442D01*
X199502Y306817D01*
X198877Y306002D01*
X198484Y305053D01*
X198350Y304035D01*
X198484Y303017D01*
X198877Y302069D01*
X199502Y301254D01*
X200317Y300629D01*
X201265Y300236D01*
X202284Y300102D01*
X203302Y300236D01*
X204250Y300629D01*
X205065Y301254D01*
X205690Y302069D01*
X206083Y303017D01*
X206217Y304035D01*
X206083Y305053D01*
X205690Y306002D01*
X205065Y306817D01*
X204250Y307442D01*
X203302Y307835D01*
X202284Y307969D01*
D02*
G37*
G36*
X212283D02*
X211265Y307835D01*
X210317Y307442D01*
X209502Y306817D01*
X208877Y306002D01*
X208484Y305053D01*
X208350Y304035D01*
X208484Y303017D01*
X208877Y302069D01*
X209502Y301254D01*
X210317Y300629D01*
X211265Y300236D01*
X212283Y300102D01*
X213302Y300236D01*
X214250Y300629D01*
X215065Y301254D01*
X215690Y302069D01*
X216083Y303017D01*
X216217Y304035D01*
X216083Y305053D01*
X215690Y306002D01*
X215065Y306817D01*
X214250Y307442D01*
X213302Y307835D01*
X212283Y307969D01*
D02*
G37*
G36*
X398047Y306488D02*
X395382D01*
Y303232D01*
X398047D01*
Y306488D01*
D02*
G37*
G36*
X171783Y308105D02*
X171213Y308030D01*
X170216Y307617D01*
X169359Y306960D01*
X168702Y306103D01*
X168289Y305106D01*
X168214Y304535D01*
X171783D01*
Y308105D01*
D02*
G37*
G36*
X288402Y305823D02*
X285244D01*
Y302665D01*
X288402D01*
Y305823D01*
D02*
G37*
G36*
X136184Y307935D02*
X128384D01*
Y300135D01*
X136184D01*
Y307935D01*
D02*
G37*
G36*
X284244Y305823D02*
X281087D01*
Y302665D01*
X284244D01*
Y305823D01*
D02*
G37*
G36*
X191783Y313535D02*
X188214D01*
X188289Y312965D01*
X188702Y311968D01*
X189359Y311111D01*
X190216Y310454D01*
X191213Y310041D01*
X191783Y309966D01*
Y313535D01*
D02*
G37*
G36*
X303492Y315901D02*
X300992D01*
Y312901D01*
X303492D01*
Y315901D01*
D02*
G37*
G36*
X151784Y318105D02*
X151213Y318030D01*
X150216Y317617D01*
X149359Y316960D01*
X148702Y316103D01*
X148289Y315106D01*
X148214Y314535D01*
X151784D01*
Y318105D01*
D02*
G37*
G36*
X299992Y315901D02*
X297492D01*
Y312901D01*
X299992D01*
Y315901D01*
D02*
G37*
G36*
X242284Y317969D02*
X241265Y317835D01*
X240317Y317442D01*
X239502Y316817D01*
X238877Y316002D01*
X238484Y315054D01*
X238350Y314035D01*
X238484Y313017D01*
X238877Y312069D01*
X239502Y311254D01*
X240317Y310629D01*
X241265Y310236D01*
X242284Y310102D01*
X243302Y310236D01*
X244250Y310629D01*
X245065Y311254D01*
X245690Y312069D01*
X246083Y313017D01*
X246217Y314035D01*
X246083Y315054D01*
X245690Y316002D01*
X245065Y316817D01*
X244250Y317442D01*
X243302Y317835D01*
X242284Y317969D01*
D02*
G37*
G36*
X252284D02*
X251265Y317835D01*
X250317Y317442D01*
X249502Y316817D01*
X248877Y316002D01*
X248484Y315054D01*
X248350Y314035D01*
X248484Y313017D01*
X248877Y312069D01*
X249502Y311254D01*
X250317Y310629D01*
X251265Y310236D01*
X252284Y310102D01*
X253302Y310236D01*
X254250Y310629D01*
X255065Y311254D01*
X255690Y312069D01*
X256083Y313017D01*
X256217Y314035D01*
X256083Y315054D01*
X255690Y316002D01*
X255065Y316817D01*
X254250Y317442D01*
X253302Y317835D01*
X252284Y317969D01*
D02*
G37*
G36*
X221783Y318105D02*
X221213Y318030D01*
X220216Y317617D01*
X219359Y316960D01*
X218702Y316103D01*
X218289Y315106D01*
X218214Y314535D01*
X221783D01*
Y318105D01*
D02*
G37*
G36*
X222783D02*
Y314535D01*
X226353D01*
X226278Y315106D01*
X225865Y316103D01*
X225208Y316960D01*
X224351Y317617D01*
X223354Y318030D01*
X222783Y318105D01*
D02*
G37*
G36*
X192783D02*
Y314535D01*
X196353D01*
X196278Y315106D01*
X195865Y316103D01*
X195208Y316960D01*
X194351Y317617D01*
X193354Y318030D01*
X192783Y318105D01*
D02*
G37*
G36*
X152784D02*
Y314535D01*
X156353D01*
X156278Y315106D01*
X155865Y316103D01*
X155208Y316960D01*
X154351Y317617D01*
X153354Y318030D01*
X152784Y318105D01*
D02*
G37*
G36*
X191783D02*
X191213Y318030D01*
X190216Y317617D01*
X189359Y316960D01*
X188702Y316103D01*
X188289Y315106D01*
X188214Y314535D01*
X191783D01*
Y318105D01*
D02*
G37*
G36*
X114862Y318553D02*
X113805Y318414D01*
X112820Y318006D01*
X111974Y317357D01*
X111325Y316511D01*
X110916Y315526D01*
X110897Y315375D01*
X110736Y315268D01*
X110449Y314838D01*
X110348Y314331D01*
X110449Y313824D01*
X110736Y313393D01*
X110996Y313220D01*
X111325Y312426D01*
X111974Y311580D01*
X112820Y310931D01*
X113805Y310523D01*
X114862Y310384D01*
X115919Y310523D01*
X116905Y310931D01*
X117751Y311580D01*
X118400Y312426D01*
X118640Y313005D01*
X120317D01*
X121504Y311818D01*
X121472Y310713D01*
X120963Y309952D01*
X120785Y309055D01*
X120963Y308158D01*
X121472Y307397D01*
X122232Y306889D01*
X123130Y306710D01*
X124027Y306889D01*
X124788Y307397D01*
X125296Y308158D01*
X125475Y309055D01*
X125296Y309952D01*
X124788Y310713D01*
X124532Y310884D01*
X124476Y311874D01*
X125608Y313005D01*
X128489D01*
X128877Y312069D01*
X129502Y311254D01*
X130317Y310629D01*
X131265Y310236D01*
X132283Y310102D01*
X133302Y310236D01*
X134250Y310629D01*
X135065Y311254D01*
X135690Y312069D01*
X136078Y313005D01*
X138489D01*
X138877Y312069D01*
X139502Y311254D01*
X140317Y310629D01*
X141265Y310236D01*
X142283Y310102D01*
X143302Y310236D01*
X144250Y310629D01*
X145065Y311254D01*
X145690Y312069D01*
X146083Y313017D01*
X146217Y314035D01*
X146083Y315054D01*
X145690Y316002D01*
X145065Y316817D01*
X144250Y317442D01*
X143302Y317835D01*
X142283Y317969D01*
X141265Y317835D01*
X140317Y317442D01*
X139502Y316817D01*
X138877Y316002D01*
X138733Y315656D01*
X135833D01*
X135690Y316002D01*
X135065Y316817D01*
X134250Y317442D01*
X133302Y317835D01*
X132283Y317969D01*
X131265Y317835D01*
X130317Y317442D01*
X129502Y316817D01*
X128877Y316002D01*
X128734Y315656D01*
X125000D01*
X124796Y315616D01*
X121070D01*
X120866Y315656D01*
X118754D01*
X118400Y316511D01*
X117751Y317357D01*
X116905Y318006D01*
X115919Y318414D01*
X114862Y318553D01*
D02*
G37*
G36*
X162284Y317969D02*
X161265Y317835D01*
X160317Y317442D01*
X159502Y316817D01*
X158877Y316002D01*
X158484Y315054D01*
X158350Y314035D01*
X158484Y313017D01*
X158877Y312069D01*
X159502Y311254D01*
X160317Y310629D01*
X161265Y310236D01*
X162284Y310102D01*
X163302Y310236D01*
X164250Y310629D01*
X165065Y311254D01*
X165690Y312069D01*
X166083Y313017D01*
X166217Y314035D01*
X166083Y315054D01*
X165690Y316002D01*
X165065Y316817D01*
X164250Y317442D01*
X163302Y317835D01*
X162284Y317969D01*
D02*
G37*
G36*
X226353Y313535D02*
X222783D01*
Y309966D01*
X223354Y310041D01*
X224351Y310454D01*
X225208Y311111D01*
X225865Y311968D01*
X226278Y312965D01*
X226353Y313535D01*
D02*
G37*
G36*
X196353D02*
X192783D01*
Y309966D01*
X193354Y310041D01*
X194351Y310454D01*
X195208Y311111D01*
X195865Y311968D01*
X196278Y312965D01*
X196353Y313535D01*
D02*
G37*
G36*
X221783D02*
X218214D01*
X218289Y312965D01*
X218702Y311968D01*
X219359Y311111D01*
X220216Y310454D01*
X221213Y310041D01*
X221783Y309966D01*
Y313535D01*
D02*
G37*
G36*
X212283Y317969D02*
X211265Y317835D01*
X210317Y317442D01*
X209502Y316817D01*
X208877Y316002D01*
X208484Y315054D01*
X208350Y314035D01*
X208484Y313017D01*
X208877Y312069D01*
X209502Y311254D01*
X210317Y310629D01*
X211265Y310236D01*
X212283Y310102D01*
X213302Y310236D01*
X214250Y310629D01*
X215065Y311254D01*
X215690Y312069D01*
X216083Y313017D01*
X216217Y314035D01*
X216083Y315054D01*
X215690Y316002D01*
X215065Y316817D01*
X214250Y317442D01*
X213302Y317835D01*
X212283Y317969D01*
D02*
G37*
G36*
X232283D02*
X231265Y317835D01*
X230317Y317442D01*
X229502Y316817D01*
X228877Y316002D01*
X228484Y315054D01*
X228350Y314035D01*
X228484Y313017D01*
X228877Y312069D01*
X229502Y311254D01*
X230317Y310629D01*
X231265Y310236D01*
X232283Y310102D01*
X233302Y310236D01*
X234250Y310629D01*
X235065Y311254D01*
X235690Y312069D01*
X236083Y313017D01*
X236217Y314035D01*
X236083Y315054D01*
X235690Y316002D01*
X235065Y316817D01*
X234250Y317442D01*
X233302Y317835D01*
X232283Y317969D01*
D02*
G37*
G36*
X202284D02*
X201265Y317835D01*
X200317Y317442D01*
X199502Y316817D01*
X198877Y316002D01*
X198484Y315054D01*
X198350Y314035D01*
X198484Y313017D01*
X198877Y312069D01*
X199502Y311254D01*
X200317Y310629D01*
X201265Y310236D01*
X202284Y310102D01*
X203302Y310236D01*
X204250Y310629D01*
X205065Y311254D01*
X205690Y312069D01*
X206083Y313017D01*
X206217Y314035D01*
X206083Y315054D01*
X205690Y316002D01*
X205065Y316817D01*
X204250Y317442D01*
X203302Y317835D01*
X202284Y317969D01*
D02*
G37*
G36*
X172283D02*
X171265Y317835D01*
X170317Y317442D01*
X169502Y316817D01*
X168877Y316002D01*
X168484Y315054D01*
X168350Y314035D01*
X168484Y313017D01*
X168877Y312069D01*
X169502Y311254D01*
X170317Y310629D01*
X171265Y310236D01*
X172283Y310102D01*
X173302Y310236D01*
X174250Y310629D01*
X175065Y311254D01*
X175690Y312069D01*
X176083Y313017D01*
X176217Y314035D01*
X176083Y315054D01*
X175690Y316002D01*
X175065Y316817D01*
X174250Y317442D01*
X173302Y317835D01*
X172283Y317969D01*
D02*
G37*
G36*
X182283D02*
X181265Y317835D01*
X180317Y317442D01*
X179502Y316817D01*
X178877Y316002D01*
X178484Y315054D01*
X178350Y314035D01*
X178484Y313017D01*
X178877Y312069D01*
X179502Y311254D01*
X180317Y310629D01*
X181265Y310236D01*
X182283Y310102D01*
X183302Y310236D01*
X184250Y310629D01*
X185065Y311254D01*
X185690Y312069D01*
X186083Y313017D01*
X186217Y314035D01*
X186083Y315054D01*
X185690Y316002D01*
X185065Y316817D01*
X184250Y317442D01*
X183302Y317835D01*
X182283Y317969D01*
D02*
G37*
G36*
X306413Y296768D02*
X303256D01*
Y293610D01*
X306413D01*
Y296768D01*
D02*
G37*
G36*
X416892Y304097D02*
X409092D01*
Y296297D01*
X416892D01*
Y304097D01*
D02*
G37*
G36*
X302256Y296768D02*
X299098D01*
Y293610D01*
X302256D01*
Y296768D01*
D02*
G37*
G36*
X315346Y296276D02*
X312681D01*
Y293020D01*
X315346D01*
Y296276D01*
D02*
G37*
G36*
X340764D02*
X338098D01*
Y293020D01*
X340764D01*
Y296276D01*
D02*
G37*
G36*
X346153Y298614D02*
X344204D01*
X344299Y298139D01*
X344851Y297312D01*
X345678Y296759D01*
X346153Y296665D01*
Y298614D01*
D02*
G37*
G36*
X284244Y301665D02*
X281087D01*
Y298508D01*
X284244D01*
Y301665D01*
D02*
G37*
G36*
X288402D02*
X285244D01*
Y298508D01*
X288402D01*
Y301665D01*
D02*
G37*
G36*
X122417Y300350D02*
X119917D01*
Y297350D01*
X122417D01*
Y300350D01*
D02*
G37*
G36*
X349103Y298614D02*
X347153D01*
Y296665D01*
X347629Y296759D01*
X348456Y297312D01*
X349008Y298139D01*
X349103Y298614D01*
D02*
G37*
G36*
X114862Y308554D02*
X113805Y308414D01*
X112820Y308006D01*
X111974Y307357D01*
X111325Y306511D01*
X110916Y305526D01*
X110777Y304468D01*
X110916Y303411D01*
X111214Y302694D01*
X110380Y301861D01*
X110093Y301431D01*
X109992Y300924D01*
Y300150D01*
X108617D01*
Y293550D01*
X114217D01*
Y299460D01*
X114632Y300054D01*
X115658Y300229D01*
X116417Y299571D01*
Y297350D01*
X118917D01*
Y300350D01*
X117791D01*
X117452Y301350D01*
X117751Y301580D01*
X118400Y302426D01*
X118808Y303411D01*
X118947Y304468D01*
X118808Y305526D01*
X118400Y306511D01*
X117751Y307357D01*
X116905Y308006D01*
X115919Y308414D01*
X114862Y308554D01*
D02*
G37*
G36*
X158957Y298274D02*
X145177D01*
X144670Y298173D01*
X144240Y297886D01*
X142075Y295721D01*
X141787Y295291D01*
X141686Y294783D01*
Y292819D01*
X141525Y292630D01*
X140686Y292121D01*
X140453Y292168D01*
X139872Y292052D01*
X139379Y291723D01*
X139341Y291747D01*
X138553Y292241D01*
X138553Y292241D01*
X138553Y292241D01*
X138394Y292272D01*
Y287205D01*
Y281913D01*
X139010Y281517D01*
X139127Y281350D01*
Y280413D01*
X139228Y279906D01*
X139516Y279476D01*
X140992Y278000D01*
X141422Y277712D01*
X141929Y277612D01*
X150855D01*
X151562Y276905D01*
Y275381D01*
X150579Y275341D01*
X129999D01*
X129616Y276265D01*
X133713Y280362D01*
X134000Y280792D01*
X134101Y281299D01*
Y281591D01*
X134262Y281780D01*
X135101Y282288D01*
X135335Y282242D01*
X135916Y282357D01*
X136408Y282686D01*
X137235Y282169D01*
X137235D01*
Y282169D01*
X137235Y282169D01*
X137394Y282137D01*
Y287205D01*
Y292272D01*
X137235Y292241D01*
X137235Y292241D01*
Y292241D01*
X137235Y292241D01*
X136408Y291723D01*
X135916Y292052D01*
X135335Y292168D01*
X134754Y292052D01*
X134261Y291723D01*
X133849D01*
X133357Y292052D01*
X132776Y292168D01*
X132195Y292052D01*
X131702Y291723D01*
X131664Y291747D01*
X130876Y292241D01*
X130876Y292241D01*
X130876D01*
X130876Y292241D01*
X130717Y292272D01*
Y287205D01*
X129717D01*
Y292272D01*
X129558Y292241D01*
X129558Y292241D01*
Y292241D01*
X129558Y292241D01*
X128731Y291723D01*
X128238Y292052D01*
X127657Y292168D01*
X127076Y292052D01*
X126584Y291723D01*
X126352D01*
X125849Y291939D01*
X125679Y292052D01*
X125503Y292087D01*
X125503Y292087D01*
D01*
X125099Y292168D01*
X124518Y292052D01*
D01*
X124518D01*
X123819Y291924D01*
X123120Y292052D01*
X123120D01*
X123120Y292052D01*
X123120D01*
X122539Y292168D01*
X122135Y292087D01*
X122135D01*
X122135D01*
X122135Y292087D01*
X121958Y292052D01*
X121945Y292043D01*
X121223Y291875D01*
X120863Y292101D01*
X120720Y292498D01*
X120682Y292722D01*
X121130Y293350D01*
X122417D01*
Y296350D01*
X116417D01*
Y293350D01*
X116417D01*
X116730Y292780D01*
X116682Y292498D01*
X116539Y292101D01*
X116179Y291875D01*
X115457Y292043D01*
X115443Y292052D01*
X115267Y292087D01*
X115267Y292087D01*
X114862Y292168D01*
X114281Y292052D01*
D01*
X114281D01*
X113583Y291924D01*
X112884Y292052D01*
X112884D01*
X112884Y292052D01*
X112884D01*
X112303Y292168D01*
X111899Y292087D01*
X111899D01*
X111899Y292087D01*
X111722Y292052D01*
X111230Y291723D01*
X111230Y291723D01*
X111119Y291557D01*
X110901Y291231D01*
X110785Y290650D01*
Y283760D01*
X110901Y283179D01*
X111119Y282853D01*
X111230Y282686D01*
X111230Y282686D01*
X111722Y282357D01*
X111899Y282322D01*
Y282322D01*
D01*
X112303Y282242D01*
X112884Y282357D01*
D01*
X112884D01*
X113583Y282485D01*
X114281Y282357D01*
X114281D01*
X114281Y282357D01*
X114281D01*
X114862Y282242D01*
X115267Y282322D01*
X115267D01*
X115267D01*
X115267Y282322D01*
X115443Y282357D01*
X115457Y282366D01*
X116179Y282534D01*
X116762Y282169D01*
X116762Y282169D01*
D01*
X116762D01*
Y282169D01*
X116921Y282137D01*
Y287205D01*
X117921D01*
Y282137D01*
X118080Y282169D01*
Y282169D01*
X118080Y282169D01*
D01*
X118701Y282295D01*
X119322Y282169D01*
D01*
X119322D01*
X119322D01*
X119481Y282137D01*
Y287205D01*
X120481D01*
Y282137D01*
X120640Y282169D01*
X120640Y282169D01*
Y282169D01*
X120640Y282169D01*
X121223Y282534D01*
X121945Y282366D01*
X121958Y282357D01*
X122135Y282322D01*
X122135Y282322D01*
X122539Y282242D01*
X123120Y282357D01*
D01*
X123120D01*
X123819Y282485D01*
X124518Y282357D01*
X124518D01*
X124518Y282357D01*
X124518D01*
X125099Y282242D01*
X125503Y282322D01*
X125503D01*
X125503D01*
X125503Y282322D01*
X125679Y282357D01*
X125849Y282470D01*
X126352Y282686D01*
X126584D01*
X127076Y282357D01*
X127657Y282242D01*
X128238Y282357D01*
X128731Y282686D01*
X129558Y282169D01*
X129558D01*
Y282169D01*
X130112Y281866D01*
X130380Y280778D01*
X124555Y274953D01*
X119043Y269441D01*
X118756Y269011D01*
X118655Y268504D01*
Y265653D01*
X118494Y265464D01*
X117655Y264956D01*
X117421Y265002D01*
X116840Y264887D01*
X116348Y264558D01*
X116116D01*
X115613Y264774D01*
X115443Y264887D01*
X115267Y264922D01*
X115267Y264922D01*
D01*
X114862Y265002D01*
X114281Y264887D01*
D01*
X114281D01*
X113583Y264759D01*
X112884Y264887D01*
X112884D01*
X112884Y264887D01*
X112884D01*
X112303Y265002D01*
X111899Y264922D01*
X111899D01*
X111899Y264922D01*
X111722Y264887D01*
X111230Y264558D01*
X111230Y264558D01*
X111119Y264391D01*
X110901Y264065D01*
X110785Y263484D01*
Y256595D01*
X110901Y256014D01*
X110978Y255898D01*
Y253642D01*
X111079Y253134D01*
X111366Y252704D01*
X113925Y250145D01*
X114355Y249858D01*
X114862Y249757D01*
X130696D01*
Y244082D01*
Y238176D01*
X132926D01*
Y235433D01*
X133027Y234926D01*
X133315Y234496D01*
X134347Y233463D01*
X134269Y233071D01*
X134448Y232173D01*
X134956Y231413D01*
X135717Y230904D01*
X136614Y230726D01*
X137512Y230904D01*
X138272Y231413D01*
X138322Y231487D01*
X139400Y231560D01*
X142415Y228545D01*
Y227330D01*
X141140D01*
Y222130D01*
X146340D01*
Y223405D01*
X148691D01*
X151303Y220793D01*
X151733Y220505D01*
X152240Y220405D01*
X153393D01*
Y218930D01*
X155368D01*
Y217779D01*
X153256Y215667D01*
X152968Y215237D01*
X152867Y214730D01*
Y211711D01*
X152212D01*
Y204009D01*
X156174D01*
Y211711D01*
X155518D01*
Y214181D01*
X157150Y215813D01*
X157968Y215237D01*
X157868Y214730D01*
Y211711D01*
X157212D01*
Y204009D01*
X161174D01*
Y211711D01*
X160519D01*
Y214181D01*
X161742Y215405D01*
X163687D01*
X164069Y214481D01*
X163256Y213667D01*
X162968Y213237D01*
X162867Y212730D01*
Y211711D01*
X162212D01*
Y204009D01*
X164291D01*
X164673Y203085D01*
X163701Y202113D01*
X150439D01*
X145066Y207486D01*
Y214630D01*
X146340D01*
Y219830D01*
X141140D01*
Y214630D01*
X142415D01*
Y207486D01*
X140585Y205656D01*
X122371D01*
X122147Y206197D01*
X121522Y207012D01*
X120707Y207637D01*
X119758Y208030D01*
X118740Y208164D01*
X117722Y208030D01*
X116773Y207637D01*
X115959Y207012D01*
X115334Y206197D01*
X114941Y205248D01*
X114806Y204230D01*
X114941Y203212D01*
X115334Y202263D01*
X115959Y201448D01*
X116773Y200823D01*
X117722Y200430D01*
X118740Y200296D01*
X119758Y200430D01*
X120707Y200823D01*
X121522Y201448D01*
X122147Y202263D01*
X122454Y203005D01*
X132591D01*
X133005Y202005D01*
X132795Y201796D01*
X132508Y201366D01*
X132407Y200858D01*
Y199560D01*
X130932D01*
Y197555D01*
X128740D01*
X128233Y197455D01*
X127803Y197167D01*
X126191Y195555D01*
X122413D01*
X122147Y196197D01*
X121522Y197011D01*
X120707Y197637D01*
X119758Y198030D01*
X118740Y198164D01*
X117722Y198030D01*
X117081Y197764D01*
X108806Y206039D01*
Y207273D01*
X109139Y207495D01*
X109647Y208256D01*
X109825Y209154D01*
X109647Y210051D01*
X109139Y210812D01*
X108378Y211320D01*
X107480Y211499D01*
X106583Y211320D01*
X105822Y210812D01*
X105314Y210051D01*
X105135Y209154D01*
X105314Y208256D01*
X105822Y207495D01*
X106155Y207273D01*
Y205490D01*
X106256Y204983D01*
X106543Y204553D01*
X114540Y196555D01*
X114126Y195555D01*
X113521D01*
X113294Y195510D01*
X113014Y195455D01*
X113014Y195455D01*
X113014Y195455D01*
X112798Y195310D01*
X112584Y195167D01*
X112430Y195013D01*
X111430Y195427D01*
Y195682D01*
X104318D01*
Y189976D01*
X104118D01*
Y187311D01*
X111630D01*
Y189976D01*
X111430D01*
Y191391D01*
X112008D01*
X112235Y191436D01*
X112515Y191492D01*
X112515Y191492D01*
X112515Y191492D01*
X112731Y191636D01*
X112945Y191779D01*
X114070Y192904D01*
X115068D01*
X115334Y192263D01*
X115959Y191448D01*
X116773Y190823D01*
X117722Y190430D01*
X118740Y190296D01*
X119758Y190430D01*
X120707Y190823D01*
X121522Y191448D01*
X122147Y192263D01*
X122413Y192904D01*
X126740D01*
X127247Y193005D01*
X127677Y193293D01*
X129289Y194904D01*
X130932D01*
Y192960D01*
X132415D01*
Y189521D01*
X130932D01*
Y182921D01*
X136532D01*
Y189521D01*
X135066D01*
Y192960D01*
X136532D01*
Y199560D01*
X136532Y199560D01*
X136532D01*
X136570Y200545D01*
X138895D01*
X138932Y199560D01*
X138932Y199560D01*
X138932Y199560D01*
Y192960D01*
X144532D01*
Y194934D01*
X146006D01*
X148674Y192266D01*
Y182567D01*
X147959Y182168D01*
X147701Y182126D01*
X144532Y185295D01*
Y189521D01*
X138932D01*
Y182921D01*
X143158D01*
X148110Y177968D01*
X148540Y177681D01*
X149047Y177580D01*
X163354D01*
X163862Y177681D01*
X164292Y177968D01*
X165130Y178807D01*
X165418Y179237D01*
X165518Y179744D01*
Y181953D01*
X165613Y182084D01*
X166518Y182656D01*
X167012Y182549D01*
X167013D01*
X167091Y182549D01*
X168693D01*
Y186600D01*
Y190651D01*
X167091D01*
X167013Y190651D01*
X167012D01*
X166095Y190451D01*
X166012Y190451D01*
X165975D01*
X165708Y191451D01*
X166691Y192434D01*
X177992D01*
X178500Y192535D01*
X178930Y192822D01*
X183418Y197310D01*
X183705Y197740D01*
X183806Y198248D01*
Y247513D01*
X183705Y248021D01*
X183418Y248451D01*
X181596Y250272D01*
X181597Y250282D01*
X182049Y251234D01*
X204921D01*
X205429Y251335D01*
X205858Y251622D01*
X210583Y256346D01*
X210714Y256543D01*
X211389Y256822D01*
X212111Y257377D01*
X212666Y258099D01*
X213014Y258940D01*
X213133Y259842D01*
X213014Y260745D01*
X212666Y261586D01*
X212111Y262308D01*
X211389Y262862D01*
X210548Y263211D01*
X209646Y263330D01*
X208743Y263211D01*
X207902Y262862D01*
X207180Y262308D01*
X206626Y261586D01*
X206277Y260745D01*
X206158Y259842D01*
X206277Y258940D01*
X206626Y258099D01*
X207180Y257377D01*
X207222Y256734D01*
X204372Y253885D01*
X182242D01*
X180841Y255285D01*
X180525Y256188D01*
X180525D01*
X180525Y256188D01*
Y263300D01*
X178885D01*
Y264456D01*
X180525D01*
Y269136D01*
X181487Y269317D01*
X181895Y268332D01*
X182545Y267485D01*
X183391Y266836D01*
X184376Y266428D01*
X185433Y266289D01*
X186490Y266428D01*
X187476Y266836D01*
X188321Y267485D01*
X188971Y268332D01*
X189379Y269317D01*
X189518Y270374D01*
X189379Y271431D01*
X188971Y272416D01*
X188321Y273263D01*
X187476Y273912D01*
X186490Y274320D01*
X185433Y274459D01*
X184376Y274320D01*
X183391Y273912D01*
X182545Y273263D01*
X181895Y272416D01*
X181487Y271431D01*
X180525Y271568D01*
Y271568D01*
X180525Y271568D01*
X178719D01*
X178496Y271901D01*
X175445Y274953D01*
X175015Y275240D01*
X174508Y275341D01*
X163599D01*
Y278437D01*
X160433D01*
Y278937D01*
X159933D01*
Y282693D01*
X157268D01*
Y282493D01*
X151562D01*
Y280263D01*
X142633D01*
X141931Y281036D01*
X142053Y281849D01*
X142653Y282212D01*
X142939Y282256D01*
X143012Y282242D01*
X143593Y282357D01*
X143593Y282357D01*
X143593D01*
X144291Y282485D01*
X144990Y282357D01*
X144990D01*
X144990Y282357D01*
X144990D01*
X145571Y282242D01*
X145975Y282322D01*
X145975D01*
X145975Y282322D01*
X146152Y282357D01*
X146644Y282686D01*
X146644Y282686D01*
X146756Y282853D01*
X146974Y283179D01*
X147089Y283760D01*
Y290650D01*
X146974Y291231D01*
X146896Y291346D01*
Y291577D01*
X147892Y292572D01*
X156734D01*
X171405Y277901D01*
X171835Y277614D01*
X172343Y277513D01*
X196850D01*
X197358Y277614D01*
X197788Y277901D01*
X203209Y283323D01*
X203496Y283753D01*
X203597Y284260D01*
Y285584D01*
X204238Y285849D01*
X205053Y286474D01*
X205678Y287289D01*
X206071Y288238D01*
X206205Y289256D01*
X206071Y290274D01*
X205678Y291223D01*
X205053Y292038D01*
X204238Y292663D01*
X203290Y293056D01*
X202272Y293190D01*
X201254Y293056D01*
X200305Y292663D01*
X199490Y292038D01*
X198865Y291223D01*
X198472Y290274D01*
X198338Y289256D01*
X198472Y288238D01*
X198865Y287289D01*
X199490Y286474D01*
X200305Y285849D01*
X200674Y285696D01*
X200797Y284660D01*
X196301Y280164D01*
X192799D01*
X192385Y281164D01*
X193209Y281988D01*
X193496Y282418D01*
X193597Y282925D01*
Y285584D01*
X194238Y285849D01*
X195053Y286474D01*
X195678Y287289D01*
X196071Y288238D01*
X196205Y289256D01*
X196071Y290274D01*
X195678Y291223D01*
X195053Y292038D01*
X194238Y292663D01*
X193290Y293056D01*
X192272Y293190D01*
X191253Y293056D01*
X190305Y292663D01*
X189490Y292038D01*
X188865Y291223D01*
X188472Y290274D01*
X188338Y289256D01*
X188472Y288238D01*
X188865Y287289D01*
X189490Y286474D01*
X190305Y285849D01*
X190946Y285584D01*
Y283474D01*
X190392Y282920D01*
X174860D01*
X159894Y297886D01*
X159464Y298173D01*
X158957Y298274D01*
D02*
G37*
G36*
X302256Y292610D02*
X299098D01*
Y289453D01*
X302256D01*
Y292610D01*
D02*
G37*
G36*
X306413D02*
X303256D01*
Y289453D01*
X306413D01*
Y292610D01*
D02*
G37*
G36*
X315346Y292020D02*
X312681D01*
Y288764D01*
X315346D01*
Y292020D01*
D02*
G37*
G36*
X151665Y290146D02*
X151190Y290052D01*
X150363Y289499D01*
X149810Y288672D01*
X149716Y288197D01*
X151665D01*
Y290146D01*
D02*
G37*
G36*
X152665D02*
Y288197D01*
X154615D01*
X154520Y288672D01*
X153968Y289499D01*
X153141Y290052D01*
X152665Y290146D01*
D02*
G37*
G36*
X258338Y293243D02*
X257768Y293168D01*
X256771Y292755D01*
X255914Y292097D01*
X255257Y291241D01*
X254844Y290244D01*
X254769Y289673D01*
X258338D01*
Y293243D01*
D02*
G37*
G36*
X412492Y294267D02*
X411922Y294191D01*
X410924Y293778D01*
X410068Y293121D01*
X409411Y292265D01*
X408998Y291267D01*
X408923Y290697D01*
X412492D01*
Y294267D01*
D02*
G37*
G36*
X413492D02*
Y290697D01*
X417062D01*
X416987Y291267D01*
X416573Y292265D01*
X415916Y293121D01*
X415060Y293778D01*
X414062Y294191D01*
X413492Y294267D01*
D02*
G37*
G36*
X212772Y293326D02*
Y289756D01*
X216341D01*
X216266Y290326D01*
X215853Y291324D01*
X215196Y292180D01*
X214339Y292837D01*
X213342Y293250D01*
X212772Y293326D01*
D02*
G37*
G36*
X259338Y293243D02*
Y289673D01*
X262908D01*
X262833Y290244D01*
X262420Y291241D01*
X261763Y292097D01*
X260906Y292755D01*
X259909Y293168D01*
X259338Y293243D01*
D02*
G37*
G36*
X211772Y293326D02*
X211201Y293250D01*
X210204Y292837D01*
X209347Y292180D01*
X208690Y291324D01*
X208277Y290326D01*
X208202Y289756D01*
X211772D01*
Y293326D01*
D02*
G37*
G36*
X162284Y307969D02*
X161265Y307835D01*
X160317Y307442D01*
X159502Y306817D01*
X158877Y306002D01*
X158484Y305053D01*
X158350Y304035D01*
X158484Y303017D01*
X158877Y302069D01*
X159502Y301254D01*
X160317Y300629D01*
X161265Y300236D01*
X162284Y300102D01*
X163302Y300236D01*
X164250Y300629D01*
X165065Y301254D01*
X165690Y302069D01*
X166083Y303017D01*
X166217Y304035D01*
X166083Y305053D01*
X165690Y306002D01*
X165065Y306817D01*
X164250Y307442D01*
X163302Y307835D01*
X162284Y307969D01*
D02*
G37*
G36*
X152284D02*
X151265Y307835D01*
X150317Y307442D01*
X149502Y306817D01*
X148877Y306002D01*
X148484Y305053D01*
X148350Y304035D01*
X148484Y303017D01*
X148877Y302069D01*
X149502Y301254D01*
X150317Y300629D01*
X151265Y300236D01*
X152284Y300102D01*
X153302Y300236D01*
X154250Y300629D01*
X155065Y301254D01*
X155690Y302069D01*
X156083Y303017D01*
X156217Y304035D01*
X156083Y305053D01*
X155690Y306002D01*
X155065Y306817D01*
X154250Y307442D01*
X153302Y307835D01*
X152284Y307969D01*
D02*
G37*
G36*
X347153Y301564D02*
Y299614D01*
X349103D01*
X349008Y300090D01*
X348456Y300917D01*
X347629Y301469D01*
X347153Y301564D01*
D02*
G37*
G36*
X171783Y303535D02*
X168214D01*
X168289Y302965D01*
X168702Y301968D01*
X169359Y301111D01*
X170216Y300454D01*
X171213Y300041D01*
X171783Y299966D01*
Y303535D01*
D02*
G37*
G36*
X176353D02*
X172784D01*
Y299966D01*
X173354Y300041D01*
X174351Y300454D01*
X175208Y301111D01*
X175865Y301968D01*
X176278Y302965D01*
X176353Y303535D01*
D02*
G37*
G36*
X251783D02*
X248214D01*
X248289Y302965D01*
X248702Y301968D01*
X249359Y301111D01*
X250216Y300454D01*
X251213Y300041D01*
X251783Y299966D01*
Y303535D01*
D02*
G37*
G36*
X142283Y307969D02*
X141265Y307835D01*
X140317Y307442D01*
X139502Y306817D01*
X138877Y306002D01*
X138484Y305053D01*
X138350Y304035D01*
X138484Y303017D01*
X138877Y302069D01*
X139502Y301254D01*
X140317Y300629D01*
X141265Y300236D01*
X142283Y300102D01*
X143302Y300236D01*
X144250Y300629D01*
X145065Y301254D01*
X145690Y302069D01*
X146083Y303017D01*
X146217Y304035D01*
X146083Y305053D01*
X145690Y306002D01*
X145065Y306817D01*
X144250Y307442D01*
X143302Y307835D01*
X142283Y307969D01*
D02*
G37*
G36*
X256353Y303535D02*
X252783D01*
Y299966D01*
X253354Y300041D01*
X254351Y300454D01*
X255208Y301111D01*
X255865Y301968D01*
X256278Y302965D01*
X256353Y303535D01*
D02*
G37*
G36*
X182283Y307969D02*
X181265Y307835D01*
X180317Y307442D01*
X179502Y306817D01*
X178877Y306002D01*
X178484Y305053D01*
X178350Y304035D01*
X178484Y303017D01*
X178877Y302069D01*
X179502Y301254D01*
X180317Y300629D01*
X181265Y300236D01*
X182283Y300102D01*
X183302Y300236D01*
X184250Y300629D01*
X185065Y301254D01*
X185690Y302069D01*
X186083Y303017D01*
X186217Y304035D01*
X186083Y305053D01*
X185690Y306002D01*
X185065Y306817D01*
X184250Y307442D01*
X183302Y307835D01*
X182283Y307969D01*
D02*
G37*
G36*
X192283D02*
X191265Y307835D01*
X190317Y307442D01*
X189502Y306817D01*
X188877Y306002D01*
X188484Y305053D01*
X188350Y304035D01*
X188484Y303017D01*
X188877Y302069D01*
X189502Y301254D01*
X190317Y300629D01*
X191265Y300236D01*
X192283Y300102D01*
X193302Y300236D01*
X194250Y300629D01*
X195065Y301254D01*
X195690Y302069D01*
X196083Y303017D01*
X196217Y304035D01*
X196083Y305053D01*
X195690Y306002D01*
X195065Y306817D01*
X194250Y307442D01*
X193302Y307835D01*
X192283Y307969D01*
D02*
G37*
G36*
X346153Y301564D02*
X345678Y301469D01*
X344851Y300917D01*
X344299Y300090D01*
X344204Y299614D01*
X346153D01*
Y301564D01*
D02*
G37*
%LPD*%
G36*
X122800Y312339D02*
X122702Y312438D01*
X120339Y314800D01*
X125261D01*
X122800Y312339D01*
D02*
G37*
G36*
X163465Y198471D02*
X163297Y198438D01*
X162958Y198370D01*
X162958Y198370D01*
X162958D01*
X162528Y198083D01*
X162528Y198083D01*
X158256Y193811D01*
X158256Y193811D01*
X158256Y193811D01*
X158065Y193526D01*
X157968Y193381D01*
Y193381D01*
X157968Y193381D01*
X157918Y193126D01*
X157868Y192874D01*
Y192874D01*
Y192874D01*
Y190451D01*
X157212D01*
Y183806D01*
X156693Y183507D01*
X156174Y183807D01*
Y190451D01*
X155518D01*
Y195118D01*
X155418Y195625D01*
X155130Y196055D01*
X152724Y198462D01*
X152725Y198525D01*
X153034Y199462D01*
X163443D01*
X163465Y198471D01*
D02*
G37*
G36*
X422377Y194623D02*
X422193Y194500D01*
X420244Y192551D01*
X419957Y192121D01*
X419856Y191614D01*
Y190451D01*
X419200D01*
Y182749D01*
X419856D01*
Y180096D01*
X419794Y180034D01*
X417369D01*
X416986Y180958D01*
X417119Y181090D01*
X417406Y181520D01*
X417507Y182028D01*
Y182749D01*
X418162D01*
Y190451D01*
X417507D01*
Y192128D01*
X421002Y195623D01*
X422090D01*
X422377Y194623D01*
D02*
G37*
G36*
X250732Y195623D02*
X251040Y194750D01*
X251019Y194623D01*
X250834Y194500D01*
X250834Y194500D01*
X250834Y194500D01*
X248886Y192551D01*
X248743Y192337D01*
X248598Y192121D01*
X248598Y192121D01*
X248598Y192121D01*
X248544Y191849D01*
X248498Y191614D01*
Y190451D01*
X247842D01*
Y182749D01*
X248498D01*
Y180096D01*
X248435Y180034D01*
X246010D01*
X245628Y180958D01*
X245760Y181090D01*
X246048Y181520D01*
X246148Y182028D01*
Y182749D01*
X246804D01*
Y190451D01*
X246148D01*
Y192128D01*
X249644Y195623D01*
X250731D01*
X250732Y195623D01*
D02*
G37*
G36*
X336460Y195820D02*
X336747Y194820D01*
X336741Y194816D01*
X336563Y194697D01*
X334614Y192748D01*
X334614Y192748D01*
X334614Y192748D01*
X334455Y192510D01*
X334327Y192318D01*
X334327Y192318D01*
X334327Y192318D01*
X334284Y192106D01*
X334226Y191811D01*
X334226Y191811D01*
X334226Y191811D01*
Y190451D01*
X333570D01*
Y182749D01*
X334226D01*
Y180293D01*
X334164Y180231D01*
X331739D01*
X331356Y181155D01*
X331488Y181287D01*
X331776Y181717D01*
X331877Y182225D01*
Y182749D01*
X332532D01*
Y190451D01*
X331877D01*
Y192325D01*
X335372Y195820D01*
X336460D01*
X336460Y195820D01*
D02*
G37*
G36*
X370406Y259315D02*
X370461Y259314D01*
X370965Y259214D01*
X371276Y259276D01*
X371400Y259300D01*
X372333Y259138D01*
X372351Y259126D01*
X372933Y259010D01*
X373576Y258118D01*
Y257439D01*
X366282Y250144D01*
X354626D01*
X354119Y250044D01*
X353689Y249756D01*
X350127Y246194D01*
X349735Y246130D01*
X349065Y246163D01*
X348926Y246230D01*
X346581Y248575D01*
X346151Y248862D01*
X345643Y248963D01*
X319459D01*
X318952Y248862D01*
X318522Y248575D01*
X318051Y248105D01*
X317974Y248181D01*
X317544Y248469D01*
X317037Y248569D01*
X309925D01*
X309554Y249059D01*
X309993Y250134D01*
X310109Y250151D01*
X322638D01*
X323145Y250252D01*
X323575Y250539D01*
X326829Y253793D01*
X347736D01*
X348243Y253893D01*
X348674Y254181D01*
X352085Y257593D01*
X354588D01*
X355095Y257694D01*
X355525Y257981D01*
X356766Y259222D01*
X357019Y259247D01*
X357185Y259214D01*
X357689Y259314D01*
X357689Y259314D01*
X357689D01*
X358169Y259320D01*
X358649Y259314D01*
X358649D01*
D01*
X358649D01*
X359154Y259214D01*
X359658Y259314D01*
Y259314D01*
X359658Y259314D01*
D01*
X360138Y259320D01*
X360618Y259314D01*
X361230Y258906D01*
X361454Y257817D01*
X360184Y256547D01*
X359150Y256611D01*
X359040Y256776D01*
X358279Y257285D01*
X357382Y257463D01*
X356485Y257285D01*
X355724Y256776D01*
X355215Y256015D01*
X355037Y255118D01*
X355215Y254221D01*
X355724Y253460D01*
X356485Y252952D01*
X357382Y252773D01*
X358279Y252952D01*
X359040Y253460D01*
X359262Y253793D01*
X360630D01*
X361137Y253893D01*
X361567Y254181D01*
X364028Y256642D01*
X364315Y257072D01*
X364416Y257579D01*
Y258322D01*
X364732Y258760D01*
X365563Y259314D01*
X366043Y259320D01*
X366524Y259314D01*
X366524D01*
D01*
X366524D01*
X367028Y259214D01*
X367532Y259314D01*
Y259314D01*
X367532Y259314D01*
D01*
X368012Y259320D01*
X368492Y259314D01*
X368492Y259314D01*
X368492D01*
Y259314D01*
X368996Y259214D01*
X369500Y259314D01*
Y259314D01*
X369500Y259314D01*
D01*
X369980Y259320D01*
X370406Y259315D01*
D02*
G37*
G36*
X350954Y274505D02*
X351679Y274153D01*
X351744Y273827D01*
X352074Y273334D01*
X352101Y273197D01*
X351933Y272945D01*
X351832Y272441D01*
X351933Y271937D01*
X352101Y271685D01*
X352074Y271548D01*
X351744Y271055D01*
X351628Y270472D01*
X350737Y269829D01*
X350394D01*
X349886Y269728D01*
X349456Y269441D01*
X348571Y268555D01*
X348283Y268125D01*
X348182Y267618D01*
Y266986D01*
X347509Y266313D01*
X346437Y266655D01*
X346373Y267038D01*
X346705Y267370D01*
X346992Y267800D01*
X347093Y268307D01*
Y270981D01*
X350659Y274547D01*
X350954Y274505D01*
D02*
G37*
G36*
X334823Y198471D02*
X334655Y198438D01*
X334316Y198370D01*
X334316Y198370D01*
X334316D01*
X333886Y198083D01*
X333886Y198083D01*
X329614Y193811D01*
X329614Y193811D01*
X329614Y193811D01*
X329423Y193526D01*
X329327Y193381D01*
Y193381D01*
X329327Y193381D01*
X329276Y193126D01*
X329226Y192874D01*
Y192874D01*
Y192874D01*
Y190451D01*
X328570D01*
Y183770D01*
X328091Y183488D01*
X327532Y183816D01*
Y190451D01*
X326877D01*
Y195216D01*
X326836Y195418D01*
X326776Y195724D01*
X326776Y195724D01*
Y195724D01*
X326652Y195909D01*
X326488Y196154D01*
X324180Y198462D01*
X324255Y198927D01*
X324540Y199462D01*
X334801D01*
X334823Y198471D01*
D02*
G37*
G36*
X435289Y215049D02*
Y200943D01*
X432620Y198274D01*
X420453D01*
X419946Y198173D01*
X419516Y197886D01*
X415244Y193614D01*
X414957Y193184D01*
X414856Y192677D01*
Y190451D01*
X414200D01*
Y183598D01*
X413799Y183312D01*
X413162Y183705D01*
Y190451D01*
X412507D01*
Y195020D01*
X412406Y195527D01*
X412118Y195957D01*
X409697Y198378D01*
X409572Y198462D01*
X409875Y199462D01*
X421239D01*
X421746Y199563D01*
X422176Y199850D01*
X426334Y204009D01*
X428162D01*
Y209337D01*
X434289Y215463D01*
X435289Y215049D01*
D02*
G37*
G36*
X165102Y195820D02*
X165389Y194820D01*
X165383Y194816D01*
X165205Y194697D01*
X163256Y192748D01*
X163256Y192748D01*
X163256Y192748D01*
X163097Y192510D01*
X162969Y192318D01*
X162968Y192318D01*
X162968Y192318D01*
X162926Y192106D01*
X162867Y191811D01*
X162867Y191811D01*
X162867Y191811D01*
Y190451D01*
X162212D01*
Y182749D01*
X162867D01*
Y180293D01*
X162805Y180231D01*
X160380D01*
X159998Y181155D01*
X160130Y181287D01*
X160418Y181717D01*
X160519Y182225D01*
Y182749D01*
X161174D01*
Y190451D01*
X160519D01*
Y192325D01*
X164014Y195820D01*
X165101D01*
X165102Y195820D01*
D02*
G37*
G36*
X318158Y203839D02*
X312158D01*
X315158Y206839D01*
X318158Y203839D01*
D02*
G37*
G36*
X232429D02*
X226429D01*
X229429Y206839D01*
X232429Y203839D01*
D02*
G37*
G36*
X173239Y272568D02*
X172705Y271568D01*
X168688D01*
Y269337D01*
X166447D01*
X166225Y269670D01*
X165464Y270178D01*
X164567Y270357D01*
X163670Y270178D01*
X162909Y269670D01*
X162686Y269337D01*
X159449D01*
X158942Y269236D01*
X158512Y268949D01*
X156740Y267177D01*
X156453Y266747D01*
X156352Y266240D01*
Y263300D01*
X154712D01*
Y256188D01*
X160417D01*
Y255988D01*
X163083D01*
Y259744D01*
Y263500D01*
X160417D01*
Y263300D01*
X159002D01*
Y265691D01*
X159998Y266686D01*
X162686D01*
X162909Y266354D01*
X163670Y265845D01*
X164567Y265667D01*
X165464Y265845D01*
X166225Y266354D01*
X166447Y266686D01*
X168688D01*
Y264456D01*
X168688Y264456D01*
X168688D01*
X168582Y263500D01*
X168488D01*
Y260244D01*
X171654D01*
Y259744D01*
X172154D01*
Y255988D01*
X174819D01*
Y256188D01*
X175990D01*
X176350Y255648D01*
X175853Y254672D01*
X147174D01*
X146916Y255085D01*
X146745Y255672D01*
X146974Y256014D01*
X147089Y256595D01*
Y263484D01*
X146974Y264065D01*
X146756Y264391D01*
X146644Y264558D01*
X146644Y264558D01*
X146152Y264887D01*
X145975Y264922D01*
Y264922D01*
D01*
X145571Y265002D01*
X144990Y264887D01*
D01*
X144990D01*
X144291Y264759D01*
X143593Y264887D01*
X143593D01*
D01*
D01*
X143012Y265002D01*
X142431Y264887D01*
D01*
X142431D01*
X141732Y264759D01*
X141034Y264887D01*
X141034D01*
D01*
D01*
X140453Y265002D01*
X139872Y264887D01*
D01*
X139872D01*
X139173Y264759D01*
X138475Y264887D01*
X138475D01*
D01*
D01*
X137894Y265002D01*
X137313Y264887D01*
D01*
X137313D01*
X136614Y264759D01*
X135916Y264887D01*
X135916D01*
X135916Y264887D01*
X135916D01*
X135335Y265002D01*
X134930Y264922D01*
X134930D01*
X134930D01*
X134930Y264922D01*
X134754Y264887D01*
X134584Y264774D01*
X134081Y264558D01*
X134029D01*
X133526Y264774D01*
X133357Y264887D01*
X133180Y264922D01*
X133180Y264922D01*
D01*
X132776Y265002D01*
X132195Y264887D01*
D01*
X132195D01*
X131496Y264759D01*
X130798Y264887D01*
X130798D01*
X130798Y264887D01*
X130798D01*
X130217Y265002D01*
X129812Y264922D01*
X129812D01*
X129812D01*
X129812Y264922D01*
X129636Y264887D01*
X129622Y264878D01*
X128900Y264710D01*
X128316Y265075D01*
X128316Y265075D01*
X128316Y265075D01*
X128157Y265107D01*
Y260039D01*
X127157D01*
Y265107D01*
X126998Y265075D01*
X126998Y265075D01*
Y265075D01*
X126998Y265075D01*
X126415Y264710D01*
X125693Y264878D01*
X125679Y264887D01*
X125503Y264922D01*
X125503Y264922D01*
X125099Y265002D01*
X124518Y264887D01*
D01*
X124518D01*
X123819Y264759D01*
X123120Y264887D01*
X123120D01*
X123120Y264887D01*
X122539Y265002D01*
X122466Y264988D01*
X122180Y265032D01*
X121467Y265464D01*
X121306Y265654D01*
Y267955D01*
X126041Y272690D01*
X173157D01*
X173239Y272568D01*
D02*
G37*
G36*
X403787Y203839D02*
X397787D01*
X400787Y206839D01*
X403787Y203839D01*
D02*
G37*
G36*
X349659Y215049D02*
Y201140D01*
X346990Y198471D01*
X335631D01*
X335609Y199462D01*
X336116Y199563D01*
X336546Y199850D01*
X340704Y204009D01*
X342532D01*
Y209337D01*
X348659Y215463D01*
X349659Y215049D01*
D02*
G37*
G36*
X146799Y203839D02*
X140799D01*
X143799Y206839D01*
X146799Y203839D01*
D02*
G37*
G36*
X263931Y215049D02*
Y200943D01*
X261262Y198274D01*
X249095D01*
X249095D01*
X249095D01*
X248587Y198173D01*
X248372Y198029D01*
X248157Y197886D01*
X248157Y197886D01*
X248157Y197886D01*
X243886Y193614D01*
X243743Y193401D01*
X243598Y193184D01*
Y193184D01*
X243598Y193184D01*
X243531Y192845D01*
X243497Y192677D01*
Y190451D01*
X242842D01*
Y183598D01*
X242441Y183312D01*
X241804Y183705D01*
Y190451D01*
X241148D01*
Y195020D01*
X241048Y195527D01*
X240760Y195957D01*
X238339Y198378D01*
X238214Y198462D01*
X238517Y199462D01*
X249880D01*
X250388Y199563D01*
X250818Y199850D01*
X254976Y204009D01*
X256804D01*
Y209337D01*
X262930Y215463D01*
X263931Y215049D01*
D02*
G37*
G36*
X178300D02*
Y201140D01*
X175632Y198471D01*
X164272D01*
X164250Y199462D01*
X164758Y199563D01*
X165188Y199850D01*
X169346Y204009D01*
X171174D01*
Y209337D01*
X177301Y215463D01*
X178300Y215049D01*
D02*
G37*
G36*
X324574Y280957D02*
Y274357D01*
X330174D01*
Y276234D01*
X339480D01*
X339895Y275234D01*
X338526Y273865D01*
X331693D01*
X331186Y273764D01*
X330756Y273477D01*
X326475Y269196D01*
X326465Y269194D01*
X325704Y268686D01*
X325196Y267925D01*
X325017Y267028D01*
X325196Y266130D01*
X325704Y265369D01*
X326465Y264861D01*
X327362Y264683D01*
X328260Y264861D01*
X329020Y265369D01*
X329529Y266130D01*
X329707Y267028D01*
X329529Y267925D01*
X329298Y268270D01*
X332242Y271214D01*
X334951D01*
X335073Y271046D01*
X334956Y269768D01*
X334448Y269008D01*
X334269Y268110D01*
X334448Y267213D01*
X334956Y266452D01*
X335717Y265944D01*
X336614Y265765D01*
X337512Y265944D01*
X338272Y266452D01*
X338495Y266785D01*
X338681D01*
X339188Y266886D01*
X339618Y267173D01*
X343442Y270997D01*
X344442Y270583D01*
Y269221D01*
X343602Y268487D01*
X342705Y268308D01*
X341944Y267800D01*
X341436Y267039D01*
X341257Y266142D01*
X341436Y265244D01*
X341944Y264483D01*
X342705Y263975D01*
X343602Y263797D01*
X344066Y262869D01*
X343250Y262054D01*
X327222D01*
X321000Y268276D01*
X320570Y268563D01*
X320063Y268664D01*
X319245D01*
Y270139D01*
X312645D01*
Y264539D01*
X319245D01*
Y264868D01*
X320245Y265282D01*
X325736Y259791D01*
X326166Y259504D01*
X326673Y259403D01*
X326651Y258412D01*
X325197D01*
X324690Y258311D01*
X324260Y258024D01*
X320838Y254602D01*
X317339D01*
X316947Y255423D01*
X316911Y255602D01*
X317169Y255989D01*
X317270Y256496D01*
Y256539D01*
X319245D01*
Y262139D01*
X312645D01*
Y256936D01*
X297498D01*
X296508Y257925D01*
X296078Y258213D01*
X295571Y258314D01*
X290465D01*
Y259928D01*
Y261568D01*
X294587D01*
X295094Y261669D01*
X295524Y261956D01*
X300839Y267271D01*
X300944Y267430D01*
X301898Y267785D01*
X302168Y267815D01*
X302251Y267759D01*
Y264287D01*
X302051D01*
Y261622D01*
X309563D01*
Y264287D01*
X309363D01*
Y269993D01*
X306451D01*
X305896Y270993D01*
X306075Y271280D01*
X306133Y271312D01*
X312894D01*
X313401Y271413D01*
X313831Y271701D01*
X314118Y272131D01*
X314219Y272638D01*
Y279077D01*
X315374Y280232D01*
X316374Y279818D01*
Y278157D01*
X322374D01*
Y280647D01*
X322374Y281157D01*
X323171Y281647D01*
D01*
X323860D01*
X324574Y280957D01*
D02*
G37*
G36*
X326877Y245312D02*
X326827Y245237D01*
X326726Y244730D01*
Y242902D01*
X326084Y242637D01*
X325270Y242011D01*
X324645Y241197D01*
X324252Y240248D01*
X324117Y239230D01*
X324252Y238212D01*
X324645Y237263D01*
X325270Y236449D01*
X326084Y235823D01*
X326726Y235558D01*
Y232530D01*
X324751D01*
Y226930D01*
X331351D01*
Y232530D01*
X329377D01*
Y235558D01*
X330018Y235823D01*
X330833Y236449D01*
X331458Y237263D01*
X331851Y238212D01*
X331985Y239230D01*
X331851Y240248D01*
X331458Y241197D01*
X330833Y242011D01*
X330018Y242637D01*
X329377Y242902D01*
Y244181D01*
X329508Y244312D01*
X344094D01*
X344726Y243681D01*
Y230736D01*
X343802Y230354D01*
X343489Y230667D01*
X343058Y230955D01*
X342551Y231055D01*
X341351D01*
Y232530D01*
X339377D01*
Y235558D01*
X340018Y235823D01*
X340833Y236449D01*
X341458Y237263D01*
X341851Y238212D01*
X341985Y239230D01*
X341851Y240248D01*
X341458Y241197D01*
X340833Y242011D01*
X340018Y242637D01*
X339069Y243030D01*
X338051Y243164D01*
X337033Y243030D01*
X336084Y242637D01*
X335270Y242011D01*
X334645Y241197D01*
X334252Y240248D01*
X334118Y239230D01*
X334252Y238212D01*
X334645Y237263D01*
X335270Y236449D01*
X336084Y235823D01*
X336726Y235558D01*
Y232530D01*
X334751D01*
Y226930D01*
X341351D01*
Y226930D01*
X342351Y227403D01*
X342726Y227128D01*
Y219075D01*
X342233Y218689D01*
X341351Y219269D01*
Y224530D01*
X334751D01*
Y223056D01*
X331351D01*
Y224530D01*
X324751D01*
Y223866D01*
X323751Y223452D01*
X321536Y225667D01*
X321106Y225955D01*
X320598Y226056D01*
X317698D01*
Y227330D01*
X316424D01*
Y229094D01*
X316323Y229602D01*
X316036Y230032D01*
X312059Y234008D01*
X311629Y234295D01*
X311122Y234396D01*
X309853D01*
X309631Y234729D01*
X308870Y235237D01*
X307972Y235416D01*
X307677Y235357D01*
X306936Y236018D01*
Y238176D01*
X309166D01*
Y244082D01*
Y245918D01*
X316488D01*
X316726Y245681D01*
Y243130D01*
X314151D01*
Y235330D01*
X321951D01*
Y243130D01*
X319377D01*
Y245681D01*
X320008Y246312D01*
X326416D01*
X326877Y245312D01*
D02*
G37*
G36*
X412507D02*
X412457Y245237D01*
X412356Y244730D01*
Y242902D01*
X411714Y242637D01*
X410900Y242011D01*
X410275Y241197D01*
X409882Y240248D01*
X409748Y239230D01*
X409882Y238212D01*
X410275Y237263D01*
X410900Y236449D01*
X411714Y235823D01*
X412356Y235558D01*
Y232530D01*
X410381D01*
Y226930D01*
X416981D01*
Y232530D01*
X415007D01*
Y235558D01*
X415648Y235823D01*
X416463Y236449D01*
X417088Y237263D01*
X417481Y238212D01*
X417615Y239230D01*
X417481Y240248D01*
X417088Y241197D01*
X416463Y242011D01*
X415648Y242637D01*
X415007Y242902D01*
Y244181D01*
X415138Y244312D01*
X429724D01*
X430356Y243681D01*
Y230736D01*
X429432Y230354D01*
X429118Y230667D01*
X428688Y230955D01*
X428181Y231055D01*
X426981D01*
Y232530D01*
X425007D01*
Y235558D01*
X425648Y235823D01*
X426463Y236449D01*
X427088Y237263D01*
X427481Y238212D01*
X427615Y239230D01*
X427481Y240248D01*
X427088Y241197D01*
X426463Y242011D01*
X425648Y242637D01*
X424699Y243030D01*
X423681Y243164D01*
X422663Y243030D01*
X421714Y242637D01*
X420900Y242011D01*
X420275Y241197D01*
X419882Y240248D01*
X419747Y239230D01*
X419882Y238212D01*
X420275Y237263D01*
X420900Y236449D01*
X421714Y235823D01*
X422356Y235558D01*
Y232530D01*
X420381D01*
Y226930D01*
X426981D01*
Y226930D01*
X427981Y227403D01*
X428356Y227128D01*
Y219075D01*
X427863Y218689D01*
X426981Y219269D01*
Y224530D01*
X420381D01*
Y223056D01*
X416981D01*
Y224530D01*
X410381D01*
Y223866D01*
X409381Y223452D01*
X407166Y225667D01*
X406736Y225955D01*
X406228Y226056D01*
X403328D01*
Y227330D01*
X402054D01*
Y229094D01*
X401953Y229602D01*
X401666Y230032D01*
X397689Y234008D01*
X397259Y234295D01*
X396752Y234396D01*
X395483D01*
X395261Y234729D01*
X394500Y235237D01*
X393602Y235416D01*
X393307Y235357D01*
X392566Y236018D01*
Y238176D01*
X394796D01*
Y244082D01*
Y245918D01*
X402118D01*
X402356Y245681D01*
Y243130D01*
X399781D01*
Y235330D01*
X407581D01*
Y243130D01*
X405007D01*
Y245681D01*
X405638Y246312D01*
X412046D01*
X412507Y245312D01*
D02*
G37*
G36*
X341863Y280647D02*
X340101Y278885D01*
X330881D01*
X330174Y279592D01*
Y280957D01*
X330888Y281647D01*
X341449D01*
X341863Y280647D01*
D02*
G37*
G36*
X357514Y293367D02*
X358320Y292561D01*
Y275549D01*
X357996Y275225D01*
X356809Y275362D01*
X356621Y275648D01*
X356538Y275867D01*
X356540Y275878D01*
X354134D01*
Y276878D01*
X356540D01*
X356524Y276960D01*
X356511Y276978D01*
X356349Y277911D01*
X356373Y278034D01*
X356436Y278346D01*
X356335Y278850D01*
X356335Y278905D01*
X356330Y279331D01*
X356335Y279811D01*
Y279811D01*
D01*
Y279811D01*
X356436Y280315D01*
X356335Y280819D01*
X356335D01*
X356335Y280819D01*
D01*
X356330Y281299D01*
X356335Y281779D01*
Y281779D01*
D01*
Y281779D01*
X356436Y282283D01*
X356335Y282788D01*
X356335D01*
X356335Y282788D01*
D01*
X356330Y283268D01*
X356335Y283693D01*
X356335Y283749D01*
X356436Y284252D01*
X356371Y284579D01*
X356349Y284687D01*
X356511Y285620D01*
X356524Y285638D01*
X356540Y285720D01*
X354134D01*
Y286720D01*
X356540D01*
X356524Y286803D01*
X356511Y286821D01*
X356349Y287754D01*
X356373Y287876D01*
X356436Y288189D01*
X356335Y288692D01*
X356335Y288748D01*
X356330Y289173D01*
X356335Y289653D01*
Y289653D01*
D01*
Y289653D01*
X356436Y290157D01*
X356335Y290662D01*
X356335D01*
X356335Y290662D01*
D01*
X356330Y291142D01*
X356335Y291567D01*
X356335Y291623D01*
X356436Y292126D01*
X356371Y292453D01*
X356349Y292561D01*
X357005Y293289D01*
X357061Y293344D01*
X357301Y293398D01*
X357514Y293367D01*
D02*
G37*
G36*
X370461Y294944D02*
X370461D01*
X370461Y294944D01*
X371387Y294622D01*
X371708Y294473D01*
Y294473D01*
X371708Y294473D01*
X371996Y294043D01*
X372315Y293724D01*
X373571Y292468D01*
X374001Y292181D01*
X374508Y292080D01*
X383419D01*
Y280413D01*
Y264764D01*
Y264709D01*
X383103Y264272D01*
X382272Y263717D01*
X381791Y263711D01*
X381311Y263717D01*
X381311D01*
D01*
X381311D01*
X380807Y263817D01*
X380303Y263717D01*
Y263717D01*
X380303Y263717D01*
D01*
X379823Y263712D01*
X379343Y263717D01*
X379343D01*
D01*
X379343D01*
X378839Y263817D01*
X378334Y263717D01*
Y263717D01*
X378334Y263717D01*
D01*
X377854Y263711D01*
X377374Y263717D01*
X377374D01*
D01*
X377374D01*
X376870Y263817D01*
X376366Y263717D01*
Y263717D01*
X376366Y263717D01*
D01*
X375886Y263712D01*
X375461Y263716D01*
X375405Y263717D01*
X374902Y263817D01*
X374496Y263737D01*
X374467Y263731D01*
X374467D01*
X373534Y263893D01*
X373515Y263905D01*
X373433Y263922D01*
Y261516D01*
X372433D01*
Y263922D01*
X372351Y263905D01*
X372333Y263893D01*
X371400Y263731D01*
X371400D01*
X371338Y263743D01*
X370965Y263817D01*
X370461Y263717D01*
X370406Y263716D01*
X369980Y263711D01*
X369500Y263717D01*
X369500D01*
D01*
X369500D01*
X368996Y263817D01*
X368492Y263717D01*
Y263717D01*
X368492Y263717D01*
D01*
X368012Y263712D01*
X367532Y263717D01*
X367532D01*
D01*
X367532D01*
X367028Y263817D01*
X366524Y263717D01*
Y263717D01*
X366524Y263717D01*
D01*
X366043Y263711D01*
X365563Y263717D01*
X365563D01*
D01*
X365563D01*
X365059Y263817D01*
X364555Y263717D01*
Y263717D01*
X364555Y263717D01*
D01*
X364075Y263712D01*
X363595Y263717D01*
X363595D01*
D01*
X363595D01*
X363091Y263817D01*
X362586Y263717D01*
Y263717D01*
X362586Y263717D01*
D01*
X362106Y263711D01*
X361626Y263717D01*
X361626D01*
D01*
X361626D01*
X361122Y263817D01*
X360618Y263717D01*
Y263717D01*
X360618Y263717D01*
D01*
X360138Y263712D01*
X359658Y263717D01*
X359658D01*
D01*
X359658D01*
X359154Y263817D01*
X358649Y263717D01*
Y263717D01*
X358649Y263717D01*
D01*
X358169Y263711D01*
X357689Y263717D01*
D01*
X356837Y264166D01*
X356441Y264562D01*
X356427Y264609D01*
X356335Y265071D01*
X356167Y265323D01*
X356194Y265460D01*
X356524Y265953D01*
X356540Y266035D01*
X354134D01*
Y267035D01*
X356540D01*
X356524Y267118D01*
X356194Y267611D01*
X356167Y267747D01*
X356335Y268000D01*
X356436Y268504D01*
X356335Y269008D01*
X356167Y269260D01*
X356194Y269397D01*
X356524Y269890D01*
X356540Y269972D01*
X354134D01*
Y270972D01*
X356987D01*
X357087Y271115D01*
X357594Y271216D01*
X358024Y271504D01*
X360583Y274063D01*
X360870Y274493D01*
X360971Y275000D01*
Y293110D01*
X360870Y293618D01*
X360672Y293914D01*
X360838Y294360D01*
X361626Y294944D01*
X362106Y294950D01*
X362586Y294944D01*
X362586D01*
D01*
X362586D01*
X363091Y294844D01*
X363595Y294944D01*
Y294944D01*
X363595Y294944D01*
D01*
X364075Y294950D01*
X364555Y294944D01*
X364555D01*
D01*
X364555D01*
X365059Y294844D01*
X365563Y294944D01*
Y294944D01*
X365563Y294944D01*
D01*
X366043Y294950D01*
X366524Y294944D01*
X366524D01*
D01*
X366524D01*
X367028Y294844D01*
X367532Y294944D01*
Y294944D01*
X367532Y294944D01*
D01*
X368012Y294950D01*
X368492Y294944D01*
X368492Y294944D01*
X368492D01*
Y294944D01*
X368996Y294844D01*
X369500Y294944D01*
Y294944D01*
X369500Y294944D01*
D01*
X369980Y294950D01*
X370461Y294944D01*
D02*
G37*
G36*
X241149Y245312D02*
X241098Y245237D01*
X240998Y244730D01*
Y242902D01*
X240356Y242637D01*
X239542Y242011D01*
X238916Y241197D01*
X238523Y240248D01*
X238389Y239230D01*
X238523Y238212D01*
X238916Y237263D01*
X239542Y236449D01*
X240356Y235823D01*
X240998Y235558D01*
Y232530D01*
X239023D01*
Y226930D01*
X245623D01*
Y232530D01*
X243649D01*
Y235558D01*
X244290Y235823D01*
X245105Y236449D01*
X245730Y237263D01*
X246123Y238212D01*
X246257Y239230D01*
X246123Y240248D01*
X245730Y241197D01*
X245105Y242011D01*
X244290Y242637D01*
X243649Y242902D01*
Y244181D01*
X243780Y244312D01*
X258366D01*
X258998Y243681D01*
Y230736D01*
X258074Y230354D01*
X257760Y230667D01*
X257330Y230955D01*
X256823Y231055D01*
X255623D01*
Y232530D01*
X253648D01*
Y235558D01*
X254290Y235823D01*
X255104Y236449D01*
X255730Y237263D01*
X256123Y238212D01*
X256257Y239230D01*
X256123Y240248D01*
X255730Y241197D01*
X255104Y242011D01*
X254290Y242637D01*
X253341Y243030D01*
X252323Y243164D01*
X251305Y243030D01*
X250356Y242637D01*
X249541Y242011D01*
X248916Y241197D01*
X248523Y240248D01*
X248389Y239230D01*
X248523Y238212D01*
X248916Y237263D01*
X249541Y236449D01*
X250356Y235823D01*
X250997Y235558D01*
Y232530D01*
X249023D01*
Y226930D01*
X255623D01*
Y226930D01*
X256623Y227403D01*
X256997Y227128D01*
Y219075D01*
X256504Y218689D01*
X255623Y219269D01*
Y224530D01*
X249023D01*
Y223056D01*
X245623D01*
Y224530D01*
X239023D01*
Y223866D01*
X238023Y223452D01*
X235807Y225667D01*
X235377Y225955D01*
X234870Y226056D01*
X231970D01*
Y227330D01*
X230696D01*
Y229094D01*
X230595Y229602D01*
X230308Y230032D01*
X226331Y234008D01*
X225901Y234295D01*
X225394Y234396D01*
X224125D01*
X223902Y234729D01*
X223142Y235237D01*
X222244Y235416D01*
X221949Y235357D01*
X221207Y236018D01*
Y238176D01*
X223438D01*
Y244082D01*
Y245918D01*
X230760D01*
X230997Y245681D01*
Y243130D01*
X228423D01*
Y235330D01*
X236223D01*
Y243130D01*
X233648D01*
Y245681D01*
X234280Y246312D01*
X240688D01*
X241149Y245312D01*
D02*
G37*
G36*
X155519D02*
X155468Y245237D01*
X155368Y244730D01*
Y242902D01*
X154726Y242637D01*
X153911Y242011D01*
X153286Y241197D01*
X152893Y240248D01*
X152759Y239230D01*
X152893Y238212D01*
X153286Y237263D01*
X153911Y236449D01*
X154726Y235823D01*
X155368Y235558D01*
Y232530D01*
X153393D01*
Y226930D01*
X159993D01*
Y232530D01*
X158019D01*
Y235558D01*
X158660Y235823D01*
X159475Y236449D01*
X160100Y237263D01*
X160493Y238212D01*
X160627Y239230D01*
X160493Y240248D01*
X160100Y241197D01*
X159475Y242011D01*
X158660Y242637D01*
X158019Y242902D01*
Y244181D01*
X158150Y244312D01*
X172736D01*
X173368Y243681D01*
Y230736D01*
X172444Y230354D01*
X172130Y230667D01*
X171700Y230955D01*
X171193Y231055D01*
X169993D01*
Y232530D01*
X168018D01*
Y235558D01*
X168660Y235823D01*
X169474Y236449D01*
X170100Y237263D01*
X170493Y238212D01*
X170627Y239230D01*
X170493Y240248D01*
X170100Y241197D01*
X169474Y242011D01*
X168660Y242637D01*
X167711Y243030D01*
X166693Y243164D01*
X165675Y243030D01*
X164726Y242637D01*
X163911Y242011D01*
X163286Y241197D01*
X162893Y240248D01*
X162759Y239230D01*
X162893Y238212D01*
X163286Y237263D01*
X163911Y236449D01*
X164726Y235823D01*
X165367Y235558D01*
Y232530D01*
X163393D01*
Y226930D01*
X169993D01*
Y226930D01*
X170993Y227403D01*
X171368Y227128D01*
Y219075D01*
X170874Y218689D01*
X169993Y219269D01*
Y224530D01*
X163393D01*
Y223056D01*
X159993D01*
Y224530D01*
X153393D01*
Y223866D01*
X152393Y223452D01*
X150177Y225667D01*
X149747Y225955D01*
X149240Y226056D01*
X146340D01*
Y227330D01*
X145066D01*
Y229094D01*
X144965Y229602D01*
X144677Y230032D01*
X140701Y234008D01*
X140271Y234295D01*
X139764Y234396D01*
X138495D01*
X138272Y234729D01*
X137512Y235237D01*
X136614Y235416D01*
X136319Y235357D01*
X135577Y236018D01*
Y238176D01*
X137808D01*
Y244082D01*
Y245918D01*
X145130D01*
X145368Y245681D01*
Y243130D01*
X142793D01*
Y235330D01*
X150593D01*
Y243130D01*
X148019D01*
Y245681D01*
X148650Y246312D01*
X155058D01*
X155519Y245312D01*
D02*
G37*
%LPC*%
G36*
X381807Y271744D02*
X379536D01*
Y269472D01*
X381807D01*
Y271744D01*
D02*
G37*
G36*
X318874Y277157D02*
X316374D01*
Y274157D01*
X318874D01*
Y277157D01*
D02*
G37*
G36*
X371449Y278831D02*
X362091D01*
Y277468D01*
X364862D01*
Y276468D01*
X362091D01*
Y272744D01*
X364862D01*
Y272244D01*
X365362D01*
Y269472D01*
X369087D01*
Y272244D01*
X370087D01*
Y269472D01*
X371449D01*
Y278831D01*
D02*
G37*
G36*
X381807D02*
X372449D01*
Y269472D01*
X373811D01*
Y272244D01*
X374811D01*
Y269472D01*
X378536D01*
Y272244D01*
X379035D01*
Y272744D01*
X381807D01*
Y276468D01*
X379035D01*
Y277468D01*
X381807D01*
Y278831D01*
D02*
G37*
G36*
X322374Y277157D02*
X319874D01*
Y274157D01*
X322374D01*
Y277157D01*
D02*
G37*
G36*
X364362Y289189D02*
X362091D01*
Y286917D01*
X364362D01*
Y289189D01*
D02*
G37*
G36*
X381807D02*
X379536D01*
Y286917D01*
X381807D01*
Y289189D01*
D02*
G37*
G36*
X371449D02*
X370087D01*
Y286417D01*
X369087D01*
Y289189D01*
X365362D01*
Y286417D01*
X364862D01*
Y285917D01*
X362091D01*
Y282193D01*
X364862D01*
Y281193D01*
X362091D01*
Y279831D01*
X371449D01*
Y289189D01*
D02*
G37*
G36*
X378536D02*
X374811D01*
Y286417D01*
X373811D01*
Y289189D01*
X372449D01*
Y279831D01*
X381807D01*
Y281193D01*
X379035D01*
Y282193D01*
X381807D01*
Y285917D01*
X379035D01*
Y286417D01*
X378536D01*
Y289189D01*
D02*
G37*
G36*
X364362Y271744D02*
X362091D01*
Y269472D01*
X364362D01*
Y271744D01*
D02*
G37*
G36*
X305307Y260622D02*
X302051D01*
Y257957D01*
X305307D01*
Y260622D01*
D02*
G37*
G36*
X309563D02*
X306307D01*
Y257957D01*
X309563D01*
Y260622D01*
D02*
G37*
G36*
X166748Y259244D02*
X164083D01*
Y255988D01*
X166748D01*
Y259244D01*
D02*
G37*
G36*
X171154Y259244D02*
X168488D01*
Y255988D01*
X171154D01*
Y259244D01*
D02*
G37*
G36*
X166748Y263500D02*
X164083D01*
Y260244D01*
X166748D01*
Y263500D01*
D02*
G37*
G36*
X151567Y270757D02*
X151092Y270662D01*
X150265Y270110D01*
X149712Y269283D01*
X149617Y268807D01*
X151567D01*
Y270757D01*
D02*
G37*
G36*
X152567D02*
Y268807D01*
X154516D01*
X154422Y269283D01*
X153869Y270110D01*
X153042Y270662D01*
X152567Y270757D01*
D02*
G37*
G36*
X151567Y267807D02*
X149617D01*
X149712Y267332D01*
X150265Y266505D01*
X151092Y265952D01*
X151567Y265858D01*
Y267807D01*
D02*
G37*
G36*
X154516D02*
X152567D01*
Y265858D01*
X153042Y265952D01*
X153869Y266505D01*
X154422Y267332D01*
X154516Y267807D01*
D02*
G37*
%LPD*%
D10*
X280610Y272441D02*
D03*
X286516D02*
D03*
X388976Y306988D02*
D03*
X394882D02*
D03*
X321752Y292520D02*
D03*
X315846D02*
D03*
X331693D02*
D03*
X337598D02*
D03*
X154527Y278937D02*
D03*
X160433D02*
D03*
X157677Y259744D02*
D03*
X163583D02*
D03*
X177559Y268012D02*
D03*
X171654D02*
D03*
X177559Y259744D02*
D03*
X171654D02*
D03*
D11*
X278051Y262894D02*
D03*
Y256988D02*
D03*
X305807Y267027D02*
D03*
Y261122D02*
D03*
X286910Y262894D02*
D03*
Y256988D02*
D03*
X224114Y260138D02*
D03*
Y266043D02*
D03*
X134252Y247047D02*
D03*
Y241142D02*
D03*
X107874Y186811D02*
D03*
Y192717D02*
D03*
X219882Y247047D02*
D03*
Y241142D02*
D03*
X193504Y186811D02*
D03*
Y192717D02*
D03*
X391240Y241142D02*
D03*
Y247047D02*
D03*
X364862Y192717D02*
D03*
Y186811D02*
D03*
X279232Y192717D02*
D03*
Y186811D02*
D03*
X305610Y241142D02*
D03*
Y247047D02*
D03*
X224213Y279626D02*
D03*
Y273720D02*
D03*
D12*
X235166Y258124D02*
D03*
Y267224D02*
D03*
Y276324D02*
D03*
D13*
X259966Y267224D02*
D03*
D14*
X319374Y277657D02*
D03*
X327374D02*
D03*
X119417Y296850D02*
D03*
X111417D02*
D03*
X133732Y186221D02*
D03*
X141732D02*
D03*
X133732Y196260D02*
D03*
X141732D02*
D03*
X219362Y196063D02*
D03*
X227362D02*
D03*
X219362Y186024D02*
D03*
X227362D02*
D03*
X305091Y196260D02*
D03*
X313091D02*
D03*
X305091Y186221D02*
D03*
X313091D02*
D03*
X390721Y196063D02*
D03*
X398721D02*
D03*
X390720Y186024D02*
D03*
X398720D02*
D03*
X195374Y258858D02*
D03*
X187374D02*
D03*
X300492Y312402D02*
D03*
X292492D02*
D03*
D15*
X337543Y306701D02*
D03*
X315893D02*
D03*
D16*
X135740Y221030D02*
D03*
X221370D02*
D03*
X307098D02*
D03*
X392728D02*
D03*
D17*
X143740Y217230D02*
D03*
Y224730D02*
D03*
X229370Y217230D02*
D03*
Y224730D02*
D03*
X315098D02*
D03*
Y217230D02*
D03*
X400728Y224730D02*
D03*
Y217230D02*
D03*
D18*
X166693Y221730D02*
D03*
Y229730D02*
D03*
X156693Y221730D02*
D03*
Y229730D02*
D03*
X252323Y221730D02*
D03*
Y229730D02*
D03*
X242323Y221730D02*
D03*
Y229730D02*
D03*
X413681D02*
D03*
Y221730D02*
D03*
X338051Y229730D02*
D03*
Y221730D02*
D03*
X423681Y229730D02*
D03*
Y221730D02*
D03*
X328051Y229730D02*
D03*
Y221730D02*
D03*
X315945Y259338D02*
D03*
Y267338D02*
D03*
D19*
X411181Y186600D02*
D03*
X416181D02*
D03*
X421181D02*
D03*
X426181D02*
D03*
Y207860D02*
D03*
X421181D02*
D03*
X416181D02*
D03*
X411181D02*
D03*
X325551Y186600D02*
D03*
X330551D02*
D03*
X335551D02*
D03*
X340551D02*
D03*
Y207860D02*
D03*
X335551D02*
D03*
X330551D02*
D03*
X325551D02*
D03*
X239823D02*
D03*
X244823D02*
D03*
X249823D02*
D03*
X254823D02*
D03*
Y186600D02*
D03*
X249823D02*
D03*
X244823D02*
D03*
X239823D02*
D03*
X154193Y207860D02*
D03*
X159193D02*
D03*
X164193D02*
D03*
X169193D02*
D03*
Y186600D02*
D03*
X164193D02*
D03*
X159193D02*
D03*
X154193D02*
D03*
D20*
X112303Y260039D02*
D03*
X114862D02*
D03*
X117421D02*
D03*
X119981D02*
D03*
X122539D02*
D03*
X125099D02*
D03*
X127657D02*
D03*
X130217D02*
D03*
X132776D02*
D03*
X135335D02*
D03*
X137894D02*
D03*
X140453D02*
D03*
X143012D02*
D03*
X145571D02*
D03*
X112303Y287205D02*
D03*
X114862D02*
D03*
X117421D02*
D03*
X119981D02*
D03*
X122539D02*
D03*
X125099D02*
D03*
X127657D02*
D03*
X130217D02*
D03*
X132776D02*
D03*
X135335D02*
D03*
X137894D02*
D03*
X140453D02*
D03*
X143012D02*
D03*
X145571D02*
D03*
D21*
X371949Y279331D02*
D03*
D22*
X357185Y297146D02*
D03*
X359154D02*
D03*
X361122D02*
D03*
X363091D02*
D03*
X365059D02*
D03*
X367028D02*
D03*
X368996D02*
D03*
X370965D02*
D03*
X372933D02*
D03*
X374902D02*
D03*
X376870D02*
D03*
X378839D02*
D03*
X380807D02*
D03*
X382776D02*
D03*
X384744D02*
D03*
X386713D02*
D03*
Y261516D02*
D03*
X384744D02*
D03*
X382776D02*
D03*
X380807D02*
D03*
X378839D02*
D03*
X376870D02*
D03*
X374902D02*
D03*
X372933D02*
D03*
X370965D02*
D03*
X368996D02*
D03*
X367028D02*
D03*
X365059D02*
D03*
X363091D02*
D03*
X361122D02*
D03*
X359154D02*
D03*
X357185D02*
D03*
D23*
X389764Y294094D02*
D03*
Y292126D02*
D03*
Y290157D02*
D03*
Y288189D02*
D03*
Y286220D02*
D03*
Y284252D02*
D03*
Y282283D02*
D03*
Y280315D02*
D03*
Y278346D02*
D03*
Y276378D02*
D03*
Y274409D02*
D03*
Y272441D02*
D03*
Y270472D02*
D03*
Y268504D02*
D03*
Y266535D02*
D03*
Y264567D02*
D03*
X354134D02*
D03*
Y266535D02*
D03*
Y268504D02*
D03*
Y270472D02*
D03*
Y272441D02*
D03*
Y274409D02*
D03*
Y276378D02*
D03*
Y278346D02*
D03*
Y280315D02*
D03*
Y282283D02*
D03*
Y284252D02*
D03*
Y286220D02*
D03*
Y288189D02*
D03*
Y290157D02*
D03*
Y292126D02*
D03*
Y294094D02*
D03*
D24*
X314694Y272977D02*
X319374Y277657D01*
X314694Y271892D02*
Y272977D01*
X313639Y270838D02*
X314694Y271892D01*
X313106Y270838D02*
X313639D01*
X310728Y268461D02*
X313106Y270838D01*
X310728Y263386D02*
Y268461D01*
X308464Y261122D02*
X310728Y263386D01*
X305807Y261122D02*
X308464D01*
X346850Y290157D02*
X354134D01*
X341802Y285109D02*
X346850Y290157D01*
X322863Y285109D02*
X341802D01*
X347736Y288189D02*
X354134D01*
X342520Y282972D02*
X347736Y288189D01*
X316240Y282972D02*
X342520D01*
X340900Y286909D02*
X346117Y292126D01*
X332972Y286909D02*
X340900D01*
X346117Y292126D02*
X354134D01*
X348819Y282283D02*
X354134D01*
X339075Y272539D02*
X348819Y282283D01*
X331693Y272539D02*
X339075D01*
X347174Y284083D02*
X347441D01*
X340650Y277559D02*
X347174Y284083D01*
X328150Y277559D02*
X340650D01*
X351279Y274409D02*
X354134D01*
X350418Y273548D02*
X351279Y274409D01*
X350418Y271186D02*
Y273548D01*
X345768Y271530D02*
X352407Y278170D01*
X345768Y268307D02*
Y271530D01*
X352407Y278170D02*
X353957D01*
X321569Y263287D02*
X325928Y258928D01*
X313555Y263287D02*
X321569D01*
X310602Y260335D02*
X313555Y263287D01*
X305807Y261122D02*
X306594Y260335D01*
X310602D01*
X325928Y258928D02*
X344545D01*
X352152Y266535D01*
X354134D01*
X353150Y264567D02*
X354134D01*
X345669Y257087D02*
X353150Y264567D01*
X325197Y257087D02*
X345669D01*
X349508Y266437D02*
Y267618D01*
X343799Y260728D02*
X349508Y266437D01*
X326673Y260728D02*
X343799D01*
X356116Y294094D02*
X356910Y293300D01*
X354134Y294094D02*
X356116D01*
X356910Y287446D02*
Y293300D01*
X355684Y286220D02*
X356910Y287446D01*
X359646Y275000D02*
Y293110D01*
X357185Y295571D02*
X359646Y293110D01*
X357185Y295571D02*
Y297146D01*
X357087Y272441D02*
X359646Y275000D01*
X354134Y286220D02*
X355684D01*
X351132Y270472D02*
X354134D01*
X350418Y271186D02*
X351132Y270472D01*
X354134Y274409D02*
Y276378D01*
X338681Y268110D02*
X350886Y280315D01*
X354134D01*
X336614Y268110D02*
X338681D01*
X343602Y266142D02*
X345768Y268307D01*
X347441Y284083D02*
Y284252D01*
X396998Y299459D02*
X397047Y299508D01*
X396949Y299410D02*
X396998Y299459D01*
X393012Y299410D02*
X396949D01*
X388976Y303937D02*
Y306988D01*
Y303445D02*
Y303937D01*
Y303445D02*
X393012Y299410D01*
X357185Y297146D02*
Y303740D01*
X387500Y272441D02*
X389764D01*
X386713Y273228D02*
X387500Y272441D01*
X386713Y273228D02*
Y297146D01*
X389764Y282283D02*
X395571D01*
X398425Y294094D02*
X401378Y291142D01*
X389764Y294094D02*
X398425D01*
X384744Y257185D02*
X387500Y254429D01*
X384744Y257185D02*
Y261516D01*
X354134Y272441D02*
X357087D01*
X384744Y294193D02*
Y297146D01*
X372933Y294980D02*
Y297146D01*
Y294980D02*
X374508Y293406D01*
X383957D01*
X384744Y294193D01*
X170374Y304331D02*
X172382D01*
X132382Y314331D02*
X142382D01*
X280177Y312402D02*
X292492D01*
X302756Y270177D02*
Y273425D01*
X303543Y272638D01*
X299902Y268209D02*
Y270571D01*
X301969Y272638D01*
X302756Y270177D02*
X305807Y267126D01*
X294587Y262894D02*
X299902Y268209D01*
X286910Y262894D02*
X294587D01*
X305807Y265650D02*
Y267126D01*
X280610Y272441D02*
Y278346D01*
X284744Y282480D01*
X347441Y284252D02*
X354134D01*
X321752Y286220D02*
X322863Y285109D01*
X195374Y270315D02*
X195433Y270374D01*
X195374Y258858D02*
Y270315D01*
X204921Y252559D02*
X209646Y257283D01*
Y259842D01*
X181693Y252559D02*
X204921D01*
X177559Y256693D02*
X181693Y252559D01*
X177559Y256693D02*
Y268012D01*
X386713Y301673D02*
X388976Y303937D01*
Y306988D02*
X389075Y306890D01*
X384842Y315059D02*
X398917D01*
X380807Y311024D02*
X384842Y315059D01*
X380807Y297146D02*
Y311024D01*
X439469Y198051D02*
Y249803D01*
X434646Y254626D02*
X439469Y249803D01*
X404823Y254626D02*
X434646D01*
X389764Y276378D02*
X394587D01*
X389764Y274409D02*
X392126D01*
X395768Y270768D01*
Y258563D02*
Y270768D01*
Y258563D02*
X402658Y251673D01*
X432284D01*
X436614Y247343D01*
X406811Y280197D02*
X412992D01*
X386713Y297146D02*
Y301673D01*
X374902Y256890D02*
Y261516D01*
X366831Y248819D02*
X374902Y256890D01*
X354626Y248819D02*
X366831D01*
X350984Y245177D02*
X354626Y248819D01*
X376870Y253937D02*
Y261516D01*
X369291Y246358D02*
X376870Y253937D01*
X356693Y246358D02*
X369291D01*
X353839Y243504D02*
X356693Y246358D01*
X327362Y267028D02*
Y268209D01*
X331693Y272539D01*
X265256Y247343D02*
X271190Y253276D01*
X354588Y258918D02*
X357185Y261516D01*
X351536Y258918D02*
X354588D01*
X347736Y255118D02*
X351536Y258918D01*
X326279Y255118D02*
X347736D01*
X322638Y251476D02*
X326279Y255118D01*
X321387Y253276D02*
X325197Y257087D01*
X271190Y253276D02*
X321387D01*
X272343Y251476D02*
X322638D01*
X268110Y247244D02*
X272343Y251476D01*
X315059Y255610D02*
X315945Y256496D01*
X296949Y255610D02*
X315059D01*
X295571Y256988D02*
X296949Y255610D01*
X315945Y256496D02*
Y259338D01*
X357382Y255118D02*
X360630D01*
X363091Y257579D01*
Y261516D01*
X216535Y254823D02*
X221850Y260138D01*
X224114D01*
X278051Y256988D02*
X295571D01*
X246850D02*
X278051D01*
X350394Y268504D02*
X354134D01*
X349508Y267618D02*
X350394Y268504D01*
X320063Y267338D02*
X326673Y260728D01*
X315945Y267338D02*
X320063D01*
X303543Y272638D02*
X312894D01*
X326772Y276181D02*
X328150Y277559D01*
X312894Y279626D02*
X316240Y282972D01*
X353957Y278170D02*
X354134Y278346D01*
X312894Y272638D02*
Y279626D01*
X321752Y286220D02*
Y292520D01*
X331693Y288189D02*
X332972Y286909D01*
X331693Y288189D02*
Y292520D01*
X321752D02*
Y299705D01*
X315893Y305563D02*
X321752Y299705D01*
X315893Y305563D02*
Y306701D01*
X331693Y292520D02*
Y299311D01*
X337543Y305161D01*
Y306701D01*
X270571Y262894D02*
X278051D01*
Y266831D01*
X280610Y269390D01*
Y272441D01*
X269390Y273031D02*
X271654D01*
X267913Y274508D02*
X269390Y273031D01*
X267913Y274508D02*
Y277874D01*
X265866Y279921D02*
X267913Y277874D01*
X243799Y279921D02*
X265866D01*
X238839Y284882D02*
X243799Y279921D01*
X238839Y284882D02*
Y289173D01*
X251575Y282776D02*
X271358D01*
X248838Y285512D02*
X251575Y282776D01*
X248838Y285512D02*
Y289173D01*
X245714Y258124D02*
X246850Y256988D01*
X224213Y284547D02*
X228838Y289173D01*
X224213Y279626D02*
Y284547D01*
X235166Y258124D02*
X245714D01*
X224114Y260138D02*
X228740D01*
X230754Y258124D01*
X235166D01*
X224213Y279626D02*
X229626D01*
X232928Y276324D01*
X235166D01*
X107480Y205490D02*
Y209154D01*
Y205490D02*
X118740Y194230D01*
X123130Y309055D02*
Y312402D01*
X125000Y314331D02*
X132382D01*
X111673D02*
X120866D01*
X122795Y312402D01*
X123130D01*
X125000Y314272D01*
Y314331D01*
X145571Y287205D02*
Y292126D01*
X147343Y293898D01*
X157283D01*
X172343Y278839D01*
X196850D01*
X202272Y284260D01*
Y289256D01*
X143012Y287205D02*
Y294783D01*
X145177Y296949D01*
X158957D01*
X174311Y281594D01*
X190941D01*
X192272Y282925D01*
Y289256D01*
X159449Y268012D02*
X164567D01*
X157677Y266240D02*
X159449Y268012D01*
X157677Y259744D02*
Y266240D01*
X171850Y294094D02*
X176689Y289256D01*
X182272D01*
X164567Y268012D02*
X171654D01*
X177559D02*
Y270964D01*
X174508Y274016D02*
X177559Y270964D01*
X125492Y274016D02*
X174508D01*
X140453Y280413D02*
X141929Y278937D01*
X154527D01*
X125492Y274016D02*
X132776Y281299D01*
X119981Y268504D02*
X125492Y274016D01*
X132776Y281299D02*
Y287205D01*
X119981Y260039D02*
Y268504D01*
X140453Y280413D02*
Y287205D01*
X122539Y254134D02*
Y260039D01*
Y254134D02*
X123327Y253346D01*
X176647D01*
X182480Y247513D01*
Y198248D02*
Y247513D01*
X112303Y253642D02*
Y260039D01*
Y253642D02*
X114862Y251083D01*
X176083D01*
X179626Y247539D01*
X118740Y194230D02*
X126740D01*
X128740Y196230D01*
X133740Y186230D02*
Y196230D01*
X166693Y169230D02*
Y171002D01*
X166535Y148502D02*
X166693Y148659D01*
X146693Y239230D02*
Y246230D01*
X176693Y216730D02*
Y245230D01*
X169193Y209230D02*
X176693Y216730D01*
X169193Y207860D02*
Y209230D01*
X164250Y200787D02*
X169193Y205730D01*
X149890Y200787D02*
X164250D01*
X169193Y205730D02*
Y207860D01*
X143740Y206937D02*
Y217230D01*
X164193Y207860D02*
Y212730D01*
X166193Y214730D01*
X171864D01*
X174693Y217558D01*
Y244230D01*
X156693Y229730D02*
Y239230D01*
X166693Y229730D02*
Y239230D01*
Y229730D02*
X171193D01*
X172693Y228230D01*
Y218387D02*
Y228230D01*
X171036Y216730D02*
X172693Y218387D01*
X161193Y216730D02*
X171036D01*
X159193Y214730D02*
X161193Y216730D01*
X159193Y207860D02*
Y214730D01*
X154193Y207860D02*
Y214730D01*
X156693Y217230D01*
Y221730D01*
X166693D01*
X152240D02*
X156693D01*
X149240Y224730D02*
X152240Y221730D01*
X143740Y224730D02*
X149240D01*
X143740D02*
Y229094D01*
X136614Y170743D02*
Y173622D01*
X138189Y169230D02*
X146693D01*
X136676Y170743D02*
X138189Y169230D01*
X136614Y233071D02*
X139764D01*
X143740Y229094D01*
X118740Y214230D02*
X124860D01*
X131660Y221030D01*
X135740D01*
X119347Y204331D02*
X141134D01*
X143740Y206937D01*
X149890Y200787D01*
X113521Y194230D02*
X118740D01*
X112008Y192717D02*
X113521Y194230D01*
X107874Y192717D02*
X112008D01*
X115376Y184230D02*
X118740D01*
X112598Y187008D02*
X115376Y184230D01*
X108071Y187008D02*
X112598D01*
X107874Y186811D02*
X108071Y187008D01*
X134252Y235433D02*
X136614Y233071D01*
X156693Y239230D02*
Y244730D01*
X146693Y246230D02*
X148101Y247638D01*
X174285D01*
X176693Y245230D01*
X156693Y244730D02*
X157601Y245638D01*
X173285D01*
X174693Y244230D01*
X145679Y247244D02*
X146693Y246230D01*
X134449Y247244D02*
X145679D01*
X134252Y247441D02*
X134449Y247244D01*
X219882Y247441D02*
X220079Y247244D01*
X231309D01*
X232323Y246230D01*
X258915Y245638D02*
X260323Y244230D01*
X243231Y245638D02*
X258915D01*
X242323Y244730D02*
X243231Y245638D01*
X259915Y247638D02*
X262323Y245230D01*
X233731Y247638D02*
X259915D01*
X232323Y246230D02*
X233731Y247638D01*
X242323Y239230D02*
Y244730D01*
X219882Y235433D02*
X222244Y233071D01*
X193504Y186811D02*
X193701Y187008D01*
X198228D01*
X201006Y184230D01*
X204370D01*
X193504Y192717D02*
X197638D01*
X199151Y194230D01*
X204370D01*
X229370Y206937D02*
X235520Y200787D01*
X226764Y204331D02*
X229370Y206937D01*
X204976Y204331D02*
X226764D01*
X217290Y221030D02*
X221370D01*
X210490Y214230D02*
X217290Y221030D01*
X204370Y214230D02*
X210490D01*
X225394Y233071D02*
X229370Y229094D01*
X222244Y233071D02*
X225394D01*
X222305Y170743D02*
X223819Y169230D01*
X232323D01*
X222244Y170743D02*
Y173622D01*
X229370Y224730D02*
Y229094D01*
Y224730D02*
X234870D01*
X237870Y221730D01*
X242323D01*
X252323D01*
X242323Y217230D02*
Y221730D01*
X239823Y214730D02*
X242323Y217230D01*
X239823Y207860D02*
Y214730D01*
X244823Y207860D02*
Y214730D01*
X246823Y216730D01*
X256666D01*
X258323Y218387D01*
Y228230D01*
X256823Y229730D02*
X258323Y228230D01*
X252323Y229730D02*
X256823D01*
X252323D02*
Y239230D01*
X242323Y229730D02*
Y239230D01*
X260323Y217558D02*
Y244230D01*
X257494Y214730D02*
X260323Y217558D01*
X251823Y214730D02*
X257494D01*
X249823Y212730D02*
X251823Y214730D01*
X249823Y207860D02*
Y212730D01*
X229370Y206937D02*
Y217230D01*
X254823Y205730D02*
Y207860D01*
X235520Y200787D02*
X249880D01*
X254823Y205730D01*
Y207860D02*
Y209230D01*
X262323Y216730D01*
Y245230D01*
X232323Y239230D02*
Y246230D01*
X252165Y148502D02*
X252323Y148659D01*
Y169230D02*
Y171002D01*
X212370Y194230D02*
X214370Y196230D01*
X204370Y194230D02*
X212370D01*
X375728D02*
X383728D01*
X385728Y196230D01*
X423681Y169230D02*
Y171002D01*
X423524Y148502D02*
X423681Y148659D01*
X403681Y239230D02*
Y246230D01*
X433681Y216730D02*
Y245230D01*
X426181Y209230D02*
X433681Y216730D01*
X426181Y207860D02*
Y209230D01*
X421239Y200787D02*
X426181Y205730D01*
X406878Y200787D02*
X421239D01*
X426181Y205730D02*
Y207860D01*
X400728Y206937D02*
Y217230D01*
X421181Y207860D02*
Y212730D01*
X423181Y214730D01*
X428853D01*
X431681Y217558D01*
Y244230D01*
X413681Y229730D02*
Y239230D01*
X423681Y229730D02*
Y239230D01*
Y229730D02*
X428181D01*
X429681Y228230D01*
Y218387D02*
Y228230D01*
X428024Y216730D02*
X429681Y218387D01*
X418181Y216730D02*
X428024D01*
X416181Y214730D02*
X418181Y216730D01*
X416181Y207860D02*
Y214730D01*
X411181Y207860D02*
Y214730D01*
X413681Y217230D01*
Y221730D01*
X423681D01*
X409228D02*
X413681D01*
X406228Y224730D02*
X409228Y221730D01*
X400728Y224730D02*
X406228D01*
X400728D02*
Y229094D01*
X393602Y170743D02*
Y173622D01*
X395177Y169230D02*
X403681D01*
X393664Y170743D02*
X395177Y169230D01*
X393602Y233071D02*
X396752D01*
X400728Y229094D01*
X375728Y214230D02*
X381848D01*
X388648Y221030D01*
X392728D01*
X376335Y204331D02*
X398122D01*
X400728Y206937D01*
X406878Y200787D01*
X370510Y194230D02*
X375728D01*
X368996Y192717D02*
X370510Y194230D01*
X364862Y192717D02*
X368996D01*
X372365Y184230D02*
X375728D01*
X369587Y187008D02*
X372365Y184230D01*
X365059Y187008D02*
X369587D01*
X364862Y186811D02*
X365059Y187008D01*
X391240Y235433D02*
X393602Y233071D01*
X413681Y239230D02*
Y244730D01*
X403681Y246230D02*
X405089Y247638D01*
X431273D01*
X433681Y245230D01*
X413681Y244730D02*
X414589Y245638D01*
X430273D01*
X431681Y244230D01*
X402667Y247244D02*
X403681Y246230D01*
X391437Y247244D02*
X402667D01*
X391240Y247441D02*
X391437Y247244D01*
X305807D02*
X317037D01*
X318051Y246230D01*
X344643Y245638D02*
X346051Y244230D01*
X328959Y245638D02*
X344643D01*
X328051Y244730D02*
X328959Y245638D01*
X345643Y247638D02*
X348051Y245230D01*
X319459Y247638D02*
X345643D01*
X318051Y246230D02*
X319459Y247638D01*
X328051Y239230D02*
Y244730D01*
X305610Y235433D02*
X307972Y233071D01*
X279232Y186811D02*
X279429Y187008D01*
X283957D01*
X286735Y184230D01*
X290098D01*
X279232Y192717D02*
X283366D01*
X284880Y194230D01*
X290098D01*
X315098Y206937D02*
X321248Y200787D01*
X312492Y204331D02*
X315098Y206937D01*
X290705Y204331D02*
X312492D01*
X303018Y221030D02*
X307098D01*
X296218Y214230D02*
X303018Y221030D01*
X290098Y214230D02*
X296218D01*
X311122Y233071D02*
X315098Y229094D01*
X307972Y233071D02*
X311122D01*
X308034Y170743D02*
X309547Y169230D01*
X318051D01*
X307972Y170743D02*
Y173622D01*
X315098Y224730D02*
Y229094D01*
Y224730D02*
X320598D01*
X323598Y221730D01*
X328051D01*
X338051D01*
X328051Y217230D02*
Y221730D01*
X325551Y214730D02*
X328051Y217230D01*
X325551Y207860D02*
Y214730D01*
X330551Y207860D02*
Y214730D01*
X332551Y216730D01*
X342394D01*
X344051Y218387D01*
Y228230D01*
X342551Y229730D02*
X344051Y228230D01*
X338051Y229730D02*
X342551D01*
X338051D02*
Y239230D01*
X328051Y229730D02*
Y239230D01*
X346051Y217558D02*
Y244230D01*
X343223Y214730D02*
X346051Y217558D01*
X337551Y214730D02*
X343223D01*
X335551Y212730D02*
X337551Y214730D01*
X335551Y207860D02*
Y212730D01*
X315098Y206937D02*
Y217230D01*
X340551Y205730D02*
Y207860D01*
X321248Y200787D02*
X335609D01*
X340551Y205730D01*
Y207860D02*
Y209230D01*
X348051Y216730D01*
Y245230D01*
X318051Y239230D02*
Y246230D01*
X337894Y148502D02*
X338051Y148659D01*
Y169230D02*
Y171002D01*
X305098Y186230D02*
Y196230D01*
X298098Y194230D02*
X300098Y196230D01*
X290098Y194230D02*
X298098D01*
X133732Y196260D02*
Y200858D01*
X134744Y201870D01*
X144980D01*
X149311Y197539D01*
X151772D01*
X154193Y195118D01*
Y186600D02*
Y195118D01*
X141732Y196260D02*
X146555D01*
X150000Y192815D01*
Y182283D02*
Y192815D01*
Y182283D02*
X151378Y180906D01*
X157874D01*
X159193Y182225D01*
Y186600D01*
X141732Y186221D02*
X149047Y178906D01*
X163354D01*
X164193Y179744D01*
Y186600D01*
Y191811D01*
X166142Y193760D01*
X159193Y186600D02*
Y192874D01*
X163465Y197146D01*
X166142Y193760D02*
X177992D01*
X182480Y198248D01*
X163465Y197146D02*
X176181D01*
X179626Y200591D01*
Y247539D01*
X268110Y198051D02*
Y247244D01*
X265256Y200394D02*
Y247343D01*
X261811Y196949D02*
X265256Y200394D01*
X249095Y196949D02*
X261811D01*
X263622Y193563D02*
X268110Y198051D01*
X251772Y193563D02*
X263622D01*
X244823Y192677D02*
X249095Y196949D01*
X249823Y191614D02*
X251772Y193563D01*
X248984Y178709D02*
X249823Y179547D01*
X234677Y178709D02*
X248984D01*
X227362Y186024D02*
X234677Y178709D01*
X243504Y180709D02*
X244823Y182028D01*
X237008Y180709D02*
X243504D01*
X235630Y182087D02*
X237008Y180709D01*
X235630Y182087D02*
Y192618D01*
X232185Y196063D02*
X235630Y192618D01*
X227362Y196063D02*
X232185D01*
X237402Y197441D02*
X239823Y195020D01*
X234941Y197441D02*
X237402D01*
X230610Y201772D02*
X234941Y197441D01*
X220374Y201772D02*
X230610D01*
X219362Y200760D02*
X220374Y201772D01*
X305091Y196358D02*
Y200957D01*
X306102Y201969D01*
X316339D01*
X320669Y197638D01*
X323130D01*
X325551Y195216D01*
Y186698D02*
Y195216D01*
X313091Y196260D02*
X317913D01*
X321358Y192815D01*
Y182283D02*
Y192815D01*
Y182283D02*
X322736Y180906D01*
X329232D01*
X330551Y182225D01*
Y186600D01*
X313091Y186221D02*
X320406Y178906D01*
X334713D01*
X335551Y179744D01*
Y186600D01*
Y191811D01*
X337500Y193760D01*
X330551Y186600D02*
Y192874D01*
X334823Y197146D01*
X337500Y193760D02*
X349351D01*
X353839Y198248D01*
X334823Y197146D02*
X347539D01*
X350984Y200591D01*
Y245177D01*
X353839Y198248D02*
Y243504D01*
X390721Y200760D02*
X391732Y201772D01*
X401969D01*
X406299Y197441D01*
X408760D01*
X411181Y195020D01*
X398721Y196063D02*
X403543D01*
X406988Y192618D01*
Y182087D02*
Y192618D01*
Y182087D02*
X408366Y180709D01*
X414862D01*
X416181Y182028D01*
X398721Y186024D02*
X406036Y178709D01*
X420343D01*
X421181Y179547D01*
Y191614D02*
X423130Y193563D01*
X416181Y192677D02*
X420453Y196949D01*
X423130Y193563D02*
X434981D01*
X439469Y198051D01*
X420453Y196949D02*
X433169D01*
X436614Y200394D01*
Y247343D01*
X416181Y182028D02*
Y192677D01*
X244823Y182028D02*
Y192677D01*
X421181Y179547D02*
Y191614D01*
X249823Y179547D02*
Y191614D01*
X391240Y235433D02*
Y241535D01*
X393602Y170743D02*
X393664D01*
X375728Y204937D02*
X376335Y204331D01*
X305610Y235433D02*
Y241535D01*
X307972Y170743D02*
X308034D01*
X305610Y247441D02*
X305807Y247244D01*
X290098Y204937D02*
X290705Y204331D01*
X219882Y235433D02*
Y241535D01*
X222244Y170743D02*
X222305D01*
X204370Y204937D02*
X204976Y204331D01*
X134252Y235433D02*
Y241535D01*
X136614Y170743D02*
X136676D01*
X118740Y204937D02*
X119347Y204331D01*
X390721Y196162D02*
Y200760D01*
X385728Y196230D02*
X390728D01*
X300098D02*
X305098D01*
X411181Y186502D02*
Y195020D01*
X390728Y186230D02*
Y196230D01*
X239823Y186502D02*
Y195020D01*
X219362Y196162D02*
Y200760D01*
X214370Y196230D02*
X219370D01*
X128740D02*
X133740D01*
X219370Y186230D02*
Y196230D01*
X398130Y261319D02*
X404823Y254626D01*
X398130Y261319D02*
Y272835D01*
X394587Y276378D02*
X398130Y272835D01*
X401378Y276279D02*
Y291142D01*
Y276279D02*
X407461Y270197D01*
X412992D01*
X405315Y281693D02*
X406811Y280197D01*
X405315Y281693D02*
Y308661D01*
X398917Y315059D02*
X405315Y308661D01*
X372933Y261516D02*
Y270866D01*
X374311Y272244D01*
X384744Y264764D02*
Y280413D01*
Y294193D01*
Y261516D02*
Y264764D01*
X111317Y296850D02*
Y300924D01*
X114862Y304468D01*
X389764Y292126D02*
X393828D01*
X382776Y297146D02*
Y300590D01*
D25*
X156693Y148502D02*
Y169230D01*
X166693Y148659D02*
Y169230D01*
X252323Y148659D02*
Y169230D01*
X242323Y148524D02*
Y169230D01*
X413681Y148502D02*
Y169230D01*
X423681Y148659D02*
Y169230D01*
X338051Y148659D02*
Y169230D01*
X328051Y148502D02*
Y169230D01*
D26*
X132283Y304035D02*
D03*
X228838Y289173D02*
D03*
X146693Y239230D02*
D03*
X232323D02*
D03*
X403681D02*
D03*
X318051D02*
D03*
X182272Y289256D02*
D03*
D27*
X132283Y314035D02*
D03*
X142283Y304035D02*
D03*
Y314035D02*
D03*
X152284Y304035D02*
D03*
Y314035D02*
D03*
X162284Y304035D02*
D03*
Y314035D02*
D03*
X172283Y304035D02*
D03*
Y314035D02*
D03*
X182283Y304035D02*
D03*
Y314035D02*
D03*
X192283Y304035D02*
D03*
Y314035D02*
D03*
X202284Y304035D02*
D03*
Y314035D02*
D03*
X212283Y304035D02*
D03*
Y314035D02*
D03*
X222284Y304035D02*
D03*
Y314035D02*
D03*
X232283Y304035D02*
D03*
Y314035D02*
D03*
X242284Y304035D02*
D03*
Y314035D02*
D03*
X252284Y304035D02*
D03*
Y314035D02*
D03*
X258839Y289173D02*
D03*
X248838D02*
D03*
X238839D02*
D03*
X412992Y270197D02*
D03*
Y280197D02*
D03*
Y290197D02*
D03*
X146693Y169230D02*
D03*
X156693D02*
D03*
X166693D02*
D03*
X166535Y148502D02*
D03*
X156693Y239230D02*
D03*
X166693D02*
D03*
X118740Y194230D02*
D03*
Y204230D02*
D03*
Y214230D02*
D03*
X204370Y194230D02*
D03*
Y204230D02*
D03*
Y214230D02*
D03*
X252165Y148502D02*
D03*
X232323Y169230D02*
D03*
X242323D02*
D03*
X252323D02*
D03*
X242323Y239230D02*
D03*
X252323D02*
D03*
X290098Y214230D02*
D03*
Y204230D02*
D03*
Y194230D02*
D03*
X375728Y214230D02*
D03*
Y204230D02*
D03*
Y194230D02*
D03*
X338051Y169230D02*
D03*
X328051D02*
D03*
X318051D02*
D03*
X423681D02*
D03*
X413681D02*
D03*
X403681D02*
D03*
X423681Y239230D02*
D03*
X413681D02*
D03*
X423524Y148502D02*
D03*
X337894D02*
D03*
X338051Y239230D02*
D03*
X328051D02*
D03*
X212272Y289256D02*
D03*
X202272D02*
D03*
X192272D02*
D03*
D28*
X284744Y282480D02*
D03*
X302756Y273425D02*
D03*
X209646Y259842D02*
D03*
D29*
X284744Y302165D02*
D03*
X302756Y293110D02*
D03*
X209646Y279528D02*
D03*
D30*
X412992Y300197D02*
D03*
X156693Y148502D02*
D03*
X118740Y184230D02*
D03*
X204370D02*
D03*
X242323Y148502D02*
D03*
X290098Y184230D02*
D03*
X375728D02*
D03*
X413681Y148502D02*
D03*
X328051D02*
D03*
D31*
X136614Y128423D02*
D03*
X176772D02*
D03*
X222244D02*
D03*
X262402D02*
D03*
X433760D02*
D03*
X393602D02*
D03*
X348130D02*
D03*
X307972D02*
D03*
D32*
X114862Y304468D02*
D03*
Y314469D02*
D03*
X280079Y312500D02*
D03*
X270079D02*
D03*
X195433Y270374D02*
D03*
X185433D02*
D03*
D33*
X152067Y268307D02*
D03*
X152165Y287697D02*
D03*
X346654Y299114D02*
D03*
X336614Y268110D02*
D03*
X343602Y266142D02*
D03*
X396998Y299459D02*
D03*
X357185Y303740D02*
D03*
X395669Y282382D02*
D03*
X387500Y254232D02*
D03*
X327362Y267028D02*
D03*
X357382Y255118D02*
D03*
X216535Y254823D02*
D03*
X270571Y262894D02*
D03*
X271654Y273031D02*
D03*
X271358Y282776D02*
D03*
X107480Y209154D02*
D03*
X123130Y309055D02*
D03*
X171850Y294094D02*
D03*
X164567Y268012D02*
D03*
X136614Y173622D02*
D03*
Y233071D02*
D03*
X222244D02*
D03*
Y173622D02*
D03*
X393602D02*
D03*
Y233071D02*
D03*
X307972D02*
D03*
Y173622D02*
D03*
X379035Y272244D02*
D03*
X374311D02*
D03*
X369587D02*
D03*
X364862D02*
D03*
X379035Y276968D02*
D03*
X374311D02*
D03*
X369587D02*
D03*
X364862D02*
D03*
X379035Y281693D02*
D03*
X374311D02*
D03*
X369587D02*
D03*
X364862D02*
D03*
X379035Y286417D02*
D03*
X374311D02*
D03*
X369587D02*
D03*
X364862D02*
D03*
M02*
