%FSLAX25Y25*%
%MOIN*%
G70*
G01*
G75*
G04 Layer_Physical_Order=2*
G04 Layer_Color=16711680*
%ADD10R,0.04331X0.05512*%
%ADD11R,0.05512X0.04331*%
%ADD12R,0.07900X0.05900*%
%ADD13R,0.07900X0.15000*%
%ADD14R,0.04000X0.05000*%
%ADD15R,0.13780X0.04724*%
%ADD16R,0.05000X0.03600*%
%ADD17R,0.03600X0.03600*%
%ADD18R,0.05000X0.04000*%
%ADD19R,0.02362X0.06102*%
%ADD20O,0.01378X0.08268*%
%ADD21R,0.17716X0.17716*%
%ADD22O,0.00984X0.02953*%
%ADD23O,0.02953X0.00984*%
%ADD24C,0.01000*%
%ADD25C,0.02500*%
%ADD26R,0.06200X0.06200*%
%ADD27C,0.06200*%
%ADD28C,0.05315*%
%ADD29R,0.05315X0.05315*%
%ADD30R,0.06200X0.06200*%
%ADD31C,0.12992*%
%ADD32C,0.06500*%
%ADD33C,0.03000*%
%ADD34C,0.01500*%
%ADD35C,0.02000*%
%ADD36R,0.20965X0.19882*%
G36*
X443209Y319882D02*
X443209Y319882D01*
Y142421D01*
X100558Y142225D01*
X100098Y142725D01*
Y319528D01*
X100452Y319882D01*
X443209D01*
D02*
G37*
%LPC*%
G36*
X338051Y243164D02*
X337033Y243030D01*
X336084Y242637D01*
X335270Y242011D01*
X334645Y241197D01*
X334252Y240248D01*
X334118Y239230D01*
X334252Y238212D01*
X334645Y237263D01*
X335270Y236449D01*
X336084Y235823D01*
X337033Y235430D01*
X338051Y235296D01*
X339069Y235430D01*
X340018Y235823D01*
X340833Y236449D01*
X341458Y237263D01*
X341851Y238212D01*
X341985Y239230D01*
X341851Y240248D01*
X341458Y241197D01*
X340833Y242011D01*
X340018Y242637D01*
X339069Y243030D01*
X338051Y243164D01*
D02*
G37*
G36*
X413681D02*
X412663Y243030D01*
X411714Y242637D01*
X410900Y242011D01*
X410275Y241197D01*
X409882Y240248D01*
X409748Y239230D01*
X409882Y238212D01*
X410275Y237263D01*
X410900Y236449D01*
X411714Y235823D01*
X412663Y235430D01*
X413681Y235296D01*
X414699Y235430D01*
X415648Y235823D01*
X416463Y236449D01*
X417088Y237263D01*
X417481Y238212D01*
X417615Y239230D01*
X417481Y240248D01*
X417088Y241197D01*
X416463Y242011D01*
X415648Y242637D01*
X414699Y243030D01*
X413681Y243164D01*
D02*
G37*
G36*
X252323D02*
X251305Y243030D01*
X250356Y242637D01*
X249541Y242011D01*
X248916Y241197D01*
X248523Y240248D01*
X248389Y239230D01*
X248523Y238212D01*
X248916Y237263D01*
X249541Y236449D01*
X250356Y235823D01*
X251305Y235430D01*
X252323Y235296D01*
X253341Y235430D01*
X254290Y235823D01*
X255104Y236449D01*
X255730Y237263D01*
X256123Y238212D01*
X256257Y239230D01*
X256123Y240248D01*
X255730Y241197D01*
X255104Y242011D01*
X254290Y242637D01*
X253341Y243030D01*
X252323Y243164D01*
D02*
G37*
G36*
X328051D02*
X327033Y243030D01*
X326084Y242637D01*
X325270Y242011D01*
X324645Y241197D01*
X324252Y240248D01*
X324117Y239230D01*
X324252Y238212D01*
X324645Y237263D01*
X325270Y236449D01*
X326084Y235823D01*
X327033Y235430D01*
X328051Y235296D01*
X329069Y235430D01*
X330018Y235823D01*
X330833Y236449D01*
X331458Y237263D01*
X331851Y238212D01*
X331985Y239230D01*
X331851Y240248D01*
X331458Y241197D01*
X330833Y242011D01*
X330018Y242637D01*
X329069Y243030D01*
X328051Y243164D01*
D02*
G37*
G36*
X423681D02*
X422663Y243030D01*
X421714Y242637D01*
X420900Y242011D01*
X420275Y241197D01*
X419882Y240248D01*
X419747Y239230D01*
X419882Y238212D01*
X420275Y237263D01*
X420900Y236449D01*
X421714Y235823D01*
X422663Y235430D01*
X423681Y235296D01*
X424699Y235430D01*
X425648Y235823D01*
X426463Y236449D01*
X427088Y237263D01*
X427481Y238212D01*
X427615Y239230D01*
X427481Y240248D01*
X427088Y241197D01*
X426463Y242011D01*
X425648Y242637D01*
X424699Y243030D01*
X423681Y243164D01*
D02*
G37*
G36*
X321951Y243130D02*
X314151D01*
Y235330D01*
X321951D01*
Y243130D01*
D02*
G37*
G36*
X407581D02*
X399781D01*
Y235330D01*
X407581D01*
Y243130D01*
D02*
G37*
G36*
X150593D02*
X142793D01*
Y235330D01*
X150593D01*
Y243130D01*
D02*
G37*
G36*
X236223D02*
X228423D01*
Y235330D01*
X236223D01*
Y243130D01*
D02*
G37*
G36*
X242323Y243164D02*
X241305Y243030D01*
X240356Y242637D01*
X239542Y242011D01*
X238916Y241197D01*
X238523Y240248D01*
X238389Y239230D01*
X238523Y238212D01*
X238916Y237263D01*
X239542Y236449D01*
X240356Y235823D01*
X241305Y235430D01*
X242323Y235296D01*
X243341Y235430D01*
X244290Y235823D01*
X245105Y236449D01*
X245730Y237263D01*
X246123Y238212D01*
X246257Y239230D01*
X246123Y240248D01*
X245730Y241197D01*
X245105Y242011D01*
X244290Y242637D01*
X243341Y243030D01*
X242323Y243164D01*
D02*
G37*
G36*
X123130Y311400D02*
X122232Y311222D01*
X121472Y310713D01*
X120963Y309952D01*
X120785Y309055D01*
X120963Y308158D01*
X121295Y307662D01*
Y241508D01*
X106183Y226396D01*
X105785Y225801D01*
X105762Y225684D01*
X105645Y225098D01*
Y210547D01*
X105314Y210051D01*
X105135Y209154D01*
X105314Y208256D01*
X105822Y207495D01*
X106583Y206987D01*
X107480Y206808D01*
X108378Y206987D01*
X109139Y207495D01*
X109647Y208256D01*
X109825Y209154D01*
X109647Y210051D01*
X109316Y210547D01*
Y224338D01*
X124428Y239450D01*
X124826Y240046D01*
X124849Y240162D01*
X124965Y240748D01*
Y307662D01*
X125296Y308158D01*
X125475Y309055D01*
X125296Y309952D01*
X124788Y310713D01*
X124027Y311222D01*
X123130Y311400D01*
D02*
G37*
G36*
X118740Y218164D02*
X117722Y218030D01*
X116773Y217637D01*
X115959Y217011D01*
X115334Y216197D01*
X114941Y215248D01*
X114806Y214230D01*
X114941Y213212D01*
X115334Y212263D01*
X115959Y211449D01*
X116773Y210823D01*
X117722Y210430D01*
X118740Y210296D01*
X119758Y210430D01*
X120707Y210823D01*
X121522Y211449D01*
X122147Y212263D01*
X122540Y213212D01*
X122674Y214230D01*
X122540Y215248D01*
X122147Y216197D01*
X121522Y217011D01*
X120707Y217637D01*
X119758Y218030D01*
X118740Y218164D01*
D02*
G37*
G36*
X290098Y208164D02*
X289080Y208030D01*
X288132Y207637D01*
X287317Y207012D01*
X286692Y206197D01*
X286299Y205248D01*
X286165Y204230D01*
X286299Y203212D01*
X286692Y202263D01*
X287317Y201448D01*
X288132Y200823D01*
X289080Y200430D01*
X290098Y200296D01*
X291116Y200430D01*
X292065Y200823D01*
X292880Y201448D01*
X293505Y202263D01*
X293898Y203212D01*
X294032Y204230D01*
X293898Y205248D01*
X293505Y206197D01*
X292880Y207012D01*
X292065Y207637D01*
X291116Y208030D01*
X290098Y208164D01*
D02*
G37*
G36*
X375728D02*
X374710Y208030D01*
X373762Y207637D01*
X372947Y207012D01*
X372322Y206197D01*
X371929Y205248D01*
X371795Y204230D01*
X371929Y203212D01*
X372322Y202263D01*
X372947Y201448D01*
X373762Y200823D01*
X374710Y200430D01*
X375728Y200296D01*
X376747Y200430D01*
X377695Y200823D01*
X378510Y201448D01*
X379135Y202263D01*
X379528Y203212D01*
X379662Y204230D01*
X379528Y205248D01*
X379135Y206197D01*
X378510Y207012D01*
X377695Y207637D01*
X376747Y208030D01*
X375728Y208164D01*
D02*
G37*
G36*
X204370Y218164D02*
X203352Y218030D01*
X202403Y217637D01*
X201589Y217011D01*
X200964Y216197D01*
X200571Y215248D01*
X200437Y214230D01*
X200571Y213212D01*
X200964Y212263D01*
X201589Y211449D01*
X202403Y210823D01*
X203352Y210430D01*
X204370Y210296D01*
X205388Y210430D01*
X206337Y210823D01*
X207152Y211449D01*
X207777Y212263D01*
X208170Y213212D01*
X208304Y214230D01*
X208170Y215248D01*
X207777Y216197D01*
X207152Y217011D01*
X206337Y217637D01*
X205388Y218030D01*
X204370Y218164D01*
D02*
G37*
G36*
X156693Y243164D02*
X155675Y243030D01*
X154726Y242637D01*
X153911Y242011D01*
X153286Y241197D01*
X152893Y240248D01*
X152759Y239230D01*
X152893Y238212D01*
X153286Y237263D01*
X153911Y236449D01*
X154726Y235823D01*
X155675Y235430D01*
X156693Y235296D01*
X157711Y235430D01*
X158660Y235823D01*
X159475Y236449D01*
X160100Y237263D01*
X160493Y238212D01*
X160627Y239230D01*
X160493Y240248D01*
X160100Y241197D01*
X159475Y242011D01*
X158660Y242637D01*
X157711Y243030D01*
X156693Y243164D01*
D02*
G37*
G36*
X166693D02*
X165675Y243030D01*
X164726Y242637D01*
X163911Y242011D01*
X163286Y241197D01*
X162893Y240248D01*
X162759Y239230D01*
X162893Y238212D01*
X163286Y237263D01*
X163911Y236449D01*
X164726Y235823D01*
X165675Y235430D01*
X166693Y235296D01*
X167711Y235430D01*
X168660Y235823D01*
X169474Y236449D01*
X170100Y237263D01*
X170493Y238212D01*
X170627Y239230D01*
X170493Y240248D01*
X170100Y241197D01*
X169474Y242011D01*
X168660Y242637D01*
X167711Y243030D01*
X166693Y243164D01*
D02*
G37*
G36*
X290098Y218164D02*
X289080Y218030D01*
X288132Y217637D01*
X287317Y217011D01*
X286692Y216197D01*
X286299Y215248D01*
X286165Y214230D01*
X286299Y213212D01*
X286692Y212263D01*
X287317Y211449D01*
X288132Y210823D01*
X289080Y210430D01*
X290098Y210296D01*
X291116Y210430D01*
X292065Y210823D01*
X292880Y211449D01*
X293505Y212263D01*
X293898Y213212D01*
X294032Y214230D01*
X293898Y215248D01*
X293505Y216197D01*
X292880Y217011D01*
X292065Y217637D01*
X291116Y218030D01*
X290098Y218164D01*
D02*
G37*
G36*
X375728D02*
X374710Y218030D01*
X373762Y217637D01*
X372947Y217011D01*
X372322Y216197D01*
X371929Y215248D01*
X371795Y214230D01*
X371929Y213212D01*
X372322Y212263D01*
X372947Y211449D01*
X373762Y210823D01*
X374710Y210430D01*
X375728Y210296D01*
X376747Y210430D01*
X377695Y210823D01*
X378510Y211449D01*
X379135Y212263D01*
X379528Y213212D01*
X379662Y214230D01*
X379528Y215248D01*
X379135Y216197D01*
X378510Y217011D01*
X377695Y217637D01*
X376747Y218030D01*
X375728Y218164D01*
D02*
G37*
G36*
X416892Y304097D02*
X409092D01*
Y296297D01*
X416892D01*
Y298362D01*
X418137D01*
X419523Y296976D01*
Y264048D01*
X407409Y251934D01*
X389408D01*
X389179Y252434D01*
X389367Y252652D01*
X392028D01*
X392632Y252772D01*
X393145Y253115D01*
X396787Y256756D01*
X397129Y257269D01*
X397250Y257874D01*
Y280672D01*
X397327Y280724D01*
X397836Y281485D01*
X398014Y282382D01*
X397836Y283279D01*
X397327Y284040D01*
X396567Y284548D01*
X395669Y284727D01*
X394772Y284548D01*
X394011Y284040D01*
X393503Y283279D01*
X393324Y282382D01*
X393503Y281485D01*
X394011Y280724D01*
X394089Y280672D01*
Y258529D01*
X391373Y255813D01*
X389210D01*
X389158Y255890D01*
X388397Y256399D01*
X387500Y256577D01*
X386603Y256399D01*
X385842Y255890D01*
X385790Y255813D01*
X379528D01*
X378923Y255692D01*
X378410Y255350D01*
X375822Y252762D01*
X361974D01*
X359709Y255026D01*
X359727Y255118D01*
X359548Y256015D01*
X359040Y256776D01*
X358279Y257285D01*
X357382Y257463D01*
X356485Y257285D01*
X355724Y256776D01*
X355672Y256698D01*
X217868D01*
X217433Y256989D01*
X216535Y257168D01*
X215638Y256989D01*
X214877Y256481D01*
X214369Y255720D01*
X214190Y254823D01*
X214369Y253925D01*
X214877Y253165D01*
X215638Y252656D01*
X216535Y252478D01*
X217433Y252656D01*
X218194Y253165D01*
X218443Y253538D01*
X355672D01*
X355724Y253460D01*
X356485Y252952D01*
X357382Y252773D01*
X357474Y252791D01*
X360201Y250064D01*
X360714Y249721D01*
X361319Y249601D01*
X376476D01*
X377081Y249721D01*
X377594Y250064D01*
X380182Y252652D01*
X385633D01*
X385821Y252434D01*
X385592Y251934D01*
X381102D01*
X380517Y251817D01*
X380400Y251794D01*
X379805Y251396D01*
X373112Y244703D01*
X372714Y244108D01*
X372691Y243991D01*
X372574Y243406D01*
Y230485D01*
X362580Y220491D01*
X362182Y219895D01*
X362159Y219779D01*
X362043Y219193D01*
Y199582D01*
X362159Y198996D01*
X362182Y198880D01*
X362580Y198284D01*
X366634Y194230D01*
X362679Y190274D01*
X362281Y189679D01*
X362258Y189562D01*
X362141Y188976D01*
Y165426D01*
X358689Y161973D01*
X299481D01*
X298489Y162965D01*
Y187773D01*
X298372Y188359D01*
X298349Y188476D01*
X297951Y189071D01*
X293872Y193150D01*
X293898Y193212D01*
X294032Y194230D01*
X293898Y195248D01*
X293505Y196197D01*
X292880Y197011D01*
X292065Y197637D01*
X291116Y198030D01*
X290098Y198164D01*
X289080Y198030D01*
X288132Y197637D01*
X287317Y197011D01*
X286692Y196197D01*
X286637Y196065D01*
X283600D01*
X283014Y195949D01*
X282898Y195926D01*
X282302Y195528D01*
X277049Y190274D01*
X276651Y189679D01*
X276628Y189562D01*
X276511Y188976D01*
Y165426D01*
X273059Y161973D01*
X213851D01*
X212859Y162965D01*
Y187773D01*
X212742Y188359D01*
X212719Y188476D01*
X212321Y189071D01*
X208171Y193221D01*
X208304Y194230D01*
X208170Y195248D01*
X207777Y196197D01*
X207152Y197011D01*
X206337Y197637D01*
X205388Y198030D01*
X204370Y198164D01*
X203352Y198030D01*
X202403Y197637D01*
X201589Y197011D01*
X200964Y196197D01*
X200909Y196065D01*
X197773D01*
X197187Y195949D01*
X197071Y195926D01*
X196476Y195528D01*
X191222Y190274D01*
X190824Y189679D01*
X190801Y189562D01*
X190684Y188976D01*
Y165426D01*
X187232Y161973D01*
X128024D01*
X127032Y162965D01*
Y187773D01*
X126916Y188359D01*
X126892Y188476D01*
X126495Y189071D01*
X122485Y193080D01*
X122540Y193212D01*
X122674Y194230D01*
X122540Y195248D01*
X122147Y196197D01*
X121522Y197011D01*
X120707Y197637D01*
X119758Y198030D01*
X118740Y198164D01*
X117722Y198030D01*
X116773Y197637D01*
X115959Y197011D01*
X115334Y196197D01*
X114941Y195248D01*
X114806Y194230D01*
X114941Y193212D01*
X115334Y192263D01*
X115959Y191448D01*
X116773Y190823D01*
X117722Y190430D01*
X118740Y190296D01*
X119758Y190430D01*
X119890Y190485D01*
X121583Y188792D01*
X121391Y188330D01*
X119240D01*
Y184730D01*
X122840D01*
Y186303D01*
X123340Y186570D01*
X123362Y186556D01*
Y162205D01*
X123478Y161619D01*
X123501Y161502D01*
X123899Y160907D01*
X125966Y158840D01*
X126561Y158442D01*
X126678Y158419D01*
X127264Y158302D01*
X187992D01*
X188578Y158419D01*
X188695Y158442D01*
X189290Y158840D01*
X193817Y163368D01*
X194215Y163963D01*
X194238Y164079D01*
X194355Y164665D01*
Y188216D01*
X198533Y192395D01*
X200909D01*
X200964Y192263D01*
X201589Y191448D01*
X202403Y190823D01*
X203352Y190430D01*
X204370Y190296D01*
X205388Y190430D01*
X205659Y190542D01*
X207410Y188792D01*
X207218Y188330D01*
X204870D01*
Y184730D01*
X208470D01*
Y186797D01*
X208970Y187042D01*
X209188Y186872D01*
Y162205D01*
X209305Y161619D01*
X209328Y161502D01*
X209726Y160907D01*
X211793Y158840D01*
X212388Y158442D01*
X212505Y158419D01*
X213090Y158302D01*
X273819D01*
X274405Y158419D01*
X274521Y158442D01*
X275117Y158840D01*
X279644Y163368D01*
X280042Y163963D01*
X280065Y164079D01*
X280182Y164665D01*
Y188216D01*
X284360Y192395D01*
X286637D01*
X286692Y192263D01*
X287317Y191448D01*
X288132Y190823D01*
X289080Y190430D01*
X290098Y190296D01*
X291116Y190430D01*
X291318Y190514D01*
X293039Y188792D01*
X292848Y188330D01*
X290598D01*
Y184730D01*
X294198D01*
Y186514D01*
X294698Y186778D01*
X294818Y186695D01*
Y162205D01*
X294935Y161619D01*
X294958Y161502D01*
X295356Y160907D01*
X297423Y158840D01*
X298018Y158442D01*
X298135Y158419D01*
X298721Y158302D01*
X359449D01*
X360035Y158419D01*
X360151Y158442D01*
X360747Y158840D01*
X365274Y163368D01*
X365672Y163963D01*
X365695Y164079D01*
X365812Y164665D01*
Y188216D01*
X370245Y192650D01*
X372162D01*
X372322Y192263D01*
X372947Y191448D01*
X373762Y190823D01*
X374710Y190430D01*
X375728Y190296D01*
X376747Y190430D01*
X377695Y190823D01*
X378510Y191448D01*
X379135Y192263D01*
X379528Y193212D01*
X379662Y194230D01*
X379528Y195248D01*
X379135Y196197D01*
X378510Y197011D01*
X377695Y197637D01*
X376747Y198030D01*
X375728Y198164D01*
X374710Y198030D01*
X373762Y197637D01*
X372947Y197011D01*
X372322Y196197D01*
X372162Y195810D01*
X370245D01*
X365713Y200342D01*
Y218433D01*
X375707Y228427D01*
X376105Y229022D01*
X376128Y229139D01*
X376245Y229724D01*
Y242645D01*
X381863Y248263D01*
X408169D01*
X408755Y248380D01*
X408872Y248403D01*
X409467Y248801D01*
X422656Y261990D01*
X422922Y262387D01*
X423054Y262585D01*
X423194Y263287D01*
Y297736D01*
X423054Y298439D01*
X422656Y299034D01*
X420195Y301495D01*
X419600Y301892D01*
X419483Y301916D01*
X418898Y302032D01*
X416892D01*
Y304097D01*
D02*
G37*
G36*
X213303Y279028D02*
X210146D01*
Y275870D01*
X213303D01*
Y279028D01*
D02*
G37*
G36*
X412992Y284131D02*
X411974Y283997D01*
X411025Y283604D01*
X410211Y282978D01*
X409586Y282164D01*
X409193Y281215D01*
X409059Y280197D01*
X409193Y279179D01*
X409586Y278230D01*
X410211Y277415D01*
X411025Y276790D01*
X411974Y276397D01*
X412992Y276263D01*
X414010Y276397D01*
X414959Y276790D01*
X415774Y277415D01*
X416399Y278230D01*
X416792Y279179D01*
X416926Y280197D01*
X416792Y281215D01*
X416399Y282164D01*
X415774Y282978D01*
X414959Y283604D01*
X414010Y283997D01*
X412992Y284131D01*
D02*
G37*
G36*
X381485Y271744D02*
X379536D01*
Y269795D01*
X380011Y269889D01*
X380838Y270442D01*
X381390Y271269D01*
X381485Y271744D01*
D02*
G37*
G36*
X209146Y279028D02*
X205988D01*
Y275870D01*
X209146D01*
Y279028D01*
D02*
G37*
G36*
X284744Y285967D02*
X283841Y285849D01*
X283000Y285500D01*
X282278Y284946D01*
X281724Y284224D01*
X281376Y283383D01*
X281257Y282480D01*
X281376Y281578D01*
X281724Y280737D01*
X282113Y280230D01*
X281866Y279730D01*
X280281D01*
X276117Y283893D01*
X275605Y284236D01*
X275000Y284356D01*
X273068D01*
X273017Y284434D01*
X272256Y284942D01*
X271358Y285121D01*
X270461Y284942D01*
X269700Y284434D01*
X269192Y283673D01*
X269013Y282776D01*
X269192Y281878D01*
X269700Y281117D01*
X270461Y280609D01*
X271358Y280431D01*
X272256Y280609D01*
X273017Y281117D01*
X273068Y281195D01*
X274345D01*
X278508Y277032D01*
X279021Y276690D01*
X279626Y276569D01*
X300353D01*
X300522Y276069D01*
X300290Y275891D01*
X299736Y275169D01*
X299387Y274328D01*
X299269Y273425D01*
X299387Y272522D01*
X299736Y271681D01*
X300290Y270959D01*
X301012Y270405D01*
X301853Y270057D01*
X302756Y269938D01*
X303659Y270057D01*
X304500Y270405D01*
X305222Y270959D01*
X305776Y271681D01*
X306124Y272522D01*
X306243Y273425D01*
X306124Y274328D01*
X305776Y275169D01*
X305222Y275891D01*
X304990Y276069D01*
X305159Y276569D01*
X325920D01*
X334287Y268202D01*
X334269Y268110D01*
X334448Y267213D01*
X334956Y266452D01*
X335717Y265944D01*
X336614Y265765D01*
X337512Y265944D01*
X338272Y266452D01*
X338781Y267213D01*
X338959Y268110D01*
X338781Y269008D01*
X338272Y269768D01*
X337512Y270277D01*
X336614Y270455D01*
X336522Y270437D01*
X327692Y279267D01*
X327180Y279610D01*
X326575Y279730D01*
X287622D01*
X287375Y280230D01*
X287764Y280737D01*
X288113Y281578D01*
X288231Y282480D01*
X288113Y283383D01*
X287764Y284224D01*
X287210Y284946D01*
X286488Y285500D01*
X285647Y285849D01*
X284744Y285967D01*
D02*
G37*
G36*
X258338Y288673D02*
X254769D01*
X254844Y288103D01*
X255257Y287105D01*
X255914Y286249D01*
X256771Y285592D01*
X257768Y285179D01*
X258338Y285104D01*
Y288673D01*
D02*
G37*
G36*
X262908D02*
X259338D01*
Y285104D01*
X259909Y285179D01*
X260906Y285592D01*
X261763Y286249D01*
X262420Y287105D01*
X262833Y288103D01*
X262908Y288673D01*
D02*
G37*
G36*
X209146Y283185D02*
X205988D01*
Y280028D01*
X209146D01*
Y283185D01*
D02*
G37*
G36*
X213303D02*
X210146D01*
Y280028D01*
X213303D01*
Y283185D01*
D02*
G37*
G36*
X364362Y271744D02*
X362413D01*
X362507Y271269D01*
X363060Y270442D01*
X363887Y269889D01*
X364362Y269795D01*
Y271744D01*
D02*
G37*
G36*
X151567Y267807D02*
X149617D01*
X149712Y267332D01*
X150265Y266505D01*
X151092Y265952D01*
X151567Y265858D01*
Y267807D01*
D02*
G37*
G36*
X154516D02*
X152567D01*
Y265858D01*
X153042Y265952D01*
X153869Y266505D01*
X154422Y267332D01*
X154516Y267807D01*
D02*
G37*
G36*
X209646Y263330D02*
X208743Y263211D01*
X207902Y262862D01*
X207180Y262308D01*
X206626Y261586D01*
X206277Y260745D01*
X206158Y259842D01*
X206277Y258940D01*
X206626Y258099D01*
X207180Y257377D01*
X207902Y256822D01*
X208743Y256474D01*
X209646Y256355D01*
X210548Y256474D01*
X211389Y256822D01*
X212111Y257377D01*
X212666Y258099D01*
X213014Y258940D01*
X213133Y259842D01*
X213014Y260745D01*
X212666Y261586D01*
X212111Y262308D01*
X211389Y262862D01*
X210548Y263211D01*
X209646Y263330D01*
D02*
G37*
G36*
X271654Y275377D02*
X270756Y275198D01*
X269995Y274690D01*
X269487Y273929D01*
X269308Y273031D01*
X269487Y272134D01*
X269995Y271373D01*
X270756Y270865D01*
X271654Y270686D01*
X272551Y270865D01*
X273312Y271373D01*
X273364Y271451D01*
X286058D01*
X291599Y265910D01*
X292112Y265567D01*
X292717Y265447D01*
X325652D01*
X325704Y265369D01*
X326296Y264974D01*
X326144Y264474D01*
X272281D01*
X272229Y264552D01*
X271468Y265060D01*
X270571Y265239D01*
X269673Y265060D01*
X268913Y264552D01*
X268404Y263791D01*
X268226Y262894D01*
X268404Y261996D01*
X268913Y261235D01*
X269673Y260727D01*
X270571Y260549D01*
X271468Y260727D01*
X272229Y261235D01*
X272281Y261313D01*
X340354D01*
X340959Y261434D01*
X341472Y261776D01*
X343511Y263815D01*
X343602Y263797D01*
X344500Y263975D01*
X345261Y264483D01*
X345769Y265244D01*
X345947Y266142D01*
X345769Y267039D01*
X345261Y267800D01*
X344500Y268308D01*
X343602Y268487D01*
X342705Y268308D01*
X341944Y267800D01*
X341436Y267039D01*
X341257Y266142D01*
X341276Y266050D01*
X339700Y264474D01*
X328580D01*
X328429Y264974D01*
X329020Y265369D01*
X329529Y266130D01*
X329707Y267028D01*
X329529Y267925D01*
X329020Y268686D01*
X328260Y269194D01*
X327362Y269373D01*
X326465Y269194D01*
X325704Y268686D01*
X325652Y268608D01*
X293371D01*
X287830Y274149D01*
X287317Y274492D01*
X286713Y274612D01*
X273364D01*
X273312Y274690D01*
X272551Y275198D01*
X271654Y275377D01*
D02*
G37*
G36*
X412992Y274131D02*
X411974Y273996D01*
X411025Y273604D01*
X410211Y272978D01*
X409586Y272164D01*
X409193Y271215D01*
X409059Y270197D01*
X409193Y269179D01*
X409586Y268230D01*
X410211Y267415D01*
X411025Y266790D01*
X411974Y266397D01*
X412992Y266263D01*
X414010Y266397D01*
X414959Y266790D01*
X415774Y267415D01*
X416399Y268230D01*
X416792Y269179D01*
X416926Y270197D01*
X416792Y271215D01*
X416399Y272164D01*
X415774Y272978D01*
X414959Y273604D01*
X414010Y273996D01*
X412992Y274131D01*
D02*
G37*
G36*
X151567Y270757D02*
X151092Y270662D01*
X150265Y270110D01*
X149712Y269283D01*
X149617Y268807D01*
X151567D01*
Y270757D01*
D02*
G37*
G36*
X152567D02*
Y268807D01*
X154516D01*
X154422Y269283D01*
X153869Y270110D01*
X153042Y270662D01*
X152567Y270757D01*
D02*
G37*
G36*
X186172Y293156D02*
X178372D01*
Y285356D01*
X180408D01*
Y273819D01*
X180528Y273214D01*
X180871Y272701D01*
X181679Y271893D01*
X181487Y271431D01*
X181348Y270374D01*
X181487Y269317D01*
X181895Y268332D01*
X182545Y267485D01*
X183391Y266836D01*
X184376Y266428D01*
X185433Y266289D01*
X186490Y266428D01*
X187476Y266836D01*
X188321Y267485D01*
X188971Y268332D01*
X189379Y269317D01*
X189518Y270374D01*
X189379Y271431D01*
X188971Y272416D01*
X188321Y273263D01*
X187476Y273912D01*
X186490Y274320D01*
X185433Y274459D01*
X184376Y274320D01*
X183914Y274128D01*
X183569Y274473D01*
Y285356D01*
X186172D01*
Y293156D01*
D02*
G37*
G36*
X195433Y274459D02*
X194376Y274320D01*
X193391Y273912D01*
X192544Y273263D01*
X191895Y272416D01*
X191487Y271431D01*
X191348Y270374D01*
X191487Y269317D01*
X191895Y268332D01*
X192544Y267485D01*
X193391Y266836D01*
X194376Y266428D01*
X195433Y266289D01*
X196490Y266428D01*
X197476Y266836D01*
X198321Y267485D01*
X198971Y268332D01*
X199379Y269317D01*
X199518Y270374D01*
X199379Y271431D01*
X198971Y272416D01*
X198321Y273263D01*
X197476Y273912D01*
X196490Y274320D01*
X195433Y274459D01*
D02*
G37*
G36*
X242323Y173164D02*
X241305Y173030D01*
X240356Y172637D01*
X239542Y172011D01*
X238916Y171197D01*
X238523Y170248D01*
X238389Y169230D01*
X238523Y168212D01*
X238916Y167263D01*
X239542Y166448D01*
X240356Y165823D01*
X241305Y165430D01*
X242323Y165296D01*
X243341Y165430D01*
X244290Y165823D01*
X245105Y166448D01*
X245730Y167263D01*
X246123Y168212D01*
X246257Y169230D01*
X246123Y170248D01*
X245730Y171197D01*
X245105Y172011D01*
X244290Y172637D01*
X243341Y173030D01*
X242323Y173164D01*
D02*
G37*
G36*
X252323D02*
X251305Y173030D01*
X250356Y172637D01*
X249541Y172011D01*
X248916Y171197D01*
X248523Y170248D01*
X248389Y169230D01*
X248523Y168212D01*
X248916Y167263D01*
X249541Y166448D01*
X250356Y165823D01*
X251305Y165430D01*
X252323Y165296D01*
X253341Y165430D01*
X254290Y165823D01*
X255104Y166448D01*
X255730Y167263D01*
X256123Y168212D01*
X256257Y169230D01*
X256123Y170248D01*
X255730Y171197D01*
X255104Y172011D01*
X254290Y172637D01*
X253341Y173030D01*
X252323Y173164D01*
D02*
G37*
G36*
X166693D02*
X165675Y173030D01*
X164726Y172637D01*
X163911Y172011D01*
X163286Y171197D01*
X162893Y170248D01*
X162759Y169230D01*
X162893Y168212D01*
X163286Y167263D01*
X163911Y166448D01*
X164726Y165823D01*
X165675Y165430D01*
X166693Y165296D01*
X167711Y165430D01*
X168660Y165823D01*
X169474Y166448D01*
X170100Y167263D01*
X170493Y168212D01*
X170627Y169230D01*
X170493Y170248D01*
X170100Y171197D01*
X169474Y172011D01*
X168660Y172637D01*
X167711Y173030D01*
X166693Y173164D01*
D02*
G37*
G36*
X232323D02*
X231305Y173030D01*
X230356Y172637D01*
X229541Y172011D01*
X228916Y171197D01*
X228523Y170248D01*
X228389Y169230D01*
X228523Y168212D01*
X228916Y167263D01*
X229541Y166448D01*
X230356Y165823D01*
X231305Y165430D01*
X232323Y165296D01*
X233341Y165430D01*
X234290Y165823D01*
X235104Y166448D01*
X235730Y167263D01*
X236123Y168212D01*
X236257Y169230D01*
X236123Y170248D01*
X235730Y171197D01*
X235104Y172011D01*
X234290Y172637D01*
X233341Y173030D01*
X232323Y173164D01*
D02*
G37*
G36*
X318051D02*
X317033Y173030D01*
X316084Y172637D01*
X315270Y172011D01*
X314645Y171197D01*
X314252Y170248D01*
X314118Y169230D01*
X314252Y168212D01*
X314645Y167263D01*
X315270Y166448D01*
X316084Y165823D01*
X317033Y165430D01*
X318051Y165296D01*
X319069Y165430D01*
X320018Y165823D01*
X320833Y166448D01*
X321458Y167263D01*
X321851Y168212D01*
X321985Y169230D01*
X321851Y170248D01*
X321458Y171197D01*
X320833Y172011D01*
X320018Y172637D01*
X319069Y173030D01*
X318051Y173164D01*
D02*
G37*
G36*
X403681D02*
X402663Y173030D01*
X401714Y172637D01*
X400900Y172011D01*
X400275Y171197D01*
X399882Y170248D01*
X399748Y169230D01*
X399882Y168212D01*
X400275Y167263D01*
X400900Y166448D01*
X401714Y165823D01*
X402663Y165430D01*
X403681Y165296D01*
X404699Y165430D01*
X405648Y165823D01*
X406463Y166448D01*
X407088Y167263D01*
X407481Y168212D01*
X407615Y169230D01*
X407481Y170248D01*
X407088Y171197D01*
X406463Y172011D01*
X405648Y172637D01*
X404699Y173030D01*
X403681Y173164D01*
D02*
G37*
G36*
X413681D02*
X412663Y173030D01*
X411714Y172637D01*
X410900Y172011D01*
X410275Y171197D01*
X409882Y170248D01*
X409748Y169230D01*
X409882Y168212D01*
X410275Y167263D01*
X410900Y166448D01*
X411714Y165823D01*
X412663Y165430D01*
X413681Y165296D01*
X414699Y165430D01*
X415648Y165823D01*
X416463Y166448D01*
X417088Y167263D01*
X417481Y168212D01*
X417615Y169230D01*
X417481Y170248D01*
X417088Y171197D01*
X416463Y172011D01*
X415648Y172637D01*
X414699Y173030D01*
X413681Y173164D01*
D02*
G37*
G36*
X328051D02*
X327033Y173030D01*
X326084Y172637D01*
X325270Y172011D01*
X324645Y171197D01*
X324252Y170248D01*
X324117Y169230D01*
X324252Y168212D01*
X324645Y167263D01*
X325270Y166448D01*
X326084Y165823D01*
X327033Y165430D01*
X328051Y165296D01*
X329069Y165430D01*
X330018Y165823D01*
X330833Y166448D01*
X331458Y167263D01*
X331851Y168212D01*
X331985Y169230D01*
X331851Y170248D01*
X331458Y171197D01*
X330833Y172011D01*
X330018Y172637D01*
X329069Y173030D01*
X328051Y173164D01*
D02*
G37*
G36*
X338051D02*
X337033Y173030D01*
X336084Y172637D01*
X335270Y172011D01*
X334645Y171197D01*
X334252Y170248D01*
X334118Y169230D01*
X334252Y168212D01*
X334645Y167263D01*
X335270Y166448D01*
X336084Y165823D01*
X337033Y165430D01*
X338051Y165296D01*
X339069Y165430D01*
X340018Y165823D01*
X340833Y166448D01*
X341458Y167263D01*
X341851Y168212D01*
X341985Y169230D01*
X341851Y170248D01*
X341458Y171197D01*
X340833Y172011D01*
X340018Y172637D01*
X339069Y173030D01*
X338051Y173164D01*
D02*
G37*
G36*
X156693D02*
X155675Y173030D01*
X154726Y172637D01*
X153911Y172011D01*
X153286Y171197D01*
X152893Y170248D01*
X152759Y169230D01*
X152893Y168212D01*
X153286Y167263D01*
X153911Y166448D01*
X154726Y165823D01*
X155675Y165430D01*
X156693Y165296D01*
X157711Y165430D01*
X158660Y165823D01*
X159475Y166448D01*
X160100Y167263D01*
X160493Y168212D01*
X160627Y169230D01*
X160493Y170248D01*
X160100Y171197D01*
X159475Y172011D01*
X158660Y172637D01*
X157711Y173030D01*
X156693Y173164D01*
D02*
G37*
G36*
X337894Y152435D02*
X336876Y152301D01*
X335927Y151908D01*
X335112Y151283D01*
X334487Y150468D01*
X334094Y149520D01*
X333960Y148502D01*
X334094Y147484D01*
X334487Y146535D01*
X335112Y145720D01*
X335927Y145095D01*
X336876Y144702D01*
X337894Y144568D01*
X338912Y144702D01*
X339860Y145095D01*
X340675Y145720D01*
X341300Y146535D01*
X341693Y147484D01*
X341827Y148502D01*
X341693Y149520D01*
X341300Y150468D01*
X340675Y151283D01*
X339860Y151908D01*
X338912Y152301D01*
X337894Y152435D01*
D02*
G37*
G36*
X423524D02*
X422506Y152301D01*
X421557Y151908D01*
X420742Y151283D01*
X420117Y150468D01*
X419724Y149520D01*
X419590Y148502D01*
X419724Y147484D01*
X420117Y146535D01*
X420742Y145720D01*
X421557Y145095D01*
X422506Y144702D01*
X423524Y144568D01*
X424542Y144702D01*
X425490Y145095D01*
X426305Y145720D01*
X426930Y146535D01*
X427323Y147484D01*
X427457Y148502D01*
X427323Y149520D01*
X426930Y150468D01*
X426305Y151283D01*
X425490Y151908D01*
X424542Y152301D01*
X423524Y152435D01*
D02*
G37*
G36*
X166535D02*
X165517Y152301D01*
X164569Y151908D01*
X163754Y151283D01*
X163129Y150468D01*
X162736Y149520D01*
X162602Y148502D01*
X162736Y147484D01*
X163129Y146535D01*
X163754Y145720D01*
X164569Y145095D01*
X165517Y144702D01*
X166535Y144568D01*
X167553Y144702D01*
X168502Y145095D01*
X169317Y145720D01*
X169942Y146535D01*
X170335Y147484D01*
X170469Y148502D01*
X170335Y149520D01*
X169942Y150468D01*
X169317Y151283D01*
X168502Y151908D01*
X167553Y152301D01*
X166535Y152435D01*
D02*
G37*
G36*
X252165D02*
X251147Y152301D01*
X250199Y151908D01*
X249384Y151283D01*
X248759Y150468D01*
X248366Y149520D01*
X248232Y148502D01*
X248366Y147484D01*
X248759Y146535D01*
X249384Y145720D01*
X250199Y145095D01*
X251147Y144702D01*
X252165Y144568D01*
X253184Y144702D01*
X254132Y145095D01*
X254947Y145720D01*
X255572Y146535D01*
X255965Y147484D01*
X256099Y148502D01*
X255965Y149520D01*
X255572Y150468D01*
X254947Y151283D01*
X254132Y151908D01*
X253184Y152301D01*
X252165Y152435D01*
D02*
G37*
G36*
X160593Y152402D02*
X152793D01*
Y144602D01*
X160593D01*
Y152402D01*
D02*
G37*
G36*
X417581D02*
X409781D01*
Y144602D01*
X417581D01*
Y152402D01*
D02*
G37*
G36*
X146693Y173164D02*
X145675Y173030D01*
X144726Y172637D01*
X143912Y172011D01*
X143286Y171197D01*
X142893Y170248D01*
X142759Y169230D01*
X142893Y168212D01*
X143286Y167263D01*
X143912Y166448D01*
X144726Y165823D01*
X145675Y165430D01*
X146693Y165296D01*
X147711Y165430D01*
X148660Y165823D01*
X149475Y166448D01*
X150100Y167263D01*
X150493Y168212D01*
X150627Y169230D01*
X150493Y170248D01*
X150100Y171197D01*
X149475Y172011D01*
X148660Y172637D01*
X147711Y173030D01*
X146693Y173164D01*
D02*
G37*
G36*
X246223Y152402D02*
X238423D01*
Y144602D01*
X246223D01*
Y152402D01*
D02*
G37*
G36*
X331951D02*
X324151D01*
Y144602D01*
X331951D01*
Y152402D01*
D02*
G37*
G36*
X423681Y173164D02*
X422663Y173030D01*
X421714Y172637D01*
X420900Y172011D01*
X420275Y171197D01*
X419882Y170248D01*
X419747Y169230D01*
X419882Y168212D01*
X420275Y167263D01*
X420900Y166448D01*
X421714Y165823D01*
X422663Y165430D01*
X423681Y165296D01*
X424699Y165430D01*
X425648Y165823D01*
X426463Y166448D01*
X427088Y167263D01*
X427481Y168212D01*
X427615Y169230D01*
X427481Y170248D01*
X427088Y171197D01*
X426463Y172011D01*
X425648Y172637D01*
X424699Y173030D01*
X423681Y173164D01*
D02*
G37*
G36*
X118240Y188330D02*
X114640D01*
Y184730D01*
X118240D01*
Y188330D01*
D02*
G37*
G36*
X203870D02*
X200270D01*
Y184730D01*
X203870D01*
Y188330D01*
D02*
G37*
G36*
X375228Y183730D02*
X371628D01*
Y180130D01*
X375228D01*
Y183730D01*
D02*
G37*
G36*
X379828D02*
X376228D01*
Y180130D01*
X379828D01*
Y183730D01*
D02*
G37*
G36*
X289598Y188330D02*
X285998D01*
Y184730D01*
X289598D01*
Y188330D01*
D02*
G37*
G36*
X118740Y208164D02*
X117722Y208030D01*
X116773Y207637D01*
X115959Y207012D01*
X115334Y206197D01*
X114941Y205248D01*
X114806Y204230D01*
X114941Y203212D01*
X115334Y202263D01*
X115959Y201448D01*
X116773Y200823D01*
X117722Y200430D01*
X118740Y200296D01*
X119758Y200430D01*
X120707Y200823D01*
X121522Y201448D01*
X122147Y202263D01*
X122540Y203212D01*
X122674Y204230D01*
X122540Y205248D01*
X122147Y206197D01*
X121522Y207012D01*
X120707Y207637D01*
X119758Y208030D01*
X118740Y208164D01*
D02*
G37*
G36*
X204370D02*
X203352Y208030D01*
X202403Y207637D01*
X201589Y207012D01*
X200964Y206197D01*
X200571Y205248D01*
X200437Y204230D01*
X200571Y203212D01*
X200964Y202263D01*
X201589Y201448D01*
X202403Y200823D01*
X203352Y200430D01*
X204370Y200296D01*
X205388Y200430D01*
X206337Y200823D01*
X207152Y201448D01*
X207777Y202263D01*
X208170Y203212D01*
X208304Y204230D01*
X208170Y205248D01*
X207777Y206197D01*
X207152Y207012D01*
X206337Y207637D01*
X205388Y208030D01*
X204370Y208164D01*
D02*
G37*
G36*
X375228Y188330D02*
X371628D01*
Y184730D01*
X375228D01*
Y188330D01*
D02*
G37*
G36*
X379828D02*
X376228D01*
Y184730D01*
X379828D01*
Y188330D01*
D02*
G37*
G36*
X294198Y183730D02*
X290598D01*
Y180130D01*
X294198D01*
Y183730D01*
D02*
G37*
G36*
X307972Y235416D02*
X307075Y235237D01*
X306314Y234729D01*
X305806Y233968D01*
X305627Y233071D01*
X305806Y232173D01*
X306000Y231883D01*
X306119Y231285D01*
X306392Y230876D01*
Y175332D01*
X306314Y175280D01*
X305806Y174519D01*
X305627Y173622D01*
X305806Y172725D01*
X306314Y171964D01*
X307075Y171455D01*
X307972Y171277D01*
X308870Y171455D01*
X309631Y171964D01*
X310139Y172725D01*
X310317Y173622D01*
X310139Y174519D01*
X309631Y175280D01*
X309553Y175332D01*
Y231361D01*
X309631Y231413D01*
X310139Y232173D01*
X310317Y233071D01*
X310139Y233968D01*
X309631Y234729D01*
X308870Y235237D01*
X307972Y235416D01*
D02*
G37*
G36*
X393602D02*
X392705Y235237D01*
X391944Y234729D01*
X391436Y233968D01*
X391257Y233071D01*
X391436Y232173D01*
X391630Y231884D01*
X391748Y231285D01*
X392022Y230876D01*
Y175332D01*
X391944Y175280D01*
X391436Y174519D01*
X391257Y173622D01*
X391436Y172725D01*
X391944Y171964D01*
X392705Y171455D01*
X393602Y171277D01*
X394500Y171455D01*
X395261Y171964D01*
X395769Y172725D01*
X395948Y173622D01*
X395769Y174519D01*
X395261Y175280D01*
X395183Y175332D01*
Y231361D01*
X395261Y231413D01*
X395769Y232173D01*
X395948Y233071D01*
X395769Y233968D01*
X395261Y234729D01*
X394500Y235237D01*
X393602Y235416D01*
D02*
G37*
G36*
X136614D02*
X135717Y235237D01*
X134956Y234729D01*
X134448Y233968D01*
X134269Y233071D01*
X134448Y232173D01*
X134641Y231884D01*
X134760Y231285D01*
X135034Y230876D01*
Y175332D01*
X134956Y175280D01*
X134448Y174519D01*
X134269Y173622D01*
X134448Y172725D01*
X134956Y171964D01*
X135717Y171455D01*
X136614Y171277D01*
X137512Y171455D01*
X138272Y171964D01*
X138781Y172725D01*
X138959Y173622D01*
X138781Y174519D01*
X138272Y175280D01*
X138195Y175332D01*
Y231361D01*
X138272Y231413D01*
X138781Y232173D01*
X138959Y233071D01*
X138781Y233968D01*
X138272Y234729D01*
X137512Y235237D01*
X136614Y235416D01*
D02*
G37*
G36*
X222244D02*
X221347Y235237D01*
X220586Y234729D01*
X220078Y233968D01*
X219899Y233071D01*
X220078Y232173D01*
X220271Y231884D01*
X220390Y231285D01*
X220664Y230876D01*
Y175332D01*
X220586Y175280D01*
X220078Y174519D01*
X219899Y173622D01*
X220078Y172725D01*
X220586Y171964D01*
X221347Y171455D01*
X222244Y171277D01*
X223142Y171455D01*
X223902Y171964D01*
X224411Y172725D01*
X224589Y173622D01*
X224411Y174519D01*
X223902Y175280D01*
X223825Y175332D01*
Y231361D01*
X223902Y231413D01*
X224411Y232173D01*
X224589Y233071D01*
X224411Y233968D01*
X223902Y234729D01*
X223142Y235237D01*
X222244Y235416D01*
D02*
G37*
G36*
X118240Y183730D02*
X114640D01*
Y180130D01*
X118240D01*
Y183730D01*
D02*
G37*
G36*
X208470D02*
X204870D01*
Y180130D01*
X208470D01*
Y183730D01*
D02*
G37*
G36*
X289598D02*
X285998D01*
Y180130D01*
X289598D01*
Y183730D01*
D02*
G37*
G36*
X122840D02*
X119240D01*
Y180130D01*
X122840D01*
Y183730D01*
D02*
G37*
G36*
X203870D02*
X200270D01*
Y180130D01*
X203870D01*
Y183730D01*
D02*
G37*
G36*
X211772Y288756D02*
X208202D01*
X208277Y288186D01*
X208690Y287188D01*
X209347Y286332D01*
X210204Y285675D01*
X211201Y285262D01*
X211772Y285187D01*
Y288756D01*
D02*
G37*
G36*
X172784Y308105D02*
Y304535D01*
X176353D01*
X176278Y305106D01*
X175865Y306103D01*
X175208Y306960D01*
X174351Y307617D01*
X173354Y308030D01*
X172784Y308105D01*
D02*
G37*
G36*
X251783D02*
X251213Y308030D01*
X250216Y307617D01*
X249359Y306960D01*
X248702Y306103D01*
X248289Y305106D01*
X248214Y304535D01*
X251783D01*
Y308105D01*
D02*
G37*
G36*
X288402Y305823D02*
X285244D01*
Y302665D01*
X288402D01*
Y305823D01*
D02*
G37*
G36*
X171783Y308105D02*
X171213Y308030D01*
X170216Y307617D01*
X169359Y306960D01*
X168702Y306103D01*
X168289Y305106D01*
X168214Y304535D01*
X171783D01*
Y308105D01*
D02*
G37*
G36*
X252783D02*
Y304535D01*
X256353D01*
X256278Y305106D01*
X255865Y306103D01*
X255208Y306960D01*
X254351Y307617D01*
X253354Y308030D01*
X252783Y308105D01*
D02*
G37*
G36*
X156353Y313535D02*
X152784D01*
Y309966D01*
X153354Y310041D01*
X154351Y310454D01*
X155208Y311111D01*
X155865Y311968D01*
X156278Y312965D01*
X156353Y313535D01*
D02*
G37*
G36*
X191783D02*
X188214D01*
X188289Y312965D01*
X188702Y311968D01*
X189359Y311111D01*
X190216Y310454D01*
X191213Y310041D01*
X191783Y309966D01*
Y313535D01*
D02*
G37*
G36*
X280079Y316585D02*
X279022Y316446D01*
X278036Y316038D01*
X277190Y315388D01*
X276541Y314543D01*
X276133Y313557D01*
X275994Y312500D01*
X276133Y311443D01*
X276541Y310458D01*
X277190Y309612D01*
X278036Y308962D01*
X279022Y308554D01*
X280079Y308415D01*
X281136Y308554D01*
X282121Y308962D01*
X282967Y309612D01*
X283616Y310458D01*
X284025Y311443D01*
X284164Y312500D01*
X284025Y313557D01*
X283616Y314543D01*
X282967Y315388D01*
X282121Y316038D01*
X281136Y316446D01*
X280079Y316585D01*
D02*
G37*
G36*
X151784Y313535D02*
X148214D01*
X148289Y312965D01*
X148702Y311968D01*
X149359Y311111D01*
X150216Y310454D01*
X151213Y310041D01*
X151784Y309966D01*
Y313535D01*
D02*
G37*
G36*
X284244Y305823D02*
X281087D01*
Y302665D01*
X284244D01*
Y305823D01*
D02*
G37*
G36*
X202284Y307969D02*
X201265Y307835D01*
X200317Y307442D01*
X199502Y306817D01*
X198877Y306002D01*
X198484Y305053D01*
X198350Y304035D01*
X198484Y303017D01*
X198877Y302069D01*
X199502Y301254D01*
X200317Y300629D01*
X201265Y300236D01*
X202284Y300102D01*
X203302Y300236D01*
X204250Y300629D01*
X205065Y301254D01*
X205690Y302069D01*
X206083Y303017D01*
X206217Y304035D01*
X206083Y305053D01*
X205690Y306002D01*
X205065Y306817D01*
X204250Y307442D01*
X203302Y307835D01*
X202284Y307969D01*
D02*
G37*
G36*
X212283D02*
X211265Y307835D01*
X210317Y307442D01*
X209502Y306817D01*
X208877Y306002D01*
X208484Y305053D01*
X208350Y304035D01*
X208484Y303017D01*
X208877Y302069D01*
X209502Y301254D01*
X210317Y300629D01*
X211265Y300236D01*
X212283Y300102D01*
X213302Y300236D01*
X214250Y300629D01*
X215065Y301254D01*
X215690Y302069D01*
X216083Y303017D01*
X216217Y304035D01*
X216083Y305053D01*
X215690Y306002D01*
X215065Y306817D01*
X214250Y307442D01*
X213302Y307835D01*
X212283Y307969D01*
D02*
G37*
G36*
X182283D02*
X181265Y307835D01*
X180317Y307442D01*
X179502Y306817D01*
X178877Y306002D01*
X178484Y305053D01*
X178350Y304035D01*
X178484Y303017D01*
X178877Y302069D01*
X179502Y301254D01*
X180317Y300629D01*
X181265Y300236D01*
X182283Y300102D01*
X183302Y300236D01*
X184250Y300629D01*
X185065Y301254D01*
X185690Y302069D01*
X186083Y303017D01*
X186217Y304035D01*
X186083Y305053D01*
X185690Y306002D01*
X185065Y306817D01*
X184250Y307442D01*
X183302Y307835D01*
X182283Y307969D01*
D02*
G37*
G36*
X192283D02*
X191265Y307835D01*
X190317Y307442D01*
X189502Y306817D01*
X188877Y306002D01*
X188484Y305053D01*
X188350Y304035D01*
X188484Y303017D01*
X188877Y302069D01*
X189502Y301254D01*
X190317Y300629D01*
X191265Y300236D01*
X192283Y300102D01*
X193302Y300236D01*
X194250Y300629D01*
X195065Y301254D01*
X195690Y302069D01*
X196083Y303017D01*
X196217Y304035D01*
X196083Y305053D01*
X195690Y306002D01*
X195065Y306817D01*
X194250Y307442D01*
X193302Y307835D01*
X192283Y307969D01*
D02*
G37*
G36*
X222284D02*
X221265Y307835D01*
X220317Y307442D01*
X219502Y306817D01*
X218877Y306002D01*
X218484Y305053D01*
X218350Y304035D01*
X218484Y303017D01*
X218877Y302069D01*
X219502Y301254D01*
X220317Y300629D01*
X221265Y300236D01*
X222284Y300102D01*
X223302Y300236D01*
X224250Y300629D01*
X225065Y301254D01*
X225690Y302069D01*
X226083Y303017D01*
X226217Y304035D01*
X226083Y305053D01*
X225690Y306002D01*
X225065Y306817D01*
X224250Y307442D01*
X223302Y307835D01*
X222284Y307969D01*
D02*
G37*
G36*
X136184Y307935D02*
X128384D01*
Y300135D01*
X136184D01*
Y307935D01*
D02*
G37*
G36*
X114862Y308554D02*
X113805Y308414D01*
X112820Y308006D01*
X111974Y307357D01*
X111325Y306511D01*
X110916Y305526D01*
X110777Y304468D01*
X110916Y303411D01*
X111325Y302426D01*
X111974Y301580D01*
X112820Y300931D01*
X113805Y300523D01*
X114862Y300384D01*
X115919Y300523D01*
X116905Y300931D01*
X117751Y301580D01*
X118400Y302426D01*
X118808Y303411D01*
X118947Y304468D01*
X118808Y305526D01*
X118400Y306511D01*
X117751Y307357D01*
X116905Y308006D01*
X115919Y308414D01*
X114862Y308554D01*
D02*
G37*
G36*
X232283Y307969D02*
X231265Y307835D01*
X230317Y307442D01*
X229502Y306817D01*
X228877Y306002D01*
X228484Y305053D01*
X228350Y304035D01*
X228484Y303017D01*
X228877Y302069D01*
X229502Y301254D01*
X230317Y300629D01*
X231265Y300236D01*
X232283Y300102D01*
X233302Y300236D01*
X234250Y300629D01*
X235065Y301254D01*
X235690Y302069D01*
X236083Y303017D01*
X236217Y304035D01*
X236083Y305053D01*
X235690Y306002D01*
X235065Y306817D01*
X234250Y307442D01*
X233302Y307835D01*
X232283Y307969D01*
D02*
G37*
G36*
X242284D02*
X241265Y307835D01*
X240317Y307442D01*
X239502Y306817D01*
X238877Y306002D01*
X238484Y305053D01*
X238350Y304035D01*
X238484Y303017D01*
X238877Y302069D01*
X239502Y301254D01*
X240317Y300629D01*
X241265Y300236D01*
X242284Y300102D01*
X243302Y300236D01*
X244250Y300629D01*
X245065Y301254D01*
X245690Y302069D01*
X246083Y303017D01*
X246217Y304035D01*
X246083Y305053D01*
X245690Y306002D01*
X245065Y306817D01*
X244250Y307442D01*
X243302Y307835D01*
X242284Y307969D01*
D02*
G37*
G36*
X196353Y313535D02*
X192783D01*
Y309966D01*
X193354Y310041D01*
X194351Y310454D01*
X195208Y311111D01*
X195865Y311968D01*
X196278Y312965D01*
X196353Y313535D01*
D02*
G37*
G36*
X114862Y318553D02*
X113805Y318414D01*
X112820Y318006D01*
X111974Y317357D01*
X111325Y316511D01*
X110916Y315526D01*
X110777Y314469D01*
X110916Y313411D01*
X111325Y312426D01*
X111974Y311580D01*
X112820Y310931D01*
X113805Y310523D01*
X114862Y310384D01*
X115919Y310523D01*
X116905Y310931D01*
X117751Y311580D01*
X118400Y312426D01*
X118808Y313411D01*
X118947Y314469D01*
X118808Y315526D01*
X118400Y316511D01*
X117751Y317357D01*
X116905Y318006D01*
X115919Y318414D01*
X114862Y318553D01*
D02*
G37*
G36*
X151784Y318105D02*
X151213Y318030D01*
X150216Y317617D01*
X149359Y316960D01*
X148702Y316103D01*
X148289Y315106D01*
X148214Y314535D01*
X151784D01*
Y318105D01*
D02*
G37*
G36*
X242284Y317969D02*
X241265Y317835D01*
X240317Y317442D01*
X239502Y316817D01*
X238877Y316002D01*
X238484Y315054D01*
X238350Y314035D01*
X238484Y313017D01*
X238877Y312069D01*
X239502Y311254D01*
X240317Y310629D01*
X241265Y310236D01*
X242284Y310102D01*
X243302Y310236D01*
X244250Y310629D01*
X245065Y311254D01*
X245690Y312069D01*
X246083Y313017D01*
X246217Y314035D01*
X246083Y315054D01*
X245690Y316002D01*
X245065Y316817D01*
X244250Y317442D01*
X243302Y317835D01*
X242284Y317969D01*
D02*
G37*
G36*
X252284D02*
X251265Y317835D01*
X250317Y317442D01*
X249502Y316817D01*
X248877Y316002D01*
X248484Y315054D01*
X248350Y314035D01*
X248484Y313017D01*
X248877Y312069D01*
X249502Y311254D01*
X250317Y310629D01*
X251265Y310236D01*
X252284Y310102D01*
X253302Y310236D01*
X254250Y310629D01*
X255065Y311254D01*
X255690Y312069D01*
X256083Y313017D01*
X256217Y314035D01*
X256083Y315054D01*
X255690Y316002D01*
X255065Y316817D01*
X254250Y317442D01*
X253302Y317835D01*
X252284Y317969D01*
D02*
G37*
G36*
X152784Y318105D02*
Y314535D01*
X156353D01*
X156278Y315106D01*
X155865Y316103D01*
X155208Y316960D01*
X154351Y317617D01*
X153354Y318030D01*
X152784Y318105D01*
D02*
G37*
G36*
X221783D02*
X221213Y318030D01*
X220216Y317617D01*
X219359Y316960D01*
X218702Y316103D01*
X218289Y315106D01*
X218214Y314535D01*
X221783D01*
Y318105D01*
D02*
G37*
G36*
X222783D02*
Y314535D01*
X226353D01*
X226278Y315106D01*
X225865Y316103D01*
X225208Y316960D01*
X224351Y317617D01*
X223354Y318030D01*
X222783Y318105D01*
D02*
G37*
G36*
X191783D02*
X191213Y318030D01*
X190216Y317617D01*
X189359Y316960D01*
X188702Y316103D01*
X188289Y315106D01*
X188214Y314535D01*
X191783D01*
Y318105D01*
D02*
G37*
G36*
X192783D02*
Y314535D01*
X196353D01*
X196278Y315106D01*
X195865Y316103D01*
X195208Y316960D01*
X194351Y317617D01*
X193354Y318030D01*
X192783Y318105D01*
D02*
G37*
G36*
X232283Y317969D02*
X231265Y317835D01*
X230317Y317442D01*
X229502Y316817D01*
X228877Y316002D01*
X228484Y315054D01*
X228350Y314035D01*
X228484Y313017D01*
X228877Y312069D01*
X229502Y311254D01*
X230317Y310629D01*
X231265Y310236D01*
X232283Y310102D01*
X233302Y310236D01*
X234250Y310629D01*
X235065Y311254D01*
X235690Y312069D01*
X236083Y313017D01*
X236217Y314035D01*
X236083Y315054D01*
X235690Y316002D01*
X235065Y316817D01*
X234250Y317442D01*
X233302Y317835D01*
X232283Y317969D01*
D02*
G37*
G36*
X132283D02*
X131265Y317835D01*
X130317Y317442D01*
X129502Y316817D01*
X128877Y316002D01*
X128484Y315054D01*
X128350Y314035D01*
X128484Y313017D01*
X128877Y312069D01*
X129502Y311254D01*
X130317Y310629D01*
X131265Y310236D01*
X132283Y310102D01*
X133302Y310236D01*
X134250Y310629D01*
X135065Y311254D01*
X135690Y312069D01*
X136083Y313017D01*
X136217Y314035D01*
X136083Y315054D01*
X135690Y316002D01*
X135065Y316817D01*
X134250Y317442D01*
X133302Y317835D01*
X132283Y317969D01*
D02*
G37*
G36*
X142283D02*
X141265Y317835D01*
X140317Y317442D01*
X139502Y316817D01*
X138877Y316002D01*
X138484Y315054D01*
X138350Y314035D01*
X138484Y313017D01*
X138877Y312069D01*
X139502Y311254D01*
X140317Y310629D01*
X141265Y310236D01*
X142283Y310102D01*
X143302Y310236D01*
X144250Y310629D01*
X145065Y311254D01*
X145690Y312069D01*
X146083Y313017D01*
X146217Y314035D01*
X146083Y315054D01*
X145690Y316002D01*
X145065Y316817D01*
X144250Y317442D01*
X143302Y317835D01*
X142283Y317969D01*
D02*
G37*
G36*
X221783Y313535D02*
X218214D01*
X218289Y312965D01*
X218702Y311968D01*
X219359Y311111D01*
X220216Y310454D01*
X221213Y310041D01*
X221783Y309966D01*
Y313535D01*
D02*
G37*
G36*
X226353D02*
X222783D01*
Y309966D01*
X223354Y310041D01*
X224351Y310454D01*
X225208Y311111D01*
X225865Y311968D01*
X226278Y312965D01*
X226353Y313535D01*
D02*
G37*
G36*
X162284Y317969D02*
X161265Y317835D01*
X160317Y317442D01*
X159502Y316817D01*
X158877Y316002D01*
X158484Y315054D01*
X158350Y314035D01*
X158484Y313017D01*
X158877Y312069D01*
X159502Y311254D01*
X160317Y310629D01*
X161265Y310236D01*
X162284Y310102D01*
X163302Y310236D01*
X164250Y310629D01*
X165065Y311254D01*
X165690Y312069D01*
X166083Y313017D01*
X166217Y314035D01*
X166083Y315054D01*
X165690Y316002D01*
X165065Y316817D01*
X164250Y317442D01*
X163302Y317835D01*
X162284Y317969D01*
D02*
G37*
G36*
X202284D02*
X201265Y317835D01*
X200317Y317442D01*
X199502Y316817D01*
X198877Y316002D01*
X198484Y315054D01*
X198350Y314035D01*
X198484Y313017D01*
X198877Y312069D01*
X199502Y311254D01*
X200317Y310629D01*
X201265Y310236D01*
X202284Y310102D01*
X203302Y310236D01*
X204250Y310629D01*
X205065Y311254D01*
X205690Y312069D01*
X206083Y313017D01*
X206217Y314035D01*
X206083Y315054D01*
X205690Y316002D01*
X205065Y316817D01*
X204250Y317442D01*
X203302Y317835D01*
X202284Y317969D01*
D02*
G37*
G36*
X212283D02*
X211265Y317835D01*
X210317Y317442D01*
X209502Y316817D01*
X208877Y316002D01*
X208484Y315054D01*
X208350Y314035D01*
X208484Y313017D01*
X208877Y312069D01*
X209502Y311254D01*
X210317Y310629D01*
X211265Y310236D01*
X212283Y310102D01*
X213302Y310236D01*
X214250Y310629D01*
X215065Y311254D01*
X215690Y312069D01*
X216083Y313017D01*
X216217Y314035D01*
X216083Y315054D01*
X215690Y316002D01*
X215065Y316817D01*
X214250Y317442D01*
X213302Y317835D01*
X212283Y317969D01*
D02*
G37*
G36*
X172283D02*
X171265Y317835D01*
X170317Y317442D01*
X169502Y316817D01*
X168877Y316002D01*
X168484Y315054D01*
X168350Y314035D01*
X168484Y313017D01*
X168877Y312069D01*
X169502Y311254D01*
X170317Y310629D01*
X171265Y310236D01*
X172283Y310102D01*
X173302Y310236D01*
X174250Y310629D01*
X175065Y311254D01*
X175690Y312069D01*
X176083Y313017D01*
X176217Y314035D01*
X176083Y315054D01*
X175690Y316002D01*
X175065Y316817D01*
X174250Y317442D01*
X173302Y317835D01*
X172283Y317969D01*
D02*
G37*
G36*
X182283D02*
X181265Y317835D01*
X180317Y317442D01*
X179502Y316817D01*
X178877Y316002D01*
X178484Y315054D01*
X178350Y314035D01*
X178484Y313017D01*
X178877Y312069D01*
X179502Y311254D01*
X180317Y310629D01*
X181265Y310236D01*
X182283Y310102D01*
X183302Y310236D01*
X184250Y310629D01*
X185065Y311254D01*
X185690Y312069D01*
X186083Y313017D01*
X186217Y314035D01*
X186083Y315054D01*
X185690Y316002D01*
X185065Y316817D01*
X184250Y317442D01*
X183302Y317835D01*
X182283Y317969D01*
D02*
G37*
G36*
X162284Y307969D02*
X161265Y307835D01*
X160317Y307442D01*
X159502Y306817D01*
X158877Y306002D01*
X158484Y305053D01*
X158350Y304035D01*
X158484Y303017D01*
X158877Y302069D01*
X159502Y301254D01*
X160317Y300629D01*
X161265Y300236D01*
X162284Y300102D01*
X163302Y300236D01*
X164250Y300629D01*
X165065Y301254D01*
X165690Y302069D01*
X166083Y303017D01*
X166217Y304035D01*
X166083Y305053D01*
X165690Y306002D01*
X165065Y306817D01*
X164250Y307442D01*
X163302Y307835D01*
X162284Y307969D01*
D02*
G37*
G36*
X378536Y288867D02*
X378060Y288772D01*
X377233Y288220D01*
X376974Y287832D01*
X376373D01*
X376114Y288220D01*
X375287Y288772D01*
X374811Y288867D01*
Y286417D01*
X373811D01*
Y288867D01*
X373336Y288772D01*
X372509Y288220D01*
X372250Y287832D01*
X371648D01*
X371389Y288220D01*
X370562Y288772D01*
X370087Y288867D01*
Y286417D01*
X369087D01*
Y288867D01*
X368611Y288772D01*
X367784Y288220D01*
X367525Y287832D01*
X366924D01*
X366665Y288220D01*
X365838Y288772D01*
X365362Y288867D01*
Y286417D01*
X364862D01*
Y285917D01*
X362413D01*
X362507Y285442D01*
X363060Y284615D01*
X363448Y284356D01*
Y283754D01*
X363060Y283495D01*
X362507Y282668D01*
X362413Y282193D01*
X364862D01*
Y281193D01*
X362413D01*
X362507Y280717D01*
X363060Y279890D01*
X363448Y279631D01*
Y279030D01*
X363060Y278771D01*
X362507Y277944D01*
X362413Y277468D01*
X364862D01*
Y276468D01*
X362413D01*
X362507Y275993D01*
X363060Y275166D01*
X363448Y274907D01*
Y274306D01*
X363060Y274046D01*
X362507Y273219D01*
X362413Y272744D01*
X364862D01*
Y272244D01*
X365362D01*
Y269795D01*
X365838Y269889D01*
X366665Y270442D01*
X366924Y270829D01*
X367525D01*
X367784Y270442D01*
X368611Y269889D01*
X369087Y269795D01*
Y272244D01*
X370087D01*
Y269795D01*
X370562Y269889D01*
X371389Y270442D01*
X371648Y270829D01*
X372250D01*
X372509Y270442D01*
X373336Y269889D01*
X373811Y269795D01*
Y272244D01*
X374811D01*
Y269795D01*
X375287Y269889D01*
X376114Y270442D01*
X376373Y270829D01*
X376974D01*
X377233Y270442D01*
X378060Y269889D01*
X378536Y269795D01*
Y272244D01*
X379035D01*
Y272744D01*
X381485D01*
X381390Y273219D01*
X380838Y274046D01*
X380450Y274306D01*
Y274907D01*
X380838Y275166D01*
X381390Y275993D01*
X381485Y276468D01*
X379035D01*
Y277468D01*
X381485D01*
X381390Y277944D01*
X380838Y278771D01*
X380450Y279030D01*
Y279631D01*
X380838Y279890D01*
X381390Y280717D01*
X381485Y281193D01*
X379035D01*
Y282193D01*
X381485D01*
X381390Y282668D01*
X380838Y283495D01*
X380450Y283754D01*
Y284356D01*
X380838Y284615D01*
X381390Y285442D01*
X381485Y285917D01*
X379035D01*
Y286417D01*
X378536D01*
Y288867D01*
D02*
G37*
G36*
X151665Y290146D02*
X151190Y290052D01*
X150363Y289499D01*
X149810Y288672D01*
X149716Y288197D01*
X151665D01*
Y290146D01*
D02*
G37*
G36*
X364362Y288867D02*
X363887Y288772D01*
X363060Y288220D01*
X362507Y287393D01*
X362413Y286917D01*
X364362D01*
Y288867D01*
D02*
G37*
G36*
X379536D02*
Y286917D01*
X381485D01*
X381390Y287393D01*
X380838Y288220D01*
X380011Y288772D01*
X379536Y288867D01*
D02*
G37*
G36*
X152665Y290146D02*
Y288197D01*
X154615D01*
X154520Y288672D01*
X153968Y289499D01*
X153141Y290052D01*
X152665Y290146D01*
D02*
G37*
G36*
X258338Y293243D02*
X257768Y293168D01*
X256771Y292755D01*
X255914Y292097D01*
X255257Y291241D01*
X254844Y290244D01*
X254769Y289673D01*
X258338D01*
Y293243D01*
D02*
G37*
G36*
X259338D02*
Y289673D01*
X262908D01*
X262833Y290244D01*
X262420Y291241D01*
X261763Y292097D01*
X260906Y292755D01*
X259909Y293168D01*
X259338Y293243D01*
D02*
G37*
G36*
X302256Y292610D02*
X299098D01*
Y289453D01*
X302256D01*
Y292610D01*
D02*
G37*
G36*
X306413D02*
X303256D01*
Y289453D01*
X306413D01*
Y292610D01*
D02*
G37*
G36*
X417062Y289697D02*
X413492D01*
Y286127D01*
X414062Y286202D01*
X415060Y286616D01*
X415916Y287273D01*
X416573Y288129D01*
X416987Y289127D01*
X417062Y289697D01*
D02*
G37*
G36*
X248838Y293107D02*
X247820Y292973D01*
X246872Y292580D01*
X246057Y291955D01*
X245432Y291140D01*
X245039Y290191D01*
X244905Y289173D01*
X245039Y288155D01*
X245432Y287206D01*
X246057Y286392D01*
X246872Y285767D01*
X247820Y285373D01*
X248838Y285240D01*
X249857Y285373D01*
X250805Y285767D01*
X251620Y286392D01*
X252245Y287206D01*
X252638Y288155D01*
X252772Y289173D01*
X252638Y290191D01*
X252245Y291140D01*
X251620Y291955D01*
X250805Y292580D01*
X249857Y292973D01*
X248838Y293107D01*
D02*
G37*
G36*
X151665Y287197D02*
X149716D01*
X149810Y286721D01*
X150363Y285894D01*
X151190Y285342D01*
X151665Y285247D01*
Y287197D01*
D02*
G37*
G36*
X216341Y288756D02*
X212772D01*
Y285187D01*
X213342Y285262D01*
X214339Y285675D01*
X215196Y286332D01*
X215853Y287188D01*
X216266Y288186D01*
X216341Y288756D01*
D02*
G37*
G36*
X238839Y293107D02*
X237820Y292973D01*
X236872Y292580D01*
X236057Y291955D01*
X235432Y291140D01*
X235039Y290191D01*
X234905Y289173D01*
X235039Y288155D01*
X235432Y287206D01*
X236057Y286392D01*
X236872Y285767D01*
X237820Y285373D01*
X238839Y285240D01*
X239857Y285373D01*
X240805Y285767D01*
X241620Y286392D01*
X242245Y287206D01*
X242638Y288155D01*
X242772Y289173D01*
X242638Y290191D01*
X242245Y291140D01*
X241620Y291955D01*
X240805Y292580D01*
X239857Y292973D01*
X238839Y293107D01*
D02*
G37*
G36*
X154615Y287197D02*
X152665D01*
Y285247D01*
X153141Y285342D01*
X153968Y285894D01*
X154520Y286721D01*
X154615Y287197D01*
D02*
G37*
G36*
X202272Y293190D02*
X201254Y293056D01*
X200305Y292663D01*
X199490Y292038D01*
X198865Y291223D01*
X198472Y290274D01*
X198338Y289256D01*
X198472Y288238D01*
X198865Y287289D01*
X199490Y286474D01*
X200305Y285849D01*
X201254Y285456D01*
X202272Y285322D01*
X203290Y285456D01*
X204238Y285849D01*
X205053Y286474D01*
X205678Y287289D01*
X206071Y288238D01*
X206205Y289256D01*
X206071Y290274D01*
X205678Y291223D01*
X205053Y292038D01*
X204238Y292663D01*
X203290Y293056D01*
X202272Y293190D01*
D02*
G37*
G36*
X412492Y289697D02*
X408923D01*
X408998Y289127D01*
X409411Y288129D01*
X410068Y287273D01*
X410924Y286616D01*
X411922Y286202D01*
X412492Y286127D01*
Y289697D01*
D02*
G37*
G36*
X270079Y316585D02*
X269022Y316446D01*
X268036Y316038D01*
X267190Y315388D01*
X266541Y314543D01*
X266133Y313557D01*
X265994Y312500D01*
X266133Y311443D01*
X266541Y310458D01*
X267190Y309612D01*
X268036Y308962D01*
X268498Y308771D01*
Y302820D01*
X264208Y298529D01*
X236614D01*
X236009Y298409D01*
X235497Y298066D01*
X230504Y293073D01*
X224939D01*
Y285273D01*
X232738D01*
Y290838D01*
X237269Y295368D01*
X264862D01*
X265467Y295489D01*
X265980Y295831D01*
X271196Y301048D01*
X271539Y301561D01*
X271659Y302165D01*
Y308771D01*
X272121Y308962D01*
X272967Y309612D01*
X273616Y310458D01*
X274025Y311443D01*
X274164Y312500D01*
X274025Y313557D01*
X273616Y314543D01*
X272967Y315388D01*
X272121Y316038D01*
X271136Y316446D01*
X270079Y316585D01*
D02*
G37*
G36*
X192272Y293190D02*
X191253Y293056D01*
X190305Y292663D01*
X189490Y292038D01*
X188865Y291223D01*
X188472Y290274D01*
X188338Y289256D01*
X188472Y288238D01*
X188865Y287289D01*
X189490Y286474D01*
X190305Y285849D01*
X191253Y285456D01*
X192272Y285322D01*
X193290Y285456D01*
X194238Y285849D01*
X195053Y286474D01*
X195678Y287289D01*
X196071Y288238D01*
X196205Y289256D01*
X196071Y290274D01*
X195678Y291223D01*
X195053Y292038D01*
X194238Y292663D01*
X193290Y293056D01*
X192272Y293190D01*
D02*
G37*
G36*
X211772Y293326D02*
X211201Y293250D01*
X210204Y292837D01*
X209347Y292180D01*
X208690Y291324D01*
X208277Y290326D01*
X208202Y289756D01*
X211772D01*
Y293326D01*
D02*
G37*
G36*
X347153Y301564D02*
Y299614D01*
X349103D01*
X349008Y300090D01*
X348456Y300917D01*
X347629Y301469D01*
X347153Y301564D01*
D02*
G37*
G36*
X171783Y303535D02*
X168214D01*
X168289Y302965D01*
X168702Y301968D01*
X169359Y301111D01*
X170216Y300454D01*
X171213Y300041D01*
X171783Y299966D01*
Y303535D01*
D02*
G37*
G36*
X288402Y301665D02*
X285244D01*
Y298508D01*
X288402D01*
Y301665D01*
D02*
G37*
G36*
X346153Y301564D02*
X345678Y301469D01*
X344851Y300917D01*
X344299Y300090D01*
X344204Y299614D01*
X346153D01*
Y301564D01*
D02*
G37*
G36*
X176353Y303535D02*
X172784D01*
Y299966D01*
X173354Y300041D01*
X174351Y300454D01*
X175208Y301111D01*
X175865Y301968D01*
X176278Y302965D01*
X176353Y303535D01*
D02*
G37*
G36*
X142283Y307969D02*
X141265Y307835D01*
X140317Y307442D01*
X139502Y306817D01*
X138877Y306002D01*
X138484Y305053D01*
X138350Y304035D01*
X138484Y303017D01*
X138877Y302069D01*
X139502Y301254D01*
X140317Y300629D01*
X141265Y300236D01*
X142283Y300102D01*
X143302Y300236D01*
X144250Y300629D01*
X145065Y301254D01*
X145690Y302069D01*
X146083Y303017D01*
X146217Y304035D01*
X146083Y305053D01*
X145690Y306002D01*
X145065Y306817D01*
X144250Y307442D01*
X143302Y307835D01*
X142283Y307969D01*
D02*
G37*
G36*
X152284D02*
X151265Y307835D01*
X150317Y307442D01*
X149502Y306817D01*
X148877Y306002D01*
X148484Y305053D01*
X148350Y304035D01*
X148484Y303017D01*
X148877Y302069D01*
X149502Y301254D01*
X150317Y300629D01*
X151265Y300236D01*
X152284Y300102D01*
X153302Y300236D01*
X154250Y300629D01*
X155065Y301254D01*
X155690Y302069D01*
X156083Y303017D01*
X156217Y304035D01*
X156083Y305053D01*
X155690Y306002D01*
X155065Y306817D01*
X154250Y307442D01*
X153302Y307835D01*
X152284Y307969D01*
D02*
G37*
G36*
X251783Y303535D02*
X248214D01*
X248289Y302965D01*
X248702Y301968D01*
X249359Y301111D01*
X250216Y300454D01*
X251213Y300041D01*
X251783Y299966D01*
Y303535D01*
D02*
G37*
G36*
X256353D02*
X252783D01*
Y299966D01*
X253354Y300041D01*
X254351Y300454D01*
X255208Y301111D01*
X255865Y301968D01*
X256278Y302965D01*
X256353Y303535D01*
D02*
G37*
G36*
X284244Y301665D02*
X281087D01*
Y298508D01*
X284244D01*
Y301665D01*
D02*
G37*
G36*
X413492Y294267D02*
Y290697D01*
X417062D01*
X416987Y291267D01*
X416573Y292265D01*
X415916Y293121D01*
X415060Y293778D01*
X414062Y294191D01*
X413492Y294267D01*
D02*
G37*
G36*
X171850Y296440D02*
X170953Y296261D01*
X170192Y295753D01*
X169684Y294992D01*
X169505Y294094D01*
X169524Y294003D01*
X163449Y287929D01*
X163107Y287416D01*
X162987Y286811D01*
Y269722D01*
X162909Y269670D01*
X162400Y268909D01*
X162222Y268012D01*
X162400Y267114D01*
X162909Y266354D01*
X163670Y265845D01*
X164567Y265667D01*
X165464Y265845D01*
X166225Y266354D01*
X166734Y267114D01*
X166912Y268012D01*
X166734Y268909D01*
X166225Y269670D01*
X166147Y269722D01*
Y286156D01*
X171759Y291768D01*
X171850Y291749D01*
X172748Y291928D01*
X173509Y292436D01*
X174017Y293197D01*
X174196Y294094D01*
X174017Y294992D01*
X173509Y295753D01*
X172748Y296261D01*
X171850Y296440D01*
D02*
G37*
G36*
X212772Y293326D02*
Y289756D01*
X216341D01*
X216266Y290326D01*
X215853Y291324D01*
X215196Y292180D01*
X214339Y292837D01*
X213342Y293250D01*
X212772Y293326D01*
D02*
G37*
G36*
X412492Y294267D02*
X411922Y294191D01*
X410924Y293778D01*
X410068Y293121D01*
X409411Y292265D01*
X408998Y291267D01*
X408923Y290697D01*
X412492D01*
Y294267D01*
D02*
G37*
G36*
X302256Y296768D02*
X299098D01*
Y293610D01*
X302256D01*
Y296768D01*
D02*
G37*
G36*
X349103Y298614D02*
X347153D01*
Y296665D01*
X347629Y296759D01*
X348456Y297312D01*
X349008Y298139D01*
X349103Y298614D01*
D02*
G37*
G36*
X357185Y306085D02*
X356288Y305907D01*
X355527Y305398D01*
X355018Y304638D01*
X354840Y303740D01*
X355018Y302843D01*
X355527Y302082D01*
X356288Y301574D01*
X357185Y301395D01*
X358083Y301574D01*
X358843Y302082D01*
X358895Y302160D01*
X364798D01*
X366205Y300753D01*
X366718Y300410D01*
X367323Y300290D01*
X393932D01*
X394671Y299551D01*
X394653Y299459D01*
X394831Y298561D01*
X395340Y297800D01*
X396101Y297292D01*
X396998Y297114D01*
X397895Y297292D01*
X398656Y297800D01*
X399165Y298561D01*
X399343Y299459D01*
X399165Y300356D01*
X398656Y301117D01*
X397895Y301625D01*
X396998Y301804D01*
X396906Y301785D01*
X395704Y302988D01*
X395191Y303330D01*
X394587Y303450D01*
X367977D01*
X366570Y304858D01*
X366057Y305200D01*
X365453Y305321D01*
X358895D01*
X358843Y305398D01*
X358083Y305907D01*
X357185Y306085D01*
D02*
G37*
G36*
X306413Y296768D02*
X303256D01*
Y293610D01*
X306413D01*
Y296768D01*
D02*
G37*
G36*
X346153Y298614D02*
X344204D01*
X344299Y298139D01*
X344851Y297312D01*
X345678Y296759D01*
X346153Y296665D01*
Y298614D01*
D02*
G37*
%LPD*%
D26*
X132283Y304035D02*
D03*
X228838Y289173D02*
D03*
X146693Y239230D02*
D03*
X232323D02*
D03*
X403681D02*
D03*
X318051D02*
D03*
X182272Y289256D02*
D03*
D27*
X132283Y314035D02*
D03*
X142283Y304035D02*
D03*
Y314035D02*
D03*
X152284Y304035D02*
D03*
Y314035D02*
D03*
X162284Y304035D02*
D03*
Y314035D02*
D03*
X172283Y304035D02*
D03*
Y314035D02*
D03*
X182283Y304035D02*
D03*
Y314035D02*
D03*
X192283Y304035D02*
D03*
Y314035D02*
D03*
X202284Y304035D02*
D03*
Y314035D02*
D03*
X212283Y304035D02*
D03*
Y314035D02*
D03*
X222284Y304035D02*
D03*
Y314035D02*
D03*
X232283Y304035D02*
D03*
Y314035D02*
D03*
X242284Y304035D02*
D03*
Y314035D02*
D03*
X252284Y304035D02*
D03*
Y314035D02*
D03*
X258839Y289173D02*
D03*
X248838D02*
D03*
X238839D02*
D03*
X412992Y270197D02*
D03*
Y280197D02*
D03*
Y290197D02*
D03*
X146693Y169230D02*
D03*
X156693D02*
D03*
X166693D02*
D03*
X166535Y148502D02*
D03*
X156693Y239230D02*
D03*
X166693D02*
D03*
X118740Y194230D02*
D03*
Y204230D02*
D03*
Y214230D02*
D03*
X204370Y194230D02*
D03*
Y204230D02*
D03*
Y214230D02*
D03*
X252165Y148502D02*
D03*
X232323Y169230D02*
D03*
X242323D02*
D03*
X252323D02*
D03*
X242323Y239230D02*
D03*
X252323D02*
D03*
X290098Y214230D02*
D03*
Y204230D02*
D03*
Y194230D02*
D03*
X375728Y214230D02*
D03*
Y204230D02*
D03*
Y194230D02*
D03*
X338051Y169230D02*
D03*
X328051D02*
D03*
X318051D02*
D03*
X423681D02*
D03*
X413681D02*
D03*
X403681D02*
D03*
X423681Y239230D02*
D03*
X413681D02*
D03*
X423524Y148502D02*
D03*
X337894D02*
D03*
X338051Y239230D02*
D03*
X328051D02*
D03*
X212272Y289256D02*
D03*
X202272D02*
D03*
X192272D02*
D03*
D28*
X284744Y282480D02*
D03*
X302756Y273425D02*
D03*
X209646Y259842D02*
D03*
D29*
X284744Y302165D02*
D03*
X302756Y293110D02*
D03*
X209646Y279528D02*
D03*
D30*
X412992Y300197D02*
D03*
X156693Y148502D02*
D03*
X118740Y184230D02*
D03*
X204370D02*
D03*
X242323Y148502D02*
D03*
X290098Y184230D02*
D03*
X375728D02*
D03*
X413681Y148502D02*
D03*
X328051D02*
D03*
D31*
X136614Y128423D02*
D03*
X176772D02*
D03*
X222244D02*
D03*
X262402D02*
D03*
X433760D02*
D03*
X393602D02*
D03*
X348130D02*
D03*
X307972D02*
D03*
D32*
X114862Y304468D02*
D03*
Y314469D02*
D03*
X280079Y312500D02*
D03*
X270079D02*
D03*
X195433Y270374D02*
D03*
X185433D02*
D03*
D33*
X152067Y268307D02*
D03*
X152165Y287697D02*
D03*
X346654Y299114D02*
D03*
X336614Y268110D02*
D03*
X343602Y266142D02*
D03*
X396998Y299459D02*
D03*
X357185Y303740D02*
D03*
X395669Y282382D02*
D03*
X387500Y254232D02*
D03*
X327362Y267028D02*
D03*
X357382Y255118D02*
D03*
X216535Y254823D02*
D03*
X270571Y262894D02*
D03*
X271654Y273031D02*
D03*
X271358Y282776D02*
D03*
X107480Y209154D02*
D03*
X123130Y309055D02*
D03*
X171850Y294094D02*
D03*
X164567Y268012D02*
D03*
X136614Y173622D02*
D03*
Y233071D02*
D03*
X222244D02*
D03*
Y173622D02*
D03*
X393602D02*
D03*
Y233071D02*
D03*
X307972D02*
D03*
Y173622D02*
D03*
X379035Y272244D02*
D03*
X374311D02*
D03*
X369587D02*
D03*
X364862D02*
D03*
X379035Y276968D02*
D03*
X374311D02*
D03*
X369587D02*
D03*
X364862D02*
D03*
X379035Y281693D02*
D03*
X374311D02*
D03*
X369587D02*
D03*
X364862D02*
D03*
X379035Y286417D02*
D03*
X374311D02*
D03*
X369587D02*
D03*
X364862D02*
D03*
D34*
X270571Y262894D02*
X340354D01*
X343602Y266142D01*
X352165Y299114D02*
X364862Y286417D01*
X152067Y287598D02*
X152165Y287697D01*
X152067Y268307D02*
Y287598D01*
X346654Y299114D02*
X352165D01*
X394587Y301870D02*
X396998Y299459D01*
X367323Y301870D02*
X394587D01*
X365453Y303740D02*
X367323Y301870D01*
X326575Y278150D02*
X336614Y268110D01*
X357185Y303740D02*
X365453D01*
X395669Y257874D02*
Y282382D01*
X392028Y254232D02*
X395669Y257874D01*
X387500Y254232D02*
X392028D01*
X270079Y302165D02*
Y312500D01*
X264862Y296949D02*
X270079Y302165D01*
X236614Y296949D02*
X264862D01*
X228838Y289173D02*
X236614Y296949D01*
X181988Y288973D02*
X182272Y289256D01*
X181988Y273819D02*
Y288973D01*
Y273819D02*
X185433Y270374D01*
X375728Y194230D02*
X375827D01*
X369230D02*
X375728D01*
X271654Y273031D02*
X286713D01*
X292717Y267028D01*
X327362D01*
X279626Y278150D02*
X326575D01*
X275000Y282776D02*
X279626Y278150D01*
X271358Y282776D02*
X275000D01*
X164567Y286811D02*
X171850Y294094D01*
X164567Y268012D02*
Y286811D01*
X136614Y173622D02*
Y231496D01*
X136220Y231890D02*
X136614Y231496D01*
Y233071D01*
X222244Y231496D02*
Y233071D01*
X221850Y231890D02*
X222244Y231496D01*
Y173622D02*
Y231496D01*
X393602Y173622D02*
Y231496D01*
X393209Y231890D02*
X393602Y231496D01*
Y233071D01*
X307972Y231496D02*
Y233071D01*
X307579Y231890D02*
X307972Y231496D01*
Y173622D02*
Y231496D01*
X379528Y254232D02*
X387500D01*
X376476Y251181D02*
X379528Y254232D01*
X361319Y251181D02*
X376476D01*
X357382Y255118D02*
X361319Y251181D01*
X216535Y254823D02*
X216831Y255118D01*
X357382D01*
D35*
X408169Y250098D02*
X421358Y263287D01*
X381102Y250098D02*
X408169D01*
X374410Y243406D02*
X381102Y250098D01*
X412992Y300197D02*
X418898D01*
X421358Y297736D01*
Y263287D02*
Y297736D01*
X374410Y229724D02*
Y243406D01*
X363878Y219193D02*
X374410Y229724D01*
X363878Y199582D02*
Y219193D01*
Y199582D02*
X369230Y194230D01*
X363976Y188976D02*
X369230Y194230D01*
X363976Y164665D02*
Y188976D01*
X359449Y160138D02*
X363976Y164665D01*
X298721Y160138D02*
X359449D01*
X296654Y162205D02*
X298721Y160138D01*
X296654Y162205D02*
Y187773D01*
X290197Y194230D02*
X296654Y187773D01*
X283600Y194230D02*
X290197D01*
X278346Y188976D02*
X283600Y194230D01*
X278346Y164665D02*
Y188976D01*
X273819Y160138D02*
X278346Y164665D01*
X213090Y160138D02*
X273819D01*
X211024Y162205D02*
X213090Y160138D01*
X211024Y162205D02*
Y187773D01*
X204567Y194230D02*
X211024Y187773D01*
X118740Y194230D02*
X125197Y187773D01*
Y162205D02*
Y187773D01*
Y162205D02*
X127264Y160138D01*
X187992D01*
X192520Y164665D01*
Y188976D01*
X197773Y194230D01*
X204370D01*
X123130Y240748D02*
Y309055D01*
X107480Y225098D02*
X123130Y240748D01*
X107480Y209154D02*
Y225098D01*
D36*
X372195Y279724D02*
D03*
M02*
