%FSTAX23Y23*%
%MOIN*%
%SFA1B1*%

%IPPOS*%
%ADD59R,0.070000X0.070000*%
%ADD60C,0.070000*%
%ADD61C,0.061150*%
%ADD62R,0.061150X0.061150*%
%ADD63R,0.070000X0.070000*%
%ADD64C,0.137920*%
%ADD65C,0.073000*%
%ADD66C,0.038000*%
%LNboard_pcb-1*%
%LPD*%
G54D59*
X01322Y0304D03*
X02288Y02891D03*
X01466Y02392D03*
X02323D03*
X04036D03*
X0318D03*
X01822Y02892D03*
G54D60*
X01322Y0314D03*
X01422Y0304D03*
Y0314D03*
X01522Y0304D03*
Y0314D03*
X01622Y0304D03*
Y0314D03*
X01722Y0304D03*
Y0314D03*
X01822Y0304D03*
Y0314D03*
X01922Y0304D03*
Y0314D03*
X02022Y0304D03*
Y0314D03*
X02122Y0304D03*
Y0314D03*
X02222Y0304D03*
Y0314D03*
X02322Y0304D03*
Y0314D03*
X02422Y0304D03*
Y0314D03*
X02522Y0304D03*
Y0314D03*
X02588Y02891D03*
X02488D03*
X02388D03*
X04129Y02701D03*
Y02801D03*
Y02901D03*
X01466Y01692D03*
X01566D03*
X01666D03*
X01665Y01485D03*
X01566Y02392D03*
X01666D03*
X01187Y01942D03*
Y02042D03*
Y02142D03*
X02043Y01942D03*
Y02042D03*
Y02142D03*
X02521Y01485D03*
X02323Y01692D03*
X02423D03*
X02523D03*
X02423Y02392D03*
X02523D03*
X029Y02142D03*
Y02042D03*
Y01942D03*
X03757Y02142D03*
Y02042D03*
Y01942D03*
X0338Y01692D03*
X0328D03*
X0318D03*
X04236D03*
X04136D03*
X04036D03*
X04236Y02392D03*
X04136D03*
X04235Y01485D03*
X03378D03*
X0338Y02392D03*
X0328D03*
X02122Y02892D03*
X02022D03*
X01922D03*
G54D61*
X02847Y02824D03*
X03027Y02734D03*
X02096Y02598D03*
G54D62*
X02847Y03021D03*
X03027Y02931D03*
X02096Y02795D03*
G54D63*
X04129Y03001D03*
X01566Y01485D03*
X01187Y01842D03*
X02043D03*
X02423Y01485D03*
X029Y01842D03*
X03757D03*
X04136Y01485D03*
X0328D03*
G54D64*
X01366Y01284D03*
X01767D03*
X02222D03*
X02624D03*
X04337D03*
X03936D03*
X03481D03*
X03079D03*
G54D65*
X01148Y03044D03*
Y03144D03*
X028Y03125D03*
X027D03*
X01954Y02703D03*
X01854D03*
G54D66*
X0152Y02683D03*
X01521Y02876D03*
X03466Y02991D03*
X03366Y02681D03*
X03436Y02661D03*
X03969Y02994D03*
X03571Y03037D03*
X03956Y02823D03*
X03875Y02542D03*
X03273Y0267D03*
X03573Y02551D03*
X02165Y02548D03*
X02705Y02628D03*
X02716Y0273D03*
X02713Y02827D03*
X01074Y02091D03*
X01231Y0309D03*
X01718Y0294D03*
X01645Y0268D03*
X01366Y01736D03*
Y0233D03*
X02222D03*
Y01736D03*
X03936D03*
Y0233D03*
X03079D03*
Y01736D03*
X0379Y02722D03*
X03743D03*
X03695D03*
X03648D03*
X0379Y02769D03*
X03743D03*
X03695D03*
X03648D03*
X0379Y02816D03*
X03743D03*
X03695D03*
X03648D03*
X0379Y02864D03*
X03743D03*
X03695D03*
X03648D03*
M02*