%FSTAX23Y23*%
%MOIN*%
%SFA1B1*%

%IPPOS*%
%ADD10R,0.043310X0.055120*%
%ADD11R,0.055120X0.043310*%
%ADD12R,0.079000X0.059000*%
%ADD13R,0.079000X0.150000*%
%ADD14R,0.040000X0.050000*%
%ADD15R,0.137800X0.047240*%
%ADD16R,0.050000X0.036000*%
%ADD17R,0.036000X0.036000*%
%ADD18R,0.050000X0.040000*%
%ADD19R,0.023620X0.061020*%
%ADD20O,0.013780X0.082680*%
%ADD21R,0.177160X0.177160*%
%ADD22O,0.009840X0.029530*%
%ADD23O,0.029530X0.009840*%
%LNboard_pcb-1*%
%LPD*%
G54D10*
X02806Y02724D03*
X02865D03*
X03889Y03069D03*
X03948D03*
X03217Y02925D03*
X03158D03*
X03316D03*
X03375D03*
X01545Y02789D03*
X01604D03*
X01576Y02597D03*
X01635D03*
X01775Y0268D03*
X01716D03*
X01775Y02597D03*
X01716D03*
G54D11*
X0278Y02628D03*
Y02569D03*
X03058Y0267D03*
Y02611D03*
X02869Y02628D03*
Y02569D03*
X02241Y02601D03*
Y0266D03*
X01342Y0247D03*
Y02411D03*
X01078Y01868D03*
Y01927D03*
X02198Y0247D03*
Y02411D03*
X01935Y01868D03*
Y01927D03*
X03912Y02411D03*
Y0247D03*
X03648Y01927D03*
Y01868D03*
X02792Y01927D03*
Y01868D03*
X03056Y02411D03*
Y0247D03*
X02242Y02796D03*
Y02737D03*
G54D12*
X02351Y02581D03*
Y02672D03*
Y02763D03*
G54D13*
X02599Y02672D03*
G54D14*
X03193Y02776D03*
X03273D03*
X01194Y02968D03*
X01114D03*
X01337Y01862D03*
X01417D03*
X01337Y01962D03*
X01417D03*
X02193Y0196D03*
X02273D03*
X02193Y0186D03*
X02273D03*
X0305Y01962D03*
X0313D03*
X0305Y01862D03*
X0313D03*
X03907Y0196D03*
X03987D03*
X03907Y0186D03*
X03987D03*
X01953Y02588D03*
X01873D03*
X03004Y03124D03*
X02924D03*
G54D15*
X03375Y03067D03*
X03158D03*
G54D16*
X01357Y0221D03*
X02213D03*
X0307D03*
X03927D03*
G54D17*
X01437Y02172D03*
Y02247D03*
X02293Y02172D03*
Y02247D03*
X0315D03*
Y02172D03*
X04007Y02247D03*
Y02172D03*
G54D18*
X01666Y02217D03*
Y02297D03*
X01566Y02217D03*
Y02297D03*
X02523Y02217D03*
Y02297D03*
X02423Y02217D03*
Y02297D03*
X04136D03*
Y02217D03*
X0338Y02297D03*
Y02217D03*
X04236Y02297D03*
Y02217D03*
X0328Y02297D03*
Y02217D03*
X03159Y02593D03*
Y02673D03*
G54D19*
X04111Y01866D03*
X04161D03*
X04211D03*
X04261D03*
Y02078D03*
X04211D03*
X04161D03*
X04111D03*
X03255Y01866D03*
X03305D03*
X03355D03*
X03405D03*
Y02078D03*
X03355D03*
X03305D03*
X03255D03*
X02398D03*
X02448D03*
X02498D03*
X02548D03*
Y01866D03*
X02498D03*
X02448D03*
X02398D03*
X01541Y02078D03*
X01591D03*
X01641D03*
X01691D03*
Y01866D03*
X01641D03*
X01591D03*
X01541D03*
G54D20*
X01123Y026D03*
X01148D03*
X01174D03*
X01199D03*
X01225D03*
X0125D03*
X01276D03*
X01302D03*
X01327D03*
X01353D03*
X01378D03*
X01404D03*
X0143D03*
X01455D03*
X01123Y02872D03*
X01148D03*
X01174D03*
X01199D03*
X01225D03*
X0125D03*
X01276D03*
X01302D03*
X01327D03*
X01353D03*
X01378D03*
X01404D03*
X0143D03*
X01455D03*
G54D21*
X03719Y02793D03*
G54D22*
X03571Y02971D03*
X03591D03*
X03611D03*
X0363D03*
X0365D03*
X0367D03*
X03689D03*
X03709D03*
X03729D03*
X03749D03*
X03768D03*
X03788D03*
X03808D03*
X03827D03*
X03847D03*
X03867D03*
Y02615D03*
X03847D03*
X03827D03*
X03808D03*
X03788D03*
X03768D03*
X03749D03*
X03729D03*
X03709D03*
X03689D03*
X0367D03*
X0365D03*
X0363D03*
X03611D03*
X03591D03*
X03571D03*
G54D23*
X03897Y0294D03*
Y02921D03*
Y02901D03*
Y02881D03*
Y02862D03*
Y02842D03*
Y02822D03*
Y02803D03*
Y02783D03*
Y02763D03*
Y02744D03*
Y02724D03*
Y02704D03*
Y02685D03*
Y02665D03*
Y02645D03*
X03541D03*
Y02665D03*
Y02685D03*
Y02704D03*
Y02724D03*
Y02744D03*
Y02763D03*
Y02783D03*
Y02803D03*
Y02822D03*
Y02842D03*
Y02862D03*
Y02881D03*
Y02901D03*
Y02921D03*
Y0294D03*
M02*