%FSTAX23Y23*%
%MOIN*%
%SFA1B1*%

%IPPOS*%
%ADD68C,0.003940*%
%LNboard_pcb-1*%
%LPD*%
G54D68*
X02835Y02704D02*
Y02744D01*
X02815Y02724D02*
X02855D01*
X0278Y02755D02*
X0289D01*
X0278Y02692D02*
X0289D01*
X0278D02*
Y02755D01*
X0289Y02692D02*
Y02755D01*
X0276Y02599D02*
X028D01*
X0278Y02579D02*
Y02619D01*
X02812Y02544D02*
Y02654D01*
X02749Y02544D02*
Y02654D01*
X02812*
X02749Y02544D02*
X02812D01*
X03038Y0264D02*
X03077D01*
X03058Y02621D02*
Y0266D01*
X03089Y02585D02*
Y02695D01*
X03026Y02585D02*
Y02695D01*
X03089*
X03026Y02585D02*
X03089D01*
X02849Y02599D02*
X02888D01*
X02869Y02579D02*
Y02619D01*
X029Y02544D02*
Y02654D01*
X02837Y02544D02*
Y02654D01*
X029*
X02837Y02544D02*
X029D01*
X02221Y0263D02*
X0226D01*
X02241Y02611D02*
Y0265D01*
X02209Y02575D02*
Y02686D01*
X02272Y02575D02*
Y02686D01*
X02209Y02575D02*
X02272D01*
X02209Y02686D02*
X02272D01*
X03919Y0305D02*
Y03089D01*
X03899Y03069D02*
X03938D01*
X03864Y03101D02*
X03974D01*
X03864Y03038D02*
X03974D01*
X03864D02*
Y03101D01*
X03974Y03038D02*
Y03101D01*
X03187Y02905D02*
Y02944D01*
X03168Y02925D02*
X03207D01*
X03132Y02893D02*
X03243D01*
X03132Y02956D02*
X03243D01*
Y02893D02*
Y02956D01*
X03132Y02893D02*
Y02956D01*
X03346Y02905D02*
Y02944D01*
X03326Y02925D02*
X03366D01*
X03291Y02956D02*
X03401D01*
X03291Y02893D02*
X03401D01*
X03291D02*
Y02956D01*
X03401Y02893D02*
Y02956D01*
X01574Y02769D02*
Y02809D01*
X01555Y02789D02*
X01594D01*
X01519Y0282D02*
X01629D01*
X01519Y02757D02*
X01629D01*
X01519D02*
Y0282D01*
X01629Y02757D02*
Y0282D01*
X01606Y02577D02*
Y02617D01*
X01586Y02597D02*
X01625D01*
X01551Y02628D02*
X01661D01*
X01551Y02565D02*
X01661D01*
X01551D02*
Y02628D01*
X01661Y02565D02*
Y02628D01*
X01746Y0266D02*
Y02699D01*
X01726Y0268D02*
X01765D01*
X0169Y02648D02*
X01801D01*
X0169Y02711D02*
X01801D01*
Y02648D02*
Y02711D01*
X0169Y02648D02*
Y02711D01*
X01311Y02496D02*
X01374D01*
X01311Y02385D02*
X01374D01*
Y02496*
X01311Y02385D02*
Y02496D01*
X01342Y02421D02*
Y0246D01*
X01322Y0244D02*
X01362D01*
X01047Y01842D02*
X0111D01*
X01047Y01952D02*
X0111D01*
X01047Y01842D02*
Y01952D01*
X0111Y01842D02*
Y01952D01*
X01078Y01877D02*
Y01917D01*
X01059Y01897D02*
X01098D01*
X02167Y02496D02*
X0223D01*
X02167Y02385D02*
X0223D01*
Y02496*
X02167Y02385D02*
Y02496D01*
X02198Y02421D02*
Y0246D01*
X02179Y0244D02*
X02218D01*
X01903Y01842D02*
X01966D01*
X01903Y01952D02*
X01966D01*
X01903Y01842D02*
Y01952D01*
X01966Y01842D02*
Y01952D01*
X01935Y01877D02*
Y01917D01*
X01915Y01897D02*
X01954D01*
X03892Y0244D02*
X03932D01*
X03912Y02421D02*
Y0246D01*
X0388Y02385D02*
Y02496D01*
X03943Y02385D02*
Y02496D01*
X0388Y02385D02*
X03943D01*
X0388Y02496D02*
X03943D01*
X03628Y01897D02*
X03668D01*
X03648Y01877D02*
Y01917D01*
X0368Y01842D02*
Y01952D01*
X03617Y01842D02*
Y01952D01*
X0368*
X03617Y01842D02*
X0368D01*
X02772Y01897D02*
X02812D01*
X02792Y01877D02*
Y01917D01*
X02823Y01842D02*
Y01952D01*
X0276Y01842D02*
Y01952D01*
X02823*
X0276Y01842D02*
X02823D01*
X03036Y0244D02*
X03075D01*
X03056Y02421D02*
Y0246D01*
X03024Y02385D02*
Y02496D01*
X03087Y02385D02*
Y02496D01*
X03024Y02385D02*
X03087D01*
X03024Y02496D02*
X03087D01*
X01746Y02577D02*
Y02617D01*
X01726Y02597D02*
X01765D01*
X0169Y02565D02*
X01801D01*
X0169Y02628D02*
X01801D01*
Y02565D02*
Y02628D01*
X0169Y02565D02*
Y02628D01*
X02222Y02766D02*
X02261D01*
X02242Y02747D02*
Y02786D01*
X02273Y02711D02*
Y02821D01*
X0221Y02711D02*
Y02821D01*
X02273*
X0221Y02711D02*
X02273D01*
X01072Y02549D02*
X01505D01*
X01072Y02923D02*
X01505D01*
X01072Y02549D02*
Y02923D01*
X01505Y02549D02*
Y02923D01*
X01289Y02716D02*
Y02755D01*
X01269Y02736D02*
X01309D01*
X03719Y02773D02*
Y02812D01*
X03699Y02793D02*
X03739D01*
X03516Y0259D02*
X03922D01*
X03516Y02996D02*
X03922D01*
Y0259D02*
Y02996D01*
X03516Y0259D02*
Y02996D01*
M02*