%FSTAX23Y23*%
%MOIN*%
%SFA1B1*%

%IPPOS*%
%ADD26R,0.062000X0.062000*%
%ADD27C,0.062000*%
%ADD28C,0.053150*%
%ADD29R,0.053150X0.053150*%
%ADD30R,0.062000X0.062000*%
%ADD31C,0.129920*%
%ADD32C,0.065000*%
%ADD33C,0.030000*%
%ADD34C,0.015000*%
%ADD35C,0.020000*%
%ADD36R,0.209650X0.198820*%
%LNboard_pcb-1*%
%LPD*%
G36*
X04432Y03198D02*
D01*
Y01424*
X01005Y01422*
X01Y01427*
Y03195*
X01004Y03198*
X04432*
G37*
%LNboard_pcb-2*%
%LPC*%
G36*
X0338Y02431D02*
X0337Y0243D01*
X0336Y02426*
X03352Y0242*
X03346Y02411*
X03342Y02402*
X03341Y02392*
X03342Y02382*
X03346Y02372*
X03352Y02364*
X0336Y02358*
X0337Y02354*
X0338Y02352*
X0339Y02354*
X034Y02358*
X03408Y02364*
X03414Y02372*
X03418Y02382*
X03419Y02392*
X03418Y02402*
X03414Y02411*
X03408Y0242*
X034Y02426*
X0339Y0243*
X0338Y02431*
G37*
G36*
X04136D02*
X04126Y0243D01*
X04117Y02426*
X04109Y0242*
X04102Y02411*
X04098Y02402*
X04097Y02392*
X04098Y02382*
X04102Y02372*
X04109Y02364*
X04117Y02358*
X04126Y02354*
X04136Y02352*
X04146Y02354*
X04156Y02358*
X04164Y02364*
X0417Y02372*
X04174Y02382*
X04176Y02392*
X04174Y02402*
X0417Y02411*
X04164Y0242*
X04156Y02426*
X04146Y0243*
X04136Y02431*
G37*
G36*
X02523D02*
X02513Y0243D01*
X02503Y02426*
X02495Y0242*
X02489Y02411*
X02485Y02402*
X02483Y02392*
X02485Y02382*
X02489Y02372*
X02495Y02364*
X02503Y02358*
X02513Y02354*
X02523Y02352*
X02533Y02354*
X02542Y02358*
X02551Y02364*
X02557Y02372*
X02561Y02382*
X02562Y02392*
X02561Y02402*
X02557Y02411*
X02551Y0242*
X02542Y02426*
X02533Y0243*
X02523Y02431*
G37*
G36*
X0328D02*
X0327Y0243D01*
X0326Y02426*
X03252Y0242*
X03246Y02411*
X03242Y02402*
X03241Y02392*
X03242Y02382*
X03246Y02372*
X03252Y02364*
X0326Y02358*
X0327Y02354*
X0328Y02352*
X0329Y02354*
X033Y02358*
X03308Y02364*
X03314Y02372*
X03318Y02382*
X03319Y02392*
X03318Y02402*
X03314Y02411*
X03308Y0242*
X033Y02426*
X0329Y0243*
X0328Y02431*
G37*
G36*
X04236D02*
X04226Y0243D01*
X04217Y02426*
X04209Y0242*
X04202Y02411*
X04198Y02402*
X04197Y02392*
X04198Y02382*
X04202Y02372*
X04209Y02364*
X04217Y02358*
X04226Y02354*
X04236Y02352*
X04246Y02354*
X04256Y02358*
X04264Y02364*
X0427Y02372*
X04274Y02382*
X04276Y02392*
X04274Y02402*
X0427Y02411*
X04264Y0242*
X04256Y02426*
X04246Y0243*
X04236Y02431*
G37*
G36*
X03219Y02431D02*
X03141D01*
Y02353*
X03219*
Y02431*
G37*
G36*
X04075D02*
X03997D01*
Y02353*
X04075*
Y02431*
G37*
G36*
X01505D02*
X01427D01*
Y02353*
X01505*
Y02431*
G37*
G36*
X02362D02*
X02284D01*
Y02353*
X02362*
Y02431*
G37*
G36*
X02423Y02431D02*
X02413Y0243D01*
X02403Y02426*
X02395Y0242*
X02389Y02411*
X02385Y02402*
X02383Y02392*
X02385Y02382*
X02389Y02372*
X02395Y02364*
X02403Y02358*
X02413Y02354*
X02423Y02352*
X02433Y02354*
X02442Y02358*
X02451Y02364*
X02457Y02372*
X02461Y02382*
X02462Y02392*
X02461Y02402*
X02457Y02411*
X02451Y0242*
X02442Y02426*
X02433Y0243*
X02423Y02431*
G37*
G36*
X01231Y03114D02*
X01222Y03112D01*
X01214Y03107*
X01209Y03099*
X01207Y0309*
X01209Y03081*
X01212Y03076*
Y02415*
X01061Y02263*
X01057Y02258*
X01057Y02256*
X01056Y0225*
Y02105*
X01053Y021*
X01051Y02091*
X01053Y02082*
X01058Y02074*
X01065Y02069*
X01074Y02068*
X01083Y02069*
X01091Y02074*
X01096Y02082*
X01098Y02091*
X01096Y021*
X01093Y02105*
Y02243*
X01244Y02394*
X01248Y024*
X01248Y02401*
X01249Y02407*
Y03076*
X01252Y03081*
X01254Y0309*
X01252Y03099*
X01247Y03107*
X0124Y03112*
X01231Y03114*
G37*
G36*
X01187Y02181D02*
X01177Y0218D01*
X01167Y02176*
X01159Y0217*
X01153Y02161*
X01149Y02152*
X01148Y02142*
X01149Y02132*
X01153Y02122*
X01159Y02114*
X01167Y02108*
X01177Y02104*
X01187Y02102*
X01197Y02104*
X01207Y02108*
X01215Y02114*
X01221Y02122*
X01225Y02132*
X01226Y02142*
X01225Y02152*
X01221Y02161*
X01215Y0217*
X01207Y02176*
X01197Y0218*
X01187Y02181*
G37*
G36*
X029Y02081D02*
X0289Y0208D01*
X02881Y02076*
X02873Y0207*
X02866Y02061*
X02862Y02052*
X02861Y02042*
X02862Y02032*
X02866Y02022*
X02873Y02014*
X02881Y02008*
X0289Y02004*
X029Y02002*
X02911Y02004*
X0292Y02008*
X02928Y02014*
X02935Y02022*
X02938Y02032*
X0294Y02042*
X02938Y02052*
X02935Y02061*
X02928Y0207*
X0292Y02076*
X02911Y0208*
X029Y02081*
G37*
G36*
X03757D02*
X03747Y0208D01*
X03737Y02076*
X03729Y0207*
X03723Y02061*
X03719Y02052*
X03717Y02042*
X03719Y02032*
X03723Y02022*
X03729Y02014*
X03737Y02008*
X03747Y02004*
X03757Y02002*
X03767Y02004*
X03776Y02008*
X03785Y02014*
X03791Y02022*
X03795Y02032*
X03796Y02042*
X03795Y02052*
X03791Y02061*
X03785Y0207*
X03776Y02076*
X03767Y0208*
X03757Y02081*
G37*
G36*
X02043Y02181D02*
X02033Y0218D01*
X02024Y02176*
X02015Y0217*
X02009Y02161*
X02005Y02152*
X02004Y02142*
X02005Y02132*
X02009Y02122*
X02015Y02114*
X02024Y02108*
X02033Y02104*
X02043Y02102*
X02053Y02104*
X02063Y02108*
X02071Y02114*
X02077Y02122*
X02081Y02132*
X02083Y02142*
X02081Y02152*
X02077Y02161*
X02071Y0217*
X02063Y02176*
X02053Y0218*
X02043Y02181*
G37*
G36*
X01566Y02431D02*
X01556Y0243D01*
X01547Y02426*
X01539Y0242*
X01532Y02411*
X01528Y02402*
X01527Y02392*
X01528Y02382*
X01532Y02372*
X01539Y02364*
X01547Y02358*
X01556Y02354*
X01566Y02352*
X01577Y02354*
X01586Y02358*
X01594Y02364*
X01601Y02372*
X01604Y02382*
X01606Y02392*
X01604Y02402*
X01601Y02411*
X01594Y0242*
X01586Y02426*
X01577Y0243*
X01566Y02431*
G37*
G36*
X01666D02*
X01656Y0243D01*
X01647Y02426*
X01639Y0242*
X01632Y02411*
X01628Y02402*
X01627Y02392*
X01628Y02382*
X01632Y02372*
X01639Y02364*
X01647Y02358*
X01656Y02354*
X01666Y02352*
X01677Y02354*
X01686Y02358*
X01694Y02364*
X01701Y02372*
X01704Y02382*
X01706Y02392*
X01704Y02402*
X01701Y02411*
X01694Y0242*
X01686Y02426*
X01677Y0243*
X01666Y02431*
G37*
G36*
X029Y02181D02*
X0289Y0218D01*
X02881Y02176*
X02873Y0217*
X02866Y02161*
X02862Y02152*
X02861Y02142*
X02862Y02132*
X02866Y02122*
X02873Y02114*
X02881Y02108*
X0289Y02104*
X029Y02102*
X02911Y02104*
X0292Y02108*
X02928Y02114*
X02935Y02122*
X02938Y02132*
X0294Y02142*
X02938Y02152*
X02935Y02161*
X02928Y0217*
X0292Y02176*
X02911Y0218*
X029Y02181*
G37*
G36*
X03757D02*
X03747Y0218D01*
X03737Y02176*
X03729Y0217*
X03723Y02161*
X03719Y02152*
X03717Y02142*
X03719Y02132*
X03723Y02122*
X03729Y02114*
X03737Y02108*
X03747Y02104*
X03757Y02102*
X03767Y02104*
X03776Y02108*
X03785Y02114*
X03791Y02122*
X03795Y02132*
X03796Y02142*
X03795Y02152*
X03791Y02161*
X03785Y0217*
X03776Y02176*
X03767Y0218*
X03757Y02181*
G37*
G36*
X04168Y0304D02*
X0409D01*
Y02962*
X04168*
Y02983*
X04181*
X04195Y02969*
Y0264*
X04074Y02519*
X03894*
X03891Y02524*
X03893Y02526*
X0392*
X03926Y02527*
X03931Y02531*
X03967Y02567*
X03971Y02572*
X03972Y02578*
Y02806*
X03973Y02807*
X03978Y02814*
X0398Y02823*
X03978Y02832*
X03973Y0284*
X03965Y02845*
X03956Y02847*
X03947Y02845*
X0394Y0284*
X03935Y02832*
X03933Y02823*
X03935Y02814*
X0394Y02807*
X0394Y02806*
Y02585*
X03913Y02558*
X03892*
X03891Y02558*
X03883Y02563*
X03875Y02565*
X03866Y02563*
X03858Y02558*
X03857Y02558*
X03795*
X03789Y02556*
X03784Y02553*
X03758Y02527*
X03619*
X03597Y0255*
X03597Y02551*
X03595Y0256*
X0359Y02567*
X03582Y02572*
X03573Y02574*
X03564Y02572*
X03557Y02567*
X03556Y02566*
X02178*
X02174Y02569*
X02165Y02571*
X02156Y02569*
X02148Y02564*
X02143Y02557*
X02141Y02548*
X02143Y02539*
X02148Y02531*
X02156Y02526*
X02165Y02524*
X02174Y02526*
X02181Y02531*
X02184Y02535*
X03556*
X03557Y02534*
X03564Y02529*
X03573Y02527*
X03574Y02527*
X03602Y025*
X03607Y02497*
X03613Y02496*
X03764*
X0377Y02497*
X03775Y025*
X03801Y02526*
X03856*
X03858Y02524*
X03855Y02519*
X03811*
X03805Y02518*
X03804Y02517*
X03798Y02513*
X03731Y02447*
X03727Y02441*
X03726Y02439*
X03725Y02434*
Y02304*
X03625Y02204*
X03621Y02198*
X03621Y02197*
X0362Y02191*
Y01995*
X03621Y01989*
X03621Y01988*
X03625Y01982*
X03666Y01942*
X03626Y01902*
X03622Y01896*
X03622Y01895*
X03621Y01889*
Y01654*
X03586Y01619*
X02994*
X02984Y01629*
Y01877*
X02983Y01883*
X02983Y01884*
X02979Y0189*
X02938Y01931*
X02938Y01932*
X0294Y01942*
X02938Y01952*
X02935Y01961*
X02928Y0197*
X0292Y01976*
X02911Y0198*
X029Y01981*
X0289Y0198*
X02881Y01976*
X02873Y0197*
X02866Y01961*
X02866Y0196*
X02836*
X0283Y01959*
X02828Y01959*
X02823Y01955*
X0277Y01902*
X02766Y01896*
X02766Y01895*
X02765Y01889*
Y01654*
X0273Y01619*
X02138*
X02128Y01629*
Y01877*
X02127Y01883*
X02127Y01884*
X02123Y0189*
X02081Y01932*
X02083Y01942*
X02081Y01952*
X02077Y01961*
X02071Y0197*
X02063Y01976*
X02053Y0198*
X02043Y01981*
X02033Y0198*
X02024Y01976*
X02015Y0197*
X02009Y01961*
X02009Y0196*
X01977*
X01971Y01959*
X0197Y01959*
X01964Y01955*
X01912Y01902*
X01908Y01896*
X01908Y01895*
X01906Y01889*
Y01654*
X01872Y01619*
X0128*
X0127Y01629*
Y01877*
X01269Y01883*
X01268Y01884*
X01264Y0189*
X01224Y0193*
X01225Y01932*
X01226Y01942*
X01225Y01952*
X01221Y01961*
X01215Y0197*
X01207Y01976*
X01197Y0198*
X01187Y01981*
X01177Y0198*
X01167Y01976*
X01159Y0197*
X01153Y01961*
X01149Y01952*
X01148Y01942*
X01149Y01932*
X01153Y01922*
X01159Y01914*
X01167Y01908*
X01177Y01904*
X01187Y01902*
X01197Y01904*
X01198Y01904*
X01215Y01887*
X01213Y01883*
X01192*
Y01847*
X01228*
Y01863*
X01233Y01865*
X01233Y01865*
Y01622*
X01234Y01616*
X01235Y01615*
X01238Y01609*
X01259Y01588*
X01265Y01584*
X01266Y01584*
X01272Y01583*
X01879*
X01885Y01584*
X01886Y01584*
X01892Y01588*
X01938Y01633*
X01942Y01639*
X01942Y0164*
X01943Y01646*
Y01882*
X01985Y01923*
X02009*
X02009Y01922*
X02015Y01914*
X02024Y01908*
X02033Y01904*
X02043Y01902*
X02053Y01904*
X02056Y01905*
X02074Y01887*
X02072Y01883*
X02048*
Y01847*
X02084*
Y01867*
X02089Y0187*
X02091Y01868*
Y01622*
X02093Y01616*
X02093Y01615*
X02097Y01609*
X02117Y01588*
X02123Y01584*
X02125Y01584*
X0213Y01583*
X02738*
X02744Y01584*
X02745Y01584*
X02751Y01588*
X02796Y01633*
X028Y01639*
X028Y0164*
X02801Y01646*
Y01882*
X02843Y01923*
X02866*
X02866Y01922*
X02873Y01914*
X02881Y01908*
X0289Y01904*
X029Y01902*
X02911Y01904*
X02913Y01905*
X0293Y01887*
X02928Y01883*
X02905*
Y01847*
X02941*
Y01865*
X02946Y01867*
X02948Y01866*
Y01622*
X02949Y01616*
X02949Y01615*
X02953Y01609*
X02974Y01588*
X0298Y01584*
X02981Y01584*
X02987Y01583*
X03594*
X036Y01584*
X03601Y01584*
X03607Y01588*
X03652Y01633*
X03656Y01639*
X03656Y0164*
X03658Y01646*
Y01882*
X03702Y01926*
X03721*
X03723Y01922*
X03729Y01914*
X03737Y01908*
X03747Y01904*
X03757Y01902*
X03767Y01904*
X03776Y01908*
X03785Y01914*
X03791Y01922*
X03795Y01932*
X03796Y01942*
X03795Y01952*
X03791Y01961*
X03785Y0197*
X03776Y01976*
X03767Y0198*
X03757Y01981*
X03747Y0198*
X03737Y01976*
X03729Y0197*
X03723Y01961*
X03721Y01958*
X03702*
X03657Y02003*
Y02184*
X03757Y02284*
X03761Y0229*
X03761Y02291*
X03762Y02297*
Y02426*
X03818Y02482*
X04081*
X04087Y02483*
X04088Y02484*
X04094Y02488*
X04226Y02619*
X04229Y02623*
X0423Y02625*
X04231Y02632*
Y02977*
X0423Y02984*
X04226Y0299*
X04201Y03014*
X04196Y03018*
X04194Y03019*
X04188Y0302*
X04168*
Y0304*
G37*
G36*
X02133Y0279D02*
X02101D01*
Y02758*
X02133*
Y0279*
G37*
G36*
X04129Y02841D02*
X04119Y02839D01*
X0411Y02836*
X04102Y02829*
X04095Y02821*
X04091Y02812*
X0409Y02801*
X04091Y02791*
X04095Y02782*
X04102Y02774*
X0411Y02767*
X04119Y02763*
X04129Y02762*
X0414Y02763*
X04149Y02767*
X04157Y02774*
X04163Y02782*
X04167Y02791*
X04169Y02801*
X04167Y02812*
X04163Y02821*
X04157Y02829*
X04149Y02836*
X0414Y02839*
X04129Y02841*
G37*
G36*
X03814Y02717D02*
X03795D01*
Y02697*
X038Y02698*
X03808Y02704*
X03813Y02712*
X03814Y02717*
G37*
G36*
X02091Y0279D02*
X02059D01*
Y02758*
X02091*
Y0279*
G37*
G36*
X02847Y02859D02*
X02838Y02858D01*
X0283Y02855*
X02822Y02849*
X02817Y02842*
X02813Y02833*
X02812Y02824*
X02813Y02815*
X02817Y02807*
X02821Y02802*
X02818Y02797*
X02802*
X02761Y02838*
X02756Y02842*
X0275Y02843*
X0273*
X0273Y02844*
X02722Y02849*
X02713Y02851*
X02704Y02849*
X02697Y02844*
X02691Y02836*
X0269Y02827*
X02691Y02818*
X02697Y02811*
X02704Y02806*
X02713Y02804*
X02722Y02806*
X0273Y02811*
X0273Y02811*
X02743*
X02785Y0277*
X0279Y02766*
X02796Y02765*
X03003*
X03005Y0276*
X03002Y02758*
X02997Y02751*
X02993Y02743*
X02992Y02734*
X02993Y02725*
X02997Y02716*
X03002Y02709*
X0301Y02704*
X03018Y027*
X03027Y02699*
X03036Y027*
X03045Y02704*
X03052Y02709*
X03057Y02716*
X03061Y02725*
X03062Y02734*
X03061Y02743*
X03057Y02751*
X03052Y02758*
X03049Y0276*
X03051Y02765*
X03259*
X03342Y02682*
X03342Y02681*
X03344Y02672*
X03349Y02664*
X03357Y02659*
X03366Y02657*
X03375Y02659*
X03382Y02664*
X03387Y02672*
X03389Y02681*
X03387Y0269*
X03382Y02697*
X03375Y02702*
X03366Y02704*
X03365Y02704*
X03276Y02792*
X03271Y02796*
X03265Y02797*
X02876*
X02873Y02802*
X02877Y02807*
X02881Y02815*
X02882Y02824*
X02881Y02833*
X02877Y02842*
X02872Y02849*
X02864Y02855*
X02856Y02858*
X02847Y02859*
G37*
G36*
X02583Y02886D02*
X02547D01*
X02548Y02881*
X02552Y02871*
X02559Y02862*
X02567Y02855*
X02577Y02851*
X02583Y02851*
Y02886*
G37*
G36*
X02629D02*
X02593D01*
Y02851*
X02599Y02851*
X02609Y02855*
X02617Y02862*
X02624Y02871*
X02628Y02881*
X02629Y02886*
G37*
G36*
X02091Y02831D02*
X02059D01*
Y028*
X02091*
Y02831*
G37*
G36*
X02133D02*
X02101D01*
Y028*
X02133*
Y02831*
G37*
G36*
X03643Y02717D02*
X03624D01*
X03625Y02712*
X0363Y02704*
X03638Y02698*
X03643Y02697*
Y02717*
G37*
G36*
X01515Y02678D02*
X01496D01*
X01497Y02673*
X01502Y02665*
X0151Y02659*
X01515Y02658*
Y02678*
G37*
G36*
X01545D02*
X01525D01*
Y02658*
X0153Y02659*
X01538Y02665*
X01544Y02673*
X01545Y02678*
G37*
G36*
X02096Y02633D02*
X02087Y02632D01*
X02079Y02628*
X02071Y02623*
X02066Y02615*
X02062Y02607*
X02061Y02598*
X02062Y02589*
X02066Y0258*
X02071Y02573*
X02079Y02568*
X02087Y02564*
X02096Y02563*
X02105Y02564*
X02113Y02568*
X02121Y02573*
X02126Y0258*
X0213Y02589*
X02131Y02598*
X0213Y02607*
X02126Y02615*
X02121Y02623*
X02113Y02628*
X02105Y02632*
X02096Y02633*
G37*
G36*
X02716Y02753D02*
X02707Y02751D01*
X02699Y02746*
X02694Y02739*
X02693Y0273*
X02694Y02721*
X02699Y02713*
X02707Y02708*
X02716Y02706*
X02725Y02708*
X02733Y02713*
X02733Y02714*
X0286*
X02915Y02659*
X02921Y02655*
X02927Y02654*
X03256*
X03257Y02653*
X03262Y02649*
X03261Y02644*
X02722*
X02722Y02645*
X02714Y0265*
X02705Y02652*
X02696Y0265*
X02689Y02645*
X02684Y02637*
X02682Y02628*
X02684Y02619*
X02689Y02612*
X02696Y02607*
X02705Y02605*
X02714Y02607*
X02722Y02612*
X02722Y02613*
X03403*
X03409Y02614*
X03414Y02617*
X03435Y02638*
X03436Y02637*
X03445Y02639*
X03452Y02644*
X03457Y02652*
X03459Y02661*
X03457Y0267*
X03452Y02678*
X03445Y02683*
X03436Y02684*
X03427Y02683*
X03419Y02678*
X03414Y0267*
X03412Y02661*
X03412Y0266*
X03397Y02644*
X03285*
X03284Y02649*
X0329Y02653*
X03295Y02661*
X03297Y0267*
X03295Y02679*
X0329Y02686*
X03282Y02691*
X03273Y02693*
X03264Y02691*
X03257Y02686*
X03256Y02686*
X02933*
X02878Y02741*
X02873Y02744*
X02867Y02746*
X02733*
X02733Y02746*
X02725Y02751*
X02716Y02753*
G37*
G36*
X04129Y02741D02*
X04119Y02739D01*
X0411Y02736*
X04102Y02729*
X04095Y02721*
X04091Y02712*
X0409Y02701*
X04091Y02691*
X04095Y02682*
X04102Y02674*
X0411Y02667*
X04119Y02663*
X04129Y02662*
X0414Y02663*
X04149Y02667*
X04157Y02674*
X04163Y02682*
X04167Y02691*
X04169Y02701*
X04167Y02712*
X04163Y02721*
X04157Y02729*
X04149Y02736*
X0414Y02739*
X04129Y02741*
G37*
G36*
X01515Y02707D02*
X0151Y02706D01*
X01502Y02701*
X01497Y02692*
X01496Y02688*
X01515*
Y02707*
G37*
G36*
X01525D02*
Y02688D01*
X01545*
X01544Y02692*
X01538Y02701*
X0153Y02706*
X01525Y02707*
G37*
G36*
X01861Y02931D02*
X01783D01*
Y02853*
X01804*
Y02738*
X01805Y02732*
X01808Y02727*
X01816Y02718*
X01814Y02714*
X01813Y02703*
X01814Y02693*
X01818Y02683*
X01825Y02674*
X01833Y02668*
X01843Y02664*
X01854Y02662*
X01864Y02664*
X01874Y02668*
X01883Y02674*
X01889Y02683*
X01893Y02693*
X01895Y02703*
X01893Y02714*
X01889Y02724*
X01883Y02732*
X01874Y02739*
X01864Y02743*
X01854Y02744*
X01843Y02743*
X01839Y02741*
X01835Y02744*
Y02853*
X01861*
Y02931*
G37*
G36*
X01954Y02744D02*
X01943Y02743D01*
X01933Y02739*
X01925Y02732*
X01918Y02724*
X01914Y02714*
X01913Y02703*
X01914Y02693*
X01918Y02683*
X01925Y02674*
X01933Y02668*
X01943Y02664*
X01954Y02662*
X01964Y02664*
X01974Y02668*
X01983Y02674*
X01989Y02683*
X01993Y02693*
X01995Y02703*
X01993Y02714*
X01989Y02724*
X01983Y02732*
X01974Y02739*
X01964Y02743*
X01954Y02744*
G37*
G36*
X02423Y01731D02*
X02413Y0173D01*
X02403Y01726*
X02395Y0172*
X02389Y01711*
X02385Y01702*
X02383Y01692*
X02385Y01682*
X02389Y01672*
X02395Y01664*
X02403Y01658*
X02413Y01654*
X02423Y01652*
X02433Y01654*
X02442Y01658*
X02451Y01664*
X02457Y01672*
X02461Y01682*
X02462Y01692*
X02461Y01702*
X02457Y01711*
X02451Y0172*
X02442Y01726*
X02433Y0173*
X02423Y01731*
G37*
G36*
X02523D02*
X02513Y0173D01*
X02503Y01726*
X02495Y0172*
X02489Y01711*
X02485Y01702*
X02483Y01692*
X02485Y01682*
X02489Y01672*
X02495Y01664*
X02503Y01658*
X02513Y01654*
X02523Y01652*
X02533Y01654*
X02542Y01658*
X02551Y01664*
X02557Y01672*
X02561Y01682*
X02562Y01692*
X02561Y01702*
X02557Y01711*
X02551Y0172*
X02542Y01726*
X02533Y0173*
X02523Y01731*
G37*
G36*
X01666D02*
X01656Y0173D01*
X01647Y01726*
X01639Y0172*
X01632Y01711*
X01628Y01702*
X01627Y01692*
X01628Y01682*
X01632Y01672*
X01639Y01664*
X01647Y01658*
X01656Y01654*
X01666Y01652*
X01677Y01654*
X01686Y01658*
X01694Y01664*
X01701Y01672*
X01704Y01682*
X01706Y01692*
X01704Y01702*
X01701Y01711*
X01694Y0172*
X01686Y01726*
X01677Y0173*
X01666Y01731*
G37*
G36*
X02323D02*
X02313Y0173D01*
X02303Y01726*
X02295Y0172*
X02289Y01711*
X02285Y01702*
X02283Y01692*
X02285Y01682*
X02289Y01672*
X02295Y01664*
X02303Y01658*
X02313Y01654*
X02323Y01652*
X02333Y01654*
X02342Y01658*
X02351Y01664*
X02357Y01672*
X02361Y01682*
X02362Y01692*
X02361Y01702*
X02357Y01711*
X02351Y0172*
X02342Y01726*
X02333Y0173*
X02323Y01731*
G37*
G36*
X0318D02*
X0317Y0173D01*
X0316Y01726*
X03152Y0172*
X03146Y01711*
X03142Y01702*
X03141Y01692*
X03142Y01682*
X03146Y01672*
X03152Y01664*
X0316Y01658*
X0317Y01654*
X0318Y01652*
X0319Y01654*
X032Y01658*
X03208Y01664*
X03214Y01672*
X03218Y01682*
X03219Y01692*
X03218Y01702*
X03214Y01711*
X03208Y0172*
X032Y01726*
X0319Y0173*
X0318Y01731*
G37*
G36*
X04036D02*
X04026Y0173D01*
X04017Y01726*
X04009Y0172*
X04002Y01711*
X03998Y01702*
X03997Y01692*
X03998Y01682*
X04002Y01672*
X04009Y01664*
X04017Y01658*
X04026Y01654*
X04036Y01652*
X04046Y01654*
X04056Y01658*
X04064Y01664*
X0407Y01672*
X04074Y01682*
X04076Y01692*
X04074Y01702*
X0407Y01711*
X04064Y0172*
X04056Y01726*
X04046Y0173*
X04036Y01731*
G37*
G36*
X04136D02*
X04126Y0173D01*
X04117Y01726*
X04109Y0172*
X04102Y01711*
X04098Y01702*
X04097Y01692*
X04098Y01682*
X04102Y01672*
X04109Y01664*
X04117Y01658*
X04126Y01654*
X04136Y01652*
X04146Y01654*
X04156Y01658*
X04164Y01664*
X0417Y01672*
X04174Y01682*
X04176Y01692*
X04174Y01702*
X0417Y01711*
X04164Y0172*
X04156Y01726*
X04146Y0173*
X04136Y01731*
G37*
G36*
X0328D02*
X0327Y0173D01*
X0326Y01726*
X03252Y0172*
X03246Y01711*
X03242Y01702*
X03241Y01692*
X03242Y01682*
X03246Y01672*
X03252Y01664*
X0326Y01658*
X0327Y01654*
X0328Y01652*
X0329Y01654*
X033Y01658*
X03308Y01664*
X03314Y01672*
X03318Y01682*
X03319Y01692*
X03318Y01702*
X03314Y01711*
X03308Y0172*
X033Y01726*
X0329Y0173*
X0328Y01731*
G37*
G36*
X0338D02*
X0337Y0173D01*
X0336Y01726*
X03352Y0172*
X03346Y01711*
X03342Y01702*
X03341Y01692*
X03342Y01682*
X03346Y01672*
X03352Y01664*
X0336Y01658*
X0337Y01654*
X0338Y01652*
X0339Y01654*
X034Y01658*
X03408Y01664*
X03414Y01672*
X03418Y01682*
X03419Y01692*
X03418Y01702*
X03414Y01711*
X03408Y0172*
X034Y01726*
X0339Y0173*
X0338Y01731*
G37*
G36*
X01566D02*
X01556Y0173D01*
X01547Y01726*
X01539Y0172*
X01532Y01711*
X01528Y01702*
X01527Y01692*
X01528Y01682*
X01532Y01672*
X01539Y01664*
X01547Y01658*
X01556Y01654*
X01566Y01652*
X01577Y01654*
X01586Y01658*
X01594Y01664*
X01601Y01672*
X01604Y01682*
X01606Y01692*
X01604Y01702*
X01601Y01711*
X01594Y0172*
X01586Y01726*
X01577Y0173*
X01566Y01731*
G37*
G36*
X03378Y01524D02*
X03368Y01523D01*
X03359Y01519*
X03351Y01512*
X03344Y01504*
X0334Y01495*
X03339Y01485*
X0334Y01474*
X03344Y01465*
X03351Y01457*
X03359Y0145*
X03368Y01447*
X03378Y01445*
X03389Y01447*
X03398Y0145*
X03406Y01457*
X03413Y01465*
X03416Y01474*
X03418Y01485*
X03416Y01495*
X03413Y01504*
X03406Y01512*
X03398Y01519*
X03389Y01523*
X03378Y01524*
G37*
G36*
X04235D02*
X04225Y01523D01*
X04215Y01519*
X04207Y01512*
X04201Y01504*
X04197Y01495*
X04195Y01485*
X04197Y01474*
X04201Y01465*
X04207Y01457*
X04215Y0145*
X04225Y01447*
X04235Y01445*
X04245Y01447*
X04254Y0145*
X04263Y01457*
X04269Y01465*
X04273Y01474*
X04274Y01485*
X04273Y01495*
X04269Y01504*
X04263Y01512*
X04254Y01519*
X04245Y01523*
X04235Y01524*
G37*
G36*
X01665D02*
X01655Y01523D01*
X01645Y01519*
X01637Y01512*
X01631Y01504*
X01627Y01495*
X01626Y01485*
X01627Y01474*
X01631Y01465*
X01637Y01457*
X01645Y0145*
X01655Y01447*
X01665Y01445*
X01675Y01447*
X01685Y0145*
X01693Y01457*
X01699Y01465*
X01703Y01474*
X01704Y01485*
X01703Y01495*
X01699Y01504*
X01693Y01512*
X01685Y01519*
X01675Y01523*
X01665Y01524*
G37*
G36*
X02521D02*
X02511Y01523D01*
X02501Y01519*
X02493Y01512*
X02487Y01504*
X02483Y01495*
X02482Y01485*
X02483Y01474*
X02487Y01465*
X02493Y01457*
X02501Y0145*
X02511Y01447*
X02521Y01445*
X02531Y01447*
X02541Y0145*
X02549Y01457*
X02555Y01465*
X02559Y01474*
X0256Y01485*
X02559Y01495*
X02555Y01504*
X02549Y01512*
X02541Y01519*
X02531Y01523*
X02521Y01524*
G37*
G36*
X01605Y01524D02*
X01527D01*
Y01446*
X01605*
Y01524*
G37*
G36*
X04175D02*
X04097D01*
Y01446*
X04175*
Y01524*
G37*
G36*
X01466Y01731D02*
X01456Y0173D01*
X01447Y01726*
X01439Y0172*
X01432Y01711*
X01428Y01702*
X01427Y01692*
X01428Y01682*
X01432Y01672*
X01439Y01664*
X01447Y01658*
X01456Y01654*
X01466Y01652*
X01477Y01654*
X01486Y01658*
X01494Y01664*
X01501Y01672*
X01504Y01682*
X01506Y01692*
X01504Y01702*
X01501Y01711*
X01494Y0172*
X01486Y01726*
X01477Y0173*
X01466Y01731*
G37*
G36*
X02462Y01524D02*
X02384D01*
Y01446*
X02462*
Y01524*
G37*
G36*
X03319D02*
X03241D01*
Y01446*
X03319*
Y01524*
G37*
G36*
X04236Y01731D02*
X04226Y0173D01*
X04217Y01726*
X04209Y0172*
X04202Y01711*
X04198Y01702*
X04197Y01692*
X04198Y01682*
X04202Y01672*
X04209Y01664*
X04217Y01658*
X04226Y01654*
X04236Y01652*
X04246Y01654*
X04256Y01658*
X04264Y01664*
X0427Y01672*
X04274Y01682*
X04276Y01692*
X04274Y01702*
X0427Y01711*
X04264Y0172*
X04256Y01726*
X04246Y0173*
X04236Y01731*
G37*
G36*
X01182Y01883D02*
X01146D01*
Y01847*
X01182*
Y01883*
G37*
G36*
X02038D02*
X02002D01*
Y01847*
X02038*
Y01883*
G37*
G36*
X03752Y01837D02*
X03716D01*
Y01801*
X03752*
Y01837*
G37*
G36*
X03798D02*
X03762D01*
Y01801*
X03798*
Y01837*
G37*
G36*
X02895Y01883D02*
X02859D01*
Y01847*
X02895*
Y01883*
G37*
G36*
X01187Y02081D02*
X01177Y0208D01*
X01167Y02076*
X01159Y0207*
X01153Y02061*
X01149Y02052*
X01148Y02042*
X01149Y02032*
X01153Y02022*
X01159Y02014*
X01167Y02008*
X01177Y02004*
X01187Y02002*
X01197Y02004*
X01207Y02008*
X01215Y02014*
X01221Y02022*
X01225Y02032*
X01226Y02042*
X01225Y02052*
X01221Y02061*
X01215Y0207*
X01207Y02076*
X01197Y0208*
X01187Y02081*
G37*
G36*
X02043D02*
X02033Y0208D01*
X02024Y02076*
X02015Y0207*
X02009Y02061*
X02005Y02052*
X02004Y02042*
X02005Y02032*
X02009Y02022*
X02015Y02014*
X02024Y02008*
X02033Y02004*
X02043Y02002*
X02053Y02004*
X02063Y02008*
X02071Y02014*
X02077Y02022*
X02081Y02032*
X02083Y02042*
X02081Y02052*
X02077Y02061*
X02071Y0207*
X02063Y02076*
X02053Y0208*
X02043Y02081*
G37*
G36*
X03752Y01883D02*
X03716D01*
Y01847*
X03752*
Y01883*
G37*
G36*
X03798D02*
X03762D01*
Y01847*
X03798*
Y01883*
G37*
G36*
X02941Y01837D02*
X02905D01*
Y01801*
X02941*
Y01837*
G37*
G36*
X03079Y02354D02*
X0307Y02352D01*
X03063Y02347*
X03058Y02339*
X03056Y0233*
X03058Y02321*
X0306Y02318*
X03061Y02312*
X03063Y02308*
Y01753*
X03063Y01752*
X03058Y01745*
X03056Y01736*
X03058Y01727*
X03063Y01719*
X0307Y01714*
X03079Y01712*
X03088Y01714*
X03096Y01719*
X03101Y01727*
X03103Y01736*
X03101Y01745*
X03096Y01752*
X03095Y01753*
Y02313*
X03096Y02314*
X03101Y02321*
X03103Y0233*
X03101Y02339*
X03096Y02347*
X03088Y02352*
X03079Y02354*
G37*
G36*
X03936D02*
X03927Y02352D01*
X03919Y02347*
X03914Y02339*
X03912Y0233*
X03914Y02321*
X03916Y02318*
X03917Y02312*
X0392Y02308*
Y01753*
X03919Y01752*
X03914Y01745*
X03912Y01736*
X03914Y01727*
X03919Y01719*
X03927Y01714*
X03936Y01712*
X03945Y01714*
X03952Y01719*
X03957Y01727*
X03959Y01736*
X03957Y01745*
X03952Y01752*
X03951Y01753*
Y02313*
X03952Y02314*
X03957Y02321*
X03959Y0233*
X03957Y02339*
X03952Y02347*
X03945Y02352*
X03936Y02354*
G37*
G36*
X01366D02*
X01357Y02352D01*
X01349Y02347*
X01344Y02339*
X01342Y0233*
X01344Y02321*
X01346Y02318*
X01347Y02312*
X0135Y02308*
Y01753*
X01349Y01752*
X01344Y01745*
X01342Y01736*
X01344Y01727*
X01349Y01719*
X01357Y01714*
X01366Y01712*
X01375Y01714*
X01382Y01719*
X01387Y01727*
X01389Y01736*
X01387Y01745*
X01382Y01752*
X01381Y01753*
Y02313*
X01382Y02314*
X01387Y02321*
X01389Y0233*
X01387Y02339*
X01382Y02347*
X01375Y02352*
X01366Y02354*
G37*
G36*
X02222D02*
X02213Y02352D01*
X02205Y02347*
X022Y02339*
X02198Y0233*
X022Y02321*
X02202Y02318*
X02203Y02312*
X02206Y02308*
Y01753*
X02205Y01752*
X022Y01745*
X02198Y01736*
X022Y01727*
X02205Y01719*
X02213Y01714*
X02222Y01712*
X02231Y01714*
X02239Y01719*
X02244Y01727*
X02245Y01736*
X02244Y01745*
X02239Y01752*
X02238Y01753*
Y02313*
X02239Y02314*
X02244Y02321*
X02245Y0233*
X02244Y02339*
X02239Y02347*
X02231Y02352*
X02222Y02354*
G37*
G36*
X01182Y01837D02*
X01146D01*
Y01801*
X01182*
Y01837*
G37*
G36*
X02084D02*
X02048D01*
Y01801*
X02084*
Y01837*
G37*
G36*
X02895D02*
X02859D01*
Y01801*
X02895*
Y01837*
G37*
G36*
X01228D02*
X01192D01*
Y01801*
X01228*
Y01837*
G37*
G36*
X02038D02*
X02002D01*
Y01801*
X02038*
Y01837*
G37*
G36*
X02117Y02887D02*
X02082D01*
X02082Y02881*
X02086Y02871*
X02093Y02863*
X02102Y02856*
X02112Y02852*
X02117Y02851*
Y02887*
G37*
G36*
X01727Y03081D02*
Y03045D01*
X01763*
X01762Y03051*
X01758Y03061*
X01752Y03069*
X01743Y03076*
X01733Y0308*
X01727Y03081*
G37*
G36*
X02517D02*
X02512Y0308D01*
X02502Y03076*
X02493Y03069*
X02487Y03061*
X02482Y03051*
X02482Y03045*
X02517*
Y03081*
G37*
G36*
X02884Y03058D02*
X02852D01*
Y03026*
X02884*
Y03058*
G37*
G36*
X01717Y03081D02*
X01712Y0308D01*
X01702Y03076*
X01693Y03069*
X01687Y03061*
X01682Y03051*
X01682Y03045*
X01717*
Y03081*
G37*
G36*
X02527D02*
Y03045D01*
X02563*
X02562Y03051*
X02558Y03061*
X02552Y03069*
X02543Y03076*
X02533Y0308*
X02527Y03081*
G37*
G36*
X01563Y03135D02*
X01527D01*
Y03099*
X01533Y031*
X01543Y03104*
X01552Y03111*
X01558Y03119*
X01562Y03129*
X01563Y03135*
G37*
G36*
X01917D02*
X01882D01*
X01882Y03129*
X01887Y03119*
X01893Y03111*
X01902Y03104*
X01912Y031*
X01917Y03099*
Y03135*
G37*
G36*
X028Y03165D02*
X0279Y03164D01*
X0278Y0316*
X02771Y03153*
X02765Y03145*
X02761Y03135*
X02759Y03125*
X02761Y03114*
X02765Y03104*
X02771Y03096*
X0278Y03089*
X0279Y03085*
X028Y03084*
X02811Y03085*
X02821Y03089*
X02829Y03096*
X02836Y03104*
X0284Y03114*
X02841Y03125*
X0284Y03135*
X02836Y03145*
X02829Y03153*
X02821Y0316*
X02811Y03164*
X028Y03165*
G37*
G36*
X01517Y03135D02*
X01482D01*
X01482Y03129*
X01487Y03119*
X01493Y03111*
X01502Y03104*
X01512Y031*
X01517Y03099*
Y03135*
G37*
G36*
X02842Y03058D02*
X0281D01*
Y03026*
X02842*
Y03058*
G37*
G36*
X02022Y03079D02*
X02012Y03078D01*
X02003Y03074*
X01995Y03068*
X01988Y0306*
X01984Y0305*
X01983Y0304*
X01984Y0303*
X01988Y0302*
X01995Y03012*
X02003Y03006*
X02012Y03002*
X02022Y03001*
X02033Y03002*
X02042Y03006*
X0205Y03012*
X02056Y0302*
X0206Y0303*
X02062Y0304*
X0206Y0305*
X02056Y0306*
X0205Y03068*
X02042Y03074*
X02033Y03078*
X02022Y03079*
G37*
G36*
X02122D02*
X02112Y03078D01*
X02103Y03074*
X02095Y03068*
X02088Y0306*
X02084Y0305*
X02083Y0304*
X02084Y0303*
X02088Y0302*
X02095Y03012*
X02103Y03006*
X02112Y03002*
X02122Y03001*
X02133Y03002*
X02142Y03006*
X0215Y03012*
X02156Y0302*
X0216Y0303*
X02162Y0304*
X0216Y0305*
X02156Y0306*
X0215Y03068*
X02142Y03074*
X02133Y03078*
X02122Y03079*
G37*
G36*
X01822D02*
X01812Y03078D01*
X01803Y03074*
X01795Y03068*
X01788Y0306*
X01784Y0305*
X01783Y0304*
X01784Y0303*
X01788Y0302*
X01795Y03012*
X01803Y03006*
X01812Y03002*
X01822Y03001*
X01833Y03002*
X01842Y03006*
X0185Y03012*
X01856Y0302*
X0186Y0303*
X01862Y0304*
X0186Y0305*
X01856Y0306*
X0185Y03068*
X01842Y03074*
X01833Y03078*
X01822Y03079*
G37*
G36*
X01922D02*
X01912Y03078D01*
X01903Y03074*
X01895Y03068*
X01888Y0306*
X01884Y0305*
X01883Y0304*
X01884Y0303*
X01888Y0302*
X01895Y03012*
X01903Y03006*
X01912Y03002*
X01922Y03001*
X01933Y03002*
X01942Y03006*
X0195Y03012*
X01956Y0302*
X0196Y0303*
X01962Y0304*
X0196Y0305*
X01956Y0306*
X0195Y03068*
X01942Y03074*
X01933Y03078*
X01922Y03079*
G37*
G36*
X02222D02*
X02212Y03078D01*
X02203Y03074*
X02195Y03068*
X02188Y0306*
X02184Y0305*
X02183Y0304*
X02184Y0303*
X02188Y0302*
X02195Y03012*
X02203Y03006*
X02212Y03002*
X02222Y03001*
X02233Y03002*
X02242Y03006*
X0225Y03012*
X02256Y0302*
X0226Y0303*
X02262Y0304*
X0226Y0305*
X02256Y0306*
X0225Y03068*
X02242Y03074*
X02233Y03078*
X02222Y03079*
G37*
G36*
X01361Y03079D02*
X01283D01*
Y03001*
X01361*
Y03079*
G37*
G36*
X01148Y03085D02*
X01138Y03084D01*
X01128Y0308*
X01119Y03073*
X01113Y03065*
X01109Y03055*
X01107Y03044*
X01109Y03034*
X01113Y03024*
X01119Y03015*
X01128Y03009*
X01138Y03005*
X01148Y03003*
X01159Y03005*
X01169Y03009*
X01177Y03015*
X01184Y03024*
X01188Y03034*
X01189Y03044*
X01188Y03055*
X01184Y03065*
X01177Y03073*
X01169Y0308*
X01159Y03084*
X01148Y03085*
G37*
G36*
X02322Y03079D02*
X02312Y03078D01*
X02303Y03074*
X02295Y03068*
X02288Y0306*
X02284Y0305*
X02283Y0304*
X02284Y0303*
X02288Y0302*
X02295Y03012*
X02303Y03006*
X02312Y03002*
X02322Y03001*
X02333Y03002*
X02342Y03006*
X0235Y03012*
X02356Y0302*
X0236Y0303*
X02362Y0304*
X0236Y0305*
X02356Y0306*
X0235Y03068*
X02342Y03074*
X02333Y03078*
X02322Y03079*
G37*
G36*
X02422D02*
X02412Y03078D01*
X02403Y03074*
X02395Y03068*
X02388Y0306*
X02384Y0305*
X02383Y0304*
X02384Y0303*
X02388Y0302*
X02395Y03012*
X02403Y03006*
X02412Y03002*
X02422Y03001*
X02433Y03002*
X02442Y03006*
X0245Y03012*
X02456Y0302*
X0246Y0303*
X02462Y0304*
X0246Y0305*
X02456Y0306*
X0245Y03068*
X02442Y03074*
X02433Y03078*
X02422Y03079*
G37*
G36*
X01963Y03135D02*
X01927D01*
Y03099*
X01933Y031*
X01943Y03104*
X01952Y03111*
X01958Y03119*
X01962Y03129*
X01963Y03135*
G37*
G36*
X01148Y03185D02*
X01138Y03184D01*
X01128Y0318*
X01119Y03173*
X01113Y03165*
X01109Y03155*
X01107Y03144*
X01109Y03134*
X01113Y03124*
X01119Y03115*
X01128Y03109*
X01138Y03105*
X01148Y03103*
X01159Y03105*
X01169Y03109*
X01177Y03115*
X01184Y03124*
X01188Y03134*
X01189Y03144*
X01188Y03155*
X01184Y03165*
X01177Y03173*
X01169Y0318*
X01159Y03184*
X01148Y03185*
G37*
G36*
X01517Y03181D02*
X01512Y0318D01*
X01502Y03176*
X01493Y03169*
X01487Y03161*
X01482Y03151*
X01482Y03145*
X01517*
Y03181*
G37*
G36*
X02422Y03179D02*
X02412Y03178D01*
X02403Y03174*
X02395Y03168*
X02388Y0316*
X02384Y0315*
X02383Y0314*
X02384Y0313*
X02388Y0312*
X02395Y03112*
X02403Y03106*
X02412Y03102*
X02422Y03101*
X02433Y03102*
X02442Y03106*
X0245Y03112*
X02456Y0312*
X0246Y0313*
X02462Y0314*
X0246Y0315*
X02456Y0316*
X0245Y03168*
X02442Y03174*
X02433Y03178*
X02422Y03179*
G37*
G36*
X02522D02*
X02512Y03178D01*
X02503Y03174*
X02495Y03168*
X02488Y0316*
X02484Y0315*
X02483Y0314*
X02484Y0313*
X02488Y0312*
X02495Y03112*
X02503Y03106*
X02512Y03102*
X02522Y03101*
X02533Y03102*
X02542Y03106*
X0255Y03112*
X02556Y0312*
X0256Y0313*
X02562Y0314*
X0256Y0315*
X02556Y0316*
X0255Y03168*
X02542Y03174*
X02533Y03178*
X02522Y03179*
G37*
G36*
X01527Y03181D02*
Y03145D01*
X01563*
X01562Y03151*
X01558Y03161*
X01552Y03169*
X01543Y03176*
X01533Y0318*
X01527Y03181*
G37*
G36*
X02217D02*
X02212Y0318D01*
X02202Y03176*
X02193Y03169*
X02187Y03161*
X02182Y03151*
X02182Y03145*
X02217*
Y03181*
G37*
G36*
X02227D02*
Y03145D01*
X02263*
X02262Y03151*
X02258Y03161*
X02252Y03169*
X02243Y03176*
X02233Y0318*
X02227Y03181*
G37*
G36*
X01917D02*
X01912Y0318D01*
X01902Y03176*
X01893Y03169*
X01887Y03161*
X01882Y03151*
X01882Y03145*
X01917*
Y03181*
G37*
G36*
X01927D02*
Y03145D01*
X01963*
X01962Y03151*
X01958Y03161*
X01952Y03169*
X01943Y03176*
X01933Y0318*
X01927Y03181*
G37*
G36*
X02322Y03179D02*
X02312Y03178D01*
X02303Y03174*
X02295Y03168*
X02288Y0316*
X02284Y0315*
X02283Y0314*
X02284Y0313*
X02288Y0312*
X02295Y03112*
X02303Y03106*
X02312Y03102*
X02322Y03101*
X02333Y03102*
X02342Y03106*
X0235Y03112*
X02356Y0312*
X0236Y0313*
X02362Y0314*
X0236Y0315*
X02356Y0316*
X0235Y03168*
X02342Y03174*
X02333Y03178*
X02322Y03179*
G37*
G36*
X01322D02*
X01312Y03178D01*
X01303Y03174*
X01295Y03168*
X01288Y0316*
X01284Y0315*
X01283Y0314*
X01284Y0313*
X01288Y0312*
X01295Y03112*
X01303Y03106*
X01312Y03102*
X01322Y03101*
X01333Y03102*
X01342Y03106*
X0135Y03112*
X01356Y0312*
X0136Y0313*
X01362Y0314*
X0136Y0315*
X01356Y0316*
X0135Y03168*
X01342Y03174*
X01333Y03178*
X01322Y03179*
G37*
G36*
X01422D02*
X01412Y03178D01*
X01403Y03174*
X01395Y03168*
X01388Y0316*
X01384Y0315*
X01383Y0314*
X01384Y0313*
X01388Y0312*
X01395Y03112*
X01403Y03106*
X01412Y03102*
X01422Y03101*
X01433Y03102*
X01442Y03106*
X0145Y03112*
X01456Y0312*
X0146Y0313*
X01462Y0314*
X0146Y0315*
X01456Y0316*
X0145Y03168*
X01442Y03174*
X01433Y03178*
X01422Y03179*
G37*
G36*
X02217Y03135D02*
X02182D01*
X02182Y03129*
X02187Y03119*
X02193Y03111*
X02202Y03104*
X02212Y031*
X02217Y03099*
Y03135*
G37*
G36*
X02263D02*
X02227D01*
Y03099*
X02233Y031*
X02243Y03104*
X02252Y03111*
X02258Y03119*
X02262Y03129*
X02263Y03135*
G37*
G36*
X01622Y03179D02*
X01612Y03178D01*
X01603Y03174*
X01595Y03168*
X01588Y0316*
X01584Y0315*
X01583Y0314*
X01584Y0313*
X01588Y0312*
X01595Y03112*
X01603Y03106*
X01612Y03102*
X01622Y03101*
X01633Y03102*
X01642Y03106*
X0165Y03112*
X01656Y0312*
X0166Y0313*
X01662Y0314*
X0166Y0315*
X01656Y0316*
X0165Y03168*
X01642Y03174*
X01633Y03178*
X01622Y03179*
G37*
G36*
X02022D02*
X02012Y03178D01*
X02003Y03174*
X01995Y03168*
X01988Y0316*
X01984Y0315*
X01983Y0314*
X01984Y0313*
X01988Y0312*
X01995Y03112*
X02003Y03106*
X02012Y03102*
X02022Y03101*
X02033Y03102*
X02042Y03106*
X0205Y03112*
X02056Y0312*
X0206Y0313*
X02062Y0314*
X0206Y0315*
X02056Y0316*
X0205Y03168*
X02042Y03174*
X02033Y03178*
X02022Y03179*
G37*
G36*
X02122D02*
X02112Y03178D01*
X02103Y03174*
X02095Y03168*
X02088Y0316*
X02084Y0315*
X02083Y0314*
X02084Y0313*
X02088Y0312*
X02095Y03112*
X02103Y03106*
X02112Y03102*
X02122Y03101*
X02133Y03102*
X02142Y03106*
X0215Y03112*
X02156Y0312*
X0216Y0313*
X02162Y0314*
X0216Y0315*
X02156Y0316*
X0215Y03168*
X02142Y03174*
X02133Y03178*
X02122Y03179*
G37*
G36*
X01722D02*
X01712Y03178D01*
X01703Y03174*
X01695Y03168*
X01688Y0316*
X01684Y0315*
X01683Y0314*
X01684Y0313*
X01688Y0312*
X01695Y03112*
X01703Y03106*
X01712Y03102*
X01722Y03101*
X01733Y03102*
X01742Y03106*
X0175Y03112*
X01756Y0312*
X0176Y0313*
X01762Y0314*
X0176Y0315*
X01756Y0316*
X0175Y03168*
X01742Y03174*
X01733Y03178*
X01722Y03179*
G37*
G36*
X01822D02*
X01812Y03178D01*
X01803Y03174*
X01795Y03168*
X01788Y0316*
X01784Y0315*
X01783Y0314*
X01784Y0313*
X01788Y0312*
X01795Y03112*
X01803Y03106*
X01812Y03102*
X01822Y03101*
X01833Y03102*
X01842Y03106*
X0185Y03112*
X01856Y0312*
X0186Y0313*
X01862Y0314*
X0186Y0315*
X01856Y0316*
X0185Y03168*
X01842Y03174*
X01833Y03178*
X01822Y03179*
G37*
G36*
X01622Y03079D02*
X01612Y03078D01*
X01603Y03074*
X01595Y03068*
X01588Y0306*
X01584Y0305*
X01583Y0304*
X01584Y0303*
X01588Y0302*
X01595Y03012*
X01603Y03006*
X01612Y03002*
X01622Y03001*
X01633Y03002*
X01642Y03006*
X0165Y03012*
X01656Y0302*
X0166Y0303*
X01662Y0304*
X0166Y0305*
X01656Y0306*
X0165Y03068*
X01642Y03074*
X01633Y03078*
X01622Y03079*
G37*
G36*
X03785Y02888D02*
X0378Y02887D01*
X03772Y02882*
X03769Y02878*
X03763*
X03761Y02882*
X03752Y02887*
X03748Y02888*
Y02864*
X03738*
Y02888*
X03733Y02887*
X03725Y02882*
X03722Y02878*
X03716*
X03713Y02882*
X03705Y02887*
X037Y02888*
Y02864*
X0369*
Y02888*
X03686Y02887*
X03677Y02882*
X03675Y02878*
X03669*
X03666Y02882*
X03658Y02887*
X03653Y02888*
Y02864*
X03648*
Y02859*
X03624*
X03625Y02854*
X0363Y02846*
X03634Y02843*
Y02837*
X0363Y02834*
X03625Y02826*
X03624Y02821*
X03648*
Y02811*
X03624*
X03625Y02807*
X0363Y02798*
X03634Y02796*
Y0279*
X0363Y02787*
X03625Y02779*
X03624Y02774*
X03648*
Y02764*
X03624*
X03625Y02759*
X0363Y02751*
X03634Y02749*
Y02743*
X0363Y0274*
X03625Y02732*
X03624Y02727*
X03648*
Y02722*
X03653*
Y02697*
X03658Y02698*
X03666Y02704*
X03669Y02708*
X03675*
X03677Y02704*
X03686Y02698*
X0369Y02697*
Y02722*
X037*
Y02697*
X03705Y02698*
X03713Y02704*
X03716Y02708*
X03722*
X03725Y02704*
X03733Y02698*
X03738Y02697*
Y02722*
X03748*
Y02697*
X03752Y02698*
X03761Y02704*
X03763Y02708*
X03769*
X03772Y02704*
X0378Y02698*
X03785Y02697*
Y02722*
X0379*
Y02727*
X03814*
X03813Y02732*
X03808Y0274*
X03804Y02743*
Y02749*
X03808Y02751*
X03813Y02759*
X03814Y02764*
X0379*
Y02774*
X03814*
X03813Y02779*
X03808Y02787*
X03804Y0279*
Y02796*
X03808Y02798*
X03813Y02807*
X03814Y02811*
X0379*
Y02821*
X03814*
X03813Y02826*
X03808Y02834*
X03804Y02837*
Y02843*
X03808Y02846*
X03813Y02854*
X03814Y02859*
X0379*
Y02864*
X03785*
Y02888*
G37*
G36*
X01516Y02901D02*
X01511Y029D01*
X01503Y02894*
X01498Y02886*
X01497Y02881*
X01516*
Y02901*
G37*
G36*
X03643Y02888D02*
X03638Y02887D01*
X0363Y02882*
X03625Y02873*
X03624Y02869*
X03643*
Y02888*
G37*
G36*
X03795D02*
Y02869D01*
X03814*
X03813Y02873*
X03808Y02882*
X038Y02887*
X03795Y02888*
G37*
G36*
X01526Y02901D02*
Y02881D01*
X01546*
X01545Y02886*
X01539Y02894*
X01531Y029*
X01526Y02901*
G37*
G36*
X02583Y02932D02*
X02577Y02931D01*
X02567Y02927*
X02559Y0292*
X02552Y02912*
X02548Y02902*
X02547Y02896*
X02583*
Y02932*
G37*
G36*
X02593D02*
Y02896D01*
X02629*
X02628Y02902*
X02624Y02912*
X02617Y0292*
X02609Y02927*
X02599Y02931*
X02593Y02932*
G37*
G36*
X03022Y02926D02*
X0299D01*
Y02894*
X03022*
Y02926*
G37*
G36*
X03064D02*
X03032D01*
Y02894*
X03064*
Y02926*
G37*
G36*
X0417Y02896D02*
X04134D01*
Y02861*
X0414Y02862*
X0415Y02866*
X04159Y02872*
X04165Y02881*
X04169Y02891*
X0417Y02896*
G37*
G36*
X02488Y02931D02*
X02478Y02929D01*
X02468Y02925*
X0246Y02919*
X02454Y02911*
X0245Y02901*
X02449Y02891*
X0245Y02881*
X02454Y02872*
X0246Y02863*
X02468Y02857*
X02478Y02853*
X02488Y02852*
X02498Y02853*
X02508Y02857*
X02516Y02863*
X02522Y02872*
X02526Y02881*
X02527Y02891*
X02526Y02901*
X02522Y02911*
X02516Y02919*
X02508Y02925*
X02498Y02929*
X02488Y02931*
G37*
G36*
X01516Y02871D02*
X01497D01*
X01498Y02867*
X01503Y02858*
X01511Y02853*
X01516Y02852*
Y02871*
G37*
G36*
X02163Y02887D02*
X02127D01*
Y02851*
X02133Y02852*
X02143Y02856*
X02151Y02863*
X02158Y02871*
X02162Y02881*
X02163Y02887*
G37*
G36*
X02388Y02931D02*
X02378Y02929D01*
X02368Y02925*
X0236Y02919*
X02354Y02911*
X0235Y02901*
X02349Y02891*
X0235Y02881*
X02354Y02872*
X0236Y02863*
X02368Y02857*
X02378Y02853*
X02388Y02852*
X02398Y02853*
X02408Y02857*
X02416Y02863*
X02422Y02872*
X02426Y02881*
X02427Y02891*
X02426Y02901*
X02422Y02911*
X02416Y02919*
X02408Y02925*
X02398Y02929*
X02388Y02931*
G37*
G36*
X01546Y02871D02*
X01526D01*
Y02852*
X01531Y02853*
X01539Y02858*
X01545Y02867*
X01546Y02871*
G37*
G36*
X02022Y02931D02*
X02012Y0293D01*
X02003Y02926*
X01994Y0292*
X01988Y02912*
X01984Y02902*
X01983Y02892*
X01984Y02882*
X01988Y02872*
X01994Y02864*
X02003Y02858*
X02012Y02854*
X02022Y02853*
X02032Y02854*
X02042Y02858*
X0205Y02864*
X02056Y02872*
X0206Y02882*
X02062Y02892*
X0206Y02902*
X02056Y02912*
X0205Y0292*
X02042Y02926*
X02032Y0293*
X02022Y02931*
G37*
G36*
X04124Y02896D02*
X04089D01*
X04089Y02891*
X04094Y02881*
X041Y02872*
X04109Y02866*
X04119Y02862*
X04124Y02861*
Y02896*
G37*
G36*
X027Y03165D02*
X0269Y03164D01*
X0268Y0316*
X02671Y03153*
X02665Y03145*
X02661Y03135*
X02659Y03125*
X02661Y03114*
X02665Y03104*
X02671Y03096*
X0268Y03089*
X02684Y03087*
Y03028*
X02642Y02985*
X02366*
X0236Y02984*
X02354Y0298*
X02305Y0293*
X02249*
Y02852*
X02327*
Y02908*
X02372Y02953*
X02648*
X02654Y02954*
X02659Y02958*
X02711Y0301*
X02715Y03015*
X02716Y03021*
Y03087*
X02721Y03089*
X02729Y03096*
X02736Y03104*
X0274Y03114*
X02741Y03125*
X0274Y03135*
X02736Y03145*
X02729Y03153*
X02721Y0316*
X02711Y03164*
X027Y03165*
G37*
G36*
X01922Y02931D02*
X01912Y0293D01*
X01903Y02926*
X01894Y0292*
X01888Y02912*
X01884Y02902*
X01883Y02892*
X01884Y02882*
X01888Y02872*
X01894Y02864*
X01903Y02858*
X01912Y02854*
X01922Y02853*
X01932Y02854*
X01942Y02858*
X0195Y02864*
X01956Y02872*
X0196Y02882*
X01962Y02892*
X0196Y02902*
X01956Y02912*
X0195Y0292*
X01942Y02926*
X01932Y0293*
X01922Y02931*
G37*
G36*
X02117Y02933D02*
X02112Y02932D01*
X02102Y02928*
X02093Y02921*
X02086Y02913*
X02082Y02903*
X02082Y02897*
X02117*
Y02933*
G37*
G36*
X03471Y03015D02*
Y02996D01*
X03491*
X0349Y03*
X03484Y03009*
X03476Y03014*
X03471Y03015*
G37*
G36*
X01717Y03035D02*
X01682D01*
X01682Y03029*
X01687Y03019*
X01693Y03011*
X01702Y03004*
X01712Y03*
X01717Y02999*
Y03035*
G37*
G36*
X02884Y03016D02*
X02852D01*
Y02985*
X02884*
Y03016*
G37*
G36*
X03461Y03015D02*
X03456Y03014D01*
X03448Y03009*
X03442Y03*
X03442Y02996*
X03461*
Y03015*
G37*
G36*
X01763Y03035D02*
X01727D01*
Y02999*
X01733Y03*
X01743Y03004*
X01752Y03011*
X01758Y03019*
X01762Y03029*
X01763Y03035*
G37*
G36*
X01422Y03079D02*
X01412Y03078D01*
X01403Y03074*
X01395Y03068*
X01388Y0306*
X01384Y0305*
X01383Y0304*
X01384Y0303*
X01388Y0302*
X01395Y03012*
X01403Y03006*
X01412Y03002*
X01422Y03001*
X01433Y03002*
X01442Y03006*
X0145Y03012*
X01456Y0302*
X0146Y0303*
X01462Y0304*
X0146Y0305*
X01456Y0306*
X0145Y03068*
X01442Y03074*
X01433Y03078*
X01422Y03079*
G37*
G36*
X01522D02*
X01512Y03078D01*
X01503Y03074*
X01495Y03068*
X01488Y0306*
X01484Y0305*
X01483Y0304*
X01484Y0303*
X01488Y0302*
X01495Y03012*
X01503Y03006*
X01512Y03002*
X01522Y03001*
X01533Y03002*
X01542Y03006*
X0155Y03012*
X01556Y0302*
X0156Y0303*
X01562Y0304*
X0156Y0305*
X01556Y0306*
X0155Y03068*
X01542Y03074*
X01533Y03078*
X01522Y03079*
G37*
G36*
X02517Y03035D02*
X02482D01*
X02482Y03029*
X02487Y03019*
X02493Y03011*
X02502Y03004*
X02512Y03*
X02517Y02999*
Y03035*
G37*
G36*
X02563D02*
X02527D01*
Y02999*
X02533Y03*
X02543Y03004*
X02552Y03011*
X02558Y03019*
X02562Y03029*
X02563Y03035*
G37*
G36*
X02842Y03016D02*
X0281D01*
Y02985*
X02842*
Y03016*
G37*
G36*
X04134Y02942D02*
Y02906D01*
X0417*
X04169Y02912*
X04165Y02922*
X04159Y02931*
X0415Y02937*
X0414Y02941*
X04134Y02942*
G37*
G36*
X01718Y02964D02*
X01709Y02962D01*
X01701Y02957*
X01696Y02949*
X01695Y0294*
X01695Y0294*
X01634Y02879*
X01631Y02874*
X01629Y02868*
Y02697*
X01629Y02696*
X01624Y02689*
X01622Y0268*
X01624Y02671*
X01629Y02663*
X01636Y02658*
X01645Y02656*
X01654Y02658*
X01662Y02663*
X01667Y02671*
X01669Y0268*
X01667Y02689*
X01662Y02696*
X01661Y02697*
Y02861*
X01717Y02917*
X01718Y02917*
X01727Y02919*
X01735Y02924*
X0174Y02931*
X01741Y0294*
X0174Y02949*
X01735Y02957*
X01727Y02962*
X01718Y02964*
G37*
G36*
X02127Y02933D02*
Y02897D01*
X02163*
X02162Y02903*
X02158Y02913*
X02151Y02921*
X02143Y02928*
X02133Y02932*
X02127Y02933*
G37*
G36*
X04124Y02942D02*
X04119Y02941D01*
X04109Y02937*
X041Y02931*
X04094Y02922*
X04089Y02912*
X04089Y02906*
X04124*
Y02942*
G37*
G36*
X03022Y02967D02*
X0299D01*
Y02936*
X03022*
Y02967*
G37*
G36*
X03491Y02986D02*
X03471D01*
Y02966*
X03476Y02967*
X03484Y02973*
X0349Y02981*
X03491Y02986*
G37*
G36*
X03571Y0306D02*
X03562Y03059D01*
X03555Y03053*
X0355Y03046*
X03548Y03037*
X0355Y03028*
X03555Y0302*
X03562Y03015*
X03571Y03013*
X0358Y03015*
X03588Y0302*
X03588Y03021*
X03647*
X03662Y03007*
X03667Y03004*
X03673Y03002*
X03939*
X03946Y02995*
X03946Y02994*
X03948Y02985*
X03953Y02978*
X03961Y02972*
X03969Y02971*
X03978Y02972*
X03986Y02978*
X03991Y02985*
X03993Y02994*
X03991Y03003*
X03986Y03011*
X03978Y03016*
X03969Y03018*
X03969Y03017*
X03957Y03029*
X03951Y03033*
X03945Y03034*
X03679*
X03665Y03048*
X0366Y03052*
X03654Y03053*
X03588*
X03588Y03053*
X0358Y03059*
X03571Y0306*
G37*
G36*
X03064Y02967D02*
X03032D01*
Y02936*
X03064*
Y02967*
G37*
G36*
X03461Y02986D02*
X03442D01*
X03442Y02981*
X03448Y02973*
X03456Y02967*
X03461Y02966*
Y02986*
G37*
%LNboard_pcb-3*%
%LPD*%
G54D26*
X01322Y0304D03*
X02288Y02891D03*
X01466Y02392D03*
X02323D03*
X04036D03*
X0318D03*
X01822Y02892D03*
G54D27*
X01322Y0314D03*
X01422Y0304D03*
Y0314D03*
X01522Y0304D03*
Y0314D03*
X01622Y0304D03*
Y0314D03*
X01722Y0304D03*
Y0314D03*
X01822Y0304D03*
Y0314D03*
X01922Y0304D03*
Y0314D03*
X02022Y0304D03*
Y0314D03*
X02122Y0304D03*
Y0314D03*
X02222Y0304D03*
Y0314D03*
X02322Y0304D03*
Y0314D03*
X02422Y0304D03*
Y0314D03*
X02522Y0304D03*
Y0314D03*
X02588Y02891D03*
X02488D03*
X02388D03*
X04129Y02701D03*
Y02801D03*
Y02901D03*
X01466Y01692D03*
X01566D03*
X01666D03*
X01665Y01485D03*
X01566Y02392D03*
X01666D03*
X01187Y01942D03*
Y02042D03*
Y02142D03*
X02043Y01942D03*
Y02042D03*
Y02142D03*
X02521Y01485D03*
X02323Y01692D03*
X02423D03*
X02523D03*
X02423Y02392D03*
X02523D03*
X029Y02142D03*
Y02042D03*
Y01942D03*
X03757Y02142D03*
Y02042D03*
Y01942D03*
X0338Y01692D03*
X0328D03*
X0318D03*
X04236D03*
X04136D03*
X04036D03*
X04236Y02392D03*
X04136D03*
X04235Y01485D03*
X03378D03*
X0338Y02392D03*
X0328D03*
X02122Y02892D03*
X02022D03*
X01922D03*
G54D28*
X02847Y02824D03*
X03027Y02734D03*
X02096Y02598D03*
G54D29*
X02847Y03021D03*
X03027Y02931D03*
X02096Y02795D03*
G54D30*
X04129Y03001D03*
X01566Y01485D03*
X01187Y01842D03*
X02043D03*
X02423Y01485D03*
X029Y01842D03*
X03757D03*
X04136Y01485D03*
X0328D03*
G54D31*
X01366Y01284D03*
X01767D03*
X02222D03*
X02624D03*
X04337D03*
X03936D03*
X03481D03*
X03079D03*
G54D32*
X01148Y03044D03*
Y03144D03*
X028Y03125D03*
X027D03*
X01954Y02703D03*
X01854D03*
G54D33*
X0152Y02683D03*
X01521Y02876D03*
X03466Y02991D03*
X03366Y02681D03*
X03436Y02661D03*
X03969Y02994D03*
X03571Y03037D03*
X03956Y02823D03*
X03875Y02542D03*
X03273Y0267D03*
X03573Y02551D03*
X02165Y02548D03*
X02705Y02628D03*
X02716Y0273D03*
X02713Y02827D03*
X01074Y02091D03*
X01231Y0309D03*
X01718Y0294D03*
X01645Y0268D03*
X01366Y01736D03*
Y0233D03*
X02222D03*
Y01736D03*
X03936D03*
Y0233D03*
X03079D03*
Y01736D03*
X0379Y02722D03*
X03743D03*
X03695D03*
X03648D03*
X0379Y02769D03*
X03743D03*
X03695D03*
X03648D03*
X0379Y02816D03*
X03743D03*
X03695D03*
X03648D03*
X0379Y02864D03*
X03743D03*
X03695D03*
X03648D03*
G54D34*
X02705Y02628D02*
X03403D01*
X03436Y02661*
X03521Y02991D02*
X03648Y02864D01*
X0152Y02875D02*
X01521Y02876D01*
X0152Y02683D02*
Y02875D01*
X03466Y02991D02*
X03521D01*
X03945Y03018D02*
X03969Y02994D01*
X03673Y03018D02*
X03945D01*
X03654Y03037D02*
X03673Y03018D01*
X03265Y02781D02*
X03366Y02681D01*
X03571Y03037D02*
X03654D01*
X03956Y02578D02*
Y02823D01*
X0392Y02542D02*
X03956Y02578D01*
X03875Y02542D02*
X0392D01*
X027Y03021D02*
Y03125D01*
X02648Y02969D02*
X027Y03021D01*
X02366Y02969D02*
X02648D01*
X02288Y02891D02*
X02366Y02969D01*
X01819Y02889D02*
X01822Y02892D01*
X01819Y02738D02*
Y02889D01*
Y02738D02*
X01854Y02703D01*
X03757Y01942D02*
X03758D01*
X03692D02*
X03757D01*
X02716Y0273D02*
X02867D01*
X02927Y0267*
X03273*
X02796Y02781D02*
X03265D01*
X0275Y02827D02*
X02796Y02781D01*
X02713Y02827D02*
X0275D01*
X01645Y02868D02*
X01718Y0294D01*
X01645Y0268D02*
Y02868D01*
X01366Y01736D02*
Y02314D01*
X01362Y02318D02*
X01366Y02314D01*
Y0233*
X02222Y02314D02*
Y0233D01*
X02218Y02318D02*
X02222Y02314D01*
Y01736D02*
Y02314D01*
X03936Y01736D02*
Y02314D01*
X03932Y02318D02*
X03936Y02314D01*
Y0233*
X03079Y02314D02*
Y0233D01*
X03075Y02318D02*
X03079Y02314D01*
Y01736D02*
Y02314D01*
X03795Y02542D02*
X03875D01*
X03764Y02511D02*
X03795Y02542D01*
X03613Y02511D02*
X03764D01*
X03573Y02551D02*
X03613Y02511D01*
X02165Y02548D02*
X02168Y02551D01*
X03573*
G54D35*
X04081Y025D02*
X04213Y02632D01*
X03811Y025D02*
X04081D01*
X03744Y02434D02*
X03811Y025D01*
X04129Y03001D02*
X04188D01*
X04213Y02977*
Y02632D02*
Y02977D01*
X03744Y02297D02*
Y02434D01*
X03638Y02191D02*
X03744Y02297D01*
X03638Y01995D02*
Y02191D01*
Y01995D02*
X03692Y01942D01*
X03639Y01889D02*
X03692Y01942D01*
X03639Y01646D02*
Y01889D01*
X03594Y01601D02*
X03639Y01646D01*
X02987Y01601D02*
X03594D01*
X02966Y01622D02*
X02987Y01601D01*
X02966Y01622D02*
Y01877D01*
X02901Y01942D02*
X02966Y01877D01*
X02836Y01942D02*
X02901D01*
X02783Y01889D02*
X02836Y01942D01*
X02783Y01646D02*
Y01889D01*
X02738Y01601D02*
X02783Y01646D01*
X0213Y01601D02*
X02738D01*
X0211Y01622D02*
X0213Y01601D01*
X0211Y01622D02*
Y01877D01*
X02045Y01942D02*
X0211Y01877D01*
X01187Y01942D02*
X01251Y01877D01*
Y01622D02*
Y01877D01*
Y01622D02*
X01272Y01601D01*
X01879*
X01925Y01646*
Y01889*
X01977Y01942*
X02043*
X01231Y02407D02*
Y0309D01*
X01074Y0225D02*
X01231Y02407D01*
X01074Y02091D02*
Y0225D01*
G54D36*
X03721Y02797D03*
M02*