%FSTAX23Y23*%
%MOIN*%
%SFA1B1*%

%IPPOS*%
%ADD10R,0.043310X0.055120*%
%ADD11R,0.055120X0.043310*%
%ADD12R,0.079000X0.059000*%
%ADD13R,0.079000X0.150000*%
%ADD14R,0.040000X0.050000*%
%ADD15R,0.137800X0.047240*%
%ADD16R,0.050000X0.036000*%
%ADD17R,0.036000X0.036000*%
%ADD18R,0.050000X0.040000*%
%ADD19R,0.023620X0.061020*%
%ADD20O,0.013780X0.082680*%
%ADD21R,0.177160X0.177160*%
%ADD22O,0.009840X0.029530*%
%ADD23O,0.029530X0.009840*%
%ADD24C,0.010000*%
%ADD25C,0.025000*%
%ADD26R,0.062000X0.062000*%
%ADD27C,0.062000*%
%ADD28C,0.053150*%
%ADD29R,0.053150X0.053150*%
%ADD30R,0.062000X0.062000*%
%ADD31C,0.129920*%
%ADD32C,0.065000*%
%ADD33C,0.030000*%
%LNboard_pcb-1*%
%LPD*%
G36*
X04432Y01424D02*
X01007Y01423D01*
X01Y0143*
Y03198*
X04432*
Y01424*
G37*
%LNboard_pcb-2*%
%LPC*%
G36*
X01366Y01759D02*
X01357Y01757D01*
X01349Y01752*
X01344Y01745*
X01342Y01736*
X01344Y01727*
X01349Y01719*
X01352Y01717*
Y01707*
X01353Y01702*
X01356Y01698*
X01358Y01696*
X01372Y01682*
X01376Y0168*
X01381Y01679*
X0143*
X01432Y01672*
X01439Y01664*
X01447Y01658*
X01456Y01654*
X01466Y01652*
X01477Y01654*
X01486Y01658*
X01494Y01664*
X01501Y01672*
X01504Y01682*
X01506Y01692*
X01504Y01702*
X01501Y01711*
X01494Y0172*
X01486Y01726*
X01477Y0173*
X01466Y01731*
X01456Y0173*
X01447Y01726*
X01439Y0172*
X01432Y01711*
X0143Y01705*
X01387*
X01384Y01708*
X01382Y01719*
X01387Y01727*
X01389Y01736*
X01387Y01745*
X01382Y01752*
X01375Y01757*
X01366Y01759*
G37*
G36*
X04136Y01731D02*
X04126Y0173D01*
X04117Y01726*
X04109Y0172*
X04102Y01711*
X04098Y01702*
X04097Y01692*
X04098Y01682*
X04102Y01672*
X04109Y01664*
X04115Y01659*
Y01524*
X04097*
Y01446*
X04175*
Y01524*
X04157*
Y01659*
X04164Y01664*
X0417Y01672*
X04174Y01682*
X04176Y01692*
X04174Y01702*
X0417Y01711*
X04164Y0172*
X04156Y01726*
X04146Y0173*
X04136Y01731*
G37*
G36*
X03079Y01759D02*
X0307Y01757D01*
X03063Y01752*
X03058Y01745*
X03056Y01736*
X03058Y01727*
X03063Y01719*
X03066Y01717*
Y01707*
X03067Y01702*
X0307Y01698*
X03072Y01696*
X03086Y01682*
X0309Y0168*
X03095Y01679*
X03143*
X03146Y01672*
X03152Y01664*
X0316Y01658*
X0317Y01654*
X0318Y01652*
X0319Y01654*
X032Y01658*
X03208Y01664*
X03214Y01672*
X03218Y01682*
X03219Y01692*
X03218Y01702*
X03214Y01711*
X03208Y0172*
X032Y01726*
X0319Y0173*
X0318Y01731*
X0317Y0173*
X0316Y01726*
X03152Y0172*
X03146Y01711*
X03143Y01705*
X031*
X03097Y01708*
X03096Y01719*
X03101Y01727*
X03103Y01736*
X03101Y01745*
X03096Y01752*
X03088Y01757*
X03079Y01759*
G37*
G36*
X02222D02*
X02213Y01757D01*
X02205Y01752*
X022Y01745*
X02198Y01736*
X022Y01727*
X02205Y01719*
X02209Y01717*
Y01707*
X0221Y01702*
X02213Y01698*
X02214Y01696*
X02228Y01682*
X0223Y01681*
X02233Y0168*
X02235Y01679*
X02238Y01679*
X02286*
X02289Y01672*
X02295Y01664*
X02303Y01658*
X02313Y01654*
X02323Y01652*
X02333Y01654*
X02342Y01658*
X02351Y01664*
X02357Y01672*
X02361Y01682*
X02362Y01692*
X02361Y01702*
X02357Y01711*
X02351Y0172*
X02342Y01726*
X02333Y0173*
X02323Y01731*
X02313Y0173*
X02303Y01726*
X02295Y0172*
X02289Y01711*
X02286Y01705*
X02243*
X0224Y01708*
X02239Y01719*
X02244Y01727*
X02245Y01736*
X02244Y01745*
X02239Y01752*
X02231Y01757*
X02222Y01759*
G37*
G36*
X0328Y01731D02*
X0327Y0173D01*
X0326Y01726*
X03252Y0172*
X03246Y01711*
X03242Y01702*
X03241Y01692*
X03242Y01682*
X03246Y01672*
X03252Y01664*
X03259Y01659*
Y01524*
X03241*
Y01446*
X03319*
Y01524*
X03301*
Y01659*
X03308Y01664*
X03314Y01672*
X03318Y01682*
X03319Y01692*
X03318Y01702*
X03314Y01711*
X03308Y0172*
X033Y01726*
X0329Y0173*
X0328Y01731*
G37*
G36*
X02279Y02732D02*
X02247D01*
Y02705*
X02279*
Y02732*
G37*
G36*
X02327Y0293D02*
X02249D01*
Y02871*
X02232Y02854*
X02229Y0285*
X02228Y02845*
Y02825*
X02206*
Y02768*
X02204*
Y02742*
X02279*
Y02768*
X02277*
Y02783*
X0229*
X02304Y02769*
Y02725*
X02399*
Y028*
X0231*
X02305Y02805*
X02301Y02808*
X02296Y02809*
X02277*
Y02825*
X02255*
Y02839*
X02268Y02852*
X02327*
Y0293*
G37*
G36*
X02423Y01731D02*
X02413Y0173D01*
X02403Y01726*
X02395Y0172*
X02389Y01711*
X02385Y01702*
X02383Y01692*
X02385Y01682*
X02389Y01672*
X02395Y01664*
X02402Y01659*
Y01524*
X02384*
Y01446*
X02462*
Y01524*
X02444*
Y01659*
X02451Y01664*
X02457Y01672*
X02461Y01682*
X02462Y01692*
X02461Y01702*
X02457Y01711*
X02451Y0172*
X02442Y01726*
X02433Y0173*
X02423Y01731*
G37*
G36*
X02237Y02732D02*
X02204D01*
Y02705*
X02237*
Y02732*
G37*
G36*
X02896Y02719D02*
X0287D01*
Y02686*
X02896*
Y02719*
G37*
G36*
X02346Y02667D02*
X02302D01*
Y02632*
X02346*
Y02667*
G37*
G36*
X02401D02*
X02356D01*
Y02632*
X02401*
Y02667*
G37*
G36*
X01868Y02623D02*
X01843D01*
Y02593*
X01868*
Y02623*
G37*
G36*
X01903D02*
X01878D01*
Y02593*
X01903*
Y02623*
G37*
G36*
X03936Y01759D02*
X03927Y01757D01*
X03919Y01752*
X03914Y01745*
X03912Y01736*
X03914Y01727*
X03919Y01719*
X03922Y01717*
Y01707*
X03923Y01702*
X03926Y01698*
X03928Y01696*
X03942Y01682*
X03946Y0168*
X03951Y01679*
X04*
X04002Y01672*
X04009Y01664*
X04017Y01658*
X04026Y01654*
X04036Y01652*
X04046Y01654*
X04056Y01658*
X04064Y01664*
X0407Y01672*
X04074Y01682*
X04076Y01692*
X04074Y01702*
X0407Y01711*
X04064Y0172*
X04056Y01726*
X04046Y0173*
X04036Y01731*
X04026Y0173*
X04017Y01726*
X04009Y0172*
X04002Y01711*
X04Y01705*
X03957*
X03953Y01708*
X03952Y01719*
X03957Y01727*
X03959Y01736*
X03957Y01745*
X03952Y01752*
X03945Y01757*
X03936Y01759*
G37*
G36*
X02346Y02711D02*
X02302D01*
Y02677*
X02346*
Y02711*
G37*
G36*
X02401D02*
X02356D01*
Y02677*
X02401*
Y02711*
G37*
G36*
X02236Y02692D02*
X02203D01*
Y02665*
X02236*
Y02692*
G37*
G36*
X02278D02*
X02246D01*
Y02665*
X02278*
Y02692*
G37*
G36*
X01516Y02871D02*
X01497D01*
X01498Y02867*
X01503Y02858*
X01511Y02853*
X01516Y02852*
Y02871*
G37*
G36*
X01546D02*
X01526D01*
Y02852*
X01531Y02853*
X01539Y02858*
X01545Y02867*
X01546Y02871*
G37*
G36*
X02117Y02887D02*
X02082D01*
X02082Y02881*
X02086Y02871*
X02093Y02863*
X02102Y02856*
X02112Y02852*
X02117Y02851*
Y02887*
G37*
G36*
X02163D02*
X02127D01*
Y02851*
X02133Y02852*
X02143Y02856*
X02151Y02863*
X02158Y02871*
X02162Y02881*
X02163Y02887*
G37*
G36*
X01718Y02964D02*
X01709Y02962D01*
X01701Y02957*
X01696Y02949*
X01695Y0294*
X01696Y02931*
X01701Y02924*
X01709Y02919*
X01718Y02917*
X01722Y02918*
X01757Y02883*
X01761Y0288*
X01766Y02879*
X01783*
Y02853*
X01861*
Y02931*
X01783*
Y02905*
X01772*
X01741Y02937*
X01741Y0294*
X0174Y02949*
X01735Y02957*
X01727Y02962*
X01718Y02964*
G37*
G36*
X0338Y01731D02*
X0337Y0173D01*
X0336Y01726*
X03352Y0172*
X03346Y01711*
X03342Y01702*
X03341Y01692*
X03342Y01682*
X03346Y01672*
X03352Y01664*
X03359Y01659*
Y01519*
X03359Y01519*
X03351Y01512*
X03344Y01504*
X0334Y01495*
X03339Y01485*
X0334Y01474*
X03344Y01465*
X03351Y01457*
X03359Y0145*
X03368Y01447*
X03378Y01445*
X03389Y01447*
X03398Y0145*
X03406Y01457*
X03413Y01465*
X03416Y01474*
X03418Y01485*
X03416Y01495*
X03413Y01504*
X03406Y01512*
X03401Y01516*
Y01659*
X03408Y01664*
X03414Y01672*
X03418Y01682*
X03419Y01692*
X03418Y01702*
X03414Y01711*
X03408Y0172*
X034Y01726*
X0339Y0173*
X0338Y01731*
G37*
G36*
X02523D02*
X02513Y0173D01*
X02503Y01726*
X02495Y0172*
X02489Y01711*
X02485Y01702*
X02483Y01692*
X02485Y01682*
X02489Y01672*
X02495Y01664*
X02502Y01659*
Y01519*
X02501Y01519*
X02493Y01512*
X02487Y01504*
X02483Y01495*
X02482Y01485*
X02483Y01474*
X02487Y01465*
X02493Y01457*
X02501Y0145*
X02511Y01447*
X02521Y01445*
X02531Y01447*
X02541Y0145*
X02549Y01457*
X02555Y01465*
X02559Y01474*
X0256Y01485*
X02559Y01495*
X02555Y01504*
X02549Y01512*
X02544Y01516*
Y01659*
X02551Y01664*
X02557Y01672*
X02561Y01682*
X02562Y01692*
X02561Y01702*
X02557Y01711*
X02551Y0172*
X02542Y01726*
X02533Y0173*
X02523Y01731*
G37*
G36*
X04124Y02896D02*
X04089D01*
X04089Y02891*
X04094Y02881*
X041Y02872*
X04109Y02866*
X04119Y02862*
X04124Y02861*
Y02896*
G37*
G36*
X0417D02*
X04134D01*
Y02861*
X0414Y02862*
X0415Y02866*
X04159Y02872*
X04165Y02881*
X04169Y02891*
X0417Y02896*
G37*
G36*
X02488Y02931D02*
X02478Y02929D01*
X02468Y02925*
X0246Y02919*
X02454Y02911*
X0245Y02901*
X02449Y02891*
X0245Y02881*
X02454Y02872*
X0246Y02863*
X02468Y02857*
X02475Y02855*
X02476Y0285*
X02479Y02845*
X02502Y02822*
X02498Y02812*
X02443*
X02408Y02847*
X02408Y0285*
X0241Y02859*
X02416Y02863*
X02422Y02872*
X02426Y02881*
X02427Y02891*
X02426Y02901*
X02422Y02911*
X02416Y02919*
X02408Y02925*
X02398Y02929*
X02388Y02931*
X02378Y02929*
X02368Y02925*
X0236Y02919*
X02354Y02911*
X0235Y02901*
X02349Y02891*
X0235Y02881*
X02354Y02872*
X0236Y02863*
X02368Y02857*
X02375Y02855*
Y02848*
X02376Y02843*
X02379Y02839*
X02428Y02789*
X02432Y02786*
X02437Y02785*
X02653*
X02665Y02773*
Y02745*
X02666Y0274*
X02669Y02735*
X02684Y0272*
X02688Y02718*
X02693Y02717*
X02697*
X02699Y02713*
X02707Y02708*
X02716Y02706*
X02725Y02708*
X02733Y02713*
X02738Y02721*
X02739Y0273*
X02738Y02739*
X02733Y02746*
X02725Y02751*
X02716Y02753*
X02707Y02751*
X02701Y02747*
X02694Y0275*
X02692Y02752*
Y02778*
X02691Y02783*
X02688Y02788*
X02672Y02804*
X02676Y02814*
X02694*
X02697Y02811*
X02704Y02806*
X02713Y02804*
X02722Y02806*
X0273Y02811*
X02735Y02818*
X02737Y02827*
X02735Y02836*
X0273Y02844*
X02722Y02849*
X02713Y02851*
X02704Y02849*
X02697Y02844*
X02694Y02841*
X026*
X02593Y02847*
X02593Y02851*
X02599Y02851*
X02602Y02853*
X02609Y02855*
X02617Y02862*
X02624Y02871*
X02628Y02881*
X02629Y02886*
X02547*
X02548Y02881*
X02552Y02871*
X02559Y02862*
X02567Y02855*
X02574Y02853*
X02577Y02851*
X02583Y02851*
X02583Y02847*
X02576Y02841*
X02521*
X02512Y02849*
X02514Y02862*
X02516Y02863*
X02522Y02872*
X02526Y02881*
X02527Y02891*
X02526Y02901*
X02522Y02911*
X02516Y02919*
X02508Y02925*
X02498Y02929*
X02488Y02931*
G37*
G36*
X04236Y01731D02*
X04226Y0173D01*
X04217Y01726*
X04209Y0172*
X04202Y01711*
X04198Y01702*
X04197Y01692*
X04198Y01682*
X04202Y01672*
X04209Y01664*
X04215Y01659*
Y01519*
X04215Y01519*
X04207Y01512*
X04201Y01504*
X04197Y01495*
X04195Y01485*
X04197Y01474*
X04201Y01465*
X04207Y01457*
X04215Y0145*
X04225Y01447*
X04235Y01445*
X04245Y01447*
X04254Y0145*
X04263Y01457*
X04269Y01465*
X04273Y01474*
X04274Y01485*
X04273Y01495*
X04269Y01504*
X04263Y01512*
X04257Y01516*
Y01659*
X04264Y01664*
X0427Y01672*
X04274Y01682*
X04276Y01692*
X04274Y01702*
X0427Y01711*
X04264Y0172*
X04256Y01726*
X04246Y0173*
X04236Y01731*
G37*
G36*
X02091Y0279D02*
X02059D01*
Y02758*
X02091*
Y0279*
G37*
G36*
X02896Y02761D02*
X0287D01*
Y02729*
X02896*
Y02761*
G37*
G36*
X01566Y01731D02*
X01556Y0173D01*
X01547Y01726*
X01539Y0172*
X01532Y01711*
X01528Y01702*
X01527Y01692*
X01528Y01682*
X01532Y01672*
X01539Y01664*
X01546Y01659*
Y01524*
X01527*
Y01446*
X01605*
Y01524*
X01587*
Y01659*
X01594Y01664*
X01601Y01672*
X01604Y01682*
X01606Y01692*
X01604Y01702*
X01601Y01711*
X01594Y0172*
X01586Y01726*
X01577Y0173*
X01566Y01731*
G37*
G36*
X02133Y0279D02*
X02101D01*
Y02758*
X02133*
Y0279*
G37*
G36*
X02091Y02831D02*
X02059D01*
Y028*
X02091*
Y02831*
G37*
G36*
X02133D02*
X02101D01*
Y028*
X02133*
Y02831*
G37*
G36*
X03989Y03163D02*
X03848D01*
X03843Y03162*
X03839Y03159*
X03798Y03119*
X03795Y03115*
X03794Y0311*
Y03003*
X03791Y02999*
X03783Y02993*
X03778Y02993*
X03773Y02993*
X03768Y02994*
X03763Y02993*
X03758Y02993*
X03754Y02993*
X03749Y02994*
X03743Y02993*
X03739Y02993*
X03734Y02993*
X03729Y02994*
X03724Y02993*
X03719Y02993*
X03714Y02993*
X03709Y02994*
X03704Y02993*
X03699Y02993*
X03695Y02993*
X03689Y02994*
X03684Y02993*
X0368Y02993*
X03675Y02993*
X0367Y02994*
X03665Y02993*
X0366Y02993*
X03655Y02993*
X0365Y02994*
X03645Y02993*
X0364Y02993*
X03635Y02993*
X0363Y02994*
X03625Y02993*
X03621Y02993*
X03616Y02993*
X03611Y02994*
X03606Y02993*
X03601Y02993*
X03596Y02993*
X03588Y02999*
X03585Y03003*
Y03018*
X03588Y0302*
X03593Y03028*
X03595Y03037*
X03593Y03046*
X03588Y03053*
X0358Y03059*
X03571Y0306*
X03562Y03059*
X03555Y03053*
X0355Y03046*
X03548Y03037*
X0355Y03028*
X03555Y0302*
X03558Y03018*
Y02971*
Y02964*
X03551Y02956*
X03546*
Y0294*
X03536*
Y02956*
X03531*
X03525Y02955*
X0352Y02951*
X03517Y02946*
X03516Y0294*
X03507Y02934*
X03461*
X03456Y02933*
X03451Y0293*
X03417Y02896*
X03407Y029*
Y0292*
X03375*
Y02925*
X0337*
Y02962*
X03344*
Y0296*
X0333*
Y02987*
X03377Y03035*
X03452*
Y03098*
X03298*
Y03035*
X03327*
X03331Y03026*
X03307Y03002*
X03304Y02998*
X03303Y02993*
Y0296*
X03287*
Y02889*
X03303*
Y02881*
X03304Y02876*
X03306Y02874*
X03303Y02864*
X03234*
X0323Y02867*
Y02889*
X03247*
Y0296*
X0323*
Y02997*
X03229Y03002*
X03226Y03006*
X03207Y03026*
X0321Y03035*
X03235*
Y03098*
X03082*
Y03035*
X0316*
X03204Y02991*
Y0296*
X0319*
Y02962*
X03163*
Y02925*
Y02887*
X0319*
Y02889*
X03204*
Y02862*
X03205Y02857*
X03208Y02852*
X03208Y02852*
X03204Y02842*
X03162*
X03157Y02841*
X03153Y02839*
X03119Y02805*
X03116Y02801*
X03115Y02796*
Y02739*
X03061*
X03061Y02743*
X03057Y02751*
X03052Y02758*
X03045Y02764*
X03036Y02767*
X03027Y02769*
X03018Y02767*
X0301Y02764*
X03002Y02758*
X02997Y02751*
X02993Y02743*
X02992Y02734*
X02993Y02725*
X02995Y02721*
X02989Y02715*
X02986Y0271*
X02985Y02705*
Y02687*
X0294Y02642*
X02904*
Y02658*
X02833*
Y02599*
Y02583*
X02816*
Y02599*
Y02658*
X02803*
X02799Y02668*
X02815Y02684*
X02818Y02688*
Y02688*
X02833*
Y02686*
X0286*
Y02724*
Y02761*
X02833*
Y02759*
X02819*
Y02777*
X02834Y02792*
X02838Y02791*
X02847Y02789*
X02856Y02791*
X02864Y02794*
X02872Y028*
X02877Y02807*
X02881Y02815*
X02882Y02824*
X02881Y02833*
X02877Y02842*
X02872Y02849*
X02864Y02855*
X02856Y02858*
X02847Y02859*
X02838Y02858*
X0283Y02855*
X02822Y02849*
X02817Y02842*
X02813Y02833*
X02812Y02824*
X02813Y02815*
X02815Y02811*
X02796Y02792*
X02793Y02788*
X02792Y02783*
Y02759*
X02776*
Y02688*
X02773Y02679*
X02771Y02677*
X02768Y02673*
X02767Y02668*
Y02658*
X02744*
Y02642*
X02724*
X02722Y02645*
X02714Y0265*
X02705Y02652*
X02696Y0265*
X02689Y02645*
X02684Y02637*
X02682Y02628*
X02684Y02619*
X02689Y02612*
X02696Y02607*
X02705Y02605*
X02714Y02607*
X02722Y02612*
X02724Y02615*
X02744*
Y02599*
Y02583*
X02654*
X02647Y02589*
Y02593*
Y02755*
X02552*
Y02593*
Y02589*
X02544Y02583*
X02473*
X02466Y0259*
X02462Y02593*
X02457Y02594*
X02399*
Y02618*
X02304*
Y02616*
X02294Y02612*
X02292Y02613*
X02287Y02614*
X02276*
Y02628*
X02278*
Y02655*
X02203*
Y02628*
X02205*
Y02607*
X02169Y0257*
X02165Y02571*
X02156Y02569*
X02148Y02564*
X02143Y02557*
X02141Y02548*
X02143Y02539*
X02148Y02531*
X02156Y02526*
X02165Y02524*
X02174Y02526*
X02181Y02531*
X02187Y02539*
X02188Y02548*
X02188Y02552*
X02207Y02571*
X02276*
Y02579*
X02286Y02583*
X02298Y02571*
X02302Y02569*
X02304Y02568*
Y02543*
X02399*
Y02567*
X02451*
X02459Y0256*
X02463Y02557*
X02468Y02556*
X02744*
Y02546*
X02711*
X02706Y02545*
X02702Y02542*
X02643Y02482*
X0264Y02478*
X02639Y02473*
Y02469*
X02629Y02464*
X02608Y02485*
X02604Y02488*
X02599Y02489*
X02337*
X02332Y02488*
X02327Y02485*
X02323Y02481*
X02322Y02481*
X0232Y02483*
X02318Y02484*
X02315Y02485*
X02313Y02485*
X02234*
Y025*
X02163*
Y0244*
Y02381*
X02185*
Y02354*
X02186Y02349*
X02189Y02344*
X02199Y02334*
X02198Y0233*
X022Y02321*
X02205Y02314*
X02213Y02309*
X02222Y02307*
X02231Y02309*
X02239Y02314*
X02239Y02314*
X0225Y02315*
X0228Y02285*
Y02273*
X02267*
Y02221*
X02319*
Y02234*
X02343*
X02369Y02207*
X02373Y02205*
X02378Y02204*
X0239*
Y02189*
X02409*
Y02177*
X02388Y02156*
X02385Y02152*
X02384Y02147*
Y02117*
X02378*
Y0204*
X02418*
Y02117*
X02411*
Y02141*
X02427Y02158*
X02435Y02152*
X02434Y02147*
Y02117*
X02428*
Y0204*
X02468*
Y02117*
X02461*
Y02141*
X02473Y02154*
X02493*
X02496Y02144*
X02488Y02136*
X02485Y02132*
X02484Y02127*
Y02117*
X02478*
Y0204*
X02499*
X02503Y0203*
X02493Y02021*
X0236*
X02306Y02074*
Y02146*
X02319*
Y02198*
X02267*
Y02146*
X0228*
Y02074*
X02262Y02056*
X0208*
X02077Y02061*
X02071Y0207*
X02063Y02076*
X02053Y0208*
X02043Y02081*
X02033Y0208*
X02024Y02076*
X02015Y0207*
X02009Y02061*
X02005Y02052*
X02004Y02042*
X02005Y02032*
X02009Y02022*
X02015Y02014*
X02024Y02008*
X02033Y02004*
X02043Y02002*
X02053Y02004*
X02063Y02008*
X02071Y02014*
X02077Y02022*
X0208Y0203*
X02183*
X02187Y0202*
X02184Y02016*
X02182Y02014*
X02181Y02012*
X0218Y0201*
X0218Y02007*
Y01993*
X02165*
Y01975*
X02143*
X02138Y01974*
X02134Y01971*
X02118Y01955*
X0208*
X02077Y01961*
X02071Y0197*
X02063Y01976*
X02053Y0198*
X02043Y01981*
X02033Y0198*
X02024Y01976*
X02015Y0197*
X02009Y01961*
X02006Y01955*
X01991*
X01986Y01954*
X01982Y01951*
X0198Y0195*
X0197Y01954*
Y01956*
X01899*
Y01899*
X01897*
Y01873*
X01972*
Y01899*
X0197*
Y01913*
X01976*
X01981Y01914*
X01985Y01917*
X01997Y01929*
X02006*
X02009Y01922*
X02015Y01914*
X02024Y01908*
X02033Y01904*
X02043Y01902*
X02053Y01904*
X02063Y01908*
X02071Y01914*
X02077Y01922*
X0208Y01929*
X02123*
X02128Y0193*
X02133Y01932*
X02149Y01949*
X02165*
Y01927*
X0218*
Y01893*
X02165*
Y01827*
X02221*
Y01893*
X02206*
Y01927*
X02221*
Y01993*
X02217Y02003*
X02218Y02004*
X0229*
X02291Y02003*
X02286Y01993*
X02245*
Y01927*
X02301*
Y01947*
X02316*
X02343Y0192*
Y01823*
X02335Y01819*
X02333Y01819*
X02301Y0185*
Y01893*
X02245*
Y01827*
X02287*
X02337Y01777*
X0234Y01775*
X02341Y01774*
X02346Y01773*
X02489*
X02494Y01774*
X02499Y01777*
X02507Y01786*
X0251Y0179*
X02511Y01795*
Y01819*
X02512Y0182*
X02521Y01826*
X02526Y01825*
X02526*
X02527*
X02543*
Y01866*
Y01906*
X02527*
X02526*
X02526*
X02518Y01904*
X02515Y01914*
X02523Y01922*
X02636*
X02641Y01923*
X02645Y01926*
X0269Y01971*
X02693Y01975*
X02694Y0198*
Y02466*
X02728Y02501*
X03011*
X0302Y025*
Y02491*
Y0244*
Y02381*
X03042*
Y02354*
X03043Y02349*
X03046Y02344*
X03057Y02334*
X03056Y0233*
X03058Y02321*
X03063Y02314*
X0307Y02309*
X03079Y02307*
X03088Y02309*
X03096Y02314*
X03096Y02314*
X03107Y02315*
X03137Y02285*
Y02273*
X03124*
Y02221*
X03176*
Y02234*
X032*
X03226Y02207*
X0323Y02205*
X03235Y02204*
X03247*
Y02189*
X03267*
Y02177*
X03246Y02156*
X03243Y02152*
X03242Y02147*
Y02117*
X03235*
Y0204*
X03275*
Y02117*
X03268*
Y02141*
X03285Y02158*
X03293Y02152*
X03292Y02147*
Y02117*
X03285*
Y0204*
X03325*
Y02117*
X03318*
Y02141*
X03331Y02154*
X0335*
X03354Y02144*
X03346Y02136*
X03343Y02132*
X03342Y02127*
Y02117*
X03335*
Y0204*
X03356*
X0336Y0203*
X0335Y02021*
X03217*
X03164Y02074*
Y02146*
X03176*
Y02198*
X03124*
Y02146*
X03137*
Y02074*
X03119Y02056*
X02937*
X02935Y02061*
X02928Y0207*
X0292Y02076*
X02911Y0208*
X029Y02081*
X0289Y0208*
X02881Y02076*
X02873Y0207*
X02866Y02061*
X02862Y02052*
X02861Y02042*
X02862Y02032*
X02866Y02022*
X02873Y02014*
X02881Y02008*
X0289Y02004*
X029Y02002*
X02911Y02004*
X0292Y02008*
X02928Y02014*
X02935Y02022*
X02938Y0203*
X03038*
X03042Y0202*
X03041Y02018*
X03038Y02014*
X03037Y02009*
Y01995*
X03022*
Y01975*
X03*
X02995Y01974*
X02991Y01971*
X02975Y01955*
X02937*
X02935Y01961*
X02928Y0197*
X0292Y01976*
X02911Y0198*
X029Y01981*
X0289Y0198*
X02881Y01976*
X02873Y0197*
X02866Y01961*
X02864Y01955*
X02848*
X02843Y01954*
X02839Y01951*
X02837Y0195*
X02827Y01954*
Y01956*
X02756*
Y01899*
X02754*
Y01873*
X02829*
Y01899*
X02827*
Y01913*
X02833*
X02838Y01914*
X02843Y01917*
X02854Y01929*
X02864*
X02866Y01922*
X02873Y01914*
X02881Y01908*
X0289Y01904*
X029Y01902*
X02911Y01904*
X0292Y01908*
X02928Y01914*
X02935Y01922*
X02937Y01929*
X0298*
X02986Y0193*
X0299Y01932*
X03006Y01949*
X03022*
Y01929*
X03037*
Y01895*
X03022*
Y01829*
X03078*
Y01895*
X03064*
Y01929*
X03078*
Y01995*
X03075Y02005*
X03075Y02006*
X03148*
X03148Y02005*
X03143Y01995*
X03102*
Y01929*
X03158*
Y01949*
X03173*
X032Y01922*
Y01825*
X03193Y01821*
X0319Y01821*
X03158Y01852*
Y01895*
X03102*
Y01829*
X03145*
X03194Y01779*
X03198Y01776*
X03204Y01775*
X03347*
X03352Y01776*
X03356Y01779*
X03364Y01788*
X03367Y01792*
X03368Y01797*
Y01819*
X03369Y0182*
X03378Y01826*
X03383Y01825*
X03383*
X03384*
X034*
Y01866*
Y01906*
X03384*
X03383*
X03383*
X03374Y01904*
X03373*
X03373*
X0337Y01914*
X0338Y01924*
X03493*
X03498Y01925*
X03502Y01928*
X03547Y01973*
X0355Y01977*
X03551Y01982*
Y02429*
X03572Y0245*
X03692*
X03697Y02451*
X03702Y02454*
X03778Y0253*
X0378Y02534*
X03781Y02539*
Y02583*
X03785Y02587*
X03793Y02593*
X03798Y02593*
X03803Y02593*
X03808Y02592*
X03813Y02593*
X03817Y02593*
X03822Y02593*
X03831Y02587*
X03834Y02583*
Y02571*
X03835Y02566*
X03838Y02562*
X03852Y02547*
X03851Y02542*
X03853Y02533*
X03858Y02525*
X03866Y0252*
X03875Y02518*
X03883Y0252*
X03891Y02525*
X03896Y02533*
X03898Y02542*
X03896Y02551*
X03891Y02558*
X03883Y02563*
X03875Y02565*
X03872Y02565*
X0386Y02577*
Y02583*
X03867Y02592*
X03872Y02593*
X03876Y02596*
X03879Y026*
X0388Y02605*
Y02624*
X03881Y02626*
X03886Y02631*
X03888Y02632*
X03907*
X03912Y02633*
X03913Y02634*
X03916Y02636*
X03919Y0264*
X03919Y02641*
X03919Y02641*
X0392Y02642*
X0392Y02645*
X03919Y0265*
X03919Y02651*
X03919Y02655*
X03919Y02659*
X03919Y0266*
X0392Y02665*
X0392Y02668*
X03919Y02669*
X03921Y02679*
X03921Y02679*
X03921Y0268*
X03897*
Y0269*
X03921*
X03921Y0269*
X03921Y02691*
X03919Y027*
X0392Y02701*
X0392Y02704*
X0392Y02707*
X0392Y0271*
X03921Y02711*
X03934Y02711*
X03944Y02702*
Y02585*
X03945Y0258*
X03948Y02576*
X04017Y02507*
X04021Y02504*
X04026Y02503*
X04317*
X04324Y02495*
X04318Y02488*
X04317Y02488*
X04312Y02489*
X0405*
X04045Y02488*
X04041Y02485*
X04036Y02481*
X04036Y02481*
X04031Y02484*
X04026Y02485*
X03947*
Y025*
X03876*
Y0244*
Y02381*
X03899*
Y02354*
X039Y02349*
X03903Y02344*
X03913Y02334*
X03912Y0233*
X03914Y02321*
X03919Y02314*
X03927Y02309*
X03936Y02307*
X03945Y02309*
X03952Y02314*
X03953Y02314*
X03963Y02315*
X03994Y02285*
Y02273*
X03981*
Y02221*
X04033*
Y02234*
X04056*
X04082Y02207*
X04087Y02205*
X04092Y02204*
X04103*
Y02189*
X04123*
Y02177*
X04102Y02156*
X04099Y02152*
X04098Y02147*
Y02117*
X04092*
Y0204*
X04131*
Y02117*
X04125*
Y02141*
X04141Y02158*
X04149Y02152*
X04148Y02147*
Y02117*
X04142*
Y0204*
X04181*
Y02117*
X04175*
Y02141*
X04187Y02154*
X04206*
X0421Y02144*
X04202Y02136*
X04199Y02132*
X04198Y02127*
Y02117*
X04192*
Y0204*
X04212*
X04216Y0203*
X04206Y02021*
X04074*
X0402Y02074*
Y02146*
X04033*
Y02198*
X03981*
Y02146*
X03994*
Y02074*
X03975Y02056*
X03793*
X03791Y02061*
X03785Y0207*
X03776Y02076*
X03767Y0208*
X03757Y02081*
X03747Y0208*
X03737Y02076*
X03729Y0207*
X03723Y02061*
X03719Y02052*
X03717Y02042*
X03719Y02032*
X03723Y02022*
X03729Y02014*
X03737Y02008*
X03747Y02004*
X03757Y02002*
X03767Y02004*
X03776Y02008*
X03785Y02014*
X03791Y02022*
X03794Y0203*
X03896*
X039Y0202*
X03897Y02016*
X03894Y02012*
X03893Y02007*
Y01993*
X03879*
Y01975*
X03857*
X03852Y01974*
X03847Y01971*
X03831Y01955*
X03794*
X03791Y01961*
X03785Y0197*
X03776Y01976*
X03767Y0198*
X03757Y01981*
X03747Y0198*
X03737Y01976*
X03729Y0197*
X03723Y01961*
X0372Y01955*
X03705*
X03702Y01955*
X037Y01954*
X03697Y01953*
X03695Y01951*
X03694Y0195*
X03684Y01954*
Y01956*
X03613*
Y01899*
X03611*
Y01873*
X03686*
Y01899*
X03684*
Y01913*
X03689*
X03692Y01914*
X03695Y01914*
X03697Y01916*
X03699Y01917*
X0371Y01929*
X0372*
X03723Y01922*
X03729Y01914*
X03737Y01908*
X03747Y01904*
X03757Y01902*
X03767Y01904*
X03776Y01908*
X03785Y01914*
X03791Y01922*
X03794Y01929*
X03837*
X03842Y0193*
X03846Y01932*
X03862Y01949*
X03879*
Y01927*
X03894*
Y01893*
X03879*
Y01827*
X03935*
Y01893*
X0392*
Y01927*
X03935*
Y01993*
X03931Y02003*
X03932Y02004*
X04004*
X04005Y02003*
X03999Y01993*
X03959*
Y01927*
X04015*
Y01947*
X04029*
X04056Y0192*
Y01823*
X04049Y01819*
X04046Y01819*
X04015Y0185*
Y01893*
X03959*
Y01827*
X04001*
X0405Y01777*
X04053Y01775*
X04055Y01774*
X0406Y01773*
X04203*
X04205Y01774*
X04208Y01774*
X0421Y01776*
X04212Y01777*
X04221Y01786*
X04222Y01787*
X04224Y0179*
X04224Y01792*
X04225Y01795*
Y01819*
X04226Y0182*
X04235Y01826*
X0424Y01825*
X0424*
X0424*
X04256*
Y01866*
Y01906*
X0424*
X0424*
X0424*
X04231Y01904*
X04228Y01914*
X04236Y01922*
X04349*
X04354Y01923*
X04359Y01926*
X04404Y01971*
X04406Y01975*
X04407Y0198*
Y02498*
X04406Y02503*
X04404Y02507*
X04355Y02555*
X04351Y02558*
X04346Y02559*
X04053*
X03994Y02618*
Y02728*
X03993Y02733*
X0399Y02737*
X03955Y02773*
X0395Y02776*
X03945Y02777*
X03929*
X03925Y0278*
X03919Y02788*
X03919Y02793*
X03919Y02798*
X03925Y02806*
X03929Y02809*
X03939Y02808*
X0394Y02807*
X03947Y02802*
X03956Y028*
X03965Y02802*
X03973Y02807*
X03978Y02814*
X0398Y02823*
X03978Y02832*
X03973Y0284*
X03965Y02845*
X03956Y02847*
X03947Y02845*
X0394Y0284*
X03938Y02838*
X03928Y02837*
X03925Y02839*
X03919Y02847*
X03919Y02852*
X03919Y02857*
X0392Y02862*
X03919Y02867*
X03919Y02872*
X03919Y02876*
X0392Y02881*
X03919Y02886*
X03919Y02891*
X03919Y02895*
X03919Y02896*
X0392Y02901*
X0392Y02904*
X03919Y02905*
X03921Y02915*
X03921Y02915*
X03922Y02921*
X03931Y02927*
X03978*
X04Y02905*
Y02762*
X04001Y02757*
X04004Y02753*
X04065Y02692*
X04069Y02689*
X04074Y02688*
X04093*
X04095Y02682*
X04102Y02674*
X0411Y02667*
X04119Y02663*
X04129Y02662*
X0414Y02663*
X04149Y02667*
X04157Y02674*
X04163Y02682*
X04167Y02691*
X04169Y02701*
X04167Y02712*
X04163Y02721*
X04157Y02729*
X04149Y02736*
X0414Y02739*
X04129Y02741*
X04119Y02739*
X0411Y02736*
X04102Y02729*
X04095Y02721*
X04093Y02715*
X0408*
X04027Y02768*
Y02911*
X04026Y02916*
X04023Y0292*
X03993Y0295*
X03989Y02953*
X03984Y02954*
X03897*
X03897Y02954*
X03887*
X0388Y02962*
Y02971*
Y0301*
X03887Y03017*
X0392Y02984*
X03925Y02981*
X0393Y0298*
X03951*
X03953Y02978*
X03961Y02972*
X03969Y02971*
X03978Y02972*
X03986Y02978*
X03991Y02985*
X03993Y02994*
X03991Y03003*
X03986Y03011*
X03978Y03016*
X03969Y03018*
X03961Y03016*
X03953Y03011*
X0395Y03007*
X03935*
X0392Y03022*
X03924Y03032*
X03943*
Y03069*
Y03107*
X03917*
Y03105*
X0386*
Y03034*
X03857Y03025*
X03854Y03021*
X03853Y03016*
Y03003*
X03847Y02994*
X03842Y02993*
X03839Y02991*
X03838Y02992*
X03833Y02995*
X03827Y02996*
X03821Y03005*
Y03104*
X03853Y03137*
X03983*
X04039Y03081*
Y02816*
X0404Y02811*
X04043Y02807*
X04058Y02792*
X04063Y02789*
X04068Y02788*
X04093*
X04095Y02782*
X04102Y02774*
X0411Y02767*
X04119Y02763*
X04129Y02762*
X0414Y02763*
X04149Y02767*
X04157Y02774*
X04163Y02782*
X04167Y02791*
X04169Y02801*
X04167Y02812*
X04163Y02821*
X04157Y02829*
X04149Y02836*
X0414Y02839*
X04129Y02841*
X04119Y02839*
X0411Y02836*
X04102Y02829*
X04095Y02821*
X04093Y02815*
X04073*
X04066Y02822*
Y03086*
X04065Y03091*
X04062Y03095*
X03998Y03159*
X03994Y03162*
X03989Y03163*
G37*
G36*
X01635Y02826D02*
X01609D01*
Y02794*
X01635*
Y02826*
G37*
G36*
X02787Y01863D02*
X02754D01*
Y01836*
X02787*
Y01863*
G37*
G36*
X02829D02*
X02797D01*
Y01836*
X02829*
Y01863*
G37*
G36*
X0193D02*
X01897D01*
Y01836*
X0193*
Y01863*
G37*
G36*
X01972D02*
X0194D01*
Y01836*
X01972*
Y01863*
G37*
G36*
X03643D02*
X03611D01*
Y01836*
X03643*
Y01863*
G37*
G36*
X01228Y01883D02*
X01192D01*
Y01847*
X01228*
Y01883*
G37*
G36*
X02038D02*
X02002D01*
Y01847*
X02038*
Y01883*
G37*
G36*
X03686Y01863D02*
X03653D01*
Y01836*
X03686*
Y01863*
G37*
G36*
X01182Y01883D02*
X01146D01*
Y01847*
X01182*
Y01883*
G37*
G36*
X01116Y01863D02*
X01083D01*
Y01836*
X01116*
Y01863*
G37*
G36*
X03752Y01837D02*
X03716D01*
Y01801*
X03752*
Y01837*
G37*
G36*
X03798D02*
X03762D01*
Y01801*
X03798*
Y01837*
G37*
G36*
X02895D02*
X02859D01*
Y01801*
X02895*
Y01837*
G37*
G36*
X02941D02*
X02905D01*
Y01801*
X02941*
Y01837*
G37*
G36*
X01713Y01861D02*
X01696D01*
Y01825*
X01713*
Y01861*
G37*
G36*
X04283D02*
X04266D01*
Y01825*
X04283*
Y01861*
G37*
G36*
X01073Y01863D02*
X01041D01*
Y01836*
X01073*
Y01863*
G37*
G36*
X0257Y01861D02*
X02553D01*
Y01825*
X0257*
Y01861*
G37*
G36*
X03427D02*
X0341D01*
Y01825*
X03427*
Y01861*
G37*
G36*
X02084Y01883D02*
X02048D01*
Y01847*
X02084*
Y01883*
G37*
G36*
X01868Y02583D02*
X01843D01*
Y02553*
X01868*
Y02583*
G37*
G36*
X01903D02*
X01878D01*
Y02553*
X01903*
Y02583*
G37*
G36*
X03103Y02236D02*
X03037D01*
Y02223*
X0303*
X03025Y02222*
X0302Y02219*
X02956Y02155*
X02937*
X02935Y02161*
X02928Y0217*
X0292Y02176*
X02911Y0218*
X029Y02181*
X0289Y0218*
X02881Y02176*
X02873Y0217*
X02866Y02161*
X02862Y02152*
X02861Y02142*
X02862Y02132*
X02866Y02122*
X02873Y02114*
X02881Y02108*
X0289Y02104*
X029Y02102*
X02911Y02104*
X0292Y02108*
X02928Y02114*
X02935Y02122*
X02937Y02129*
X02962*
X02967Y0213*
X02971Y02132*
X03027Y02189*
X03037Y02185*
Y02184*
X03103*
Y02236*
G37*
G36*
X0396D02*
X03894D01*
Y02223*
X03886*
X03881Y02222*
X03877Y02219*
X03812Y02155*
X03794*
X03791Y02161*
X03785Y0217*
X03776Y02176*
X03767Y0218*
X03757Y02181*
X03747Y0218*
X03737Y02176*
X03729Y0217*
X03723Y02161*
X03719Y02152*
X03717Y02142*
X03719Y02132*
X03723Y02122*
X03729Y02114*
X03737Y02108*
X03747Y02104*
X03757Y02102*
X03767Y02104*
X03776Y02108*
X03785Y02114*
X03791Y02122*
X03794Y02129*
X03818*
X03823Y0213*
X03827Y02132*
X03884Y02189*
X03894Y02185*
Y02184*
X0396*
Y02236*
G37*
G36*
X01954Y02744D02*
X01943Y02743D01*
X01933Y02739*
X01925Y02732*
X01918Y02724*
X01914Y02714*
X01913Y02703*
X01914Y02693*
X01918Y02683*
X01925Y02674*
X01933Y02668*
X0194Y02665*
Y02621*
X01925*
Y02555*
X01981*
Y02621*
X01967*
Y02665*
X01974Y02668*
X01983Y02674*
X01989Y02683*
X01993Y02693*
X01995Y02703*
X01993Y02714*
X01989Y02724*
X01983Y02732*
X01974Y02739*
X01964Y02743*
X01954Y02744*
G37*
G36*
X01228Y01837D02*
X01192D01*
Y01801*
X01228*
Y01837*
G37*
G36*
X01182D02*
X01146D01*
Y01801*
X01182*
Y01837*
G37*
G36*
X02084D02*
X02048D01*
Y01801*
X02084*
Y01837*
G37*
G36*
X02038D02*
X02002D01*
Y01801*
X02038*
Y01837*
G37*
G36*
X02246Y02236D02*
X0218D01*
Y02223*
X02172*
X02167Y02222*
X02163Y02219*
X02099Y02155*
X0208*
X02077Y02161*
X02071Y0217*
X02063Y02176*
X02053Y0218*
X02043Y02181*
X02033Y0218*
X02024Y02176*
X02015Y0217*
X02009Y02161*
X02005Y02152*
X02004Y02142*
X02005Y02132*
X02009Y02122*
X02015Y02114*
X02024Y02108*
X02033Y02104*
X02043Y02102*
X02053Y02104*
X02063Y02108*
X02071Y02114*
X02077Y02122*
X0208Y02129*
X02104*
X02109Y0213*
X02114Y02132*
X0217Y02189*
X0218Y02185*
Y02184*
X02246*
Y02236*
G37*
G36*
X03752Y01883D02*
X03716D01*
Y01847*
X03752*
Y01883*
G37*
G36*
X03798D02*
X03762D01*
Y01847*
X03798*
Y01883*
G37*
G36*
X02895D02*
X02859D01*
Y01847*
X02895*
Y01883*
G37*
G36*
X02941D02*
X02905D01*
Y01847*
X02941*
Y01883*
G37*
G36*
X01696Y01906D02*
Y01871D01*
X01713*
Y01906*
X01696*
G37*
G36*
X04266D02*
Y01871D01*
X04283*
Y01906*
X04266*
G37*
G36*
X0139Y02236D02*
X01324D01*
Y02223*
X01316*
X01311Y02222*
X01307Y02219*
X01243Y02155*
X01224*
X01221Y02161*
X01215Y0217*
X01207Y02176*
X01197Y0218*
X01187Y02181*
X01177Y0218*
X01167Y02176*
X01159Y0217*
X01153Y02161*
X01149Y02152*
X01148Y02142*
X01149Y02132*
X01153Y02122*
X01159Y02114*
X01167Y02108*
X01177Y02104*
X01187Y02102*
X01197Y02104*
X01207Y02108*
X01215Y02114*
X01221Y02122*
X01224Y02129*
X01248*
X01253Y0213*
X01257Y02132*
X01314Y02189*
X01324Y02185*
Y02184*
X0139*
Y02236*
G37*
G36*
X02553Y01906D02*
Y01871D01*
X0257*
Y01906*
X02553*
G37*
G36*
X0341D02*
Y01871D01*
X03427*
Y01906*
X0341*
G37*
G36*
X01666Y01731D02*
X01656Y0173D01*
X01647Y01726*
X01639Y0172*
X01632Y01711*
X01628Y01702*
X01627Y01692*
X01628Y01682*
X01632Y01672*
X01639Y01664*
X01646Y01659*
Y01519*
X01645Y01519*
X01637Y01512*
X01631Y01504*
X01627Y01495*
X01626Y01485*
X01627Y01474*
X01631Y01465*
X01637Y01457*
X01645Y0145*
X01655Y01447*
X01665Y01445*
X01675Y01447*
X01685Y0145*
X01693Y01457*
X01699Y01465*
X01703Y01474*
X01704Y01485*
X01703Y01495*
X01699Y01504*
X01693Y01512*
X01687Y01516*
Y01659*
X01694Y01664*
X01701Y01672*
X01704Y01682*
X01706Y01692*
X01704Y01702*
X01701Y01711*
X01694Y0172*
X01686Y01726*
X01677Y0173*
X01666Y01731*
G37*
G36*
X0398Y03107D02*
X03953D01*
Y03074*
X0398*
Y03107*
G37*
G36*
X027Y03165D02*
X0269Y03164D01*
X0268Y0316*
X02671Y03153*
X02665Y03145*
X02661Y03135*
X02659Y03125*
X02661Y03114*
X02665Y03104*
X02671Y03096*
X0268Y03089*
X0269Y03085*
X027Y03084*
X02711Y03085*
X02721Y03089*
X02729Y03096*
X02736Y03104*
X0274Y03114*
X02741Y03125*
X0274Y03135*
X02736Y03145*
X02729Y03153*
X02721Y0316*
X02711Y03164*
X027Y03165*
G37*
G36*
X02527Y03081D02*
Y03045D01*
X02563*
X02562Y03051*
X02558Y03061*
X02552Y03069*
X02543Y03076*
X02533Y0308*
X02527Y03081*
G37*
G36*
X01727D02*
Y03045D01*
X01763*
X01762Y03051*
X01758Y03061*
X01752Y03069*
X01743Y03076*
X01733Y0308*
X01727Y03081*
G37*
G36*
X02517D02*
X02512Y0308D01*
X02502Y03076*
X02493Y03069*
X02487Y03061*
X02482Y03051*
X02482Y03045*
X02517*
Y03081*
G37*
G36*
X01517Y03135D02*
X01482D01*
X01482Y03129*
X01487Y03119*
X01493Y03111*
X01502Y03104*
X01512Y031*
X01517Y03099*
Y03135*
G37*
G36*
X01563D02*
X01527D01*
Y03099*
X01533Y031*
X01543Y03104*
X01552Y03111*
X01558Y03119*
X01562Y03129*
X01563Y03135*
G37*
G36*
X028Y03165D02*
X0279Y03164D01*
X0278Y0316*
X02771Y03153*
X02765Y03145*
X02761Y03135*
X02759Y03125*
X02761Y03114*
X02765Y03104*
X02771Y03096*
X0278Y03089*
X0279Y03085*
X028Y03084*
X02811Y03085*
X02821Y03089*
X02829Y03096*
X02836Y03104*
X02838Y0311*
X02896*
Y03091*
X02952*
Y03157*
X02896*
Y03137*
X02839*
X02836Y03145*
X02829Y03153*
X02821Y0316*
X02811Y03164*
X028Y03165*
G37*
G36*
X02999Y03119D02*
X02974D01*
Y03089*
X02999*
Y03119*
G37*
G36*
X03034D02*
X03009D01*
Y03089*
X03034*
Y03119*
G37*
G36*
X02322Y03079D02*
X02312Y03078D01*
X02303Y03074*
X02295Y03068*
X02288Y0306*
X02284Y0305*
X02283Y0304*
X02284Y0303*
X02288Y0302*
X02295Y03012*
X02303Y03006*
X02312Y03002*
X02322Y03001*
X02333Y03002*
X02342Y03006*
X0235Y03012*
X02356Y0302*
X0236Y0303*
X02362Y0304*
X0236Y0305*
X02356Y0306*
X0235Y03068*
X02342Y03074*
X02333Y03078*
X02322Y03079*
G37*
G36*
X02422D02*
X02412Y03078D01*
X02403Y03074*
X02395Y03068*
X02388Y0306*
X02384Y0305*
X02383Y0304*
X02384Y0303*
X02388Y0302*
X02395Y03012*
X02403Y03006*
X02412Y03002*
X02422Y03001*
X02433Y03002*
X02442Y03006*
X0245Y03012*
X02456Y0302*
X0246Y0303*
X02462Y0304*
X0246Y0305*
X02456Y0306*
X0245Y03068*
X02442Y03074*
X02433Y03078*
X02422Y03079*
G37*
G36*
X02222D02*
X02212Y03078D01*
X02203Y03074*
X02195Y03068*
X02188Y0306*
X02184Y0305*
X02183Y0304*
X02184Y0303*
X02188Y0302*
X02195Y03012*
X02203Y03006*
X02212Y03002*
X02222Y03001*
X02233Y03002*
X02242Y03006*
X0225Y03012*
X02256Y0302*
X0226Y0303*
X02262Y0304*
X0226Y0305*
X02256Y0306*
X0225Y03068*
X02242Y03074*
X02233Y03078*
X02222Y03079*
G37*
G36*
X02022D02*
X02012Y03078D01*
X02003Y03074*
X01995Y03068*
X01988Y0306*
X01984Y0305*
X01983Y0304*
X01984Y0303*
X01988Y0302*
X01995Y03012*
X02003Y03006*
X02012Y03002*
X02022Y03001*
X02033Y03002*
X02042Y03006*
X0205Y03012*
X02056Y0302*
X0206Y0303*
X02062Y0304*
X0206Y0305*
X02056Y0306*
X0205Y03068*
X02042Y03074*
X02033Y03078*
X02022Y03079*
G37*
G36*
X02122D02*
X02112Y03078D01*
X02103Y03074*
X02095Y03068*
X02088Y0306*
X02084Y0305*
X02083Y0304*
X02084Y0303*
X02088Y0302*
X02095Y03012*
X02103Y03006*
X02112Y03002*
X02122Y03001*
X02133Y03002*
X02142Y03006*
X0215Y03012*
X02156Y0302*
X0216Y0303*
X02162Y0304*
X0216Y0305*
X02156Y0306*
X0215Y03068*
X02142Y03074*
X02133Y03078*
X02122Y03079*
G37*
G36*
X0398Y03064D02*
X03953D01*
Y03032*
X0398*
Y03064*
G37*
G36*
X01717Y03081D02*
X01712Y0308D01*
X01702Y03076*
X01693Y03069*
X01687Y03061*
X01682Y03051*
X01682Y03045*
X01717*
Y03081*
G37*
G36*
X02884Y03058D02*
X02852D01*
Y03026*
X02884*
Y03058*
G37*
G36*
X01361Y03079D02*
X01283D01*
Y03001*
X01361*
Y03079*
G37*
G36*
X02842Y03058D02*
X0281D01*
Y03026*
X02842*
Y03058*
G37*
G36*
X01917Y03135D02*
X01882D01*
X01882Y03129*
X01887Y03119*
X01893Y03111*
X01902Y03104*
X01912Y031*
X01917Y03099*
Y03135*
G37*
G36*
X03034Y03159D02*
X03009D01*
Y03129*
X03034*
Y03159*
G37*
G36*
X01517Y03181D02*
X01512Y0318D01*
X01502Y03176*
X01493Y03169*
X01487Y03161*
X01482Y03151*
X01482Y03145*
X01517*
Y03181*
G37*
G36*
X02999Y03159D02*
X02974D01*
Y03129*
X02999*
Y03159*
G37*
G36*
X02422Y03179D02*
X02412Y03178D01*
X02403Y03174*
X02395Y03168*
X02388Y0316*
X02384Y0315*
X02383Y0314*
X02384Y0313*
X02388Y0312*
X02395Y03112*
X02403Y03106*
X02412Y03102*
X02422Y03101*
X02433Y03102*
X02442Y03106*
X0245Y03112*
X02456Y0312*
X0246Y0313*
X02462Y0314*
X0246Y0315*
X02456Y0316*
X0245Y03168*
X02442Y03174*
X02433Y03178*
X02422Y03179*
G37*
G36*
X02522D02*
X02512Y03178D01*
X02503Y03174*
X02495Y03168*
X02488Y0316*
X02484Y0315*
X02483Y0314*
X02484Y0313*
X02488Y0312*
X02495Y03112*
X02503Y03106*
X02512Y03102*
X02522Y03101*
X02533Y03102*
X02542Y03106*
X0255Y03112*
X02556Y0312*
X0256Y0313*
X02562Y0314*
X0256Y0315*
X02556Y0316*
X0255Y03168*
X02542Y03174*
X02533Y03178*
X02522Y03179*
G37*
G36*
X02217Y03181D02*
X02212Y0318D01*
X02202Y03176*
X02193Y03169*
X02187Y03161*
X02182Y03151*
X02182Y03145*
X02217*
Y03181*
G37*
G36*
X02227D02*
Y03145D01*
X02263*
X02262Y03151*
X02258Y03161*
X02252Y03169*
X02243Y03176*
X02233Y0318*
X02227Y03181*
G37*
G36*
X01927D02*
Y03145D01*
X01963*
X01962Y03151*
X01958Y03161*
X01952Y03169*
X01943Y03176*
X01933Y0318*
X01927Y03181*
G37*
G36*
X01527D02*
Y03145D01*
X01563*
X01562Y03151*
X01558Y03161*
X01552Y03169*
X01543Y03176*
X01533Y0318*
X01527Y03181*
G37*
G36*
X01917D02*
X01912Y0318D01*
X01902Y03176*
X01893Y03169*
X01887Y03161*
X01882Y03151*
X01882Y03145*
X01917*
Y03181*
G37*
G36*
X01148Y03185D02*
X01138Y03184D01*
X01128Y0318*
X01119Y03173*
X01113Y03165*
X01109Y03155*
X01108Y03153*
X01107Y03152*
X01104Y03148*
X01103Y03143*
X01104Y03138*
X01107Y03133*
X01109Y03132*
X01113Y03124*
X01119Y03115*
X01128Y03109*
X01138Y03105*
X01148Y03103*
X01159Y03105*
X01169Y03109*
X01177Y03115*
X01184Y03124*
X01186Y0313*
X01203*
X01215Y03118*
X01214Y03107*
X01209Y03099*
X01207Y0309*
X01209Y03081*
X01214Y03073*
X01222Y03068*
X01231Y03067*
X0124Y03068*
X01247Y03073*
X01252Y03081*
X01254Y0309*
X01252Y03099*
X01247Y03107*
X01245Y03108*
X01244Y03118*
X01256Y0313*
X01284*
X01288Y0312*
X01295Y03112*
X01303Y03106*
X01312Y03102*
X01322Y03101*
X01333Y03102*
X01342Y03106*
X0135Y03112*
X01356Y0312*
X0136Y0313*
X01384*
X01388Y0312*
X01395Y03112*
X01403Y03106*
X01412Y03102*
X01422Y03101*
X01433Y03102*
X01442Y03106*
X0145Y03112*
X01456Y0312*
X0146Y0313*
X01462Y0314*
X0146Y0315*
X01456Y0316*
X0145Y03168*
X01442Y03174*
X01433Y03178*
X01422Y03179*
X01412Y03178*
X01403Y03174*
X01395Y03168*
X01388Y0316*
X01387Y03156*
X01358*
X01356Y0316*
X0135Y03168*
X01342Y03174*
X01333Y03178*
X01322Y03179*
X01312Y03178*
X01303Y03174*
X01295Y03168*
X01288Y0316*
X01287Y03156*
X0125*
X01247Y03156*
X0121*
X01208Y03156*
X01187*
X01184Y03165*
X01177Y03173*
X01169Y0318*
X01159Y03184*
X01148Y03185*
G37*
G36*
X01622Y03179D02*
X01612Y03178D01*
X01603Y03174*
X01595Y03168*
X01588Y0316*
X01584Y0315*
X01583Y0314*
X01584Y0313*
X01588Y0312*
X01595Y03112*
X01603Y03106*
X01612Y03102*
X01622Y03101*
X01633Y03102*
X01642Y03106*
X0165Y03112*
X01656Y0312*
X0166Y0313*
X01662Y0314*
X0166Y0315*
X01656Y0316*
X0165Y03168*
X01642Y03174*
X01633Y03178*
X01622Y03179*
G37*
G36*
X02263Y03135D02*
X02227D01*
Y03099*
X02233Y031*
X02243Y03104*
X02252Y03111*
X02258Y03119*
X02262Y03129*
X02263Y03135*
G37*
G36*
X01963D02*
X01927D01*
Y03099*
X01933Y031*
X01943Y03104*
X01952Y03111*
X01958Y03119*
X01962Y03129*
X01963Y03135*
G37*
G36*
X02217D02*
X02182D01*
X02182Y03129*
X02187Y03119*
X02193Y03111*
X02202Y03104*
X02212Y031*
X02217Y03099*
Y03135*
G37*
G36*
X02122Y03179D02*
X02112Y03178D01*
X02103Y03174*
X02095Y03168*
X02088Y0316*
X02084Y0315*
X02083Y0314*
X02084Y0313*
X02088Y0312*
X02095Y03112*
X02103Y03106*
X02112Y03102*
X02122Y03101*
X02133Y03102*
X02142Y03106*
X0215Y03112*
X02156Y0312*
X0216Y0313*
X02162Y0314*
X0216Y0315*
X02156Y0316*
X0215Y03168*
X02142Y03174*
X02133Y03178*
X02122Y03179*
G37*
G36*
X02322D02*
X02312Y03178D01*
X02303Y03174*
X02295Y03168*
X02288Y0316*
X02284Y0315*
X02283Y0314*
X02284Y0313*
X02288Y0312*
X02295Y03112*
X02303Y03106*
X02312Y03102*
X02322Y03101*
X02333Y03102*
X02342Y03106*
X0235Y03112*
X02356Y0312*
X0236Y0313*
X02362Y0314*
X0236Y0315*
X02356Y0316*
X0235Y03168*
X02342Y03174*
X02333Y03178*
X02322Y03179*
G37*
G36*
X02022D02*
X02012Y03178D01*
X02003Y03174*
X01995Y03168*
X01988Y0316*
X01984Y0315*
X01983Y0314*
X01984Y0313*
X01988Y0312*
X01995Y03112*
X02003Y03106*
X02012Y03102*
X02022Y03101*
X02033Y03102*
X02042Y03106*
X0205Y03112*
X02056Y0312*
X0206Y0313*
X02062Y0314*
X0206Y0315*
X02056Y0316*
X0205Y03168*
X02042Y03174*
X02033Y03178*
X02022Y03179*
G37*
G36*
X01722D02*
X01712Y03178D01*
X01703Y03174*
X01695Y03168*
X01688Y0316*
X01684Y0315*
X01683Y0314*
X01684Y0313*
X01688Y0312*
X01695Y03112*
X01703Y03106*
X01712Y03102*
X01722Y03101*
X01733Y03102*
X01742Y03106*
X0175Y03112*
X01756Y0312*
X0176Y0313*
X01762Y0314*
X0176Y0315*
X01756Y0316*
X0175Y03168*
X01742Y03174*
X01733Y03178*
X01722Y03179*
G37*
G36*
X01822D02*
X01812Y03178D01*
X01803Y03174*
X01795Y03168*
X01788Y0316*
X01784Y0315*
X01783Y0314*
X01784Y0313*
X01788Y0312*
X01795Y03112*
X01803Y03106*
X01812Y03102*
X01822Y03101*
X01833Y03102*
X01842Y03106*
X0185Y03112*
X01856Y0312*
X0186Y0313*
X01862Y0314*
X0186Y0315*
X01856Y0316*
X0185Y03168*
X01842Y03174*
X01833Y03178*
X01822Y03179*
G37*
G36*
X03064Y02967D02*
X03032D01*
Y02936*
X03064*
Y02967*
G37*
G36*
X04168Y0304D02*
X0409D01*
Y02962*
X04168*
Y0304*
G37*
G36*
X03022Y02967D02*
X0299D01*
Y02936*
X03022*
Y02967*
G37*
G36*
X03153Y02962D02*
X03126D01*
Y0293*
X03153*
Y02962*
G37*
G36*
X03407D02*
X0338D01*
Y0293*
X03407*
Y02962*
G37*
G36*
X03461Y02986D02*
X03442D01*
X03442Y02981*
X03448Y02973*
X03456Y02967*
X03461Y02966*
Y02986*
G37*
G36*
X02842Y03016D02*
X0281D01*
Y02985*
X02842*
Y03016*
G37*
G36*
X02884D02*
X02852D01*
Y02985*
X02884*
Y03016*
G37*
G36*
X01224Y03003D02*
X01199D01*
Y02973*
X01224*
Y03003*
G37*
G36*
X03491Y02986D02*
X03471D01*
Y02966*
X03476Y02967*
X03484Y02973*
X0349Y02981*
X03491Y02986*
G37*
G36*
X01148Y03085D02*
X01138Y03084D01*
X01128Y0308*
X01119Y03073*
X01113Y03065*
X01109Y03055*
X01107Y03044*
X01109Y03034*
X01112Y03026*
X01103Y03018*
X011Y03014*
X01099Y03009*
Y03001*
X01086*
Y02935*
X01142*
Y02994*
X01146Y03*
X01156Y03002*
X01164Y02995*
Y02973*
X01189*
Y03003*
X01177*
X01174Y03013*
X01177Y03015*
X01184Y03024*
X01188Y03034*
X01189Y03044*
X01188Y03055*
X01184Y03065*
X01177Y03073*
X01169Y0308*
X01159Y03084*
X01148Y03085*
G37*
G36*
X01589Y02982D02*
X01451D01*
X01446Y02981*
X01442Y02978*
X0142Y02957*
X01417Y02952*
X01416Y02947*
Y02928*
X01415Y02926*
X01406Y02921*
X01404Y02921*
X01398Y0292*
X01393Y02917*
X01393Y02917*
X01385Y02922*
X01383Y02922*
Y02872*
Y02819*
X0139Y02815*
X01391Y02813*
Y02804*
X01392Y02799*
X01395Y02794*
X01409Y0278*
X01414Y02777*
X01419Y02776*
X01508*
X01515Y02769*
Y02753*
X01505Y02753*
X01299*
X01296Y02762*
X01337Y02803*
X0134Y02807*
X01341Y02812*
Y02815*
X01342Y02817*
X01351Y02822*
X01353Y02822*
X01359Y02823*
X01364Y02826*
X01372Y02821*
X01373Y02821*
Y02872*
Y02922*
X01372Y02922*
X01364Y02917*
X01359Y0292*
X01353Y02921*
X01347Y0292*
X01342Y02917*
X01338*
X01333Y0292*
X01327Y02921*
X01321Y0292*
X01317Y02917*
X01316Y02917*
X01308Y02922*
X01307Y02922*
Y02872*
X01297*
Y02922*
X01295Y02922*
X01287Y02917*
X01282Y0292*
X01276Y02921*
X0127Y0292*
X01265Y02917*
X01263*
X01258Y02919*
X01256Y0292*
X01255Y0292*
X0125Y02921*
X01245Y0292*
X01238Y02919*
X01231Y0292*
X01225Y02921*
X01221Y0292*
X01219Y0292*
X01219Y0292*
X01212Y02918*
X01208Y02921*
X01207Y02924*
X01206Y02927*
X01211Y02933*
X01224*
Y02963*
X01164*
Y02933*
X01167Y02927*
X01166Y02924*
X01165Y02921*
X01161Y02918*
X01154Y0292*
X01154Y0292*
X01152Y0292*
X01148Y02921*
X01142Y0292*
X01135Y02919*
X01128Y0292*
X01123Y02921*
X01118Y0292*
X01117Y0292*
X01112Y02917*
X01111Y02915*
X01109Y02912*
X01107Y02906*
Y02837*
X01109Y02831*
X01111Y02828*
X01112Y02826*
X01117Y02823*
X01118Y02823*
X01123Y02822*
X01128Y02823*
X01135Y02824*
X01142Y02823*
X01148Y02822*
X01152Y02823*
X01154Y02823*
X01154Y02823*
X01161Y02825*
X01167Y02821*
X01169Y02821*
Y02872*
X01179*
Y02821*
X0118Y02821*
X01187Y02822*
X01193Y02821*
X01194Y02821*
Y02872*
X01204*
Y02821*
X01206Y02821*
X01212Y02825*
X01219Y02823*
X01219Y02823*
X01221Y02823*
X01225Y02822*
X01231Y02823*
X01238Y02824*
X01245Y02823*
X0125Y02822*
X01255Y02823*
X01256Y02823*
X01258Y02824*
X01263Y02826*
X01265*
X0127Y02823*
X01276Y02822*
X01282Y02823*
X01287Y02826*
X01295Y02821*
X01301Y02818*
X01303Y02807*
X01245Y02749*
X0119Y02694*
X01187Y0269*
X01186Y02685*
Y02656*
X01184Y02654*
X01176Y02649*
X01174Y0265*
X01168Y02648*
X01163Y02645*
X01161*
X01156Y02647*
X01154Y02648*
X01152Y02649*
X01148Y0265*
X01142Y02648*
X01135Y02647*
X01128Y02648*
X01123Y0265*
X01118Y02649*
X01117Y02648*
X01112Y02645*
X01111Y02643*
X01109Y0264*
X01107Y02634*
Y02565*
X01109Y0256*
X01109Y02558*
Y02536*
X0111Y02531*
X01113Y02527*
X01139Y02501*
X01143Y02498*
X01148Y02497*
X01306*
Y0244*
Y02381*
X01329*
Y02354*
X0133Y02349*
X01333Y02344*
X01343Y02334*
X01342Y0233*
X01344Y02321*
X01349Y02314*
X01357Y02309*
X01366Y02307*
X01375Y02309*
X01382Y02314*
X01383Y02314*
X01394Y02315*
X01424Y02285*
Y02273*
X01411*
Y02221*
X01463*
Y02234*
X01486*
X01513Y02207*
X01517Y02205*
X01522Y02204*
X01533*
Y02189*
X01553*
Y02177*
X01532Y02156*
X01529Y02152*
X01528Y02147*
Y02117*
X01522*
Y0204*
X01561*
Y02117*
X01555*
Y02141*
X01571Y02158*
X01579Y02152*
X01578Y02147*
Y02117*
X01572*
Y0204*
X01611*
Y02117*
X01605*
Y02141*
X01617Y02154*
X01636*
X0164Y02144*
X01632Y02136*
X01629Y02132*
X01628Y02127*
Y02117*
X01622*
Y0204*
X01642*
X01646Y0203*
X01637Y02021*
X01504*
X0145Y02074*
Y02146*
X01463*
Y02198*
X01411*
Y02146*
X01424*
Y02074*
X01405Y02056*
X01223*
X01221Y02061*
X01215Y0207*
X01207Y02076*
X01197Y0208*
X01187Y02081*
X01177Y0208*
X01167Y02076*
X01159Y0207*
X01153Y02061*
X01149Y02052*
X01148Y02042*
X01149Y02032*
X01153Y02022*
X01159Y02014*
X01167Y02008*
X01177Y02004*
X01187Y02002*
X01197Y02004*
X01207Y02008*
X01215Y02014*
X01221Y02022*
X01224Y0203*
X01325*
X0133Y0202*
X01327Y02017*
X01325Y02013*
X01324Y02008*
Y01995*
X01309*
Y01975*
X01287*
X01282Y01974*
X01278Y01971*
X01261Y01955*
X01224*
X01221Y01961*
X01215Y0197*
X01207Y01976*
X01197Y0198*
X01187Y01981*
X01177Y0198*
X0117Y01977*
X01088Y0206*
Y02072*
X01091Y02074*
X01096Y02082*
X01098Y02091*
X01096Y021*
X01091Y02108*
X01083Y02113*
X01074Y02114*
X01065Y02113*
X01058Y02108*
X01053Y021*
X01051Y02091*
X01053Y02082*
X01058Y02074*
X01061Y02072*
Y02054*
X01062Y02049*
X01065Y02045*
X01145Y01965*
X01141Y01955*
X01135*
X01132Y01955*
X0113Y01954*
X01127Y01953*
X01125Y01951*
X01124Y0195*
X01114Y01954*
Y01956*
X01043*
Y01899*
X01041*
Y01873*
X01116*
Y01899*
X01114*
Y01913*
X0112*
X01122Y01914*
X01125Y01914*
X01127Y01916*
X01129Y01917*
X0114Y01929*
X0115*
X01153Y01922*
X01159Y01914*
X01167Y01908*
X01177Y01904*
X01187Y01902*
X01197Y01904*
X01207Y01908*
X01215Y01914*
X01221Y01922*
X01224Y01929*
X01267*
X01272Y0193*
X01276Y01932*
X01292Y01949*
X01309*
Y01929*
X01324*
Y01895*
X01309*
Y01829*
X01365*
Y01895*
X0135*
Y01929*
X01365*
Y01995*
X01365Y02005*
X01388*
X01389Y01995*
Y01929*
X01445*
Y01949*
X0146*
X01486Y01922*
Y01825*
X01479Y01821*
X01477Y01821*
X01445Y01852*
Y01895*
X01389*
Y01829*
X01431*
X01481Y01779*
X01485Y01776*
X0149Y01775*
X01633*
X01638Y01776*
X01642Y01779*
X01651Y01788*
X01654Y01792*
X01655Y01797*
Y01819*
X01656Y0182*
X01665Y01826*
X0167Y01825*
X0167*
X0167*
X01686*
Y01866*
Y01906*
X0167*
X0167*
X0167*
X0166Y01904*
X0166*
X01659*
X01657Y01914*
X01666Y01924*
X01779*
X01785Y01925*
X01789Y01928*
X01834Y01973*
X01837Y01977*
X01838Y01982*
Y02475*
X01837Y0248*
X01834Y02484*
X01815Y02502*
X01815Y02502*
X0182Y02512*
X02049*
X02054Y02513*
X02058Y02516*
X02105Y02563*
X02107Y02565*
X02113Y02568*
X02121Y02573*
X02126Y0258*
X0213Y02589*
X02131Y02598*
X0213Y02607*
X02126Y02615*
X02121Y02623*
X02113Y02628*
X02105Y02632*
X02096Y02633*
X02087Y02632*
X02079Y02628*
X02071Y02623*
X02066Y02615*
X02062Y02607*
X02061Y02598*
X02062Y02589*
X02066Y0258*
X02071Y02573*
X02072Y02567*
X02043Y02538*
X01822*
X01808Y02552*
X01805Y02561*
Y02633*
X01788*
Y02644*
X01805*
Y02691*
X01814Y02693*
X01818Y02683*
X01825Y02674*
X01833Y02668*
X01843Y02664*
X01854Y02662*
X01864Y02664*
X01874Y02668*
X01883Y02674*
X01889Y02683*
X01893Y02693*
X01895Y02703*
X01893Y02714*
X01889Y02724*
X01883Y02732*
X01874Y02739*
X01864Y02743*
X01854Y02744*
X01843Y02743*
X01833Y02739*
X01825Y02732*
X01818Y02724*
X01814Y02714*
X01805Y02715*
X01787*
X01784Y02719*
X01754Y02749*
X0175Y02752*
X01745Y02753*
X01635*
Y02784*
X01604*
Y02789*
X01599*
Y02826*
X01572*
Y02824*
X01515*
Y02802*
X01426*
X01419Y0281*
X0142Y02818*
X01426Y02822*
X01429Y02822*
X0143Y02822*
X01435Y02823*
X01442Y02824*
X01449Y02823*
X01455Y02822*
X01459Y02823*
X01461Y02823*
X01466Y02826*
X01467Y02828*
X01469Y02831*
X0147Y02837*
Y02906*
X01469Y02912*
X01468Y02913*
Y02915*
X01478Y02925*
X01567*
X01714Y02779*
X01718Y02776*
X01723Y02775*
X01968*
X01973Y02776*
X01977Y02779*
X02032Y02833*
X02034Y02837*
X02035Y02842*
Y02855*
X02042Y02858*
X0205Y02864*
X02056Y02872*
X0206Y02882*
X02062Y02892*
X0206Y02902*
X02056Y02912*
X0205Y0292*
X02042Y02926*
X02032Y0293*
X02022Y02931*
X02012Y0293*
X02003Y02926*
X01994Y0292*
X01988Y02912*
X01984Y02902*
X01983Y02892*
X01984Y02882*
X01988Y02872*
X01994Y02864*
X02003Y02858*
X02006Y02856*
X02007Y02846*
X01963Y02801*
X01927*
X01923Y02811*
X01932Y02819*
X01934Y02824*
X01935Y02829*
Y02855*
X01942Y02858*
X0195Y02864*
X01956Y02872*
X0196Y02882*
X01962Y02892*
X0196Y02902*
X01956Y02912*
X0195Y0292*
X01942Y02926*
X01932Y0293*
X01922Y02931*
X01912Y0293*
X01903Y02926*
X01894Y0292*
X01888Y02912*
X01884Y02902*
X01883Y02892*
X01884Y02882*
X01888Y02872*
X01894Y02864*
X01903Y02858*
X01909Y02855*
Y02834*
X01903Y02829*
X01748*
X01598Y02978*
X01594Y02981*
X01589Y02982*
G37*
G36*
X03022Y02926D02*
X0299D01*
Y02894*
X03022*
Y02926*
G37*
G36*
X03064D02*
X03032D01*
Y02894*
X03064*
Y02926*
G37*
G36*
X03153Y0292D02*
X03126D01*
Y02887*
X03153*
Y0292*
G37*
G36*
X01516Y02901D02*
X01511Y029D01*
X01503Y02894*
X01498Y02886*
X01497Y02881*
X01516*
Y02901*
G37*
G36*
X01526D02*
Y02881D01*
X01546*
X01545Y02886*
X01539Y02894*
X01531Y029*
X01526Y02901*
G37*
G36*
X02583Y02932D02*
X02577Y02931D01*
X02567Y02927*
X02559Y0292*
X02552Y02912*
X02548Y02902*
X02547Y02896*
X02583*
Y02932*
G37*
G36*
X04124Y02942D02*
X04119Y02941D01*
X04109Y02937*
X041Y02931*
X04094Y02922*
X04089Y02912*
X04089Y02906*
X04124*
Y02942*
G37*
G36*
X04134D02*
Y02906D01*
X0417*
X04169Y02912*
X04165Y02922*
X04159Y02931*
X0415Y02937*
X0414Y02941*
X04134Y02942*
G37*
G36*
X02127Y02933D02*
Y02897D01*
X02163*
X02162Y02903*
X02158Y02913*
X02151Y02921*
X02143Y02928*
X02133Y02932*
X02127Y02933*
G37*
G36*
X02593Y02932D02*
Y02896D01*
X02629*
X02628Y02902*
X02624Y02912*
X02617Y0292*
X02609Y02927*
X02599Y02931*
X02593Y02932*
G37*
G36*
X02117Y02933D02*
X02112Y02932D01*
X02102Y02928*
X02093Y02921*
X02086Y02913*
X02082Y02903*
X02082Y02897*
X02117*
Y02933*
G37*
G36*
X01622Y03079D02*
X01612Y03078D01*
X01603Y03074*
X01595Y03068*
X01588Y0306*
X01584Y0305*
X01583Y0304*
X01584Y0303*
X01588Y0302*
X01595Y03012*
X01603Y03006*
X01612Y03002*
X01622Y03001*
X01633Y03002*
X01642Y03006*
X0165Y03012*
X01656Y0302*
X0166Y0303*
X01662Y0304*
X0166Y0305*
X01656Y0306*
X0165Y03068*
X01642Y03074*
X01633Y03078*
X01622Y03079*
G37*
G36*
X01522D02*
X01512Y03078D01*
X01503Y03074*
X01495Y03068*
X01488Y0306*
X01484Y0305*
X01483Y0304*
X01484Y0303*
X01488Y0302*
X01495Y03012*
X01503Y03006*
X01512Y03002*
X01522Y03001*
X01533Y03002*
X01542Y03006*
X0155Y03012*
X01556Y0302*
X0156Y0303*
X01562Y0304*
X0156Y0305*
X01556Y0306*
X0155Y03068*
X01542Y03074*
X01533Y03078*
X01522Y03079*
G37*
G36*
X03471Y03015D02*
Y02996D01*
X03491*
X0349Y03*
X03484Y03009*
X03476Y03014*
X03471Y03015*
G37*
G36*
X01717Y03035D02*
X01682D01*
X01682Y03029*
X01687Y03019*
X01693Y03011*
X01702Y03004*
X01712Y03*
X01717Y02999*
Y03035*
G37*
G36*
X01763D02*
X01727D01*
Y02999*
X01733Y03*
X01743Y03004*
X01752Y03011*
X01758Y03019*
X01762Y03029*
X01763Y03035*
G37*
G36*
X02517D02*
X02482D01*
X02482Y03029*
X02487Y03019*
X02493Y03011*
X02502Y03004*
X02512Y03*
X02517Y02999*
Y03035*
G37*
G36*
X01422Y03079D02*
X01412Y03078D01*
X01403Y03074*
X01395Y03068*
X01388Y0306*
X01384Y0305*
X01383Y0304*
X01384Y0303*
X01388Y0302*
X01395Y03012*
X01403Y03006*
X01412Y03002*
X01422Y03001*
X01433Y03002*
X01442Y03006*
X0145Y03012*
X01456Y0302*
X0146Y0303*
X01462Y0304*
X0146Y0305*
X01456Y0306*
X0145Y03068*
X01442Y03074*
X01433Y03078*
X01422Y03079*
G37*
G36*
X02563Y03035D02*
X02527D01*
Y02999*
X02533Y03*
X02543Y03004*
X02552Y03011*
X02558Y03019*
X02562Y03029*
X02563Y03035*
G37*
G36*
X01822Y03079D02*
X01812Y03078D01*
X01803Y03074*
X01795Y03068*
X01788Y0306*
X01784Y0305*
X01783Y0304*
X01784Y0303*
X01788Y0302*
X01795Y03012*
X01803Y03006*
X01812Y03002*
X01822Y03001*
X01833Y03002*
X01842Y03006*
X0185Y03012*
X01856Y0302*
X0186Y0303*
X01862Y0304*
X0186Y0305*
X01856Y0306*
X0185Y03068*
X01842Y03074*
X01833Y03078*
X01822Y03079*
G37*
G36*
X01922D02*
X01912Y03078D01*
X01903Y03074*
X01895Y03068*
X01888Y0306*
X01884Y0305*
X01883Y0304*
X01884Y0303*
X01888Y0302*
X01895Y03012*
X01903Y03006*
X01912Y03002*
X01922Y03001*
X01933Y03002*
X01942Y03006*
X0195Y03012*
X01956Y0302*
X0196Y0303*
X01962Y0304*
X0196Y0305*
X01956Y0306*
X0195Y03068*
X01942Y03074*
X01933Y03078*
X01922Y03079*
G37*
G36*
X03461Y03015D02*
X03456Y03014D01*
X03448Y03009*
X03442Y03*
X03442Y02996*
X03461*
Y03015*
G37*
%LNboard_pcb-3*%
%LPD*%
G36*
X01228Y03123D02*
X01227Y03124D01*
X01203Y03148*
X01252*
X01228Y03123*
G37*
G36*
X01634Y01984D02*
X01632Y01984D01*
X01629Y01983*
X01625Y0198*
X01582Y01938*
X0158Y01935*
X01579Y01933*
X01579Y01931*
X01578Y01928*
Y01904*
X01572*
Y01838*
X01566Y01835*
X01561Y01838*
Y01904*
X01555*
Y01951*
X01554Y01956*
X01551Y0196*
X01527Y01984*
X01527Y01985*
X0153Y01994*
X01634*
X01634Y01984*
G37*
G36*
X04223Y01946D02*
X04221Y01945D01*
X04202Y01925*
X04199Y01921*
X04198Y01916*
Y01904*
X04192*
Y01827*
X04198*
Y018*
X04197Y018*
X04173*
X04169Y01809*
X04171Y0181*
X04174Y01815*
X04175Y0182*
Y01827*
X04181*
Y01904*
X04175*
Y01921*
X0421Y01956*
X0422*
X04223Y01946*
G37*
G36*
X02507Y01956D02*
X0251Y01947D01*
X0251Y01946*
X02508Y01945*
X02488Y01925*
X02487Y01923*
X02485Y01921*
X02485Y01918*
X02484Y01916*
Y01904*
X02478*
Y01827*
X02484*
Y018*
X02484Y018*
X0246*
X02456Y01809*
X02457Y0181*
X0246Y01815*
X02461Y0182*
Y01827*
X02468*
Y01904*
X02461*
Y01921*
X02496Y01956*
X02507*
X02507*
G37*
G36*
X03364Y01958D02*
X03367Y01948D01*
X03367Y01948*
X03365Y01946*
X03346Y01927*
X03344Y01925*
X03343Y01923*
X03342Y01921*
X03342Y01918*
Y01904*
X03335*
Y01827*
X03342*
Y01802*
X03341Y01802*
X03317*
X03313Y01811*
X03314Y01812*
X03317Y01817*
X03318Y01822*
Y01827*
X03325*
Y01904*
X03318*
Y01923*
X03353Y01958*
X03364*
G37*
G36*
X03704Y02593D02*
X03704Y02593D01*
X03709Y02592*
X03712Y02592*
X03714Y02593*
X03723Y02591*
X03723Y02591*
X03729Y0259*
X03735Y02581*
Y02574*
X03662Y02501*
X03546*
X03541Y025*
X03536Y02497*
X03501Y02461*
X03497Y02461*
X0349Y02461*
X03489Y02462*
X03465Y02485*
X03461Y02488*
X03456Y02489*
X03194*
X03189Y02488*
X03185Y02485*
X0318Y02481*
X03179Y02481*
X03175Y02484*
X0317Y02485*
X03099*
X03095Y0249*
X03099Y02501*
X03101Y02501*
X03226*
X03231Y02502*
X03235Y02505*
X03268Y02537*
X03477*
X03482Y02538*
X03486Y02541*
X0352Y02575*
X03545*
X0355Y02576*
X03555Y02579*
X03567Y02592*
X0357Y02592*
X03571Y02592*
X03576Y02593*
X03581Y02593*
X03586Y02593*
X03591Y02592*
X03596Y02593*
X03601Y02593*
X03606Y02593*
X03612Y02589*
X03614Y02578*
X03601Y02565*
X03591Y02566*
X0359Y02567*
X03582Y02572*
X03573Y02574*
X03564Y02572*
X03557Y02567*
X03552Y0256*
X0355Y02551*
X03552Y02542*
X03557Y02534*
X03564Y02529*
X03573Y02527*
X03582Y02529*
X0359Y02534*
X03592Y02537*
X03606*
X03611Y02538*
X03615Y02541*
X0364Y02566*
X03643Y0257*
X03644Y02575*
Y02583*
X03647Y02587*
X03655Y02593*
X0366Y02593*
X03665Y02593*
X0367Y02592*
X03675Y02593*
X0368Y02593*
X03684Y02593*
X03689Y02592*
X03695Y02593*
X03699Y02593*
X03704Y02593*
G37*
G36*
X03509Y02745D02*
X03516Y02741D01*
X03517Y02738*
X0352Y02733*
X03521Y02731*
X03519Y02729*
X03518Y02724*
X03519Y02719*
X03521Y02716*
X0352Y02715*
X03517Y0271*
X03516Y02704*
X03507Y02698*
X03503*
X03498Y02697*
X03494Y02694*
X03485Y02685*
X03482Y02681*
X03481Y02676*
Y02669*
X03475Y02663*
X03464Y02666*
X03463Y0267*
X03467Y02673*
X03469Y02678*
X0347Y02683*
Y02709*
X03506Y02745*
X03509Y02745*
G37*
G36*
X03348Y01984D02*
X03346Y01984D01*
X03343Y01983*
X03338Y0198*
X03296Y01938*
X03294Y01935*
X03293Y01933*
X03292Y01931*
X03292Y01928*
Y01904*
X03285*
Y01837*
X0328Y01834*
X03275Y01838*
Y01904*
X03268*
Y01952*
X03268Y01954*
X03267Y01957*
X03266Y01959*
X03264Y01961*
X03241Y01984*
X03242Y01989*
X03245Y01994*
X03348*
X03348Y01984*
G37*
G36*
X04352Y0215D02*
Y02009D01*
X04326Y01982*
X04204*
X04199Y01981*
X04195Y01978*
X04152Y01936*
X04149Y01931*
X04148Y01926*
Y01904*
X04142*
Y01835*
X04137Y01833*
X04131Y01837*
Y01904*
X04125*
Y0195*
X04124Y01955*
X04121Y01959*
X04096Y01983*
X04095Y01984*
X04098Y01994*
X04212*
X04217Y01995*
X04221Y01998*
X04263Y0204*
X04281*
Y02093*
X04342Y02154*
X04352Y0215*
G37*
G36*
X01651Y01958D02*
X01653Y01948D01*
X01653Y01948*
X01652Y01946*
X01632Y01927*
X0163Y01925*
X01629Y01923*
X01629*
X01629Y01921*
X01628Y01918*
Y01904*
X01622*
Y01827*
X01628*
Y01802*
X01628Y01802*
X01603*
X01599Y01811*
X01601Y01812*
X01604Y01817*
X01605Y01822*
Y01827*
X01611*
Y01904*
X01605*
Y01923*
X0164Y01958*
X01651*
X01651*
G37*
G36*
X03181Y02038D02*
X03121D01*
X03151Y02068*
X03181Y02038*
G37*
G36*
X02324D02*
X02264D01*
X02294Y02068*
X02324Y02038*
G37*
G36*
X01732Y02725D02*
X01727Y02715D01*
X01686*
Y02693*
X01664*
X01662Y02696*
X01654Y02701*
X01645Y02703*
X01636Y02701*
X01629Y02696*
X01626Y02693*
X01594*
X01589Y02692*
X01585Y02689*
X01567Y02671*
X01564Y02667*
X01563Y02662*
Y02633*
X01547*
Y02561*
X01604*
Y02559*
X0163*
Y02597*
Y02635*
X01604*
Y02633*
X0159*
Y02656*
X01599Y02666*
X01626*
X01629Y02663*
X01636Y02658*
X01645Y02656*
X01654Y02658*
X01662Y02663*
X01664Y02666*
X01686*
Y02644*
X01685Y02635*
X01684*
Y02602*
X01716*
Y02597*
X01721*
Y02559*
X01748*
Y02561*
X01759*
X01763Y02556*
X01758Y02546*
X01471*
X01469Y0255*
X01467Y02556*
X01469Y0256*
X0147Y02565*
Y02634*
X01469Y0264*
X01467Y02643*
X01466Y02645*
X01461Y02648*
X01459Y02649*
X01455Y0265*
X01449Y02648*
X01442Y02647*
X01435Y02648*
X0143Y0265*
X01424Y02648*
X01417Y02647*
X0141Y02648*
X01404Y0265*
X01398Y02648*
X01391Y02647*
X01384Y02648*
X01378Y0265*
X01373Y02648*
X01366Y02647*
X01359Y02648*
X01353Y0265*
X01349Y02649*
X01347Y02648*
X01345Y02647*
X0134Y02645*
X0134*
X01335Y02647*
X01333Y02648*
X01331Y02649*
X01327Y0265*
X01321Y02648*
X01314Y02647*
X01307Y02648*
X01302Y0265*
X01298Y02649*
X01296Y02648*
X01296Y02648*
X01289Y02647*
X01283Y0265*
X01281Y02651*
Y026*
X01271*
Y02651*
X01269Y0265*
X01264Y02647*
X01256Y02648*
X01256Y02648*
X01255Y02649*
X0125Y0265*
X01245Y02648*
X01238Y02647*
X01231Y02648*
X01225Y0265*
X01224Y02649*
X01221Y0265*
X01214Y02654*
X01213Y02656*
Y02679*
X0126Y02726*
X01731*
X01732Y02725*
G37*
G36*
X04037Y02038D02*
X03977D01*
X04007Y02068*
X04037Y02038*
G37*
G36*
X03496Y0215D02*
Y02011D01*
X03469Y01984*
X03356*
X03356Y01994*
X03361Y01995*
X03365Y01998*
X03407Y0204*
X03425*
Y02093*
X03486Y02154*
X03496Y0215*
G37*
G36*
X01467Y02038D02*
X01407D01*
X01437Y02068*
X01467Y02038*
G37*
G36*
X02639Y0215D02*
Y02009D01*
X02612Y01982*
X0249*
X02485Y01981*
X02483Y0198*
X02481Y01978*
X02438Y01936*
X02437Y01934*
X02435Y01931*
X02435Y01928*
X02434Y01926*
Y01904*
X02428*
Y01835*
X02424Y01833*
X02418Y01837*
Y01904*
X02411*
Y0195*
X0241Y01955*
X02407Y01959*
X02383Y01983*
X02382Y01984*
X02385Y01994*
X02498*
X02503Y01995*
X02508Y01998*
X02549Y0204*
X02568*
Y02093*
X02629Y02154*
X02639Y0215*
G37*
G36*
X01783D02*
Y02011D01*
X01756Y01984*
X01642*
X01642Y01994*
X01647Y01995*
X01651Y01998*
X01693Y0204*
X01711*
Y02093*
X01773Y02154*
X01783Y0215*
G37*
G36*
X03245Y02809D02*
Y02743D01*
X03301*
Y02762*
X03394*
X03398Y02752*
X03385Y02738*
X03316*
X03311Y02737*
X03307Y02734*
X03264Y02691*
X03264Y02691*
X03257Y02686*
X03251Y02679*
X0325Y0267*
X03251Y02661*
X03257Y02653*
X03264Y02648*
X03273Y02646*
X03282Y02648*
X0329Y02653*
X03295Y02661*
X03297Y0267*
X03295Y02679*
X03292Y02682*
X03322Y02712*
X03349*
X0335Y0271*
X03349Y02697*
X03344Y0269*
X03342Y02681*
X03344Y02672*
X03349Y02664*
X03357Y02659*
X03366Y02657*
X03375Y02659*
X03382Y02664*
X03384Y02667*
X03386*
X03391Y02668*
X03396Y02671*
X03434Y02709*
X03444Y02705*
Y02692*
X03436Y02684*
X03427Y02683*
X03419Y02678*
X03414Y0267*
X03412Y02661*
X03414Y02652*
X03419Y02644*
X03427Y02639*
X03436Y02637*
X0344Y02628*
X03432Y0262*
X03272*
X0321Y02682*
X03205Y02685*
X032Y02686*
X03192*
Y02701*
X03126*
Y02645*
X03192*
Y02648*
X03202Y02652*
X03257Y02597*
X03261Y02595*
X03266Y02594*
X03266Y02584*
X03251*
X03246Y02583*
X03242Y0258*
X03208Y02546*
X03173*
X03169Y02554*
X03169Y02556*
X03171Y02559*
X03172Y02564*
Y02565*
X03192*
Y02621*
X03126*
Y02569*
X02974*
X02965Y02579*
X0296Y02582*
X02955Y02583*
X02904*
Y02599*
Y02615*
X02945*
X0295Y02616*
X02955Y02619*
X03008Y02672*
X03009Y02674*
X03018Y02677*
X03021Y02678*
X03022Y02677*
Y02642*
X0302*
Y02616*
X03095*
Y02642*
X03093*
Y02699*
X03064*
X03058Y02709*
X0306Y02712*
X03061Y02713*
X03128*
X03134Y02714*
X03138Y02717*
X03141Y02721*
X03142Y02726*
Y0279*
X03153Y02802*
X03163Y02798*
Y02781*
X03223*
Y02806*
Y02811*
X03231Y02816*
X03238*
X03245Y02809*
G37*
G36*
X03268Y02453D02*
X03268Y02452D01*
X03267Y02447*
Y02429*
X0326Y02426*
X03252Y0242*
X03246Y02411*
X03242Y02402*
X03241Y02392*
X03242Y02382*
X03246Y02372*
X03252Y02364*
X0326Y02358*
X03267Y02355*
Y02325*
X03247*
Y02269*
X03313*
Y02325*
X03293*
Y02355*
X033Y02358*
X03308Y02364*
X03314Y02372*
X03318Y02382*
X03319Y02392*
X03318Y02402*
X03314Y02411*
X03308Y0242*
X033Y02426*
X03293Y02429*
Y02441*
X03295Y02443*
X0344*
X03447Y02436*
Y02307*
X03438Y02303*
X03434Y02306*
X0343Y02309*
X03425Y0231*
X03413*
Y02325*
X03393*
Y02355*
X034Y02358*
X03408Y02364*
X03414Y02372*
X03418Y02382*
X03419Y02392*
X03418Y02402*
X03414Y02411*
X03408Y0242*
X034Y02426*
X0339Y0243*
X0338Y02431*
X0337Y0243*
X0336Y02426*
X03352Y0242*
X03346Y02411*
X03342Y02402*
X03341Y02392*
X03342Y02382*
X03346Y02372*
X03352Y02364*
X0336Y02358*
X03367Y02355*
Y02325*
X03347*
Y02269*
X03413*
X03423Y02274*
X03427Y02271*
Y0219*
X03422Y02186*
X03413Y02192*
Y02245*
X03347*
Y0223*
X03313*
Y02245*
X03247*
Y02238*
X03237Y02234*
X03215Y02256*
X03211Y02259*
X03205Y0226*
X03176*
Y02273*
X03164*
Y0229*
X03163Y02296*
X0316Y023*
X0312Y0234*
X03116Y02342*
X03111Y02343*
X03098*
X03096Y02347*
X03088Y02352*
X03079Y02354*
X03076Y02353*
X03069Y0236*
Y02381*
X03091*
Y0244*
Y02459*
X03164*
X03167Y02456*
Y02431*
X03141*
Y02353*
X03219*
Y02431*
X03193*
Y02456*
X032Y02463*
X03264*
X03268Y02453*
G37*
G36*
X04125D02*
X04124Y02452D01*
X04123Y02447*
Y02429*
X04117Y02426*
X04109Y0242*
X04102Y02411*
X04098Y02402*
X04097Y02392*
X04098Y02382*
X04102Y02372*
X04109Y02364*
X04117Y02358*
X04123Y02355*
Y02325*
X04103*
Y02269*
X04169*
Y02325*
X0415*
Y02355*
X04156Y02358*
X04164Y02364*
X0417Y02372*
X04174Y02382*
X04176Y02392*
X04174Y02402*
X0417Y02411*
X04164Y0242*
X04156Y02426*
X0415Y02429*
Y02441*
X04151Y02443*
X04297*
X04303Y02436*
Y02307*
X04294Y02303*
X04291Y02306*
X04286Y02309*
X04281Y0231*
X04269*
Y02325*
X0425*
Y02355*
X04256Y02358*
X04264Y02364*
X0427Y02372*
X04274Y02382*
X04276Y02392*
X04274Y02402*
X0427Y02411*
X04264Y0242*
X04256Y02426*
X04246Y0243*
X04236Y02431*
X04226Y0243*
X04217Y02426*
X04209Y0242*
X04202Y02411*
X04198Y02402*
X04197Y02392*
X04198Y02382*
X04202Y02372*
X04209Y02364*
X04217Y02358*
X04223Y02355*
Y02325*
X04203*
Y02269*
X04269*
X04279Y02274*
X04283Y02271*
Y0219*
X04278Y02186*
X04269Y02192*
Y02245*
X04203*
Y0223*
X04169*
Y02245*
X04103*
Y02238*
X04093Y02234*
X04071Y02256*
X04067Y02259*
X04062Y0226*
X04033*
Y02273*
X0402*
Y0229*
X04019Y02296*
X04016Y023*
X03976Y0234*
X03972Y02342*
X03967Y02343*
X03954*
X03952Y02347*
X03945Y02352*
X03936Y02354*
X03933Y02353*
X03925Y0236*
Y02381*
X03947*
Y0244*
Y02459*
X04021*
X04023Y02456*
Y02431*
X03997*
Y02353*
X04075*
Y02431*
X0405*
Y02456*
X04056Y02463*
X0412*
X04125Y02453*
G37*
G36*
X03418Y02806D02*
X03401Y02788D01*
X03308*
X03301Y02795*
Y02809*
X03308Y02816*
X03414*
X03418Y02806*
G37*
G36*
X03575Y02933D02*
X03583Y02925D01*
Y02755*
X03579Y02752*
X03568Y02753*
X03566Y02756*
X03565Y02758*
X03565Y02758*
X03541*
Y02768*
X03565*
X03565Y02769*
X03565Y02769*
X03563Y02779*
X03563Y0278*
X03564Y02783*
X03563Y02788*
Y02789*
X03563Y02793*
X03563Y02798*
X03564Y02803*
X03563Y02808*
X03563Y02812*
X03563Y02817*
X03564Y02822*
X03563Y02827*
X03563Y02832*
X03563Y02836*
Y02837*
X03564Y02842*
X03563Y02845*
X03563Y02846*
X03565Y02856*
X03565Y02856*
X03565Y02857*
X03541*
Y02867*
X03565*
X03565Y02868*
X03565Y02868*
X03563Y02877*
X03563Y02878*
X03564Y02881*
X03563Y02886*
Y02887*
X03563Y02891*
X03563Y02896*
X03564Y02901*
X03563Y02906*
X03563Y02911*
X03563Y02915*
Y02916*
X03564Y02921*
X03563Y02924*
X03563Y02925*
X0357Y02932*
X0357Y02933*
X03573Y02933*
X03575Y02933*
G37*
G36*
X03704Y02949D02*
D01*
X03713Y02946*
X03717Y02944*
X03719Y0294*
X03723Y02937*
X03735Y02924*
X0374Y02921*
X03745Y0292*
X03834*
Y02804*
Y02647*
Y02647*
X03831Y02642*
X03822Y02637*
X03817Y02637*
X03813Y02637*
X03808Y02638*
X03803Y02637*
X03798Y02637*
X03793Y02637*
X03788Y02638*
X03783Y02637*
X03778Y02637*
X03773Y02637*
X03768Y02638*
X03763Y02637*
X03758Y02637*
X03754Y02637*
X03754Y02637*
X03749Y02638*
X03744Y02637*
X03744Y02637*
X03735Y02638*
X03735Y02639*
X03734Y02639*
Y02615*
X03724*
Y02639*
X03723Y02639*
X03723Y02638*
X03714Y02637*
X03713Y02637*
X03709Y02638*
X03704Y02637*
X03704Y02637*
X03699Y02637*
X03695Y02637*
X03689Y02638*
X03684Y02637*
X0368Y02637*
X03675Y02637*
X0367Y02638*
X03665Y02637*
X0366Y02637*
X03655Y02637*
X0365Y02638*
X03645Y02637*
X0364Y02637*
X03635Y02637*
X0363Y02638*
X03625Y02637*
X03621Y02637*
X03616Y02637*
X03611Y02638*
X03606Y02637*
X03601Y02637*
X03596Y02637*
X03591Y02638*
X03586Y02637*
X03581Y02637*
X03576Y02637*
X03568Y02641*
X03564Y02645*
X03564Y02646*
X03563Y0265*
X03561Y02653*
X03561Y02654*
X03565Y02659*
X03565Y0266*
X03541*
Y0267*
X03565*
X03565Y02671*
X03561Y02676*
X03561Y02677*
X03563Y0268*
X03564Y02685*
X03563Y0269*
X03561Y02692*
X03561Y02693*
X03565Y02698*
X03565Y02699*
X03541*
Y02709*
X03569*
X0357Y02711*
X03575Y02712*
X0358Y02715*
X03605Y0274*
X03608Y02744*
X03609Y0275*
Y02931*
X03608Y02936*
X03606Y02939*
X03608Y02943*
X03616Y02949*
X03621Y02949*
X03625Y02949*
X0363Y02948*
X03635Y02949*
X0364Y02949*
X03645Y02949*
X0365Y02948*
X03655Y02949*
X0366Y02949*
X03665Y02949*
X0367Y02948*
X03675Y02949*
X0368Y02949*
X03684Y02949*
X03689Y02948*
X03695Y02949*
X03699Y02949*
X03704Y02949*
G37*
G36*
X02411Y02453D02*
X0241Y02452D01*
X02409Y02447*
Y02429*
X02403Y02426*
X02395Y0242*
X02389Y02411*
X02385Y02402*
X02383Y02392*
X02385Y02382*
X02389Y02372*
X02395Y02364*
X02403Y02358*
X02409Y02355*
Y02325*
X0239*
Y02269*
X02456*
Y02325*
X02436*
Y02355*
X02442Y02358*
X02451Y02364*
X02457Y02372*
X02461Y02382*
X02462Y02392*
X02461Y02402*
X02457Y02411*
X02451Y0242*
X02442Y02426*
X02436Y02429*
Y02441*
X02437Y02443*
X02583*
X02589Y02436*
Y02307*
X0258Y02303*
X02577Y02306*
X02573Y02309*
X02568Y0231*
X02556*
Y02325*
X02536*
Y02355*
X02542Y02358*
X02551Y02364*
X02557Y02372*
X02561Y02382*
X02562Y02392*
X02561Y02402*
X02557Y02411*
X02551Y0242*
X02542Y02426*
X02533Y0243*
X02523Y02431*
X02513Y0243*
X02503Y02426*
X02495Y0242*
X02489Y02411*
X02485Y02402*
X02483Y02392*
X02485Y02382*
X02489Y02372*
X02495Y02364*
X02503Y02358*
X02509Y02355*
Y02325*
X0249*
Y02269*
X02556*
X02566Y02274*
X02569Y02271*
Y0219*
X02565Y02186*
X02556Y02192*
Y02245*
X0249*
Y0223*
X02456*
Y02245*
X0239*
Y02238*
X0238Y02234*
X02358Y02256*
X02353Y02259*
X02348Y0226*
X02319*
Y02273*
X02306*
Y0229*
X02305Y02296*
X02303Y023*
X02263Y0234*
X02259Y02342*
X02253Y02343*
X02241*
X02239Y02347*
X02231Y02352*
X02222Y02354*
X02219Y02353*
X02212Y0236*
Y02381*
X02234*
Y0244*
Y02459*
X02307*
X02309Y02456*
Y02431*
X02284*
Y02353*
X02362*
Y02431*
X02336*
Y02456*
X02342Y02463*
X02406*
X02411Y02453*
G37*
G36*
X01555D02*
X01554Y02452D01*
X01553Y02447*
Y02429*
X01547Y02426*
X01539Y0242*
X01532Y02411*
X01528Y02402*
X01527Y02392*
X01528Y02382*
X01532Y02372*
X01539Y02364*
X01547Y02358*
X01553Y02355*
Y02325*
X01533*
Y02269*
X01599*
Y02325*
X0158*
Y02355*
X01586Y02358*
X01594Y02364*
X01601Y02372*
X01604Y02382*
X01606Y02392*
X01604Y02402*
X01601Y02411*
X01594Y0242*
X01586Y02426*
X0158Y02429*
Y02441*
X01581Y02443*
X01727*
X01733Y02436*
Y02307*
X01724Y02303*
X01721Y02306*
X01717Y02309*
X01711Y0231*
X01699*
Y02325*
X0168*
Y02355*
X01686Y02358*
X01694Y02364*
X01701Y02372*
X01704Y02382*
X01706Y02392*
X01704Y02402*
X01701Y02411*
X01694Y0242*
X01686Y02426*
X01677Y0243*
X01666Y02431*
X01656Y0243*
X01647Y02426*
X01639Y0242*
X01632Y02411*
X01628Y02402*
X01627Y02392*
X01628Y02382*
X01632Y02372*
X01639Y02364*
X01647Y02358*
X01653Y02355*
Y02325*
X01633*
Y02269*
X01699*
X01709Y02274*
X01713Y02271*
Y0219*
X01708Y02186*
X01699Y02192*
Y02245*
X01633*
Y0223*
X01599*
Y02245*
X01533*
Y02238*
X01523Y02234*
X01501Y02256*
X01497Y02259*
X01492Y0226*
X01463*
Y02273*
X0145*
Y0229*
X01449Y02296*
X01446Y023*
X01407Y0234*
X01402Y02342*
X01397Y02343*
X01384*
X01382Y02347*
X01375Y02352*
X01366Y02354*
X01363Y02353*
X01355Y0236*
Y02381*
X01378*
Y0244*
Y02459*
X01451*
X01453Y02456*
Y02431*
X01427*
Y02353*
X01505*
Y02431*
X0148*
Y02456*
X01486Y02463*
X0155*
X01555Y02453*
G37*
%LNboard_pcb-4*%
%LPC*%
G36*
X03818Y02717D02*
X03795D01*
Y02694*
X03818*
Y02717*
G37*
G36*
X03188Y02771D02*
X03163D01*
Y02741*
X03188*
Y02771*
G37*
G36*
X03714Y02788D02*
X0362D01*
Y02774*
X03648*
Y02764*
X0362*
Y02727*
X03648*
Y02722*
X03653*
Y02694*
X0369*
Y02722*
X037*
Y02694*
X03714*
Y02788*
G37*
G36*
X03818D02*
X03724D01*
Y02694*
X03738*
Y02722*
X03748*
Y02694*
X03785*
Y02722*
X0379*
Y02727*
X03818*
Y02764*
X0379*
Y02774*
X03818*
Y02788*
G37*
G36*
X03223Y02771D02*
X03198D01*
Y02741*
X03223*
Y02771*
G37*
G36*
X03643Y02891D02*
X0362D01*
Y02869*
X03643*
Y02891*
G37*
G36*
X03818D02*
X03795D01*
Y02869*
X03818*
Y02891*
G37*
G36*
X03714D02*
X037D01*
Y02864*
X0369*
Y02891*
X03653*
Y02864*
X03648*
Y02859*
X0362*
Y02821*
X03648*
Y02811*
X0362*
Y02798*
X03714*
Y02891*
G37*
G36*
X03785D02*
X03748D01*
Y02864*
X03738*
Y02891*
X03724*
Y02798*
X03818*
Y02811*
X0379*
Y02821*
X03818*
Y02859*
X0379*
Y02864*
X03785*
Y02891*
G37*
G36*
X03643Y02717D02*
X0362D01*
Y02694*
X03643*
Y02717*
G37*
G36*
X03053Y02606D02*
X0302D01*
Y02579*
X03053*
Y02606*
G37*
G36*
X03095D02*
X03063D01*
Y02579*
X03095*
Y02606*
G37*
G36*
X01667Y02592D02*
X0164D01*
Y02559*
X01667*
Y02592*
G37*
G36*
X01711D02*
X01684D01*
Y02559*
X01711*
Y02592*
G37*
G36*
X01667Y02635D02*
X0164D01*
Y02602*
X01667*
Y02635*
G37*
G36*
X01515Y02707D02*
X0151Y02706D01*
X01502Y02701*
X01497Y02692*
X01496Y02688*
X01515*
Y02707*
G37*
G36*
X01525D02*
Y02688D01*
X01545*
X01544Y02692*
X01538Y02701*
X0153Y02706*
X01525Y02707*
G37*
G36*
X01515Y02678D02*
X01496D01*
X01497Y02673*
X01502Y02665*
X0151Y02659*
X01515Y02658*
Y02678*
G37*
G36*
X01545D02*
X01525D01*
Y02658*
X0153Y02659*
X01538Y02665*
X01544Y02673*
X01545Y02678*
G37*
%LNboard_pcb-5*%
%LPD*%
G54D10*
X02806Y02724D03*
X02865D03*
X03889Y03069D03*
X03948D03*
X03217Y02925D03*
X03158D03*
X03316D03*
X03375D03*
X01545Y02789D03*
X01604D03*
X01576Y02597D03*
X01635D03*
X01775Y0268D03*
X01716D03*
X01775Y02597D03*
X01716D03*
G54D11*
X0278Y02628D03*
Y02569D03*
X03058Y0267D03*
Y02611D03*
X02869Y02628D03*
Y02569D03*
X02241Y02601D03*
Y0266D03*
X01342Y0247D03*
Y02411D03*
X01078Y01868D03*
Y01927D03*
X02198Y0247D03*
Y02411D03*
X01935Y01868D03*
Y01927D03*
X03912Y02411D03*
Y0247D03*
X03648Y01927D03*
Y01868D03*
X02792Y01927D03*
Y01868D03*
X03056Y02411D03*
Y0247D03*
X02242Y02796D03*
Y02737D03*
G54D12*
X02351Y02581D03*
Y02672D03*
Y02763D03*
G54D13*
X02599Y02672D03*
G54D14*
X03193Y02776D03*
X03273D03*
X01194Y02968D03*
X01114D03*
X01337Y01862D03*
X01417D03*
X01337Y01962D03*
X01417D03*
X02193Y0196D03*
X02273D03*
X02193Y0186D03*
X02273D03*
X0305Y01962D03*
X0313D03*
X0305Y01862D03*
X0313D03*
X03907Y0196D03*
X03987D03*
X03907Y0186D03*
X03987D03*
X01953Y02588D03*
X01873D03*
X03004Y03124D03*
X02924D03*
G54D15*
X03375Y03067D03*
X03158D03*
G54D16*
X01357Y0221D03*
X02213D03*
X0307D03*
X03927D03*
G54D17*
X01437Y02172D03*
Y02247D03*
X02293Y02172D03*
Y02247D03*
X0315D03*
Y02172D03*
X04007Y02247D03*
Y02172D03*
G54D18*
X01666Y02217D03*
Y02297D03*
X01566Y02217D03*
Y02297D03*
X02523Y02217D03*
Y02297D03*
X02423Y02217D03*
Y02297D03*
X04136D03*
Y02217D03*
X0338Y02297D03*
Y02217D03*
X04236Y02297D03*
Y02217D03*
X0328Y02297D03*
Y02217D03*
X03159Y02593D03*
Y02673D03*
G54D19*
X04111Y01866D03*
X04161D03*
X04211D03*
X04261D03*
Y02078D03*
X04211D03*
X04161D03*
X04111D03*
X03255Y01866D03*
X03305D03*
X03355D03*
X03405D03*
Y02078D03*
X03355D03*
X03305D03*
X03255D03*
X02398D03*
X02448D03*
X02498D03*
X02548D03*
Y01866D03*
X02498D03*
X02448D03*
X02398D03*
X01541Y02078D03*
X01591D03*
X01641D03*
X01691D03*
Y01866D03*
X01641D03*
X01591D03*
X01541D03*
G54D20*
X01123Y026D03*
X01148D03*
X01174D03*
X01199D03*
X01225D03*
X0125D03*
X01276D03*
X01302D03*
X01327D03*
X01353D03*
X01378D03*
X01404D03*
X0143D03*
X01455D03*
X01123Y02872D03*
X01148D03*
X01174D03*
X01199D03*
X01225D03*
X0125D03*
X01276D03*
X01302D03*
X01327D03*
X01353D03*
X01378D03*
X01404D03*
X0143D03*
X01455D03*
G54D21*
X03719Y02793D03*
G54D22*
X03571Y02971D03*
X03591D03*
X03611D03*
X0363D03*
X0365D03*
X0367D03*
X03689D03*
X03709D03*
X03729D03*
X03749D03*
X03768D03*
X03788D03*
X03808D03*
X03827D03*
X03847D03*
X03867D03*
Y02615D03*
X03847D03*
X03827D03*
X03808D03*
X03788D03*
X03768D03*
X03749D03*
X03729D03*
X03709D03*
X03689D03*
X0367D03*
X0365D03*
X0363D03*
X03611D03*
X03591D03*
X03571D03*
G54D23*
X03897Y0294D03*
Y02921D03*
Y02901D03*
Y02881D03*
Y02862D03*
Y02842D03*
Y02822D03*
Y02803D03*
Y02783D03*
Y02763D03*
Y02744D03*
Y02724D03*
Y02704D03*
Y02685D03*
Y02665D03*
Y02645D03*
X03541D03*
Y02665D03*
Y02685D03*
Y02704D03*
Y02724D03*
Y02744D03*
Y02763D03*
Y02783D03*
Y02803D03*
Y02822D03*
Y02842D03*
Y02862D03*
Y02881D03*
Y02901D03*
Y02921D03*
Y0294D03*
G54D24*
X03146Y02729D02*
X03193Y02776D01*
X03146Y02718D02*
Y02729D01*
X03136Y02708D02*
X03146Y02718D01*
X03131Y02708D02*
X03136D01*
X03107Y02684D02*
X03131Y02708D01*
X03107Y02633D02*
Y02684D01*
X03084Y02611D02*
X03107Y02633D01*
X03058Y02611D02*
X03084D01*
X03468Y02901D02*
X03541D01*
X03418Y02851D02*
X03468Y02901D01*
X03228Y02851D02*
X03418D01*
X03477Y02881D02*
X03541D01*
X03425Y02829D02*
X03477Y02881D01*
X03162Y02829D02*
X03425D01*
X03409Y02869D02*
X03461Y02921D01*
X03329Y02869D02*
X03409D01*
X03461Y02921D02*
X03541D01*
X03488Y02822D02*
X03541D01*
X0339Y02725D02*
X03488Y02822D01*
X03316Y02725D02*
X0339D01*
X03471Y0284D02*
X03474D01*
X03406Y02775D02*
X03471Y0284D01*
X03281Y02775D02*
X03406D01*
X03512Y02744D02*
X03541D01*
X03504Y02735D02*
X03512Y02744D01*
X03504Y02711D02*
Y02735D01*
X03457Y02715D02*
X03524Y02781D01*
X03457Y02683D02*
Y02715D01*
X03524Y02781D02*
X03539D01*
X03215Y02632D02*
X03259Y02589D01*
X03135Y02632D02*
X03215D01*
X03106Y02603D02*
X03135Y02632D01*
X03058Y02611D02*
X03065Y02603D01*
X03106*
X03259Y02589D02*
X03445D01*
X03521Y02665*
X03541*
X03531Y02645D02*
X03541D01*
X03456Y0257D02*
X03531Y02645D01*
X03251Y0257D02*
X03456D01*
X03495Y02664D02*
Y02676D01*
X03437Y02607D02*
X03495Y02664D01*
X03266Y02607D02*
X03437D01*
X03561Y0294D02*
X03569Y02933D01*
X03541Y0294D02*
X03561D01*
X03569Y02874D02*
Y02933D01*
X03556Y02862D02*
X03569Y02874D01*
X03596Y0275D02*
Y02931D01*
X03571Y02955D02*
X03596Y02931D01*
X03571Y02955D02*
Y02971D01*
X0357Y02724D02*
X03596Y0275D01*
X03541Y02862D02*
X03556D01*
X03511Y02704D02*
X03541D01*
X03504Y02711D02*
X03511Y02704D01*
X03541Y02744D02*
Y02763D01*
X03386Y02681D02*
X03508Y02803D01*
X03541*
X03366Y02681D02*
X03386D01*
X03436Y02661D02*
X03457Y02683D01*
X03474Y0284D02*
Y02842D01*
X03969Y02994D02*
X0397Y02995D01*
X03969Y02994D02*
X03969Y02994D01*
X0393Y02994D02*
X03969D01*
X03889Y03039D02*
Y03069D01*
Y03034D02*
Y03039D01*
Y03034D02*
X0393Y02994D01*
X03571Y02971D02*
Y03037D01*
X03875Y02724D02*
X03897D01*
X03867Y02732D02*
X03875Y02724D01*
X03867Y02732D02*
Y02971D01*
X03897Y02822D02*
X03955D01*
X03984Y0294D02*
X04013Y02911D01*
X03897Y0294D02*
X03984D01*
X03847Y02571D02*
X03875Y02544D01*
X03847Y02571D02*
Y02615D01*
X03541Y02724D02*
X0357D01*
X03847Y02941D02*
Y02971D01*
X03729Y02949D02*
Y02971D01*
Y02949D02*
X03745Y02934D01*
X03839*
X03847Y02941*
X01703Y03043D02*
X01723D01*
X01323Y03143D02*
X01423D01*
X02801Y03124D02*
X02924D01*
X03027Y02701D02*
Y02734D01*
X03035Y02726*
X02999Y02682D02*
Y02705D01*
X03019Y02726*
X03027Y02701D02*
X03058Y02671D01*
X02945Y02628D02*
X02999Y02682D01*
X02869Y02628D02*
X02945D01*
X03058Y02656D02*
Y02671D01*
X02806Y02724D02*
Y02783D01*
X02847Y02824*
X03474Y02842D02*
X03541D01*
X03217Y02862D02*
X03228Y02851D01*
X01953Y02703D02*
X01954Y02703D01*
X01953Y02588D02*
Y02703D01*
X02049Y02525D02*
X02096Y02572D01*
Y02598*
X01816Y02525D02*
X02049D01*
X01775Y02566D02*
X01816Y02525D01*
X01775Y02566D02*
Y0268D01*
X03867Y03016D02*
X03889Y03039D01*
Y03069D02*
X0389Y03068D01*
X03848Y0315D02*
X03989D01*
X03808Y0311D02*
X03848Y0315D01*
X03808Y02971D02*
Y0311D01*
X04394Y0198D02*
Y02498D01*
X04346Y02546D02*
X04394Y02498D01*
X04048Y02546D02*
X04346D01*
X03897Y02763D02*
X03945D01*
X03897Y02744D02*
X03921D01*
X03957Y02707*
Y02585D02*
Y02707D01*
Y02585D02*
X04026Y02516D01*
X04322*
X04366Y02473*
X04068Y02801D02*
X04129D01*
X03867Y02971D02*
Y03016D01*
X03749Y02568D02*
Y02615D01*
X03668Y02488D02*
X03749Y02568D01*
X03546Y02488D02*
X03668D01*
X03509Y02451D02*
X03546Y02488D01*
X03768Y02539D02*
Y02615D01*
X03692Y02463D02*
X03768Y02539D01*
X03566Y02463D02*
X03692D01*
X03538Y02435D02*
X03566Y02463D01*
X03273Y0267D02*
Y02682D01*
X03316Y02725*
X02652Y02473D02*
X02711Y02532D01*
X03545Y02589D02*
X03571Y02615D01*
X03515Y02589D02*
X03545D01*
X03477Y02551D02*
X03515Y02589D01*
X03262Y02551D02*
X03477D01*
X03226Y02514D02*
X03262Y02551D01*
X03213Y02532D02*
X03251Y0257D01*
X02711Y02532D02*
X03213D01*
X02723Y02514D02*
X03226D01*
X02681Y02472D02*
X02723Y02514D01*
X0315Y02556D02*
X03159Y02564D01*
X02969Y02556D02*
X0315D01*
X02955Y02569D02*
X02969Y02556D01*
X03159Y02564D02*
Y02593D01*
X03573Y02551D02*
X03606D01*
X0363Y02575*
Y02615*
X02165Y02548D02*
X02218Y02601D01*
X02241*
X0278Y02569D02*
X02955D01*
X02468D02*
X0278D01*
X03503Y02685D02*
X03541D01*
X03495Y02676D02*
X03503Y02685D01*
X032Y02673D02*
X03266Y02607D01*
X03159Y02673D02*
X032D01*
X03035Y02726D02*
X03128D01*
X03267Y02761D02*
X03281Y02775D01*
X03128Y02796D02*
X03162Y02829D01*
X03539Y02781D02*
X03541Y02783D01*
X03128Y02726D02*
Y02796D01*
X03217Y02862D02*
Y02925D01*
X03316Y02881D02*
X03329Y02869D01*
X03316Y02881D02*
Y02925D01*
X03217D02*
Y02997D01*
X03158Y03055D02*
X03217Y02997D01*
X03158Y03055D02*
Y03067D01*
X03316Y02925D02*
Y02993D01*
X03375Y03051*
Y03067*
X02705Y02628D02*
X0278D01*
Y02668*
X02806Y02693*
Y02724*
X02693Y0273D02*
X02716D01*
X02679Y02745D02*
X02693Y0273D01*
X02679Y02745D02*
Y02778D01*
X02658Y02799D02*
X02679Y02778D01*
X02437Y02799D02*
X02658D01*
X02388Y02848D02*
X02437Y02799D01*
X02388Y02848D02*
Y02891D01*
X02515Y02827D02*
X02713D01*
X02488Y02855D02*
X02515Y02827D01*
X02488Y02855D02*
Y02891D01*
X02457Y02581D02*
X02468Y02569D01*
X02242Y02845D02*
X02288Y02891D01*
X02242Y02796D02*
Y02845D01*
X02351Y02581D02*
X02457D01*
X02241Y02601D02*
X02287D01*
X02307Y02581*
X02351*
X02242Y02796D02*
X02296D01*
X02329Y02763*
X02351*
X01074Y02054D02*
Y02091D01*
Y02054D02*
X01187Y01942D01*
X01231Y0309D02*
Y03124D01*
X0125Y03143D02*
X01323D01*
X01116D02*
X01208D01*
X01227Y03124*
X01231*
X0125Y03142*
Y03143*
X01455Y02872D02*
Y02921D01*
X01473Y02938*
X01572*
X01723Y02788*
X01968*
X02022Y02842*
Y02892*
X0143Y02872D02*
Y02947D01*
X01451Y02969*
X01589*
X01743Y02815*
X01909*
X01922Y02829*
Y02892*
X01594Y0268D02*
X01645D01*
X01576Y02662D02*
X01594Y0268D01*
X01576Y02597D02*
Y02662D01*
X01718Y0294D02*
X01766Y02892D01*
X01822*
X01645Y0268D02*
X01716D01*
X01775D02*
Y02709D01*
X01745Y0274D02*
X01775Y02709D01*
X01254Y0274D02*
X01745D01*
X01404Y02804D02*
X01419Y02789D01*
X01545*
X01254Y0274D02*
X01327Y02812D01*
X01199Y02685D02*
X01254Y0274D01*
X01327Y02812D02*
Y02872D01*
X01199Y026D02*
Y02685D01*
X01404Y02804D02*
Y02872D01*
X01225Y02541D02*
Y026D01*
Y02541D02*
X01233Y02533D01*
X01766*
X01824Y02475*
Y01982D02*
Y02475D01*
X01123Y02536D02*
Y026D01*
Y02536D02*
X01148Y0251D01*
X0176*
X01796Y02475*
X01187Y01942D02*
X01267D01*
X01287Y01962*
X01337Y01862D02*
Y01962D01*
X01666Y01692D02*
Y0171D01*
X01665Y01485D02*
X01666Y01486D01*
X01466Y02392D02*
Y02462D01*
X01766Y02167D02*
Y02452D01*
X01691Y02092D02*
X01766Y02167D01*
X01691Y02078D02*
Y02092D01*
X01642Y02007D02*
X01691Y02057D01*
X01498Y02007D02*
X01642D01*
X01691Y02057D02*
Y02078D01*
X01437Y02069D02*
Y02172D01*
X01641Y02078D02*
Y02127D01*
X01661Y02147*
X01718*
X01746Y02175*
Y02442*
X01566Y02297D02*
Y02392D01*
X01666Y02297D02*
Y02392D01*
Y02297D02*
X01711D01*
X01726Y02282*
Y02183D02*
Y02282D01*
X0171Y02167D02*
X01726Y02183D01*
X01611Y02167D02*
X0171D01*
X01591Y02147D02*
X01611Y02167D01*
X01591Y02078D02*
Y02147D01*
X01541Y02078D02*
Y02147D01*
X01566Y02172*
Y02217*
X01666*
X01522D02*
X01566D01*
X01492Y02247D02*
X01522Y02217D01*
X01437Y02247D02*
X01492D01*
X01437D02*
Y0229D01*
X01366Y01707D02*
Y01736D01*
X01381Y01692D02*
X01466D01*
X01366Y01707D02*
X01381Y01692D01*
X01366Y0233D02*
X01397D01*
X01437Y0229*
X01187Y02142D02*
X01248D01*
X01316Y0221*
X01357*
X01193Y02043D02*
X01411D01*
X01437Y02069*
X01498Y02007*
X01135Y01942D02*
X01187D01*
X0112Y01927D02*
X01135Y01942D01*
X01078Y01927D02*
X0112D01*
X01153Y01842D02*
X01187D01*
X01125Y0187D02*
X01153Y01842D01*
X0108Y0187D02*
X01125D01*
X01078Y01868D02*
X0108Y0187D01*
X01342Y02354D02*
X01366Y0233D01*
X01566Y02392D02*
Y02447D01*
X01466Y02462D02*
X01481Y02476D01*
X01742*
X01766Y02452*
X01566Y02447D02*
X01576Y02456D01*
X01732*
X01746Y02442*
X01456Y02472D02*
X01466Y02462D01*
X01344Y02472D02*
X01456D01*
X01342Y02474D02*
X01344Y02472D01*
X02198Y02474D02*
X022Y02472D01*
X02313*
X02323Y02462*
X02589Y02456D02*
X02603Y02442D01*
X02432Y02456D02*
X02589D01*
X02423Y02447D02*
X02432Y02456D01*
X02599Y02476D02*
X02623Y02452D01*
X02337Y02476D02*
X02599D01*
X02323Y02462D02*
X02337Y02476D01*
X02423Y02392D02*
Y02447D01*
X02198Y02354D02*
X02222Y0233D01*
X01935Y01868D02*
X01937Y0187D01*
X01982*
X0201Y01842*
X02043*
X01935Y01927D02*
X01976D01*
X01991Y01942*
X02043*
X02293Y02069D02*
X02355Y02007D01*
X02267Y02043D02*
X02293Y02069D01*
X02049Y02043D02*
X02267D01*
X02172Y0221D02*
X02213D01*
X02104Y02142D02*
X02172Y0221D01*
X02043Y02142D02*
X02104D01*
X02253Y0233D02*
X02293Y0229D01*
X02222Y0233D02*
X02253D01*
X02223Y01707D02*
X02238Y01692D01*
X02323*
X02222Y01707D02*
Y01736D01*
X02293Y02247D02*
Y0229D01*
Y02247D02*
X02348D01*
X02378Y02217*
X02423*
X02523*
X02423Y02172D02*
Y02217D01*
X02398Y02147D02*
X02423Y02172D01*
X02398Y02078D02*
Y02147D01*
X02448Y02078D02*
Y02147D01*
X02468Y02167*
X02566*
X02583Y02183*
Y02282*
X02568Y02297D02*
X02583Y02282D01*
X02523Y02297D02*
X02568D01*
X02523D02*
Y02392D01*
X02423Y02297D02*
Y02392D01*
X02603Y02175D02*
Y02442D01*
X02574Y02147D02*
X02603Y02175D01*
X02518Y02147D02*
X02574D01*
X02498Y02127D02*
X02518Y02147D01*
X02498Y02078D02*
Y02127D01*
X02293Y02069D02*
Y02172D01*
X02548Y02057D02*
Y02078D01*
X02355Y02007D02*
X02498D01*
X02548Y02057*
Y02078D02*
Y02092D01*
X02623Y02167*
Y02452*
X02323Y02392D02*
Y02462D01*
X02521Y01485D02*
X02523Y01486D01*
Y01692D02*
Y0171D01*
X02123Y01942D02*
X02143Y01962D01*
X02043Y01942D02*
X02123D01*
X03757D02*
X03837D01*
X03857Y01962*
X04236Y01692D02*
Y0171D01*
X04235Y01485D02*
X04236Y01486D01*
X04036Y02392D02*
Y02462D01*
X04336Y02167D02*
Y02452D01*
X04261Y02092D02*
X04336Y02167D01*
X04261Y02078D02*
Y02092D01*
X04212Y02007D02*
X04261Y02057D01*
X04068Y02007D02*
X04212D01*
X04261Y02057D02*
Y02078D01*
X04007Y02069D02*
Y02172D01*
X04211Y02078D02*
Y02127D01*
X04231Y02147*
X04288*
X04316Y02175*
Y02442*
X04136Y02297D02*
Y02392D01*
X04236Y02297D02*
Y02392D01*
Y02297D02*
X04281D01*
X04296Y02282*
Y02183D02*
Y02282D01*
X0428Y02167D02*
X04296Y02183D01*
X04181Y02167D02*
X0428D01*
X04161Y02147D02*
X04181Y02167D01*
X04161Y02078D02*
Y02147D01*
X04111Y02078D02*
Y02147D01*
X04136Y02172*
Y02217*
X04236*
X04092D02*
X04136D01*
X04062Y02247D02*
X04092Y02217D01*
X04007Y02247D02*
X04062D01*
X04007D02*
Y0229D01*
X03936Y01707D02*
Y01736D01*
X03951Y01692D02*
X04036D01*
X03936Y01707D02*
X03951Y01692D01*
X03936Y0233D02*
X03967D01*
X04007Y0229*
X03757Y02142D02*
X03818D01*
X03886Y0221*
X03927*
X03763Y02043D02*
X03981D01*
X04007Y02069*
X04068Y02007*
X03705Y01942D02*
X03757D01*
X03689Y01927D02*
X03705Y01942D01*
X03648Y01927D02*
X03689D01*
X03723Y01842D02*
X03757D01*
X03695Y0187D02*
X03723Y01842D01*
X0365Y0187D02*
X03695D01*
X03648Y01868D02*
X0365Y0187D01*
X03912Y02354D02*
X03936Y0233D01*
X04136Y02392D02*
Y02447D01*
X04036Y02462D02*
X0405Y02476D01*
X04312*
X04336Y02452*
X04136Y02447D02*
X04145Y02456D01*
X04302*
X04316Y02442*
X04026Y02472D02*
X04036Y02462D01*
X03914Y02472D02*
X04026D01*
X03912Y02474D02*
X03914Y02472D01*
X03058D02*
X0317D01*
X0318Y02462*
X03446Y02456D02*
X0346Y02442D01*
X03289Y02456D02*
X03446D01*
X0328Y02447D02*
X03289Y02456D01*
X03456Y02476D02*
X0348Y02452D01*
X03194Y02476D02*
X03456D01*
X0318Y02462D02*
X03194Y02476D01*
X0328Y02392D02*
Y02447D01*
X03056Y02354D02*
X03079Y0233D01*
X02792Y01868D02*
X02794Y0187D01*
X02839*
X02867Y01842*
X029*
X02792Y01927D02*
X02833D01*
X02848Y01942*
X029*
X0315Y02069D02*
X03212Y02007D01*
X03124Y02043D02*
X0315Y02069D01*
X02907Y02043D02*
X03124D01*
X0303Y0221D02*
X0307D01*
X02962Y02142D02*
X0303Y0221D01*
X029Y02142D02*
X02962D01*
X03111Y0233D02*
X0315Y0229D01*
X03079Y0233D02*
X03111D01*
X0308Y01707D02*
X03095Y01692D01*
X0318*
X03079Y01707D02*
Y01736D01*
X0315Y02247D02*
Y0229D01*
Y02247D02*
X03205D01*
X03235Y02217*
X0328*
X0338*
X0328Y02172D02*
Y02217D01*
X03255Y02147D02*
X0328Y02172D01*
X03255Y02078D02*
Y02147D01*
X03305Y02078D02*
Y02147D01*
X03325Y02167*
X03423*
X0344Y02183*
Y02282*
X03425Y02297D02*
X0344Y02282D01*
X0338Y02297D02*
X03425D01*
X0338D02*
Y02392D01*
X0328Y02297D02*
Y02392D01*
X0346Y02175D02*
Y02442D01*
X03432Y02147D02*
X0346Y02175D01*
X03375Y02147D02*
X03432D01*
X03355Y02127D02*
X03375Y02147D01*
X03355Y02078D02*
Y02127D01*
X0315Y02069D02*
Y02172D01*
X03405Y02057D02*
Y02078D01*
X03212Y02007D02*
X03356D01*
X03405Y02057*
Y02078D02*
Y02092D01*
X0348Y02167*
Y02452*
X0318Y02392D02*
Y02462D01*
X03378Y01485D02*
X0338Y01486D01*
Y01692D02*
Y0171D01*
X0305Y01862D02*
Y01962D01*
X0298Y01942D02*
X03Y01962D01*
X029Y01942D02*
X0298D01*
X01337Y01962D02*
Y02008D01*
X01347Y02018*
X01449*
X01493Y01975*
X01517*
X01541Y01951*
Y01866D02*
Y01951D01*
X01417Y01962D02*
X01465D01*
X015Y01928*
Y01822D02*
Y01928D01*
Y01822D02*
X01513Y01809D01*
X01578*
X01591Y01822*
Y01866*
X01417Y01862D02*
X0149Y01789D01*
X01633*
X01641Y01797*
Y01866*
Y01918*
X01661Y01937*
X01591Y01866D02*
Y01928D01*
X01634Y01971*
X01661Y01937D02*
X01779D01*
X01824Y01982*
X01634Y01971D02*
X01761D01*
X01796Y02005*
Y02475*
X02681Y0198D02*
Y02472D01*
X02652Y02003D02*
Y02473D01*
X02618Y01969D02*
X02652Y02003D01*
X0249Y01969D02*
X02618D01*
X02636Y01935D02*
X02681Y0198D01*
X02517Y01935D02*
X02636D01*
X02448Y01926D02*
X0249Y01969D01*
X02498Y01916D02*
X02517Y01935D01*
X02489Y01787D02*
X02498Y01795D01*
X02346Y01787D02*
X02489D01*
X02273Y0186D02*
X02346Y01787D01*
X02435Y01807D02*
X02448Y0182D01*
X0237Y01807D02*
X02435D01*
X02356Y0182D02*
X0237Y01807D01*
X02356Y0182D02*
Y01926D01*
X02321Y0196D02*
X02356Y01926D01*
X02273Y0196D02*
X02321D01*
X02374Y01974D02*
X02398Y0195D01*
X02349Y01974D02*
X02374D01*
X02306Y02017D02*
X02349Y01974D01*
X02203Y02017D02*
X02306D01*
X02193Y02007D02*
X02203Y02017D01*
X0305Y01963D02*
Y02009D01*
X03061Y02019*
X03163*
X03206Y01976*
X03231*
X03255Y01952*
Y01866D02*
Y01952D01*
X0313Y01962D02*
X03179D01*
X03213Y01928*
Y01822D02*
Y01928D01*
Y01822D02*
X03227Y01809D01*
X03292*
X03305Y01822*
Y01866*
X0313Y01862D02*
X03204Y01789D01*
X03347*
X03355Y01797*
Y01866*
Y01918*
X03375Y01937*
X03305Y01866D02*
Y01928D01*
X03348Y01971*
X03375Y01937D02*
X03493D01*
X03538Y01982*
X03348Y01971D02*
X03475D01*
X03509Y02005*
Y02451*
X03538Y01982D02*
Y02435D01*
X03907Y02007D02*
X03917Y02017D01*
X04019*
X04062Y01974*
X04087*
X04111Y0195*
X03987Y0196D02*
X04035D01*
X04069Y01926*
Y0182D02*
Y01926D01*
Y0182D02*
X04083Y01807D01*
X04148*
X04161Y0182*
X03987Y0186D02*
X0406Y01787D01*
X04203*
X04211Y01795*
Y01916D02*
X04231Y01935D01*
X04161Y01926D02*
X04204Y01969D01*
X04231Y01935D02*
X04349D01*
X04394Y0198*
X04204Y01969D02*
X04331D01*
X04366Y02003*
Y02473*
X04161Y0182D02*
Y01926D01*
X02448Y0182D02*
Y01926D01*
X04211Y01795D02*
Y01916D01*
X02498Y01795D02*
Y01916D01*
X03912Y02354D02*
Y02415D01*
X03936Y01707D02*
X03936D01*
X03757Y02049D02*
X03763Y02043D01*
X03056Y02354D02*
Y02415D01*
X03079Y01707D02*
X0308D01*
X03056Y02474D02*
X03058Y02472D01*
X029Y02049D02*
X02907Y02043D01*
X02198Y02354D02*
Y02415D01*
X02222Y01707D02*
X02223D01*
X02043Y02049D02*
X02049Y02043D01*
X01342Y02354D02*
Y02415D01*
X01366Y01707D02*
X01366D01*
X01187Y02049D02*
X01193Y02043D01*
X03907Y01961D02*
Y02007D01*
X03857Y01962D02*
X03907D01*
X03D02*
X0305D01*
X04111Y01865D02*
Y0195D01*
X03907Y01862D02*
Y01962D01*
X02398Y01865D02*
Y0195D01*
X02193Y01961D02*
Y02007D01*
X02143Y01962D02*
X02193D01*
X01287D02*
X01337D01*
X02193Y01862D02*
Y01962D01*
X03981Y02613D02*
X04048Y02546D01*
X03981Y02613D02*
Y02728D01*
X03945Y02763D02*
X03981Y02728D01*
X04013Y02762D02*
Y02911D01*
Y02762D02*
X04074Y02701D01*
X04129*
X04053Y02816D02*
X04068Y02801D01*
X04053Y02816D02*
Y03086D01*
X03989Y0315D02*
X04053Y03086D01*
X03729Y02615D02*
Y02708D01*
X03743Y02722*
X03847Y02647D02*
Y02804D01*
Y02941*
Y02615D02*
Y02647D01*
X01113Y02968D02*
Y03009D01*
X01148Y03044*
X03897Y02921D02*
X03938D01*
X03827Y02971D02*
Y03005D01*
G54D25*
X01566Y01485D02*
Y01692D01*
X01666Y01486D02*
Y01692D01*
X02523Y01486D02*
Y01692D01*
X02423Y01485D02*
Y01692D01*
X04136Y01485D02*
Y01692D01*
X04236Y01486D02*
Y01692D01*
X0338Y01486D02*
Y01692D01*
X0328Y01485D02*
Y01692D01*
G54D26*
X01322Y0304D03*
X02288Y02891D03*
X01466Y02392D03*
X02323D03*
X04036D03*
X0318D03*
X01822Y02892D03*
G54D27*
X01322Y0314D03*
X01422Y0304D03*
Y0314D03*
X01522Y0304D03*
Y0314D03*
X01622Y0304D03*
Y0314D03*
X01722Y0304D03*
Y0314D03*
X01822Y0304D03*
Y0314D03*
X01922Y0304D03*
Y0314D03*
X02022Y0304D03*
Y0314D03*
X02122Y0304D03*
Y0314D03*
X02222Y0304D03*
Y0314D03*
X02322Y0304D03*
Y0314D03*
X02422Y0304D03*
Y0314D03*
X02522Y0304D03*
Y0314D03*
X02588Y02891D03*
X02488D03*
X02388D03*
X04129Y02701D03*
Y02801D03*
Y02901D03*
X01466Y01692D03*
X01566D03*
X01666D03*
X01665Y01485D03*
X01566Y02392D03*
X01666D03*
X01187Y01942D03*
Y02042D03*
Y02142D03*
X02043Y01942D03*
Y02042D03*
Y02142D03*
X02521Y01485D03*
X02323Y01692D03*
X02423D03*
X02523D03*
X02423Y02392D03*
X02523D03*
X029Y02142D03*
Y02042D03*
Y01942D03*
X03757Y02142D03*
Y02042D03*
Y01942D03*
X0338Y01692D03*
X0328D03*
X0318D03*
X04236D03*
X04136D03*
X04036D03*
X04236Y02392D03*
X04136D03*
X04235Y01485D03*
X03378D03*
X0338Y02392D03*
X0328D03*
X02122Y02892D03*
X02022D03*
X01922D03*
G54D28*
X02847Y02824D03*
X03027Y02734D03*
X02096Y02598D03*
G54D29*
X02847Y03021D03*
X03027Y02931D03*
X02096Y02795D03*
G54D30*
X04129Y03001D03*
X01566Y01485D03*
X01187Y01842D03*
X02043D03*
X02423Y01485D03*
X029Y01842D03*
X03757D03*
X04136Y01485D03*
X0328D03*
G54D31*
X01366Y01284D03*
X01767D03*
X02222D03*
X02624D03*
X04337D03*
X03936D03*
X03481D03*
X03079D03*
G54D32*
X01148Y03044D03*
Y03144D03*
X028Y03125D03*
X027D03*
X01954Y02703D03*
X01854D03*
G54D33*
X0152Y02683D03*
X01521Y02876D03*
X03466Y02991D03*
X03366Y02681D03*
X03436Y02661D03*
X03969Y02994D03*
X03571Y03037D03*
X03956Y02823D03*
X03875Y02542D03*
X03273Y0267D03*
X03573Y02551D03*
X02165Y02548D03*
X02705Y02628D03*
X02716Y0273D03*
X02713Y02827D03*
X01074Y02091D03*
X01231Y0309D03*
X01718Y0294D03*
X01645Y0268D03*
X01366Y01736D03*
Y0233D03*
X02222D03*
Y01736D03*
X03936D03*
Y0233D03*
X03079D03*
Y01736D03*
X0379Y02722D03*
X03743D03*
X03695D03*
X03648D03*
X0379Y02769D03*
X03743D03*
X03695D03*
X03648D03*
X0379Y02816D03*
X03743D03*
X03695D03*
X03648D03*
X0379Y02864D03*
X03743D03*
X03695D03*
X03648D03*
M02*